<?xml version="1.0" encoding="UTF-8"?>
<svg width="456px" height="186px" viewBox="0 0 456 186" version="1.1" xmlns="http://www.w3.org/2000/svg" xmlns:xlink="http://www.w3.org/1999/xlink">
    <title>seascape/ripples/left</title>
    <g id="seascape/ripples/left" stroke="none" stroke-width="1" fill="none" fill-rule="evenodd">
        <path d="M-152,112 C-145.608096,121.157397 -131.05799,124.145489 -111.96815,124.463259 C-83.314287,124.942548 -44.4790127,119.375426 -7.62646569,119.457941 C17.5747104,119.514122 41.8391994,122.266959 61.3720605,131.113608 C74.6363908,137.160018 84.6691944,145.727521 92.6814177,155.889141 C100.784769,166.164878 106.828985,178.073356 112.060063,190.637915 C117.035282,202.590284 121.290242,215.1336 125.967544,227.394785 C126.338714,228.367618 126.712528,229.33873 127.089617,230.307655 L127.657786,231.759344 C136.600046,254.474942 147.525121,275.854064 168.620541,289.849249 C187.576845,302.514757 221.620031,311.837535 257.745134,318.767732 C324.773025,331.626009 399,336 399,336 C399,336 324.56974,333.284558 257.222903,321.642234 C220.368779,315.271032 185.659659,306.144183 166.179372,293.580151 C142.728022,278.34562 130.867408,254.476697 121.107987,229.269453 C116.386874,217.073402 112.1582,204.569763 107.242565,192.640393 C102.235801,180.488057 96.5368182,168.926493 88.8032353,158.928147 C81.3237582,149.258104 71.9586398,141.041728 59.4934289,135.186683 C40.573927,126.245229 16.9227972,123.339652 -7.66572068,122.814717 C-44.4769097,122.029948 -83.3887664,126.67536 -111.998292,125.532441 C-131.212381,124.765228 -145.790176,121.378607 -152,112 Z M-114,50 C-107.724669,58.9824645 -93.743235,64.6004538 -75.3957439,68.7178555 C-51.4213154,74.0989098 -20.0098082,76.8736805 11.418513,81.1929156 C42.253087,85.4314173 73.0771521,91.1915675 97.0144496,102.023879 C115.392591,110.420149 129.080305,120.062521 140.508626,130.477126 C152.900254,141.767511 162.652421,153.931924 172.935283,166.317475 C186.565198,182.733552 201.128645,199.571373 224.54926,215.112546 C243.433576,227.738016 276.982923,236.50759 312.532446,242.75372 C378.774674,254.392839 452,257 452,257 L451.912559,256.998856 C449.066651,256.960359 377.266731,255.895989 312.045538,245.701716 C275.742885,240.02774 241.503459,231.436306 222.069183,218.902275 C198.032052,203.2823 182.90113,186.353215 168.934933,169.666155 C158.750153,157.498232 149.192399,145.474226 137.042473,134.275104 C126.001226,124.09919 112.837201,114.567387 95.0720729,106.239565 C71.6374464,95.1510126 41.2950346,89.0925 10.9596287,84.3029053 C-20.4145722,79.3465786 -51.7864962,75.7802699 -75.6540853,69.811266 C-94.0057798,65.2217497 -107.919608,59.1948284 -114,50 Z M-65,-17 C-57.4342576,-4.37201062 -37.8696712,7.54138518 -12.8346652,18.9258416 C6.88700454,27.8940166 30.0026166,36.5103773 53.3305619,44.8804449 L56.9207227,46.1662187 C81.6273702,54.9988055 106.376093,63.5739283 127.457299,71.8425466 C153.008376,82.0000007 169.810204,93.7545366 185.479052,106.057115 L186.747167,107.055802 C187.591122,107.722366 188.432368,108.390448 189.272108,109.059884 L191.15949,110.568326 C191.369029,110.736169 191.578531,110.904088 191.788013,111.072082 L193.044833,112.080915 C193.254315,112.249195 193.463816,112.417544 193.673354,112.58596 L194.931183,113.59723 C206.328182,122.762593 217.947828,132.108356 232.984294,141.152869 C249.221643,150.922484 269.422786,160.364577 297.602354,168.922185 C318.371505,175.229174 343.439295,181.060818 374.39755,186.231814 C406.639085,191.617537 445.237415,196.320544 492,200 C445.114697,197.357405 406.369105,193.574438 373.989074,188.832724 C342.75558,184.258625 317.438848,178.822809 296.454064,172.808664 C267.681943,164.564566 247.009213,155.234566 230.41598,145.459696 C215.065707,136.415184 203.195366,127.002865 191.635327,117.683374 L191.635327,117.683374 L190.387899,116.67705 L190.387899,116.67705 L189.141981,115.671551 C188.934401,115.504045 188.726846,115.33658 188.519294,115.169158 L186.650915,113.663626 C186.443212,113.496494 186.235454,113.329415 186.027623,113.162392 L184.779586,112.160951 C168.747673,99.3183849 152.043639,86.8444141 125.725221,76.1458712 C104.822833,67.5357192 80.2389033,58.6260684 55.7549013,49.3223403 C31.3322584,40.0413811 7.00778987,30.3873621 -13.5434496,20.4320928 C-38.4091046,8.38733787 -57.7308846,-4.12155258 -65,-17 Z" id="shadows" fill-opacity="0.07" fill="#19464C"></path>
        <path d="M-133,104 C-126.608096,113.157397 -112.05799,116.145489 -92.9681495,116.463259 C-64.314287,116.942548 -25.4790127,111.375426 11.3735343,111.457941 C36.5747104,111.514122 60.8391994,114.266959 80.3720605,123.113608 C93.6363908,129.160018 103.669194,137.727521 111.681418,147.889141 C119.784769,158.164878 125.828985,170.073356 131.060063,182.637915 C136.035282,194.590284 140.290242,207.1336 144.967544,219.394785 C145.338714,220.367618 145.712528,221.33873 146.089617,222.307655 L146.657786,223.759344 C155.600046,246.474942 166.525121,267.854064 187.620541,281.849249 C206.576845,294.514757 240.620031,303.837535 276.745134,310.767732 C343.773025,323.626009 418,328 418,328 C418,328 343.56974,325.284558 276.222903,313.642234 C239.368779,307.271032 204.659659,298.144183 185.179372,285.580151 C161.728022,270.34562 149.867408,246.476697 140.107987,221.269453 C135.386874,209.073402 131.1582,196.569763 126.242565,184.640393 C121.235801,172.488057 115.536818,160.926493 107.803235,150.928147 C100.323758,141.258104 90.9586398,133.041728 78.4934289,127.186683 C59.573927,118.245229 35.9227972,115.339652 11.3342793,114.814717 C-25.4769097,114.029948 -64.3887664,118.67536 -92.9982918,117.532441 C-112.212381,116.765228 -126.790176,113.378607 -133,104 Z M-95,42 C-88.7246694,50.9824645 -74.743235,56.6004538 -56.3957439,60.7178555 C-32.4213154,66.0989098 -1.00980821,68.8736805 30.418513,73.1929156 C61.253087,77.4314173 92.0771521,83.1915675 116.01445,94.0238792 C134.392591,102.420149 148.080305,112.062521 159.508626,122.477126 C171.900254,133.767511 181.652421,145.931924 191.935283,158.317475 C205.565198,174.733552 220.128645,191.571373 243.54926,207.112546 C262.433576,219.738016 295.982923,228.50759 331.532446,234.75372 C397.774674,246.392839 471,249 471,249 L470.912559,248.998856 C468.066651,248.960359 396.266731,247.895989 331.045538,237.701716 C294.742885,232.02774 260.503459,223.436306 241.069183,210.902275 C217.032052,195.2823 201.90113,178.353215 187.934933,161.666155 C177.750153,149.498232 168.192399,137.474226 156.042473,126.275104 C145.001226,116.09919 131.837201,106.567387 114.072073,98.2395649 C90.6374464,87.1510126 60.2950346,81.0925 29.9596287,76.3029053 C-1.4145722,71.3465786 -32.7864962,67.7802699 -56.6540853,61.811266 C-75.0057798,57.2217497 -88.9196077,51.1948284 -95,42 Z M-46,-25 C-38.4342576,-12.3720106 -18.8696712,-0.458614817 6.16533478,10.9258416 C25.8870045,19.8940166 49.0026166,28.5103773 72.3305619,36.8804449 L75.9207227,38.1662187 C100.62737,46.9988055 125.376093,55.5739283 146.457299,63.8425466 C172.008376,74.0000007 188.810204,85.7545366 204.479052,98.057115 L205.747167,99.0558016 C206.591122,99.7223657 207.432368,100.390448 208.272108,101.059884 L210.15949,102.568326 C210.369029,102.736169 210.578531,102.904088 210.788013,103.072082 L212.044833,104.080915 C212.254315,104.249195 212.463816,104.417544 212.673354,104.58596 L213.931183,105.59723 C225.328182,114.762593 236.947828,124.108356 251.984294,133.152869 C268.221643,142.922484 288.422786,152.364577 316.602354,160.922185 C337.371505,167.229174 362.439295,173.060818 393.39755,178.231814 C425.639085,183.617537 464.237415,188.320544 511,192 C464.114697,189.357405 425.369105,185.574438 392.989074,180.832724 C361.75558,176.258625 336.438848,170.822809 315.454064,164.808664 C286.681943,156.564566 266.009213,147.234566 249.41598,137.459696 C234.065707,128.415184 222.195366,119.002865 210.635327,109.683374 L210.635327,109.683374 L209.387899,108.67705 L209.387899,108.67705 L208.141981,107.671551 C207.934401,107.504045 207.726846,107.33658 207.519294,107.169158 L205.650915,105.663626 C205.443212,105.496494 205.235454,105.329415 205.027623,105.162392 L203.779586,104.160951 C187.747673,91.3183849 171.043639,78.8444141 144.725221,68.1458712 C123.822833,59.5357192 99.2389033,50.6260684 74.7549013,41.3223403 C50.3322584,32.0413811 26.0077899,22.3873621 5.45655045,12.4320928 C-19.4091046,0.387337869 -38.7308846,-12.1215526 -46,-25 Z" id="highlights" fill="#FFFFFF"></path>
    </g>
</svg>