<?xml version="1.0" encoding="UTF-8"?>
<svg width="456px" height="186px" viewBox="0 0 456 186" version="1.1" xmlns="http://www.w3.org/2000/svg" xmlns:xlink="http://www.w3.org/1999/xlink">
    <title>seascape/ripples/right</title>
    <g id="seascape/ripples/right" stroke="none" stroke-width="1" fill="none" fill-rule="evenodd">
        <path d="M400.204729,118.846513 C420.302304,84.7604102 440.788767,59.0581501 507,70.9482429 C441.785016,61.4080835 422.484876,86.9370059 403.748404,120.884878 C394.294962,138.014598 384.952943,157.206819 370.116261,175.08255 C357.942797,189.749338 342.116421,203.577961 319.600319,214.548925 C308.484278,219.965621 295.718745,224.663293 280.967269,228.402562 C263.722985,232.773307 243.741201,235.828878 220.46262,237.203074 C206.469254,238.029171 191.278641,238.233227 174.766251,237.720235 C144.284527,236.773459 109.310944,233.375162 69,227.185687 C109.413627,231.873705 144.400319,233.853486 174.823055,233.804556 C191.202175,233.778446 206.246409,233.153991 220.097765,232.005793 C242.932841,230.112682 262.486413,226.733473 279.378951,222.23832 C293.632302,218.445295 305.967438,213.8457 316.76669,208.646226 C338.443845,198.207782 353.850748,185.271738 365.814475,171.411738 C380.764765,154.091127 390.419204,135.443056 400.204729,118.846513 Z M427.361918,43.5323026 C454.473915,34.5138603 489.20849,31.0896056 538,36.7886842 C489.451833,32.6629709 455.149139,37.1426914 428.521637,46.8429253 C401.666137,56.6283831 382.724789,71.8004317 364.855468,88.8714448 C356.961047,96.4126719 349.268317,104.310091 341.218244,112.279623 C334.343236,119.088799 327.213923,125.956975 319.453231,132.663444 C312.179227,138.95035 304.359344,145.108327 295.710777,150.966927 C282.133952,160.160188 266.52707,168.645434 247.831258,175.828283 C237.424477,179.828127 226.050899,183.408408 213.528563,186.471225 C199.355436,189.93831 183.709093,192.75529 166.311114,194.7244 C135.292464,198.234971 98.7163691,199.067981 55,196.519129 C98.6330622,197.53089 135.018428,195.313319 165.809081,190.856544 C182.930832,188.378057 198.309716,185.205322 212.228538,181.446727 C224.435185,178.151182 235.506227,174.403514 245.649933,170.31932 C263.749444,163.031579 278.834562,154.594408 292.018968,145.578151 C300.432961,139.822256 308.079653,133.843468 315.226504,127.766345 C322.934581,121.208471 330.07924,114.556633 336.967402,107.946313 C345.170935,100.077302 353.023702,92.2825881 361.106659,84.8877713 C379.77178,67.8080174 399.594427,52.7648973 427.361918,43.5323026 Z M420.931108,18.8125402 C460.464686,6.67221131 501.482714,0.0600285349 547,2.5035176 C501.63575,1.27626475 461.015616,9.02316066 421.949891,22.0448202 C390.323903,32.5877374 359.740747,46.6207237 328.506094,62.2224786 C313.569778,69.682942 298.489171,77.5003444 283.063139,85.4367264 C268.223017,93.0712526 253.076823,100.831369 237.449659,108.505555 C226.601591,113.833198 215.519596,119.110165 204.155578,124.281372 C179.101395,135.676977 152.70268,146.623103 124.410691,156.427906 C91.6740994,167.77063 56.4036679,177.569484 17.7708164,184.882104 C-5.23268449,189.236539 -29.4298664,192.652796 -55,195 C-29.5479227,191.869954 -5.51470802,187.657414 17.3270119,182.662033 C55.5597836,174.299087 90.3711069,163.586513 122.71855,151.629061 C150.645439,141.304273 176.714033,130.034258 201.508055,118.449167 C212.771506,113.18542 223.779169,107.8732 234.583512,102.571996 C250.186628,94.9198436 265.361243,87.2809106 280.249463,79.8138372 C295.782619,72.0228748 311.014076,64.4368217 326.105614,57.2319441 C357.801562,42.1039045 388.87662,28.6547996 420.931108,18.8125402 Z" id="highlights" fill="#FFFFFF"></path>
        <path d="M420.204729,127.846513 C440.302304,93.7604102 460.788767,68.0581501 527,79.9482429 C461.785016,70.4080835 442.484876,95.9370059 423.748404,129.884878 C414.294962,147.014598 404.952943,166.206819 390.116261,184.08255 C377.942797,198.749338 362.116421,212.577961 339.600319,223.548925 C328.484278,228.965621 315.718745,233.663293 300.967269,237.402562 C283.722985,241.773307 263.741201,244.828878 240.46262,246.203074 C226.469254,247.029171 211.278641,247.233227 194.766251,246.720235 C164.284527,245.773459 129.310944,242.375162 89,236.185687 C129.413627,240.873705 164.400319,242.853486 194.823055,242.804556 C211.202175,242.778446 226.246409,242.153991 240.097765,241.005793 C262.932841,239.112682 282.486413,235.733473 299.378951,231.23832 C313.632302,227.445295 325.967438,222.8457 336.76669,217.646226 C358.443845,207.207782 373.850748,194.271738 385.814475,180.411738 C400.764765,163.091127 410.419204,144.443056 420.204729,127.846513 Z M447.361918,52.5323026 C474.473915,43.5138603 509.20849,40.0896056 558,45.7886842 C509.451833,41.6629709 475.149139,46.1426914 448.521637,55.8429253 C421.666137,65.6283831 402.724789,80.8004317 384.855468,97.8714448 C376.961047,105.412672 369.268317,113.310091 361.218244,121.279623 C354.343236,128.088799 347.213923,134.956975 339.453231,141.663444 C332.179227,147.95035 324.359344,154.108327 315.710777,159.966927 C302.133952,169.160188 286.52707,177.645434 267.831258,184.828283 C257.424477,188.828127 246.050899,192.408408 233.528563,195.471225 C219.355436,198.93831 203.709093,201.75529 186.311114,203.7244 C155.292464,207.234971 118.716369,208.067981 75,205.519129 C118.633062,206.53089 155.018428,204.313319 185.809081,199.856544 C202.930832,197.378057 218.309716,194.205322 232.228538,190.446727 C244.435185,187.151182 255.506227,183.403514 265.649933,179.31932 C283.749444,172.031579 298.834562,163.594408 312.018968,154.578151 C320.432961,148.822256 328.079653,142.843468 335.226504,136.766345 C342.934581,130.208471 350.07924,123.556633 356.967402,116.946313 C365.170935,109.077302 373.023702,101.282588 381.106659,93.8877713 C399.77178,76.8080174 419.594427,61.7648973 447.361918,52.5323026 Z M440.931108,27.8125402 C480.464686,15.6722113 521.482714,9.06002853 567,11.5035176 C521.63575,10.2762648 481.015616,18.0231607 441.949891,31.0448202 C410.323903,41.5877374 379.740747,55.6207237 348.506094,71.2224786 C333.569778,78.682942 318.489171,86.5003444 303.063139,94.4367264 C288.223017,102.071253 273.076823,109.831369 257.449659,117.505555 C246.601591,122.833198 235.519596,128.110165 224.155578,133.281372 C199.101395,144.676977 172.70268,155.623103 144.410691,165.427906 C111.674099,176.77063 76.4036679,186.569484 37.7708164,193.882104 C14.7673155,198.236539 -9.42986636,201.652796 -35,204 C-9.54792272,200.869954 14.485292,196.657414 37.3270119,191.662033 C75.5597836,183.299087 110.371107,172.586513 142.71855,160.629061 C170.645439,150.304273 196.714033,139.034258 221.508055,127.449167 C232.771506,122.18542 243.779169,116.8732 254.583512,111.571996 C270.186628,103.919844 285.361243,96.2809106 300.249463,88.8138372 C315.782619,81.0228748 331.014076,73.4368217 346.105614,66.2319441 C377.801562,51.1039045 408.87662,37.6547996 440.931108,27.8125402 Z" id="highlights-copy" fill-opacity="0.07" fill="#19464C"></path>
    </g>
</svg>