<svg width="1024" height="151" xmlns="http://www.w3.org/2000/svg"><defs><linearGradient x1="9.887%" y1="45.782%" x2="9.887%" y2="-1.585%" id="a"><stop stop-color="#F0F3F3" offset="0%"/><stop stop-color="#9FB9BB" offset="100%"/></linearGradient><linearGradient x1="-1315.767%" y1="79.712%" x2="-1315.767%" y2="-21.087%" id="b"><stop stop-color="#FFEFEC" offset="0%"/><stop stop-color="#FFCCC2" offset="100%"/></linearGradient></defs><g fill="none" fill-rule="evenodd"><path d="M149.503 78.865l17.527-1.427 2.915-2.095 5.692-.25c3.616-1.27 5.726-3.009 7.232-4.194 6.224-4.903 9.754-11.432 12.471-12.029 4.221 1.098 8.883.838 12.09.512 3.982-4.536 8.315-8.885 13.12-12.984 4.318 4.024 8.33 17.246 19.96 28.672l4.531-.935c.922-1.13 1.815-1.68 2.695-1.968 3.42 1.116 6.5 2.598 9.13 4.57l12.698 2.128h-120.06zm146.038 0c4.526-5.49 8.422-10.919 11.168-16.233 1.88.491 3.706 1.226 5.417 2.471a26.368 26.368 0 016.6-1.933 33.013 33.013 0 005.808 4.25l1.823-.148c2.745 3.951 6.212 7.009 10.136 9.498l7.663 2.095H295.54zm566.31 0h-78.467l3.697-2.97 9.666-.184 9.002-9.669 4.823 3.728 4.618-3.154 13.42-1.943 33.241 14.192z" fill="#19464C"/><path d="M799.605 72.825l-.06.211.025-.067c.684-1.678 2.94-1.069 3.111.81.736-3.218 5.45-2.765 5.272.85 2.638.361 6.791.788 13.508 1.195h-62.52c7.649-.6 14.037-.687 18.853-1.064-.99-3.907 4.548-5.736 6.192-2.15.287-1.383 2.613-1.288 2.991.5l.006.036-.008-.083c-.294-3.627 3.748-5.613 5.752-3.46 1.822-3.46 8.196-1.808 6.878 3.222zm-615.364-3.291l-.056.2.018-.05c.696-1.73 3.017-1.107 3.193.822.753-3.298 5.586-2.834 5.403.871 2.703.37 6.96.808 13.845 1.225h-64.081c7.84-.616 14.387-.704 19.324-1.09-1.016-4.005 4.66-5.88 6.345-2.204.297-1.42 2.688-1.32 3.068.522l.005.03-.008-.08c-.306-3.723 3.84-5.763 5.894-3.555 1.87-3.548 8.407-1.851 7.05 3.309zm408.312-10.149c-2.655-9.327 9.1-12.435 12.444-6.09 3.644-3.916 10.995-.302 10.459 6.296l-.011.117.002-.013c.659-3.208 4.75-3.445 5.41-1.08l.036.149c2.988-6.52 13.058-3.195 11.256 3.909 8.758.685 20.373.842 34.28 1.935H552.747c12.216-.74 19.766-1.517 24.562-2.174-.323-6.573 8.249-7.397 9.588-1.545.311-3.417 4.414-4.524 5.658-1.472l.037.097zM408.27 52.837c-2.24-7.903 7.724-10.535 10.56-5.156 3.072-3.304 9.258-.288 8.877 5.252l-.016.195.016-.081c.596-2.654 4-2.842 4.569-.868l.035.141c2.536-5.53 11.076-2.71 9.548 3.315 7.428.581 17.28.715 29.077 1.641h-96.424c10.358-.627 16.764-1.286 20.833-1.843-.275-5.575 6.995-6.274 8.131-1.31.262-2.883 3.708-3.827 4.781-1.29l.047.118zm-210.838-.471c-1.357-5.16 5.18-6.857 7.05-3.309 2.054-2.208 6.2-.169 5.896 3.554l-.007.066.003-.015c.368-1.787 2.627-1.935 3.034-.647l.033.125c1.685-3.676 7.362-1.801 6.347 2.203 4.937.386 11.484.475 19.323 1.091h-64.083c6.887-.417 11.142-.855 13.846-1.225-.182-3.705 4.65-4.17 5.405-.871.175-1.929 2.494-2.552 3.19-.823l.02.053zm709.923-10.922l-.036.12.042-.108c1.156-2.797 4.93-1.772 5.217 1.376 1.235-5.403 9.15-4.642 8.851 1.427 4.429.607 11.401 1.323 22.68 2.007h-104.97c12.842-1.01 23.568-1.154 31.654-1.787-1.663-6.56 7.635-9.63 10.393-3.609.486-2.32 4.38-2.164 5.022.827l.008.046-.013-.15c-.46-6.067 6.304-9.38 9.66-5.773 3.088-5.858 13.942-2.988 11.492 5.624z" fill="#FFF"/><path d="M71.745 35.348s-.07-.123-.529-.514c-.085-.073-.12-.105-.226-.17-.104-.064-.178-.115-.303-.152a.495.495 0 00-.353.013c-.146.057-.23.112-.352.195-.59.404-.755.628-.755.628s.166.224.755.628c.123.083.206.138.353.196a.5.5 0 00.352.012c.125-.037.199-.088.303-.152.105-.065.141-.097.226-.17.458-.39.529-.514.529-.514zm.487-4.242s-.188-.178-.732-.515a2.4 2.4 0 00-.315-.17 2.036 2.036 0 00-.42-.152 1.063 1.063 0 00-.278-.024.905.905 0 00-.211.037c-.187.053-.325.12-.49.196-.174.082-.276.142-.418.226-.453.266-.629.402-.629.402s.176.135.63.402c.141.083.243.144.418.225.164.077.302.143.489.196.069.02.138.034.21.037a1.07 1.07 0 00.279-.024c.159-.035.282-.09.42-.152a2.42 2.42 0 00.315-.17c.544-.336.732-.514.732-.514zm1.658-2.684s-.686-.235-1.777-.515a11.455 11.455 0 00-.762-.17c-.327-.06-.66-.119-1.015-.152a6.147 6.147 0 00-.677-.024 5.1 5.1 0 00-.508.037 21.263 21.263 0 00-2.2.422c-.94.228-1.524.402-1.524.402a34.7 34.7 0 002.54.628c.382.073.769.146 1.184.196a5.1 5.1 0 00.508.037 6.19 6.19 0 00.677-.025c.355-.033.688-.09 1.015-.152.275-.051.518-.107.762-.17 1.09-.28 1.777-.514 1.777-.514zm3.51-4.246s-1.32-.244-3.25-.514c-.441-.062-.903-.12-1.396-.17-.596-.061-1.216-.12-1.856-.152-.41-.021-.824-.029-1.24-.025-.31.003-.62.017-.93.037-.746.05-1.472.123-2.167.196-.669.071-1.287.15-1.858.226-1.673.223-2.786.402-2.786.402a111.396 111.396 0 004.644.628c.695.073 1.421.147 2.168.196.31.02.619.034.93.037.415.004.83-.004 1.24-.025.639-.032 1.26-.09 1.855-.152.493-.05.955-.108 1.395-.17 1.931-.27 3.252-.514 3.252-.514zm-29.323-3.041s-.287-.202-.92-.514a3.525 3.525 0 00-.394-.17 3.136 3.136 0 00-.526-.152 1.672 1.672 0 00-.35-.025 1.39 1.39 0 00-.263.037c-.225.052-.41.12-.612.196-.21.078-.354.146-.525.226-.535.25-.789.402-.789.402s.254.152.789.402c.17.08.316.148.525.226.202.075.387.144.612.196.086.02.173.034.263.037.117.004.236-.004.35-.025.192-.034.353-.09.526-.152.154-.055.261-.105.394-.17.633-.312.92-.514.92-.514zM89.657.25c1.596.055 3.155.112 4.67.171 14.659.57 25.03 1.098 25.03 1.098s-10.371.528-25.03 1.098c-2.95.114-6.066.224-9.309.321 2.173.096 4.26.204 6.238.316 10.043.57 17.125 1.098 17.125 1.098s-7.082.528-17.125 1.098a475.21 475.21 0 01-7.339.363l-.446.018c3.426.448 5.644.805 5.644.805s-3.246.523-7.951 1.098c-.53.065-1.072.128-1.629.188 6.187.532 10.42.999 10.42.999s-4.77.526-11.583 1.098a252.581 252.581 0 01-10.11.635c2.164.322 3.483.551 3.483.551s-1.122.195-2.992.479c.214.006.429.013.643.021 1.837.07 3.628.195 5.343.324 1.41.107 2.745.232 4.008.363 5.516.573 9.351 1.098 9.351 1.098s-3.835.524-9.35 1.098c-1.264.131-2.599.256-4.01.362-1.175.09-2.385.176-3.622.244 4.855.563 8.193 1.068 8.193 1.068s-3.457.523-8.452 1.098c-.564.064-1.141.128-1.736.188.921.049 1.815.1 2.678.154 6.462.401 11.015.772 11.015.772s-4.553.37-11.015.771c-.598.038-1.214.074-1.841.11.157.005.316.012.472.02.876.05 1.721.138 2.537.229.674.075 1.3.162 1.903.255 2.645.407 4.439.771 4.439.771s-1.794.365-4.439.772c-.603.093-1.229.18-1.903.255-.816.091-1.661.179-2.537.228-.559.03-1.126.043-1.69.037a20.986 20.986 0 01-1.27-.056 66.208 66.208 0 01-2.959-.294 87.538 87.538 0 01-2.537-.339c-2.29-.334-3.806-.603-3.806-.603s1.516-.268 3.806-.603a86.94 86.94 0 013.638-.462c-1.57.066-3.185.126-4.827.163-1.388.031-2.794.043-4.197.037-1.051-.005-2.104-.026-3.148-.056a405.536 405.536 0 01-7.343-.294 523.903 523.903 0 01-6.295-.338c-5.614-.33-9.44-.603-9.44-.603s3.826-.273 9.44-.603a527.512 527.512 0 019.186-.47c-.939-.093-1.836-.188-2.687-.281-4.333-.473-7.245-.858-7.245-.858s2.912-.385 7.245-.858a219.45 219.45 0 018.35-.766A431.52 431.52 0 0143.57 13.49c-.001 0 2.486-.297 6.33-.69a167.62 167.62 0 01-6.933-.738c-3.787-.473-6.318-.857-6.318-.857s2.531-.384 6.318-.857c1.125-.141 2.335-.288 3.632-.423l-1.869-.146c-5.915-.471-9.927-.858-9.927-.858s4.012-.387 9.927-.858a411.12 411.12 0 0111.598-.775c-3.097-.374-5.073-.652-5.073-.652s2.21-.31 5.618-.717a888.561 888.561 0 01-15.361-.71c-8.727-.47-14.68-.857-14.68-.857s5.953-.388 14.68-.858c1.944-.105 4.022-.214 6.203-.318a1910.146 1910.146 0 01-26.095-.799C8.88 1.907.166 1.519.166 1.519A3071.802 3071.802 0 0133.6.249h56.058zm69.184 18.838s-.095-.137-.567-.514a1.596 1.596 0 00-.242-.17c-.109-.064-.194-.116-.323-.152a.659.659 0 00-.216-.025.537.537 0 00-.161.037 1.746 1.746 0 00-.379.196c-.61.391-.809.628-.809.628s.2.236.81.628c.129.082.222.139.378.195.052.02.104.035.16.038a.663.663 0 00.217-.025c.13-.037.214-.088.323-.152.109-.063.154-.099.242-.17.472-.377.567-.514.567-.514zm9.996-1.245s-.135-.158-.636-.514a1.902 1.902 0 00-.273-.17c-.123-.063-.223-.116-.365-.152a.817.817 0 00-.242-.025.678.678 0 00-.182.037 2.1 2.1 0 00-.425.196c-.653.373-.909.628-.909.628s.256.255.91.627a2.1 2.1 0 00.424.196c.06.02.118.034.182.038a.817.817 0 00.242-.025c.142-.036.242-.089.365-.152.117-.06.176-.1.273-.17.501-.357.636-.514.636-.514zm509.084-1.175s-.254-.196-.857-.515a3.037 3.037 0 00-.368-.17 2.704 2.704 0 00-.49-.151 1.458 1.458 0 00-.326-.025 1.223 1.223 0 00-.246.037c-.212.052-.382.12-.572.196-.197.079-.327.144-.49.226-.506.254-.734.402-.734.402s.228.147.735.402c.162.081.292.147.49.225.19.076.359.144.571.196.081.02.163.034.246.038.109.004.22-.005.326-.025.182-.034.329-.09.49-.152.146-.056.243-.104.368-.17.603-.319.857-.514.857-.514zm-18.474-.025s-.254-.196-.858-.515a3.037 3.037 0 00-.368-.17 2.747 2.747 0 00-.489-.152 1.458 1.458 0 00-.327-.024 1.204 1.204 0 00-.245.037c-.213.052-.382.12-.572.196-.197.079-.327.144-.49.226a8.817 8.817 0 00-.734.402s.228.147.735.402c.162.08.292.146.489.225.19.076.36.144.572.196.081.02.16.034.245.037.11.004.22-.004.327-.024.18-.034.329-.09.49-.152.146-.056.243-.104.367-.17.604-.319.858-.514.858-.514zm-561.328-.376s-.04-.1-.48-.514c-.079-.075-.105-.102-.205-.17-.095-.065-.157-.113-.273-.152a.405.405 0 00-.32.013c-.138.06-.207.111-.32.196-.563.424-.684.627-.684.627s.12.203.684.628c.113.085.182.136.32.196a.41.41 0 00.32.013c.116-.039.178-.088.273-.152.1-.069.126-.096.206-.17.439-.414.479-.515.479-.515zm62.074-.416s-.367-.214-1.084-.514a4.6 4.6 0 00-.463-.17 4.26 4.26 0 00-.621-.152 2.305 2.305 0 00-.413-.025 1.943 1.943 0 00-.31.037 6.33 6.33 0 00-.722.196c-.239.076-.42.147-.619.226-.608.242-.93.402-.93.402s.322.16.93.402a8.56 8.56 0 001.342.422c.101.02.205.034.309.037.14.004.278-.004.413-.025.223-.033.418-.09.62-.152a4.6 4.6 0 00.464-.17c.717-.3 1.084-.514 1.084-.514zm10.015-.415s-.415-.22-1.184-.514a5.325 5.325 0 00-.507-.17 5.048 5.048 0 00-.678-.152 2.74 2.74 0 00-.45-.025 2.323 2.323 0 00-.34.037 9.956 9.956 0 00-1.466.422c-.654.239-1.014.402-1.014.402s.36.163 1.015.402a9.865 9.865 0 001.466.422 2.3 2.3 0 00.338.037c.152.004.303-.004.451-.025.242-.033.457-.09.678-.152.19-.053.34-.106.507-.17.769-.295 1.184-.514 1.184-.514zM181.662.25c.65.055 1.285.112 1.903.171 6.016.573 10.21 1.098 10.21 1.098s-4.194.525-10.21 1.098c-1.379.131-2.838.256-4.374.362-.673.047-1.356.093-2.049.136 4.112.465 6.809.843 6.809.843s-3.74.524-9.125 1.098l-.273.029c.423.068.831.14 1.232.215 3.119.583 5.193 1.098 5.193 1.098s-2.074.514-5.193 1.097a44.98 44.98 0 01-2.226.363c-.856.117-1.737.229-2.65.301 1.926.39 3.108.678 3.108.678s-1.543.376-3.972.85l.168.027c.643.11 1.222.23 1.794.363 2.551.592 4.188 1.098 4.188 1.098s-1.637.506-4.188 1.098a33.769 33.769 0 01-3.663.635c1.946.335 3.2.605 3.2.605s-1.693.364-4.197.772c-.569.092-1.16.18-1.798.254-.77.092-1.57.18-2.397.228-.53.032-1.063.043-1.6.037-.4-.004-.8-.025-1.197-.055a59.693 59.693 0 01-2.798-.294 78.885 78.885 0 01-2.398-.339c-2.167-.335-3.595-.603-3.595-.603s1.428-.268 3.595-.603a78.343 78.343 0 012.398-.339c.897-.11 1.83-.22 2.798-.293.16-.013.32-.023.48-.032-.342-.07-.67-.142-.993-.213-2.199-.484-3.59-.858-3.59-.858s1.044-.28 2.751-.67a87.703 87.703 0 01-5.609-.81c-2.74-.479-4.527-.858-4.527-.858s1.788-.38 4.527-.858c.93-.162 1.924-.33 3.018-.482a68.504 68.504 0 013.381-.406c-2.174-.398-3.541-.693-3.541-.693s1.329-.288 3.451-.678l-.086-.004a196.804 196.804 0 01-6.084-.418c-1.874-.151-3.62-.32-5.215-.482a411.28 411.28 0 01-7.822-.858s3.15-.385 7.822-.858a255.215 255.215 0 016.855-.61l-1.262-.113c-5.22-.472-8.75-.858-8.75-.858s3.53-.387 8.75-.858c1.513-.137 3.148-.28 4.887-.411h22.864zm510.167 0c1.052.055 2.079.112 3.078.171 9.681.57 16.506 1.098 16.506 1.098s-6.825.528-16.506 1.098c-1.137.067-2.311.132-3.517.194l.726.05c8.308.57 14.15 1.097 14.15 1.097s-5.842.527-14.15 1.098a324.243 324.243 0 01-7.28.423c6.223.497 10.412.919 10.412.919s-4.972.5-12.13 1.054c1.479.07 2.927.162 4.327.257 1.576.106 3.073.231 4.489.363 6.166.572 10.47 1.097 10.47 1.097s-4.304.526-10.47 1.098c-1.416.131-2.913.257-4.489.363-1.673.113-3.414.223-5.192.295 1.815.333 2.917.57 2.917.57s-2.146.463-5.387 1.003a81.894 81.894 0 014.746.908s-1.571.363-3.913.772c-.533.093-1.082.18-1.679.255-.719.091-1.462.18-2.235.228-.492.031-.992.043-1.491.037a16.411 16.411 0 01-1.119-.056 52.04 52.04 0 01-2.608-.294 67.545 67.545 0 01-2.237-.339c-2.025-.335-3.353-.603-3.353-.603s.617-.124 1.653-.31a109.986 109.986 0 01-5.66-.743c-3.083-.476-5.112-.858-5.112-.858s2.029-.381 5.11-.857a125.18 125.18 0 012.505-.366c-.999-.081-1.956-.164-2.872-.245-5.352-.471-8.975-.858-8.975-.858s3.623-.386 8.975-.858l1.294-.112c-.472-.012-.942-.027-1.412-.044a379.575 379.575 0 01-8.461-.418c-2.598-.15-5.037-.32-7.253-.481a790.68 790.68 0 01-10.879-.858s4.4-.388 10.88-.858a492.86 492.86 0 018.234-.538 955.622 955.622 0 01-2.911-.186c-7.217-.47-12.129-.858-12.129-.858s4.912-.387 12.129-.858a769.4 769.4 0 014.503-.281 869.17 869.17 0 01-8.55-.442c-8.41-.47-14.146-.858-14.146-.858s5.736-.388 14.147-.858c2.438-.136 5.092-.28 7.899-.411h36.966zm-29.891 13.156s-.612-.232-1.611-.514a9.736 9.736 0 00-.692-.17 9.077 9.077 0 00-.921-.152 5.064 5.064 0 00-.614-.024 4.254 4.254 0 00-.46.037c-.378.05-.727.122-1.075.196-.34.073-.632.148-.92.225-.858.23-1.382.402-1.382.402a28.817 28.817 0 002.302.628c.348.074.697.147 1.076.196.152.02.305.034.46.037a5.03 5.03 0 00.613-.024c.323-.033.624-.091.921-.152.25-.052.469-.108.692-.17.999-.282 1.61-.515 1.61-.515zm-562.77-.742s-.287-.202-.92-.515a3.557 3.557 0 00-.394-.17 3.152 3.152 0 00-.525-.151 1.68 1.68 0 00-.351-.025c-.09.003-.177.017-.263.037-.225.052-.411.12-.612.196-.209.078-.354.145-.525.226-.534.25-.789.402-.789.402s.255.151.789.402c.17.08.316.148.525.226.2.075.387.144.612.195.086.02.173.035.263.038a1.68 1.68 0 00.35-.025c.192-.034.353-.09.526-.152.154-.055.261-.105.394-.17.633-.313.92-.514.92-.514zm2.433-2.84s-.758-.237-1.94-.515a13.7 13.7 0 00-.834-.17c-.358-.06-.724-.119-1.11-.152a7.31 7.31 0 00-.74-.024c-.186.003-.37.017-.554.037-.451.05-.878.122-1.295.196-.406.072-.766.15-1.11.226-1.02.227-1.664.402-1.664.402a40.893 40.893 0 002.774.627c.417.074.844.147 1.295.196.185.02.368.034.555.037a7.36 7.36 0 00.74-.024c.385-.033.751-.091 1.11-.152.298-.051.566-.108.832-.17 1.183-.277 1.941-.514 1.941-.514zm1.342-3.188s-1.003-.24-2.507-.514c-.34-.062-.69-.12-1.073-.17-.46-.06-.935-.12-1.431-.152-.315-.02-.635-.029-.954-.024-.24.003-.48.017-.716.037a31.83 31.83 0 00-1.67.196 66.329 66.329 0 00-3.578.628 66.566 66.566 0 003.578.627c.536.074 1.091.147 1.67.196.237.02.475.034.716.037.32.004.64-.004.954-.024a21.67 21.67 0 001.431-.152c.382-.05.733-.108 1.073-.17 1.504-.273 2.507-.515 2.507-.515z" fill="url(#a)" transform="translate(150.38 78.616)"/><path d="M504.52 70.762s-.125-.152-.618-.514a1.827 1.827 0 00-.264-.17c-.118-.064-.213-.116-.351-.152a.772.772 0 00-.235-.025.64.64 0 00-.177.037 1.999 1.999 0 00-.411.196c-.641.377-.88.628-.88.628s.239.25.88.627c.138.082.247.141.411.196.057.02.115.034.177.038a.777.777 0 00.235-.025c.138-.036.233-.089.35-.152.117-.061.17-.1.265-.17.493-.362.617-.514.617-.514zm3.38-5.94s-.798-.238-2.036-.515c-.278-.062-.56-.12-.873-.17-.375-.06-.759-.12-1.163-.152a8.062 8.062 0 00-.776-.024 6.675 6.675 0 00-.583.037c-.473.049-.921.122-1.358.196-.426.072-.804.15-1.164.226-1.066.226-1.745.401-1.745.401a44.756 44.756 0 002.909.628c.437.074.885.147 1.358.196.194.02.387.034.583.037.259.004.518-.004.776-.024a14.45 14.45 0 001.163-.152c.313-.051.595-.108.873-.17 1.238-.277 2.036-.515 2.036-.515zm2.221-7.183s-1.733-.364-4.293-.772a42.866 42.866 0 00-1.84-.255c-.79-.09-1.607-.179-2.454-.228a23.763 23.763 0 00-1.635-.036c-.41.005-.82.025-1.227.056-.989.073-1.945.183-2.861.293-.888.107-1.7.225-2.454.339-2.216.334-3.68.603-3.68.603s1.464.268 3.68.603c.753.114 1.566.232 2.454.338.916.11 1.872.221 2.86.294.409.03.818.051 1.228.056.548.006 1.096-.005 1.635-.037a42.677 42.677 0 002.455-.228 43.133 43.133 0 001.839-.255c2.56-.407 4.293-.771 4.293-.771zm10.083-5.655s-1.708-.364-4.235-.772a41.838 41.838 0 00-1.815-.255 41.433 41.433 0 00-2.42-.228 23.032 23.032 0 00-1.613-.037c-.404.005-.809.026-1.21.056-.976.073-1.918.184-2.822.294-.877.107-1.677.225-2.42.339-2.188.334-3.63.603-3.63.603s1.442.268 3.63.603c.743.113 1.543.232 2.42.338.904.11 1.846.22 2.822.294.401.03.806.051 1.21.056.54.006 1.08-.006 1.613-.037a41.283 41.283 0 002.42-.228 41.846 41.846 0 001.815-.255c2.527-.407 4.235-.771 4.235-.771zm-6.37-4.077s-1.455-.361-3.644-.771a31.4 31.4 0 00-1.56-.255c-.671-.092-1.362-.18-2.083-.228a17.134 17.134 0 00-1.388-.037c-.35.005-.695.025-1.04.056a45.11 45.11 0 00-2.43.294c-.756.107-1.44.224-2.082.338a94.865 94.865 0 00-3.122.603s1.23.267 3.122.603c.641.114 1.326.232 2.083.339.78.11 1.586.22 2.428.294.346.03.692.05 1.04.055.466.007.93-.005 1.389-.036.72-.05 1.412-.137 2.083-.228a31.394 31.394 0 001.56-.255 70.991 70.991 0 003.644-.772zm2.294-3.296s-1.867-.365-4.607-.772a49.67 49.67 0 00-1.975-.255 48.848 48.848 0 00-2.631-.227 27.443 27.443 0 00-1.756-.037c-.441.005-.88.025-1.316.056a71.432 71.432 0 00-3.071.293c-.95.107-1.825.225-2.633.34-2.375.333-3.95.602-3.95.602s1.575.27 3.95.603c.808.114 1.682.232 2.633.339.983.11 2.01.22 3.071.294.436.03.875.05 1.316.055.587.006 1.175-.005 1.756-.037a48.675 48.675 0 002.63-.227c.699-.076 1.35-.163 1.976-.255 2.74-.407 4.607-.772 4.607-.772zM519.358.25c.903.06 1.78.124 2.633.189 7.355.562 12.516 1.08 12.516 1.08s-5.161.518-12.516 1.08l-.036.003a683.404 683.404 0 0113.435 1.073s-2.767.256-7.178.604c.823.037 1.635.075 2.437.114 2.157.104 4.216.228 6.154.357 8.43.561 14.36 1.08 14.36 1.08s-5.93.519-14.36 1.08c-1.938.13-3.997.253-6.154.357l-.024.002c3.694.292 5.951.497 5.951.497s-5.695.519-13.793 1.08c-1.864.13-3.84.253-5.912.358-1.035.052-2.088.103-3.158.15l.697.052c7.527.562 12.813 1.08 12.813 1.08s-5.286.518-12.813 1.08c-.612.046-1.236.09-1.872.134 1.612.064 3.192.141 4.73.22 2.03.105 3.968.228 5.793.358 7.935.561 13.515 1.08 13.515 1.08s-5.58.518-13.515 1.08c-.982.07-1.995.137-3.039.201l.168.005c2.25.068 4.452.192 6.556.319 1.725.105 3.367.228 4.918.357 6.748.563 11.473 1.08 11.473 1.08s-4.725.518-11.473 1.08a217.072 217.072 0 01-5.74.407l1.116.057c10.682.561 18.222 1.08 18.222 1.08s-7.54.52-18.222 1.08c-2.458.13-5.073.253-7.81.358l-.535.02c1.246.077 2.449.16 3.605.247 7.549.562 12.847 1.08 12.847 1.08s-5.298.518-12.847 1.08c-1.318.099-2.698.193-4.134.279.944.06 1.861.123 2.752.187 7.792.562 13.266 1.08 13.266 1.08s-5.474.518-13.266 1.08c-.81.059-1.64.116-2.491.17.94.065 1.853.134 2.736.205 7.021.562 11.944 1.08 11.944 1.08s-4.923.518-11.944 1.08c-1.613.13-3.322.253-5.118.358a239.2 239.2 0 01-6.601.312c4.568.42 7.527.752 7.527.752s-2.155.242-5.628.574c1.33-.007 2.659.01 3.972.052 2.087.068 4.125.192 6.074.32 1.6.104 3.12.227 4.557.356a423.21 423.21 0 0110.63 1.08s-4.373.518-10.63 1.08c-1.437.13-2.958.253-4.557.358-1.95.127-3.987.25-6.074.319a103.647 103.647 0 01-4.124.05l.173.02c4.842.566 8.191 1.08 8.191 1.08s-3.35.516-8.19 1.081l-.061.007c.669.008 1.336.024 2 .047 1.942.068 3.84.191 5.657.32 1.492.104 2.906.227 4.243.356 5.834.564 9.903 1.08 9.903 1.08s-4.069.517-9.903 1.08c-1.337.13-2.751.253-4.243.358-1.817.127-3.715.25-5.658.319-.444.015-.89.027-1.337.036.981.1 1.906.216 2.791.338 4.124.567 6.95 1.08 6.95 1.08s-2.826.513-6.95 1.08c-.942.13-1.927.252-2.978.357-1.276.128-2.605.251-3.972.32-.875.043-1.761.06-2.648.05a36.792 36.792 0 01-1.986-.077c-1.597-.102-3.15-.257-4.633-.412-1.43-.149-2.753-.315-3.972-.474-3.574-.466-5.956-.844-5.956-.844s2.382-.377 5.956-.844c1.219-.159 2.541-.325 3.972-.474 1.362-.142 2.783-.284 4.244-.386a304.261 304.261 0 01-8.342-.663c-5.064-.464-8.487-.844-8.487-.844s3.423-.38 8.487-.844c1.098-.1 2.263-.205 3.486-.305l-.214-.011c-1.88-.103-3.714-.258-5.46-.412a209.064 209.064 0 01-4.681-.474c-4.2-.465-7.021-.844-7.021-.844s2.82-.379 7.021-.844c1.433-.159 2.997-.326 4.68-.474 1.747-.155 3.58-.31 5.461-.412.3-.016.605-.03.908-.043a439.072 439.072 0 01-3.556-.29c-5.433-.464-9.11-.844-9.11-.844s2.345-.243 6.058-.577a95.844 95.844 0 01-4.97-.076 301.629 301.629 0 01-7.48-.411 390.127 390.127 0 01-6.414-.474 629.88 629.88 0 01-9.62-.845s3.887-.38 9.62-.844a390.027 390.027 0 0112.92-.844 707.53 707.53 0 01-9.836-.814s4.14-.38 10.238-.844a521.27 521.27 0 014.444-.321l-.954-.052a547.166 547.166 0 01-7.581-.474c-6.768-.463-11.372-.844-11.372-.844s4.604-.381 11.372-.844a547.166 547.166 0 018.711-.535c-2.17-.13-4.217-.27-6.105-.403-6.556-.463-11.012-.844-11.012-.844s4.456-.381 11.012-.844c1.805-.128 3.758-.261 5.823-.386a1026.935 1026.935 0 01-16.7-.71c-9.28-.462-15.616-.844-15.616-.844s6.335-.382 15.617-.844c3.18-.159 6.688-.327 10.413-.475 3.882-.154 7.979-.31 12.148-.411.601-.015 1.206-.028 1.81-.039l-.147-.012c-5.86-.463-9.834-.844-9.834-.844s3.974-.38 9.834-.844c1.66-.131 3.458-.269 5.363-.396a144.981 144.981 0 01-3.163-.073 437.15 437.15 0 01-9.01-.411 563.613 563.613 0 01-7.724-.474c-6.895-.463-11.584-.844-11.584-.844s4.69-.382 11.584-.844c2.012-.135 4.199-.277 6.515-.408a511.063 511.063 0 01-13.13-.776c-6.539-.463-10.983-.844-10.983-.844s4.444-.381 10.983-.844a510.626 510.626 0 0111.156-.681 671.435 671.435 0 01-5.626-.35c-7.035-.463-11.823-.845-11.823-.845s4.788-.38 11.823-.844c2.406-.158 5.06-.326 7.882-.474l.555-.029c-5.115-.34-8.373-.589-8.373-.589s3.991-.305 10.075-.7a567.024 567.024 0 01-10.354-.61c-6.908-.464-11.608-.845-11.608-.845s4.7-.382 11.609-.845c1.604-.107 3.317-.219 5.118-.326-.678-.047-1.34-.094-1.983-.141-6.387-.463-10.727-.844-10.727-.844s4.34-.381 10.727-.844c1.948-.141 4.07-.29 6.325-.425h27.396z" fill="url(#b)" transform="translate(150.38 78.616)"/><path d="M708.965 97.806s-3.438-.247-8.31-.514c-1.122-.062-2.315-.12-3.563-.17-1.525-.06-3.122-.12-4.75-.152-1.048-.02-2.107-.029-3.167-.025-.793.004-1.586.018-2.375.038-1.901.048-3.77.122-5.541.195-1.7.07-3.3.15-4.748.226-4.235.22-7.125.402-7.125.402s2.89.182 7.125.402c1.448.076 3.049.156 4.748.226 1.771.073 3.64.147 5.541.196.789.02 1.582.034 2.375.037 1.06.004 2.12-.004 3.167-.024 1.628-.033 3.225-.092 4.75-.152 1.246-.05 2.44-.109 3.562-.17 4.873-.268 8.311-.515 8.311-.515zm-44.395 0s-1.039-.242-2.59-.514c-.35-.062-.715-.12-1.109-.17a23.23 23.23 0 00-1.48-.152c-.324-.02-.655-.029-.985-.025a10.7 10.7 0 00-.74.038c-.598.049-1.173.122-1.726.195-.536.072-1.024.15-1.48.226-1.341.224-2.22.402-2.22.402a71.348 71.348 0 003.7.628c.553.074 1.128.147 1.726.196.246.02.491.034.74.037.33.004.66-.004.985-.024a23.227 23.227 0 001.48-.152c.394-.05.759-.108 1.11-.17 1.55-.273 2.59-.515 2.59-.515zm-43.658-3.99s-2.232-.247-5.42-.514a102.37 102.37 0 00-2.322-.17c-.994-.061-2.033-.12-3.098-.152a56.41 56.41 0 00-2.064-.025c-.517.003-1.035.017-1.549.037a146.78 146.78 0 00-3.612.196c-1.11.07-2.15.15-3.098.226-2.767.22-4.644.402-4.644.402s1.877.181 4.644.402c.948.075 1.988.155 3.098.226 1.155.073 2.371.147 3.612.196.514.02 1.032.034 1.55.037a56.8 56.8 0 002.063-.025c1.065-.032 2.104-.09 3.098-.152.814-.05 1.59-.108 2.323-.17 3.187-.268 5.419-.514 5.419-.514zm89.745-4.668s-8.193-.248-19.755-.514c-2.664-.062-5.505-.12-8.468-.17-3.621-.061-7.419-.12-11.289-.152a750.12 750.12 0 00-7.526-.025c-1.885.003-3.77.017-5.643.037-4.518.049-8.964.123-13.171.196-4.035.07-7.846.15-11.29.226-10.049.22-16.932.402-16.932.402s6.883.182 16.933.402c3.443.075 7.254.155 11.289.226 4.207.073 8.653.147 13.17.196 1.875.02 3.759.034 5.644.037 2.519.004 5.037-.004 7.526-.025 3.87-.032 7.668-.09 11.29-.152 2.962-.05 5.803-.108 8.467-.17 11.562-.266 19.755-.514 19.755-.514zM548.37 88.032s-4.327-.247-10.446-.514a377.34 377.34 0 00-4.477-.17c-1.915-.06-3.921-.12-5.97-.152-1.315-.02-2.646-.029-3.979-.025-.997.004-1.993.017-2.983.037-2.39.049-4.74.123-6.964.196-2.135.07-4.149.15-5.97.226-5.32.22-8.954.402-8.954.402s3.635.182 8.953.402c1.822.075 3.836.156 5.97.226 2.225.073 4.574.147 6.965.196.99.02 1.986.034 2.983.037a211.33 211.33 0 003.981-.025c2.047-.032 4.053-.09 5.968-.152 1.567-.05 3.069-.108 4.477-.17 6.12-.266 10.446-.514 10.446-.514zm230.793 0s-3.438-.247-8.31-.514a236.29 236.29 0 00-3.563-.17c-1.525-.06-3.122-.12-4.75-.152a132.83 132.83 0 00-3.167-.025c-.793.004-1.586.017-2.375.037-1.901.049-3.77.123-5.54.196-1.7.07-3.3.15-4.75.226-4.234.22-7.124.402-7.124.402s2.89.182 7.125.402c1.448.075 3.049.155 4.75.226 1.77.073 3.638.147 5.54.196.788.02 1.581.034 2.374.037 1.06.004 2.12-.004 3.167-.025 1.628-.032 3.225-.09 4.75-.152 1.248-.05 2.44-.108 3.562-.17a540.99 540.99 0 008.311-.514zM205.87 87.36s-4.326-.247-10.447-.514c-1.409-.062-2.91-.12-4.477-.17-1.913-.06-3.922-.12-5.968-.152-1.316-.02-2.648-.029-3.98-.025-.997.004-1.994.018-2.985.038-2.388.048-4.74.122-6.963.196-2.135.07-4.148.15-5.97.225-5.318.22-8.953.402-8.953.402s3.635.182 8.954.402c1.82.076 3.834.156 5.969.226 2.224.073 4.575.147 6.963.196.99.02 1.988.034 2.986.037a209.7 209.7 0 003.979-.024c2.046-.033 4.055-.092 5.968-.152 1.568-.05 3.068-.109 4.477-.17 6.12-.267 10.447-.515 10.447-.515zm158.703-2.242s-4.327-.247-10.446-.514a379.63 379.63 0 00-4.477-.17 374.85 374.85 0 00-5.968-.152c-1.317-.02-2.648-.029-3.98-.024-.998.003-1.994.017-2.984.037-2.39.048-4.74.122-6.964.196-2.135.07-4.149.15-5.97.225-5.317.22-8.954.402-8.954.402s3.637.182 8.953.402c1.822.076 3.836.156 5.97.226 2.225.074 4.574.148 6.965.196.99.02 1.986.034 2.983.037 1.333.004 2.664-.003 3.98-.024a374.85 374.85 0 005.97-.152c1.567-.05 3.068-.109 4.476-.17 6.12-.267 10.446-.515 10.446-.515zm-137.87 0s-1.183-.243-2.927-.514c-.398-.062-.813-.12-1.255-.17-.54-.06-1.098-.12-1.675-.152a16.58 16.58 0 00-1.115-.024c-.28.003-.56.017-.837.037a43.63 43.63 0 00-1.953.196c-.603.07-1.158.15-1.673.225-1.51.223-2.51.402-2.51.402s1 .18 2.51.402c.515.076 1.07.155 1.673.226.626.074 1.28.147 1.953.196.277.02.557.034.837.037.373.004.747-.004 1.115-.024a29.762 29.762 0 001.675-.152c.442-.05.857-.108 1.255-.17 1.744-.272 2.928-.515 2.928-.515zm375.836-.275s-1.872-.246-4.563-.514a71.248 71.248 0 00-1.955-.17 71.6 71.6 0 00-2.607-.152 40.335 40.335 0 00-1.738-.024c-.436.003-.872.017-1.304.037-1.045.048-2.069.122-3.042.196-.935.07-1.81.15-2.606.226-2.336.22-3.912.401-3.912.401s1.576.181 3.912.402c.796.076 1.671.156 2.606.226.973.074 1.997.148 3.042.196.432.02.868.034 1.304.037a40.06 40.06 0 001.738-.024 71.6 71.6 0 002.607-.152c.688-.05 1.34-.109 1.955-.17 2.691-.269 4.563-.515 4.563-.515zm299.693-.764s-3.438-.248-8.312-.515c-1.122-.061-2.314-.12-3.562-.17-1.523-.06-3.12-.12-4.75-.152-1.046-.02-2.106-.028-3.165-.024-.794.003-1.587.017-2.375.037a346.25 346.25 0 00-5.542.196c-1.699.07-3.3.15-4.75.226-4.234.22-7.123.402-7.123.402s2.889.181 7.123.402c1.45.075 3.051.155 4.75.225 1.77.074 3.639.148 5.542.196.788.02 1.581.034 2.375.038 1.06.004 2.119-.004 3.166-.025 1.629-.032 3.226-.091 4.749-.152 1.248-.05 2.44-.108 3.562-.17 4.874-.267 8.312-.514 8.312-.514zm-75.902-.289s-1.07-.242-2.661-.514c-.362-.062-.737-.12-1.141-.17-.49-.061-.996-.12-1.521-.152-.336-.021-.676-.029-1.015-.025-.256.003-.508.017-.76.037-.616.05-1.207.123-1.776.196a75.197 75.197 0 00-3.804.628s.904.178 2.281.402c.469.076.972.154 1.523.226.569.073 1.16.147 1.775.196.253.02.505.034.761.037.339.004.68-.004 1.015-.025a24.606 24.606 0 001.52-.152c.405-.05.78-.108 1.142-.17 1.591-.272 2.661-.514 2.661-.514zm-148.01-1.48s-5.514-.249-13.304-.515c-1.794-.062-3.708-.12-5.702-.17-2.44-.061-4.996-.12-7.602-.152-1.677-.02-3.373-.029-5.068-.025-1.27.003-2.541.017-3.803.037a888.55 888.55 0 00-8.869.196c-2.717.07-5.284.15-7.602.226-6.77.22-11.405.402-11.405.402s4.635.182 11.405.402c2.318.075 4.885.155 7.602.226 2.833.073 5.827.147 8.869.196 1.262.02 2.532.034 3.803.037 1.695.004 3.391-.004 5.068-.025 2.606-.032 5.163-.09 7.602-.152 1.994-.05 3.908-.108 5.702-.17 7.789-.266 13.304-.514 13.304-.514z" fill="#FF9886"/></g></svg>