<svg width="1024" height="151" xmlns="http://www.w3.org/2000/svg"><g fill="none" fill-rule="evenodd"><path fill="#EAF4F5" d="M0 78.865h1024V0H0z"/><path d="M0 14.84c5.487-2.458 11.836-2.809 16.751-.205C18.505 4.45 38.52 1.395 41.69 12.136c-1.095-11.111 16.093-17.503 21.34-6.2 4.776-1.672 7.713.371 9.496 4.745 6.451 2.095 8.588 7.151 8.02 14.065 2.957-3.925 5.638-4.273 8.085-1.588 3.407-10.155 19.817-9.941 20.663 3.55 2.747-1.581 4.883-.982 6.545 1.317 1.166-4.25 4.021-5.123 7.483-4.784-4.024-5.876-3.267-13.808 3.115-15.309 5.128-1.205 7.086 1.494 7.944 6.21 8.167-6.807 17.827 3.6 15.967 13.881-.23.66-.42 1.377-.563 2.148a14.3 14.3 0 00.563-2.148c3.213-9.256 14.202-7.754 16.054 3.406 6.84.61 8.44 5.758 6.583 13.9 4.669-2.01 8.357-.82 10.674 4.827 7.168-2.605 10.799 1.364 12.132 9.612 9.672-2.252 13.575 1.78 13.898 9.713 7.348-6.693 14.325-8.228 20.546.743 2.55-7.061 7.151-8.994 13.528-6.479 2.256-11.794 11.272-11.09 13.718.763-.624-6.431 7.326-10.339 10.777-5.197-4.212-28.796 26.895-30.641 31.462-15.857 2.868-3.619 7.626-2.432 8.019 1.545 6.307-11.162 25.586-5.492 24.22 6.597.277-.124.555-.236.833-.336-.193-7.613 9.503-12.403 15.372-9.295.933-5.429 11.6-7.057 13.289-1.332-.583-5.922 8.578-9.329 11.373-3.304 2.547-.892 4.112.197 5.061 2.528 3.44 1.117 4.579 3.811 4.276 7.497 1.575-2.092 3.004-2.278 4.309-.847 1.815-5.412 10.56-5.298 11.012 1.892 1.465-.843 2.602-.523 3.488.702.622-2.265 2.144-2.73 3.988-2.55-2.144-3.132-1.74-7.36 1.66-8.159 2.734-.642 3.777.796 4.235 3.31 4.352-3.629 9.502 1.92 8.508 7.4a7.792 7.792 0 00-.299 1.143c.132-.379.23-.76.3-1.143 1.71-4.935 7.569-4.136 8.556 1.813 3.647.325 4.5 3.069 3.508 7.408 2.49-1.07 4.454-.436 5.69 2.573 3.82-1.388 5.755.727 6.466 5.122 5.155-1.2 7.236.95 7.407 5.177 3.916-3.567 7.635-4.385 10.95.396 1.36-3.763 3.812-4.793 7.21-3.453 1.203-6.285 6.008-5.91 7.312.407-.334-3.428 3.904-5.51 5.744-2.77-2.246-15.347 14.333-16.33 16.766-8.45 1.53-1.93 4.065-1.297 4.276.822 3.361-5.949 13.635-2.926 12.907 3.516 5.868-2.633 13.725 4.878 10.61 10.952 5.857-6.65 16.965-1.723 18.702 6.308H0V14.839zm749.355 64.083c-1.41-11.888 14.732-20.729 22.742-11.65-3.759-7.314 5.714-16.357 12.791-13.186-.878-7.757 11.51-11.396 15.563-4.233.254-2.552 3.312-3.314 5.154-.991 2.935-9.487 22.924-8.303 20.217 10.174 2.219-3.299 7.328-.792 6.925 3.335 1.573-7.606 7.366-8.057 8.816-.49 4.097-1.613 7.054-.373 8.693 4.158 3.997-5.756 8.48-4.772 13.203-.477.207-5.09 2.715-7.677 8.93-6.233.857-5.292 3.191-7.839 7.796-6.167 1.49-3.623 3.86-4.387 6.86-3.097-1.194-5.225-.166-8.528 4.231-8.92 1.19-7.16 8.251-8.124 10.316-2.185.083.462.204.922.363 1.378a9.682 9.682 0 00-.363-1.378c-1.195-6.597 5.012-13.275 10.26-8.907.551-3.026 1.81-4.758 5.104-3.985 4.102.963 4.59 6.053 2.003 9.823 2.224-.217 4.059.344 4.808 3.07 1.067-1.475 2.442-1.86 4.206-.845.544-8.657 11.09-8.794 13.279-2.278 1.573-1.723 3.294-1.499 5.195 1.02-.366-4.437 1.008-7.682 5.153-9.025 1.147-2.807 3.034-4.119 6.104-3.045 3.37-7.253 14.416-3.152 13.712 3.978 2.037-6.893 14.898-4.932 16.025 1.604 8.916-4.717 25.17 5.675 15.628 18.935-.096.127-.191.256-.284.388.096-.13.191-.258.284-.388 5.007-6.64 12.36-7.628 16.504-.776 1.214-.768 2.846-.764 4.427-.216v30.609H749.355z" fill="#FFF"/><path d="M624.821 78.865a32.068 32.068 0 01-2.224-11.776c0-17.767 14.419-32.192 32.18-32.192 17.76 0 32.179 14.425 32.179 32.192 0 4.156-.79 8.13-2.225 11.776h-59.91z" fill="#FF9886"/></g></svg>