<?xml version="1.0" encoding="UTF-8"?>
<svg width="1024px" height="79px" viewBox="0 0 1024 79" version="1.1" xmlns="http://www.w3.org/2000/svg" xmlns:xlink="http://www.w3.org/1999/xlink">
    <title>seascape/medium/horizon</title>
    <g id="seascape/medium/horizon" stroke="none" stroke-width="1" fill="none" fill-rule="evenodd">
        <path d="M149.503333,79.0073606 L167.030019,77.5800757 L169.944969,75.4849721 L175.63676,75.2357938 C179.25279,73.9658665 181.363294,72.2262873 182.868821,71.040745 C189.093164,66.1382789 192.62277,59.6091506 195.339978,59.0120565 C199.560985,60.1104468 204.222761,59.8495099 207.430864,59.5242467 C211.411609,54.987853 215.744969,50.6392509 220.550211,46.54 C224.868014,50.5643764 228.879872,63.7863886 240.509248,75.2119308 L245.041385,74.2767773 C245.962678,73.1476071 246.856315,72.5970286 247.736123,72.309462 C251.155104,73.4247985 254.235299,74.9070722 256.866082,76.8781918 L269.563673,79.0073606 L149.503333,79.0073606 Z M295.541362,78.8653612 C300.066585,73.3746199 303.962634,67.9461299 306.709227,62.6315944 C308.588111,63.1233801 310.415139,63.8582917 312.126358,65.1029727 C314.229948,64.1825175 316.425148,63.5226532 318.725787,63.1700686 C320.404165,64.7056017 322.310705,66.1351346 324.533561,67.4197602 L326.357133,67.272432 C329.101997,71.2233172 332.569377,74.2808957 336.493081,76.7704306 L344.15554,78.8653612 L295.541362,78.8653612 Z M861.851164,78.8653612 L783.383991,78.8653612 L787.081261,75.8945888 L796.747056,75.7114661 L805.749106,66.0422763 L810.571632,69.7700942 L815.190195,66.6161991 L828.610301,64.6727468 L861.851164,78.8653612 Z" id="islands" fill="#19464C"></path>
        <path d="M799.605446,72.8245037 L799.545525,73.0361567 L799.569967,72.9693377 C800.253846,71.2913549 802.510708,71.9000731 802.681011,73.7790807 C803.417354,70.5610321 808.130984,71.0142565 807.952948,74.6288115 C810.590646,74.9902151 814.744241,75.4169827 821.461208,75.8240373 L758.941214,75.8240373 C766.589845,75.2231389 772.978396,75.1368516 777.794009,74.7600581 C776.803576,70.8532676 782.341703,69.0244615 783.98551,72.6104846 C784.273459,71.226796 786.599344,71.3220135 786.977178,73.1099337 L786.982525,73.1461567 L786.974712,73.0629796 C786.681343,69.4358369 790.723462,67.4496421 792.726556,69.6028802 C794.549154,66.142575 800.923148,67.7947018 799.605446,72.8245037 Z M184.240638,69.5339277 L184.184525,69.7331567 L184.202832,69.6835244 C184.899439,67.9544984 187.220308,68.5774401 187.395773,70.5060434 C188.149401,67.2075869 192.982299,67.6720511 192.799077,71.3770435 C195.502458,71.7476119 199.759763,72.1849276 206.644395,72.6021845 L142.562525,72.6021845 C150.402328,71.986242 156.949902,71.8977068 161.88651,71.5115755 C160.871186,67.5072579 166.547248,65.6326279 168.231848,69.3082239 C168.528622,67.887337 170.919789,67.9879974 171.300466,69.8300769 L171.304525,69.8591567 L171.296532,69.7791012 C170.990915,66.0568179 175.137937,64.0170505 177.190685,66.225399 C179.06107,62.6772887 185.597617,64.373543 184.240638,69.5339277 Z M592.552714,59.3853385 C589.898029,50.0582981 601.653355,46.9499348 604.997181,53.2949306 C608.640546,49.3788969 615.991774,52.992727 615.456029,59.5909657 L615.444525,59.7081567 L615.44727,59.6952158 C616.105894,56.4872931 620.197372,56.2502924 620.856497,58.6158078 L620.892505,58.763884 C623.881089,52.2432287 633.951354,55.5688338 632.148524,62.6727495 C640.906854,63.3578601 652.522402,63.5148718 666.429946,64.6075558 L666.429946,64.6075558 L552.74623,64.6075558 C564.961569,63.8672836 572.511675,63.0913898 577.308274,62.4339464 C576.985044,55.8614151 585.556695,55.0372765 586.896286,60.8889027 C587.207417,57.4722869 591.310033,56.3653166 592.553767,59.4167342 L592.590525,59.5141567 Z M408.270461,52.8370264 C406.030742,44.9338318 415.994217,42.3018799 418.830374,47.6812429 C421.901857,44.3774396 428.087634,47.392556 427.707427,52.9326203 L427.690525,53.1281567 L427.706912,53.0465275 C428.303317,50.3930547 431.707735,50.2046638 432.276004,52.1787721 L432.310978,52.3200054 C434.846693,46.7893195 443.387232,49.609997 441.859235,55.6352352 C449.286617,56.2164207 459.13909,56.3495694 470.936131,57.2764227 L470.936131,57.2764227 L374.511529,57.2764227 C384.870454,56.6485488 391.27629,55.9904137 395.345189,55.4327454 C395.070357,49.8581377 402.340445,49.1591935 403.476072,54.1223547 C403.738306,51.2398715 407.183746,50.295569 408.257277,52.8323713 L408.303525,52.9511567 Z M197.432083,52.3656851 C196.075105,47.2051416 202.611651,45.508892 204.482036,49.0571705 C206.536453,46.848822 210.682405,48.8884281 210.377802,52.6107003 L210.370525,52.6771567 L210.373758,52.661677 C210.741758,50.8754346 213.0012,50.7267896 213.408253,52.0148625 L213.440873,52.1398224 C215.126165,48.4642264 220.802572,50.3388564 219.78794,54.343174 C224.724548,54.7294782 231.272122,54.8180134 239.110888,55.4339559 L239.110888,55.4339559 L175.028326,55.4339559 C181.914687,55.0165261 186.170264,54.5792104 188.873644,54.208642 C188.692151,50.5038225 193.52332,50.0393583 194.278677,53.3378149 C194.454142,51.4090475 196.773455,50.7860974 197.469903,52.5152706 L197.488525,52.5681567 Z M907.354892,41.443734 L907.318525,41.5631567 L907.360845,41.4557044 C908.516799,38.6594032 912.291585,39.68375 912.577574,42.8322091 C913.813454,37.4291384 921.728275,38.1899882 921.429243,44.2588024 C925.857671,44.865753 932.830457,45.5821622 944.108946,46.2657165 L839.13862,46.2657165 C851.981405,45.2568989 862.706773,45.1118187 870.792715,44.4792759 C869.129895,37.9198865 878.427518,34.8491661 881.186211,40.8700814 C881.672024,38.5497491 885.566785,38.7063353 886.207559,41.6974662 L886.215525,41.7431567 L886.202955,41.5929885 C885.742498,35.5262693 892.507336,32.2125528 895.862939,35.8202871 C898.950981,29.9616472 909.804761,32.831625 907.354892,41.443734 Z" id="clouds-foreground" fill="#FFFFFF"></path>
    </g>
</svg>