<?xml version="1.0" encoding="UTF-8"?>
<svg width="1024px" height="79px" viewBox="0 0 1024 79" version="1.1" xmlns="http://www.w3.org/2000/svg" xmlns:xlink="http://www.w3.org/1999/xlink">
    <title>seascape/medium/reflections</title>
    <defs>
        <linearGradient x1="9.88694736%" y1="45.7817654%" x2="9.88694736%" y2="-1.5853656%" id="linearGradient-1">
            <stop stop-color="#F0F3F3" offset="0%"></stop>
            <stop stop-color="#9FB9BB" offset="100%"></stop>
        </linearGradient>
        <linearGradient x1="-1315.76699%" y1="79.7117314%" x2="-1315.76699%" y2="-21.0868477%" id="linearGradient-2">
            <stop stop-color="#FFEFEC" offset="0%"></stop>
            <stop stop-color="#FFCCC2" offset="100%"></stop>
        </linearGradient>
    </defs>
    <g id="seascape/medium/reflections" stroke="none" stroke-width="1" fill="none" fill-rule="evenodd">
        <path d="M221.74502,35.3480415 C221.74502,35.3480415 221.674151,35.2247492 221.216098,34.8336033 C221.131401,34.7611497 221.095103,34.7288135 220.989664,34.6636225 C220.885954,34.599642 220.811628,34.5491492 220.687176,34.5116255 C220.623221,34.4920855 220.554081,34.4830937 220.486669,34.4872437 C220.433086,34.4903563 220.384687,34.5048816 220.334561,34.5242487 C220.187638,34.582177 220.10467,34.6369928 219.981946,34.7203404 C219.392526,35.1241096 219.22659,35.3480415 219.22659,35.3480415 C219.22659,35.3480415 219.392526,35.5718005 219.981946,35.9757425 C220.10467,36.0589172 220.187638,36.113733 220.334561,36.1716613 C220.384687,36.1910284 220.433086,36.2055537 220.486669,36.2088392 C220.554081,36.2128164 220.623221,36.2038245 220.687176,36.1842845 C220.811628,36.1467608 220.885954,36.096268 220.989664,36.0322875 C221.095103,35.9670965 221.131401,35.9347604 221.216098,35.8623067 C221.674151,35.4711608 221.74502,35.3480415 221.74502,35.3480415 Z M222.232458,31.1056125 C222.232458,31.1056125 222.044051,30.9276774 221.499573,30.5911743 C221.390677,30.5240812 221.314623,30.4792948 221.184985,30.4211936 C221.046705,30.3589422 220.923981,30.3042994 220.764958,30.2693694 C220.675076,30.2491378 220.580008,30.2406647 220.486669,30.2448148 C220.414072,30.2479273 220.344932,30.2622797 220.275792,30.2819926 C220.089113,30.335425 219.950833,30.4011348 219.786625,30.4779114 C219.612046,30.5597028 219.510064,30.620052 219.368327,30.7035726 C218.915459,30.96987 218.739152,31.1056125 218.739152,31.1056125 C218.739152,31.1056125 218.915459,31.241355 219.368327,31.5076524 C219.510064,31.591173 219.612046,31.6515222 219.786625,31.7333135 C219.950833,31.8100902 220.089113,31.8757999 220.275792,31.9292323 C220.344932,31.9489453 220.414072,31.9632976 220.486669,31.9664102 C220.580008,31.9705603 220.675076,31.9619143 220.764958,31.9418555 C220.923981,31.9067527 221.046705,31.8522828 221.184985,31.7900314 C221.314623,31.7317572 221.390677,31.6871438 221.499573,31.6200507 C222.044051,31.2835476 222.232458,31.1056125 222.232458,31.1056125 Z M223.890094,28.4218879 C223.890094,28.4218879 223.203878,28.1868891 222.113192,27.9074498 C221.869472,27.8450255 221.625753,27.7886534 221.350921,27.737469 C221.024234,27.6764281 220.690633,27.6183269 220.336289,27.585472 C220.111584,27.5648945 219.88515,27.5567672 219.658716,27.5610902 C219.487594,27.5642028 219.3182,27.5782093 219.150535,27.5980952 C218.735695,27.6475504 218.34851,27.720177 217.96651,27.794014 C217.591425,27.8664676 217.266466,27.9430714 216.95015,28.019848 C216.011572,28.2481029 215.427338,28.4218879 215.427338,28.4218879 C215.427338,28.4218879 216.011572,28.5955 216.95015,28.8237549 C217.266466,28.9005316 217.591425,28.9771353 217.96651,29.049589 C218.34851,29.123426 218.735695,29.1960526 219.150535,29.2455078 C219.3182,29.2655666 219.487594,29.2794002 219.658716,29.2826857 C219.88515,29.2868358 220.111584,29.2787085 220.336289,29.258131 C220.690633,29.2252761 221.024234,29.1671748 221.350921,29.1061339 C221.625753,29.0549495 221.869472,28.9985775 222.113192,28.9361532 C223.203878,28.6567138 223.890094,28.4218879 223.890094,28.4218879 Z M227.400686,24.1761735 C227.400686,24.1761735 226.080108,23.9321828 224.149369,23.6617353 C223.708601,23.6000027 223.24709,23.5419014 222.754467,23.4917545 C222.158133,23.4308866 221.5376,23.3722665 220.898053,23.3397575 C220.488398,23.3190071 220.073557,23.3110527 219.658716,23.3153757 C219.347585,23.3184883 219.038183,23.3323219 218.72878,23.3523807 C217.982067,23.4011442 217.256095,23.4748083 216.561236,23.5484724 C215.892305,23.6193698 215.273501,23.6983944 214.703094,23.7741335 C213.029902,23.9965092 211.916746,24.1761735 211.916746,24.1761735 C211.916746,24.1761735 213.029902,24.3558378 214.703094,24.5780405 C215.273501,24.6537796 215.892305,24.7328042 216.561236,24.8038745 C217.256095,24.8773657 217.982067,24.9510298 218.72878,24.9997933 C219.038183,25.0198521 219.347585,25.0338586 219.658716,25.0369712 C220.073557,25.0411213 220.488398,25.0331669 220.898053,25.0124165 C221.5376,24.9799075 222.158133,24.9212874 222.754467,24.8604195 C223.24709,24.8104455 223.708601,24.7521713 224.149369,24.6904387 C226.080108,24.4201641 227.400686,24.1761735 227.400686,24.1761735 Z M198.076613,21.1350225 C198.076613,21.1350225 197.789682,20.9333973 197.157049,20.6207572 C197.023954,20.5555662 196.916787,20.5059381 196.76295,20.4507765 C196.5901,20.3890439 196.429349,20.3328447 196.237485,20.2987794 C196.123404,20.2783748 196.004137,20.2700746 195.886599,20.2742247 C195.796716,20.2775102 195.710291,20.2915168 195.623866,20.3114026 C195.39916,20.3631058 195.214211,20.4317552 195.011976,20.5073214 C194.802827,20.5851356 194.657632,20.6525746 194.48651,20.7331555 C193.952403,20.9833713 193.698312,21.1350225 193.698312,21.1350225 C193.698312,21.1350225 193.952403,21.2868466 194.48651,21.5370624 C194.657632,21.6176433 194.802827,21.6849093 195.011976,21.7627235 C195.214211,21.8382897 195.39916,21.907112 195.623866,21.9588152 C195.710291,21.9785282 195.796716,21.9927076 195.886599,21.9958202 C196.004137,21.9999703 196.123404,21.9916701 196.237485,21.9714384 C196.429349,21.9372002 196.5901,21.881174 196.76295,21.8194414 C196.916787,21.7642798 197.023954,21.7144787 197.157049,21.6494606 C197.789682,21.3368206 198.076613,21.1350225 198.076613,21.1350225 Z M239.657508,0.249524131 C241.252918,0.304685737 242.812028,0.362268229 244.326198,0.421061164 C258.985641,0.990488027 269.356666,1.51893276 269.356666,1.51893276 C269.356666,1.51893276 258.985641,2.04720457 244.326198,2.61663143 C241.37737,2.73110473 238.260877,2.84142794 235.018203,2.93826337 C237.190933,3.03371542 239.277237,3.14179067 241.256375,3.25418893 C251.298983,3.82430747 258.380665,4.3518876 258.380665,4.3518876 C258.380665,4.3518876 251.298983,4.87964065 241.256375,5.44958627 C238.945365,5.58083285 236.487432,5.70637306 233.917146,5.81254619 C233.768495,5.8185984 233.619843,5.82465061 233.471192,5.83070283 C236.897087,6.27943125 239.114758,6.63633895 239.114758,6.63633895 C239.114758,6.63633895 235.868627,7.15907731 231.163639,7.73421054 C230.634717,7.79888277 230.091967,7.8618258 229.535388,7.92182917 C235.721704,8.45390523 239.954811,8.9207903 239.954811,8.9207903 C239.954811,8.9207903 235.18414,9.44681414 228.372105,10.0186619 C226.807809,10.1499085 225.150173,10.2751028 223.40957,10.3814489 C221.74502,10.4829532 220.021702,10.5818636 218.262084,10.6532797 C220.426172,10.9759492 221.74502,11.2054146 221.74502,11.2054146 C221.74502,11.2054146 220.623221,11.4004688 218.75298,11.6835395 C218.967314,11.6899375 219.181649,11.6970273 219.395983,11.7051545 C221.233383,11.7741498 223.024113,11.89969 224.738789,12.0292073 C226.149249,12.1357263 227.483654,12.2607477 228.74719,12.3921672 C234.262847,12.9653984 238.098398,13.4898659 238.098398,13.4898659 C238.098398,13.4898659 234.262847,14.0143335 228.74719,14.5875646 C227.483654,14.7189841 226.149249,14.8438326 224.738789,14.9503516 C223.563406,15.0392327 222.353454,15.1260387 221.115845,15.1941693 C225.971213,15.7566794 229.308954,16.2621257 229.308954,16.2621257 C229.308954,16.2621257 225.851946,16.7853828 220.856569,17.3598244 C220.293077,17.4244966 219.715756,17.4876126 219.121151,17.5477888 C220.042444,17.5967253 220.93608,17.6487744 221.798604,17.7022068 C228.261481,18.1032092 232.814361,18.4737776 232.814361,18.4737776 C232.814361,18.4737776 228.261481,18.8445189 221.798604,19.2453484 C221.200541,19.2825263 220.585194,19.3190125 219.957747,19.3542882 C220.115041,19.3599946 220.274063,19.3672573 220.429629,19.3759033 C221.30598,19.4246668 222.151219,19.5126833 222.967073,19.6038124 C223.641189,19.6792056 224.266908,19.7661846 224.870156,19.8588699 C227.514767,20.2657516 229.308954,20.6304407 229.308954,20.6304407 C229.308954,20.6304407 227.514767,20.9951299 224.870156,21.4020116 C224.266908,21.4946969 223.641189,21.5816758 222.967073,21.6570691 C222.151219,21.7481982 221.30598,21.8360417 220.429629,21.8848053 C219.871322,21.915931 219.304372,21.9278625 218.739152,21.9216373 C218.31394,21.9169685 217.890456,21.8960451 217.470429,21.865957 C216.447155,21.7928116 215.458451,21.6823155 214.51123,21.5719923 C213.595123,21.4653004 212.753342,21.3470229 211.973786,21.2334142 C209.683518,20.899159 208.16762,20.6304407 208.16762,20.6304407 C208.16762,20.6304407 209.683518,20.3617224 211.973786,20.0274673 C212.753342,19.9138586 213.595123,19.7954082 214.51123,19.6888892 C214.872488,19.6468695 215.238931,19.6048499 215.612288,19.5649053 C214.042806,19.6314796 212.426655,19.6913101 210.784576,19.728315 C209.396587,19.7594407 207.991313,19.7713722 206.587768,19.7649742 C205.536837,19.7603053 204.484178,19.7393819 203.440162,19.7092938 C200.918274,19.6364943 198.443056,19.5254794 196.097476,19.4153291 C193.843507,19.3096748 191.724361,19.1898409 189.802264,19.076751 C184.188083,18.746473 180.361175,18.4737776 180.361175,18.4737776 C180.361175,18.4737776 184.188083,18.201255 189.802264,17.8708041 C191.724361,17.7578871 193.843507,17.6378804 196.097476,17.532226 C197.041239,17.4879584 198.005745,17.4435178 198.987535,17.4014982 C198.048957,17.3082941 197.151864,17.2126691 196.30144,17.1199838 C191.96808,16.6473923 189.05555,16.2621257 189.05555,16.2621257 C189.05555,16.2621257 191.96808,15.8768591 196.30144,15.4042676 C197.779311,15.2429329 199.395462,15.0734709 201.13088,14.9223385 C202.271693,14.8232551 203.448804,14.7236529 204.650115,14.6377115 C203.576713,14.5419136 202.553439,14.4431761 201.583748,14.347724 C196.79752,13.8758242 193.568675,13.4898659 193.568675,13.4898659 C193.568675,13.4898659 196.055992,13.1926158 199.900185,12.8007781 C198.973707,12.7217535 198.064514,12.6333912 197.17952,12.5450289 C195.661893,12.3937235 194.258348,12.2246074 192.967155,12.0632727 C189.180003,11.5894708 186.649473,11.2054146 186.649473,11.2054146 C186.649473,11.2054146 189.180003,10.8211855 192.967155,10.3475565 C194.092411,10.2067993 195.302364,10.0603357 196.598742,9.92493904 C195.959196,9.87600257 195.335206,9.82689317 194.730229,9.77864838 C188.815288,9.30778615 184.80343,8.9207903 184.80343,8.9207903 C184.80343,8.9207903 188.815288,8.53379445 194.730229,8.06293222 C196.752579,7.90211625 198.975436,7.73178966 201.348672,7.58117599 C202.959637,7.47898004 204.627644,7.3760924 206.328492,7.28824884 C203.231013,6.91439495 201.255332,6.63633895 201.255332,6.63633895 C201.255332,6.63633895 203.464361,6.325601 206.872971,5.91941099 C204.975073,5.84764903 203.111746,5.76948901 201.296817,5.69150191 C197.794867,5.54123408 194.496881,5.37056165 191.511755,5.20974569 C182.784537,4.73992097 176.831569,4.3518876 176.831569,4.3518876 C176.831569,4.3518876 182.784537,3.96385423 191.511755,3.49402952 C193.456322,3.38923976 195.533984,3.28029991 197.715356,3.17551015 C193.681027,3.0826519 189.72621,2.97025364 185.923501,2.85854706 C180.808857,2.70827924 175.982874,2.53743389 171.620302,2.37679084 C158.879671,1.90748489 150.166109,1.51893276 150.166109,1.51893276 C150.166109,1.51893276 158.879671,1.13038063 171.620475,0.661074673 C175.3174,0.524813401 179.344814,0.381462393 183.600391,0.249524131 L239.657508,0.249524131 Z M308.840885,19.0878179 C308.840885,19.0878179 308.745818,18.9508649 308.273936,18.5735526 C308.185782,18.5024824 308.140841,18.4668608 308.031945,18.4035719 C307.92305,18.3399372 307.838353,18.2884069 307.708715,18.2515749 C307.639575,18.2318619 307.565249,18.2228701 307.492652,18.2270202 C307.435612,18.2303057 307.383756,18.244658 307.331901,18.264198 C307.176336,18.3209159 307.082997,18.3776338 306.953359,18.4601169 C306.343197,18.8514357 306.144419,19.0878179 306.144419,19.0878179 C306.144419,19.0878179 306.343197,19.3242001 306.953359,19.7155189 C307.082997,19.7981749 307.176336,19.8548928 307.331901,19.9114377 C307.383756,19.9309777 307.435612,19.9455031 307.492652,19.9486156 C307.565249,19.9527657 307.639575,19.9437739 307.708715,19.9242338 C307.838353,19.8872289 307.92305,19.8356986 308.031945,19.7722368 C308.140841,19.708775 308.185782,19.6733264 308.273936,19.6022561 C308.745818,19.2247708 308.840885,19.0878179 308.840885,19.0878179 Z M318.836825,17.842791 C318.836825,17.842791 318.702001,17.6850876 318.200735,17.3285258 C318.103939,17.2593576 318.04517,17.2192401 317.927631,17.158545 C317.804908,17.095602 317.704654,17.0425155 317.562917,17.006548 C317.485134,16.9866622 317.402166,16.9778432 317.320927,16.9819933 C317.256972,16.9852788 317.198203,16.9996312 317.139434,17.0191712 C316.97004,17.0741599 316.857687,17.1336445 316.714222,17.21509 C316.060847,17.5875605 315.805028,17.842791 315.805028,17.842791 C315.805028,17.842791 316.060847,18.0980215 316.714222,18.4704921 C316.857687,18.5519376 316.97004,18.6114222 317.139434,18.6664109 C317.198203,18.6861238 317.256972,18.7004762 317.320927,18.7035888 C317.402166,18.7077389 317.485134,18.6990928 317.562917,18.679207 C317.704654,18.6432396 317.804908,18.5899801 317.927631,18.52721 C318.04517,18.4665149 318.103939,18.4262245 318.200735,18.3572292 C318.702001,18.0004944 318.836825,17.842791 318.836825,17.842791 Z M827.921041,16.667797 C827.921041,16.667797 827.666951,16.4723969 827.063703,16.1533588 C826.939251,16.0878219 826.842455,16.0394042 826.695532,15.983378 C826.534781,15.9216454 826.387858,15.8657922 826.206365,15.8315539 C826.099198,15.8111493 825.988574,15.8028491 825.879678,15.8069992 C825.79671,15.8101118 825.71547,15.8242913 825.63423,15.8441771 C825.421624,15.8962261 825.252231,15.9641839 825.062095,16.0400959 C824.865046,16.1189476 824.735408,16.1844844 824.572929,16.265757 C824.066477,16.5202959 823.838314,16.667797 823.838314,16.667797 C823.838314,16.667797 824.066477,16.8151251 824.572929,17.069664 C824.735408,17.1511095 824.865046,17.2166463 825.062095,17.295498 C825.252231,17.37141 825.421624,17.4391948 825.63423,17.4914168 C825.71547,17.5113026 825.79671,17.5254821 825.879678,17.5285947 C825.988574,17.5327448 826.099198,17.5242717 826.206365,17.50404 C826.387858,17.4696288 826.534781,17.4139485 826.695532,17.3522159 C826.842455,17.2961897 826.939251,17.247772 827.063703,17.1822351 C827.666951,16.8630241 827.921041,16.667797 827.921041,16.667797 Z M809.446789,16.6425506 C809.446789,16.6425506 809.192699,16.4471505 808.589451,16.1281124 C808.464999,16.0625756 808.368203,16.0141579 808.22128,15.9581316 C808.060529,15.8963991 807.911878,15.8405458 807.732113,15.8063075 C807.624946,15.7859029 807.514322,15.7776028 807.405426,15.7817528 C807.320729,15.7848654 807.241218,15.7990449 807.159978,15.8189307 C806.947372,15.8709798 806.777979,15.9389375 806.587843,16.0148495 C806.390794,16.0937012 806.261156,16.1592381 806.098677,16.2405107 C805.592225,16.4952224 805.364062,16.6425506 805.364062,16.6425506 C805.364062,16.6425506 805.592225,16.7898788 806.098677,17.0445905 C806.261156,17.1258631 806.390794,17.1913999 806.587843,17.2702516 C806.777979,17.3461637 806.947372,17.4141214 807.159978,17.4661704 C807.241218,17.4860563 807.320729,17.5002357 807.405426,17.5033483 C807.514322,17.5074984 807.624946,17.4991982 807.732113,17.4787936 C807.911878,17.4445554 808.060529,17.3887021 808.22128,17.3269695 C808.368203,17.2709433 808.464999,17.2225256 808.589451,17.1569888 C809.192699,16.8379506 809.446789,16.6425506 809.446789,16.6425506 Z M248.118536,16.2673133 C248.118536,16.2673133 248.07878,16.1666736 247.63974,15.7528751 C247.560229,15.6781735 247.534302,15.6511979 247.434048,15.5828944 C247.338981,15.5182222 247.276754,15.4696315 247.160945,15.4308974 C247.102175,15.4117032 247.039949,15.4023655 246.977723,15.4065156 C246.929325,15.4096282 246.886112,15.4243264 246.841171,15.4436935 C246.702891,15.503351 246.633751,15.5550542 246.521398,15.6396123 C245.957906,16.0644777 245.83691,16.2673133 245.83691,16.2673133 C245.83691,16.2673133 245.957906,16.4701489 246.521398,16.8950144 C246.633751,16.9795724 246.702891,17.0311027 246.841171,17.0909332 C246.886112,17.1103002 246.929325,17.1248256 246.977723,17.128111 C247.039949,17.1320882 247.102175,17.1229234 247.160945,17.1035564 C247.276754,17.0649951 247.338981,17.0164045 247.434048,16.9517322 C247.534302,16.8834287 247.560229,16.8562802 247.63974,16.7815786 C248.07878,16.3677801 248.118536,16.2673133 248.118536,16.2673133 Z M310.192576,15.850921 C310.192576,15.850921 309.826133,15.6370185 309.108803,15.3366557 C308.956695,15.2725023 308.820143,15.2202803 308.645564,15.166675 C308.443329,15.1052883 308.248008,15.0482245 308.025031,15.014678 C307.890208,14.9942734 307.751928,14.9859732 307.611919,14.9901233 C307.508209,14.9934088 307.404498,15.0074153 307.302517,15.0273012 C307.041513,15.0781398 306.816807,15.1483454 306.580002,15.22322 C306.341468,15.299132 306.159975,15.3698565 305.961198,15.449054 C305.352764,15.6911426 305.031262,15.850921 305.031262,15.850921 C305.031262,15.850921 305.352764,16.0108724 305.961198,16.2529609 C306.159975,16.3321585 306.341468,16.4028829 306.580002,16.478622 C306.816807,16.5536695 307.041513,16.6238752 307.302517,16.6747138 C307.404498,16.6945996 307.508209,16.7086062 307.611919,16.7117187 C307.751928,16.7158688 307.890208,16.7077416 308.025031,16.687337 C308.248008,16.6536175 308.443329,16.5967267 308.645564,16.5353399 C308.820143,16.4817346 308.956695,16.4295126 309.108803,16.3653592 C309.826133,16.0649965 310.192576,15.850921 310.192576,15.850921 Z M320.207528,15.4359121 C320.207528,15.4359121 319.792687,15.216649 319.023503,14.9216468 C318.857567,14.8580121 318.707187,14.8045797 318.517051,14.751666 C318.295803,14.6902793 318.081468,14.6330427 317.839478,14.599669 C317.690826,14.5790915 317.540447,14.5709642 317.388338,14.5751143 C317.274257,14.5783998 317.161904,14.5924064 317.049551,14.6122922 C316.766077,14.662785 316.517172,14.7336823 316.259625,14.808211 C316.002078,14.8832585 315.798114,14.9555392 315.58378,15.0340451 C314.928677,15.2725023 314.569148,15.4359121 314.569148,15.4359121 C314.569148,15.4359121 314.928677,15.5993218 315.58378,15.837952 C315.798114,15.9164578 316.002078,15.9887386 316.259625,16.0636131 C316.517172,16.1383147 316.766077,16.2092121 317.049551,16.2597048 C317.161904,16.2795907 317.274257,16.2935972 317.388338,16.2967098 C317.540447,16.3008599 317.690826,16.2927326 317.839478,16.272328 C318.081468,16.2389544 318.295803,16.1815448 318.517051,16.120331 C318.707187,16.0672444 318.857567,16.0139849 319.023503,15.9503502 C319.792687,15.655348 320.207528,15.4359121 320.207528,15.4359121 Z M331.662325,0.249524131 C332.312243,0.304512817 332.946604,0.362268229 333.565408,0.421061164 C339.580602,0.993773515 343.775682,1.51893276 343.775682,1.51893276 C343.775682,1.51893276 339.580602,2.044092 333.565408,2.61663143 C332.186062,2.74805093 330.727204,2.87307238 329.190564,2.97941842 C328.518176,3.02593401 327.835417,3.07193083 327.142287,3.11498801 C331.254398,3.5803168 333.950865,3.95832078 333.950865,3.95832078 C333.950865,3.95832078 330.210382,4.4824425 324.826091,5.05601945 C324.734481,5.065703 324.644598,5.07521362 324.552988,5.08472424 C324.976471,5.15268195 325.384398,5.22478976 325.785411,5.29983721 C328.903633,5.88344355 330.977838,6.3977088 330.977838,6.3977088 C330.977838,6.3977088 328.903633,6.91180114 325.785411,7.49540748 C325.078453,7.62751866 324.350753,7.75046506 323.559098,7.85819447 C322.703488,7.97456989 321.821951,8.08696815 320.909301,8.15907596 C322.834855,8.54866561 324.017151,8.83709683 324.017151,8.83709683 C324.017151,8.83709683 322.473597,9.21319869 320.045049,9.68665473 C320.10209,9.69581951 320.157402,9.70515722 320.212714,9.71449492 C320.855717,9.82308893 321.434766,9.94447904 322.006901,10.0772819 C324.558173,10.6688426 326.195067,11.1749806 326.195067,11.1749806 C326.195067,11.1749806 324.558173,11.6812915 322.006901,12.2728522 C321.434766,12.4054821 320.855717,12.5268722 320.212714,12.6356392 C319.60428,12.738008 318.985476,12.8367456 318.344201,12.9083346 C320.290497,13.2432814 321.543662,13.5130373 321.543662,13.5130373 C321.543662,13.5130373 319.851457,13.8768618 317.346854,14.2846081 C316.778176,14.3772934 316.187028,14.4640994 315.54921,14.5394927 C314.778297,14.6307947 313.979728,14.7186383 313.151775,14.7674018 C312.622852,14.7985275 312.088745,14.810459 311.552908,14.8042338 C311.151895,14.799565 310.752611,14.7786416 310.355055,14.7485535 C309.387093,14.6752352 308.4537,14.564912 307.556607,14.4545888 C306.690626,14.347724 305.897243,14.2297923 305.159172,14.1160107 C302.991627,13.7812368 301.563883,13.5130373 301.563883,13.5130373 C301.563883,13.5130373 302.991627,13.2448377 305.159172,12.9100638 C305.897243,12.7962822 306.690626,12.6781776 307.556607,12.5714857 C308.4537,12.4609896 309.387093,12.3506664 310.355055,12.277521 C310.514077,12.2654166 310.674828,12.2548685 310.835579,12.2460495 C310.493335,12.175498 310.16492,12.1039089 309.841689,12.0328387 C307.643032,11.5490074 306.251586,11.1749806 306.251586,11.1749806 C306.251586,11.1749806 307.295603,10.8945037 309.003365,10.504914 C308.114914,10.4099807 307.25239,10.2934324 306.412337,10.1767111 C305.318194,10.0241953 304.324304,9.85715424 303.394369,9.69495491 C300.65469,9.21648418 298.867417,8.83709683 298.867417,8.83709683 C298.867417,8.83709683 300.65469,8.45753656 303.394369,7.97923874 C304.324304,7.81686649 305.318194,7.64982539 306.412337,7.4973096 C307.499566,7.34617718 308.623094,7.19573643 309.793291,7.09146543 C307.618833,6.69305684 306.251586,6.3977088 306.251586,6.3977088 C306.251586,6.3977088 307.580806,6.11031511 309.703409,5.72020669 C309.674024,5.71882333 309.64464,5.71743997 309.616984,5.7160566 C307.522037,5.61230437 305.478945,5.45460097 303.532649,5.29793509 C301.658951,5.14697558 299.913162,4.97734067 298.317752,4.81617886 C293.645606,4.34410618 290.496271,3.95832078 290.496271,3.95832078 C290.496271,3.95832078 293.645606,3.57253538 298.317752,3.1004627 C299.913162,2.93930089 301.658951,2.76949306 303.532649,2.61853355 C304.071943,2.57513053 304.619878,2.53155459 305.173,2.4891891 C304.744331,2.45149245 304.322576,2.41396873 303.911192,2.37679084 C298.691109,1.90523692 295.161504,1.51893276 295.161504,1.51893276 C295.161504,1.51893276 298.691109,1.13245567 303.911192,0.661074673 C305.423633,0.524467561 307.058798,0.381635314 308.797673,0.249524131 L331.662325,0.249524131 Z M841.828585,0.249524131 C842.881244,0.304512817 843.907976,0.362268229 844.907051,0.421061164 C854.588403,0.991352629 861.412537,1.51893276 861.412537,1.51893276 C861.412537,1.51893276 854.588403,2.04651288 844.907051,2.61663143 C843.769695,2.68355162 842.596041,2.74908845 841.389545,2.8113398 C841.633264,2.82759431 841.875255,2.84402175 842.115517,2.86044919 C850.424436,3.43125941 856.26678,3.95832078 856.26678,3.95832078 C856.26678,3.95832078 850.424436,4.48520923 842.115517,5.05601945 C840.20552,5.18726603 838.176256,5.31263332 836.050196,5.41880644 C835.649183,5.43886521 835.244713,5.45892398 834.836786,5.4786369 C841.059401,5.9763018 845.247566,6.3977088 845.247566,6.3977088 C845.247566,6.3977088 840.276389,6.89779459 833.118653,7.45200446 C834.596524,7.5218643 836.04501,7.61420379 837.445099,7.70879125 C839.021495,7.81513729 840.518379,7.94033166 841.934024,8.07157824 C848.099598,8.64394475 852.403573,9.16944983 852.403573,9.16944983 C852.403573,9.16944983 848.099598,9.69478199 841.934024,10.2671485 C840.518379,10.3983951 839.021495,10.5235894 837.445099,10.6299355 C835.771907,10.7428525 834.031303,10.852657 832.252672,10.9247648 C834.067602,11.2581553 835.170387,11.4954021 835.170387,11.4954021 C835.170387,11.4954021 833.023585,11.9577912 829.78264,12.4981674 C830.067843,12.5417434 830.344404,12.5873944 830.615779,12.6347746 C832.957902,13.0437313 834.529112,13.4063454 834.529112,13.4063454 C834.529112,13.4063454 832.957902,13.7691324 830.615779,14.1779162 C830.0834,14.2707744 829.533735,14.3574075 828.937402,14.4329738 C828.218344,14.5242757 827.475087,14.6121193 826.702446,14.6608828 C826.209822,14.6920085 825.710284,14.70394 825.210747,14.697542 C824.83739,14.6928731 824.464033,14.6719497 824.092405,14.6418616 C823.190125,14.5685433 822.320688,14.4583931 821.484092,14.3480698 C820.673423,14.2410321 819.935352,14.1232733 819.247408,14.0093188 C817.221601,13.6738532 815.89411,13.4063454 815.89411,13.4063454 C815.89411,13.4063454 816.511186,13.2820156 817.546559,13.0962991 C816.779104,13.016064 816.027204,12.9256267 815.29259,12.8350164 C814.060167,12.6831923 812.933182,12.5151136 811.885709,12.3532602 C808.803786,11.8768645 806.774522,11.4954021 806.774522,11.4954021 C806.774522,11.4954021 808.803786,11.1139397 811.885709,10.637544 C812.672178,10.515981 813.503588,10.3909595 814.390311,10.2719903 C813.391236,10.1905448 812.433644,10.1077159 811.517537,10.0273079 C806.166088,9.55592691 802.543144,9.16944983 802.543144,9.16944983 C802.543144,9.16944983 806.166088,8.78279982 811.517537,8.31141883 C811.939292,8.27441386 812.371418,8.23671721 812.812187,8.19902057 C812.340305,8.18691614 811.870152,8.17221791 811.399999,8.15544463 C808.492655,8.05186531 805.64408,7.89398899 802.938971,7.73732311 C800.34103,7.58670945 797.90211,7.41638286 795.686168,7.25556689 C789.207735,6.78505049 784.806963,6.3977088 784.806963,6.3977088 C784.806963,6.3977088 789.207735,6.01036712 795.686168,5.53985072 C797.90211,5.37886183 800.34103,5.20853524 802.938971,5.05792158 C803.26393,5.03907325 803.592346,5.02022493 803.920762,5.00154953 C802.918229,4.93947111 801.94681,4.87704684 801.009961,4.81617886 C793.793456,4.34583539 788.881047,3.95832078 788.881047,3.95832078 C788.881047,3.95832078 793.793456,3.57063325 801.009961,3.1004627 C802.43252,3.00777736 803.938047,2.91197947 805.512714,2.81860245 C802.465361,2.67836401 799.590859,2.52342734 796.963533,2.37679084 C788.552632,1.90696613 782.817455,1.51893276 782.817455,1.51893276 C782.817455,1.51893276 788.552632,1.13089939 796.963533,0.661074673 C799.402452,0.524813401 802.055706,0.381462393 804.862796,0.249524131 L841.828585,0.249524131 Z M811.937564,13.4063454 C811.937564,13.4063454 811.325673,13.1742862 810.326598,12.8920801 C810.103621,12.8294829 809.885829,12.7736296 809.635196,12.7220994 C809.337893,12.6610585 809.037134,12.6029572 808.713903,12.5701023 C808.511668,12.5495248 808.305976,12.5413975 808.100285,12.5455476 C807.946448,12.5488331 807.792611,12.5628397 807.640502,12.5827255 C807.26196,12.6323537 806.912802,12.7046344 806.565373,12.7786443 C806.224858,12.8516167 805.93274,12.9273559 805.64408,13.0044784 C804.786742,13.2344625 804.263005,13.4063454 804.263005,13.4063454 C804.263005,13.4063454 804.786742,13.5784012 805.64408,13.8083853 C805.93274,13.8855078 806.224858,13.9612469 806.565373,14.0342193 C806.912802,14.1082293 807.26196,14.18051 807.640502,14.2301381 C807.792611,14.250024 807.946448,14.2640305 808.100285,14.2671431 C808.305976,14.2714661 808.511668,14.2633388 808.713903,14.2427613 C809.037134,14.2097335 809.337893,14.1518052 809.635196,14.0907643 C809.885829,14.039234 810.103621,13.9833807 810.326598,13.9207835 C811.325673,13.6385775 811.937564,13.4063454 811.937564,13.4063454 Z M249.167738,12.6638252 C249.167738,12.6638252 248.880806,12.4620271 248.248174,12.149387 C248.115079,12.0843689 248.007912,12.0345679 247.854075,11.9794063 C247.681224,11.9178466 247.520473,11.8616475 247.32861,11.8275822 C247.2128,11.8071775 247.095261,11.7988774 246.977723,11.8030275 C246.887841,11.80614 246.801416,11.8203195 246.714991,11.8402053 C246.490285,11.8919085 246.303607,11.9605579 246.1031,12.0361242 C245.893951,12.1139383 245.748757,12.1812044 245.577635,12.2617853 C245.043527,12.512174 244.789437,12.6638252 244.789437,12.6638252 C244.789437,12.6638252 245.043527,12.8154764 245.577635,13.0656922 C245.748757,13.146446 245.893951,13.213712 246.1031,13.2915262 C246.303607,13.3670924 246.490285,13.4357418 246.714991,13.487445 C246.801416,13.5073309 246.887841,13.5215104 246.977723,13.5246229 C247.095261,13.528773 247.2128,13.5204728 247.32861,13.5000682 C247.520473,13.4660029 247.681224,13.4098038 247.854075,13.3482441 C248.007912,13.2930825 248.115079,13.2432814 248.248174,13.1782634 C248.880806,12.8654504 249.167738,12.6638252 249.167738,12.6638252 Z M251.601472,9.82360769 C251.601472,9.82360769 250.842658,9.58670674 249.660362,9.30934243 C249.394172,9.24709109 249.126254,9.19020028 248.827223,9.13918876 C248.469422,9.07832078 248.102979,9.02004661 247.717523,8.98736465 C247.473804,8.96661421 247.224899,8.95865987 246.977723,8.96280996 C246.791045,8.96592252 246.607823,8.97992908 246.422873,8.99998784 C245.971734,9.04927015 245.544793,9.12206964 245.128224,9.19590665 C244.722025,9.26801446 244.362496,9.34513695 244.018524,9.42174069 C242.998707,9.64861225 242.353975,9.82360769 242.353975,9.82360769 C242.353975,9.82360769 242.998707,9.99877605 244.018524,10.2256476 C244.362496,10.3020784 244.722025,10.3793738 245.128224,10.4513087 C245.544793,10.5251457 245.971734,10.5981181 246.422873,10.6472275 C246.607823,10.6672863 246.791045,10.6812929 246.977723,10.6844054 C247.224899,10.6885555 247.473804,10.6806012 247.717523,10.6600236 C248.102979,10.6271688 248.469422,10.5688946 248.827223,10.5080266 C249.126254,10.4570151 249.394172,10.4002972 249.660362,10.3380459 C250.842658,10.0606815 251.601472,9.82360769 251.601472,9.82360769 Z M252.942791,6.63633895 C252.942791,6.63633895 251.940258,6.395115 250.43646,6.12207369 C250.095945,6.06016819 249.745058,6.00241278 249.363059,5.95192002 C248.903277,5.89122497 248.427938,5.83260495 247.931857,5.80009592 C247.61727,5.77934547 247.297496,5.77139113 246.977723,5.77554122 C246.737461,5.77865379 246.498928,5.79266034 246.262122,5.81271911 C245.683074,5.86165558 245.128224,5.93497383 244.592388,6.00863791 C244.073836,6.08005404 243.601955,6.15838698 243.161186,6.23447195 C241.861351,6.45840386 241.014384,6.63633895 241.014384,6.63633895 C241.014384,6.63633895 241.861351,6.81427404 243.161186,7.03837887 C243.601955,7.11429093 244.073836,7.19279678 244.592388,7.26403999 C245.128224,7.33770408 245.683074,7.41119524 246.262122,7.4599588 C246.498928,7.48001756 246.737461,7.49402411 246.977723,7.49713668 C247.297496,7.50128677 247.61727,7.49333243 247.931857,7.47275491 C248.427938,7.44007295 248.903277,7.38162586 249.363059,7.32075788 C249.745058,7.27026512 250.095945,7.21268263 250.43646,7.15077713 C251.940258,6.87773582 252.942791,6.63633895 252.942791,6.63633895 Z" id="islands" fill="url(#linearGradient-1)"></path>
        <path d="M654.519237,70.7617927 C654.519237,70.7617927 654.394785,70.6096227 653.902161,70.2475274 C653.807093,70.1778405 653.75351,70.1389334 653.6377,70.0773738 C653.520162,70.0144307 653.425094,69.96169 653.286814,69.9255497 C653.21076,69.9056638 653.131248,69.8968449 653.051737,69.900995 C652.989511,69.9042805 652.93247,69.9186328 652.87543,69.9381729 C652.711222,69.9936803 652.602326,70.0524732 652.464046,70.1340917 C651.822771,70.511404 651.584237,70.7617927 651.584237,70.7617927 C651.584237,70.7617927 651.822771,71.0121814 652.464046,71.3894937 C652.602326,71.4712851 652.711222,71.530078 652.87543,71.5854125 C652.93247,71.6051255 652.989511,71.6194779 653.051737,71.6225904 C653.131248,71.6267405 653.21076,71.6179216 653.286814,71.5982087 C653.425094,71.5618954 653.520162,71.5091546 653.6377,71.4462116 C653.75351,71.3848249 653.807093,71.3457449 653.902161,71.2762309 C654.394785,70.9141356 654.519237,70.7617927 654.519237,70.7617927 Z M657.900191,64.8214583 C657.900191,64.8214583 657.101622,64.5835199 655.864013,64.3071931 C655.585724,64.2449417 655.303978,64.187878 654.991119,64.1372123 C654.616033,64.0761714 654.232305,64.0178973 653.827836,63.9852153 C653.570288,63.9644649 653.311013,63.9565105 653.051737,63.9606606 C652.856416,63.9637732 652.662824,63.9777797 652.469231,63.9978385 C651.995621,64.0469479 651.547939,64.1199203 651.110627,64.1937573 C650.685415,64.2656922 650.306873,64.3431605 649.947344,64.4195913 C648.880857,64.6457712 648.201555,64.8214583 648.201555,64.8214583 C648.201555,64.8214583 648.880857,64.9973184 649.947344,65.2234983 C650.306873,65.2999291 650.685415,65.3772245 651.110627,65.4491594 C651.547939,65.5229964 651.995621,65.5959688 652.469231,65.6450782 C652.662824,65.665137 652.856416,65.6791435 653.051737,65.6822561 C653.311013,65.6864062 653.570288,65.6784518 653.827836,65.6578743 C654.232305,65.6251923 654.616033,65.5667452 654.991119,65.5058773 C655.303978,65.4550387 655.585724,65.3979749 655.864013,65.3358965 C657.101622,65.0593968 657.900191,64.8214583 657.900191,64.8214583 Z M660.121319,57.6388639 C660.121319,57.6388639 658.387629,57.2746935 655.827715,56.8672931 C655.245209,56.7746077 654.640232,56.6876288 653.988586,56.6124084 C653.19866,56.5211064 652.381078,56.4332629 651.534111,56.3844993 C650.994817,56.3533736 650.446881,56.3414421 649.898946,56.3476673 C649.48929,56.352509 649.079635,56.3732595 648.671708,56.4035206 C647.683003,56.4766659 646.727141,56.5869891 645.811033,56.6973123 C644.922582,56.8040042 644.110185,56.9222817 643.356558,57.0358904 C641.140615,57.3704914 639.676572,57.6388639 639.676572,57.6388639 C639.676572,57.6388639 641.140615,57.9072363 643.356558,58.2418373 C644.110185,58.3556189 644.922582,58.4737235 645.811033,58.5804154 C646.727141,58.6909115 647.683003,58.8012348 648.671708,58.8743801 C649.079635,58.9044682 649.48929,58.9253916 649.898946,58.9300605 C650.446881,58.9364585 650.994817,58.924527 651.534111,58.8934013 C652.381078,58.8446378 653.19866,58.7566213 653.988586,58.6654922 C654.640232,58.590099 655.245209,58.50312 655.827715,58.4104347 C658.387629,58.0032071 660.121319,57.6388639 660.121319,57.6388639 Z M670.203683,51.9836752 C670.203683,51.9836752 668.495921,51.6196778 665.968848,51.2121044 C665.394985,51.1194191 664.796923,51.0324401 664.153919,50.9570468 C663.376092,50.8659178 662.568881,50.7779013 661.734013,50.7291378 C661.201634,50.6980121 660.660612,50.6860806 660.121319,50.6924786 C659.716849,50.6971475 659.312379,50.7180709 658.911366,50.748159 C657.934761,50.8213043 656.992727,50.9316275 656.088719,51.0421237 C655.212367,51.1488156 654.41207,51.2669202 653.668813,51.3807018 C651.480527,51.7153028 650.038955,51.9836752 650.038955,51.9836752 C650.038955,51.9836752 651.480527,52.2518748 653.668813,52.5866487 C654.41207,52.7004303 655.212367,52.8185349 656.088719,52.9252268 C656.992727,53.03555 657.934761,53.1458732 658.911366,53.2191915 C659.312379,53.2492796 659.716849,53.270203 660.121319,53.2748718 C660.660612,53.281097 661.201634,53.2691655 661.734013,53.2380398 C662.568881,53.1892762 663.376092,53.1014327 664.153919,53.0101307 C664.796923,52.9347374 665.394985,52.8479314 665.968848,52.755246 C668.495921,52.3476727 670.203683,51.9836752 670.203683,51.9836752 Z M663.834146,47.9070769 C663.834146,47.9070769 662.378745,47.5458462 660.190459,47.1355061 C659.694378,47.0426478 659.18447,46.9561876 658.62962,46.8806214 C657.95896,46.7893195 657.267559,46.7014759 656.546772,46.6527124 C656.088719,46.6215867 655.623751,46.6096552 655.158784,46.6158803 C654.809626,46.6205492 654.463925,46.6414725 654.118224,46.6715607 C653.276443,46.7450518 652.469231,46.8550292 651.689676,46.9655253 C650.932591,47.072736 650.248103,47.1901489 649.606828,47.3041035 C647.715845,47.6406066 646.48515,47.9070769 646.48515,47.9070769 C646.48515,47.9070769 647.715845,48.1735472 649.606828,48.5100503 C650.248103,48.6241778 650.932591,48.7415907 651.689676,48.8486285 C652.469231,48.9591246 653.276443,49.0692749 654.118224,49.1425931 C654.463925,49.1726813 654.809626,49.1936046 655.158784,49.1982735 C655.623751,49.2046716 656.088719,49.19274 656.546772,49.1616144 C657.267559,49.1126779 657.95896,49.0250073 658.62962,48.9337053 C659.18447,48.8579662 659.694378,48.7716789 660.190459,48.6786477 C662.378745,48.2684805 663.834146,47.9070769 663.834146,47.9070769 Z M666.127871,44.6110412 C666.127871,44.6110412 664.261086,44.2458334 661.521407,43.8394704 C660.895689,43.7467851 660.244043,43.6596332 659.545727,43.5844128 C658.700489,43.4932838 657.822409,43.4052673 656.914944,43.3565038 C656.334166,43.3253781 655.746475,43.3136195 655.158784,43.3198446 C654.718015,43.3245135 654.278975,43.3454369 653.843392,43.375525 C652.782091,43.4486703 651.755359,43.5591665 650.77184,43.6694897 C649.821163,43.7760086 648.94654,43.8944591 648.139328,44.0080678 C645.764364,44.3419771 644.189697,44.6110412 644.189697,44.6110412 C644.189697,44.6110412 645.764364,44.8801054 648.139328,45.2140147 C648.94654,45.3276234 649.821163,45.4460738 650.77184,45.5525928 C651.755359,45.662916 652.782091,45.7734121 653.843392,45.8465575 C654.278975,45.8766456 654.718015,45.897569 655.158784,45.9022378 C655.746475,45.908463 656.334166,45.8965315 656.914944,45.8654058 C657.822409,45.8168152 658.700489,45.7287987 659.545727,45.6376696 C660.244043,45.5622763 660.895689,45.4751245 661.521407,45.382612 C664.261086,44.9762491 666.127871,44.6110412 666.127871,44.6110412 Z M669.358445,0.249524131 C670.260724,0.31004627 671.138804,0.373508055 671.990957,0.438699044 C679.345742,1.00069033 684.507055,1.51893276 684.507055,1.51893276 C684.507055,1.51893276 679.345742,2.03700226 671.990957,2.59899355 L671.954658,2.6019332 C679.850465,3.16063899 685.390321,3.67455841 685.390321,3.67455841 C685.390321,3.67455841 682.622986,3.93117228 678.211843,4.27908812 C679.034611,4.31557432 679.847008,4.35413557 680.649034,4.39286974 C682.806207,4.49731365 684.864855,4.62077882 686.802508,4.74995035 C695.232423,5.31142288 701.162921,5.83018407 701.162921,5.83018407 C701.162921,5.83018407 695.232423,6.34877233 686.802508,6.91024486 C684.864855,7.03941639 682.806207,7.16288156 680.649034,7.26732548 L680.624835,7.26853592 C684.318648,7.56094431 686.576074,7.76637374 686.576074,7.76637374 C686.576074,7.76637374 680.880653,8.284962 672.782612,8.84660745 C670.919284,8.97577899 668.943604,9.09907123 666.871128,9.20368807 C665.835754,9.25573711 664.783095,9.30726738 663.713151,9.35464757 C663.946499,9.37159377 664.178118,9.38853997 664.409738,9.40583201 C671.937373,9.9678233 677.223139,10.4860657 677.223139,10.4860657 C677.223139,10.4860657 671.937373,11.0041352 664.409738,11.5661265 C663.797847,11.6117775 663.173857,11.6565639 662.537768,11.7001398 C664.150462,11.7639474 665.730315,11.8414158 667.268683,11.9204404 C669.297947,12.0250572 671.2356,12.1483495 673.060901,12.277521 C680.996463,12.8391665 686.576074,13.3577547 686.576074,13.3577547 C686.576074,13.3577547 680.996463,13.8761701 673.060901,14.4378155 C672.07911,14.5073295 671.066207,14.5751143 670.022191,14.6390949 C670.079231,14.6406512 670.134543,14.6423804 670.189855,14.6439366 C672.440368,14.7120673 674.642482,14.8355324 676.746072,14.9629748 C678.471119,15.0675916 680.113198,15.1908839 681.663666,15.3200554 C688.411746,15.8825654 693.137476,16.4002891 693.137476,16.4002891 C693.137476,16.4002891 688.411746,16.9178398 681.663666,17.4803499 C680.113198,17.6096943 678.471119,17.7328137 676.746072,17.8374305 C676.472968,17.8540309 676.198136,17.8704583 675.923304,17.8867128 C676.298389,17.9057341 676.671746,17.9251012 677.039917,17.9444682 C687.722073,18.5052491 695.261808,19.0247019 695.261808,19.0247019 C695.261808,19.0247019 687.722073,19.5441548 677.039917,20.1047627 C674.581984,20.2339343 671.966758,20.3573994 669.230536,20.4618434 C669.0525,20.4685873 668.874464,20.4755041 668.694699,20.482248 C669.940951,20.5591975 671.14399,20.6427181 672.300359,20.7288324 C679.848736,21.2908237 685.146602,21.8090662 685.146602,21.8090662 C685.146602,21.8090662 679.848736,22.3273086 672.300359,22.8892999 C670.98151,22.9875187 669.602164,23.082279 668.165777,23.1680476 C669.10954,23.227878 670.027376,23.2906481 670.917556,23.3548016 C678.709652,23.9166199 684.183825,24.4350353 684.183825,24.4350353 C684.183825,24.4350353 678.709652,24.9534506 670.917556,25.515269 C670.108616,25.5735432 669.278934,25.6306069 668.426781,25.6852498 C669.367087,25.7504407 670.279738,25.819436 671.163003,25.8901604 C678.184187,26.4524976 683.106967,26.9703941 683.106967,26.9703941 C683.106967,26.9703941 678.184187,27.4882907 671.163003,28.0506278 C669.550309,28.1797994 667.840818,28.3029187 666.044903,28.4075355 C663.924028,28.5310007 661.708086,28.6506616 659.443745,28.7200027 C664.012182,29.1408909 666.971381,29.4723793 666.971381,29.4723793 C666.971381,29.4723793 664.815936,29.7139491 661.343371,30.0464751 C662.672591,30.0386936 664.001811,30.0554669 665.315474,30.0983512 C667.401778,30.1663089 669.439685,30.2897741 671.389437,30.4173893 C672.988304,30.5220061 674.509387,30.6451255 675.945774,30.774297 C682.202959,31.3373258 686.576074,31.8545307 686.576074,31.8545307 C686.576074,31.8545307 682.202959,32.3717356 675.945774,32.9347644 C674.509387,33.063936 672.988304,33.1870553 671.389437,33.2916721 C669.439685,33.4192874 667.401778,33.5427525 665.315474,33.6107103 C663.975883,33.6544591 662.620736,33.6710595 661.265589,33.6622405 C661.24139,33.6620676 661.217191,33.6618947 661.191263,33.6617218 C661.250032,33.6682927 661.307073,33.6750366 661.364113,33.6817805 C666.205653,34.2470573 669.555494,34.7618413 669.555494,34.7618413 C669.555494,34.7618413 666.205653,35.2767983 661.364113,35.842075 L661.303616,35.8491648 C661.972547,35.857292 662.639749,35.8728549 663.303495,35.8960262 C665.246334,35.9641568 667.144231,36.0874491 668.960889,36.2150643 C670.452588,36.3198541 671.866504,36.4428005 673.204367,36.572145 C679.038068,37.1356925 683.106967,37.6523787 683.106967,37.6523787 C683.106967,37.6523787 679.038068,38.1688919 673.204367,38.7324395 C671.866504,38.8617839 670.452588,38.9847303 668.960889,39.0895201 C667.144231,39.2171353 665.246334,39.3404276 663.303495,39.4085582 C662.859269,39.424121 662.413315,39.4362255 661.965633,39.4448715 C662.947423,39.5456841 663.872173,39.661022 664.757167,39.7829309 C668.881378,40.3504556 671.707482,40.8631646 671.707482,40.8631646 C671.707482,40.8631646 668.881378,41.3757006 664.757167,41.9432254 C663.815132,42.0729157 662.829885,42.1951704 661.778954,42.300306 C660.503318,42.4279212 659.174099,42.5512135 657.806852,42.6193441 C656.932229,42.6629201 656.045506,42.6795204 655.158784,42.6707015 C654.495038,42.6641305 653.831293,42.634907 653.172732,42.5927144 C651.575595,42.4905184 650.023398,42.3357547 648.540341,42.1813368 C647.10914,42.0322794 645.786834,41.8662758 644.568239,41.707189 C640.993692,41.2406498 638.611814,40.8631646 638.611814,40.8631646 C638.611814,40.8631646 640.993692,40.4855064 644.568239,40.0189672 C645.786834,39.8600534 647.10914,39.6938769 648.540341,39.5448195 C649.902403,39.4030248 651.323233,39.2608842 652.783819,39.1593799 C651.874626,39.0988578 650.977532,39.0345314 650.101181,38.9705508 C648.070188,38.8221851 646.172291,38.6549711 644.442058,38.4964031 C639.377541,38.0324577 635.955103,37.6523787 635.955103,37.6523787 C635.955103,37.6523787 639.377541,37.2721267 644.442058,36.8081813 C645.539658,36.7075416 646.70467,36.6034435 647.928451,36.5029768 C647.857582,36.4993455 647.784985,36.4955412 647.714116,36.4915641 C645.833504,36.3893681 643.999561,36.2344314 642.253772,36.0801864 C640.570209,35.9314749 639.005913,35.7647796 637.572983,35.6060387 C633.372718,35.1408828 630.551799,34.7618413 630.551799,34.7618413 C630.551799,34.7618413 633.372718,34.3829727 637.572983,33.9178169 C639.005913,33.759076 640.570209,33.5923807 642.253772,33.4436692 C643.999561,33.2894242 645.833504,33.1343146 647.714116,33.0322915 C648.014876,33.0158641 648.319093,33.0013388 648.621581,32.9894073 C647.377058,32.8934365 646.187847,32.7943531 645.066048,32.6987281 C639.63336,32.2351285 635.955103,31.8545307 635.955103,31.8545307 C635.955103,31.8545307 638.300683,31.6119234 642.01351,31.2780141 C641.427547,31.2830288 640.839856,31.2837205 640.250436,31.2800892 C639.178763,31.2735182 638.108819,31.2442946 637.044061,31.2021021 C634.472046,31.100079 631.955344,30.9447965 629.563095,30.7905515 C627.264184,30.6423587 625.10874,30.4749718 623.150345,30.3165767 C617.416896,29.8531501 613.529491,29.4723793 613.529491,29.4723793 C613.529491,29.4723793 617.416896,29.0916086 623.150345,28.6283549 C625.10874,28.4699598 627.264184,28.3023999 629.563095,28.1542072 C631.651128,28.0195022 633.837685,27.8841055 636.070913,27.7839846 C630.193999,27.3347374 626.233996,26.9703941 626.233996,26.9703941 C626.233996,26.9703941 630.373763,26.5894505 636.471926,26.1261968 C637.8651,26.0203695 639.351614,25.9103921 640.91591,25.8049107 C640.596137,25.7877915 640.278092,25.7704995 639.961776,25.7532075 C637.246296,25.6051876 634.696752,25.4374548 632.380556,25.2792327 C625.613463,24.8163248 621.008728,24.4350353 621.008728,24.4350353 C621.008728,24.4350353 625.613463,24.0537458 632.380556,23.5908379 C634.696752,23.4326158 637.246296,23.264883 639.961776,23.1168631 C640.335132,23.0964585 640.711946,23.0760539 641.092217,23.0556493 C638.922945,22.9264778 636.874667,22.7865852 634.987141,22.6532635 C628.430925,22.1903556 623.974841,21.8090662 623.974841,21.8090662 C623.974841,21.8090662 628.430925,21.4277767 634.987141,20.9648688 C636.791699,20.8374265 638.744909,20.7039319 640.810471,20.5792563 C638.668854,20.5054193 636.566993,20.4239738 634.523902,20.3428741 C630.798975,20.1950272 627.290112,20.0269486 624.111393,19.8687264 C614.829326,19.4066831 608.494358,19.0247019 608.494358,19.0247019 C608.494358,19.0247019 614.829326,18.6427208 624.111393,18.1805046 C627.290112,18.0222824 630.798975,17.8543767 634.523902,17.7063569 C638.406122,17.5522848 642.502677,17.3968293 646.671828,17.2949792 C647.273348,17.280281 647.878324,17.267139 648.481572,17.2560721 L648.334649,17.2443136 C642.475021,16.7810598 638.50119,16.4002891 638.50119,16.4002891 C638.50119,16.4002891 642.475021,16.0193455 648.334649,15.5560917 C649.995742,15.4248451 651.793386,15.2872005 653.698198,15.1595853 C652.640353,15.1478267 651.584237,15.1218886 650.535035,15.0873045 C647.439284,14.9854544 644.404031,14.829999 641.524343,14.6759269 C638.758737,14.5279071 636.159066,14.3601743 633.801387,14.2017792 C626.906384,13.7390442 622.216952,13.3577547 622.216952,13.3577547 C622.216952,13.3577547 626.906384,12.9762923 633.801387,12.5135574 C635.813366,12.3785065 637.999923,12.2365389 640.316119,12.105984 C638.330068,12.0165841 636.385501,11.9100652 634.508345,11.8042379 C631.886204,11.6560451 629.423086,11.4884853 627.186402,11.3300902 C620.647471,10.8671823 616.203487,10.4860657 616.203487,10.4860657 C616.203487,10.4860657 620.647471,10.1047763 627.186402,9.64186835 C629.423086,9.48347327 631.886204,9.3159134 634.508345,9.16772063 C635.758054,9.0971691 637.038875,9.02644466 638.342167,8.96056199 C636.356116,8.84643453 634.470318,8.72608193 632.715886,8.61057111 C625.680875,8.14783613 620.892918,7.76637374 620.892918,7.76637374 C620.892918,7.76637374 625.680875,7.38508426 632.715886,6.92234929 C635.121964,6.7639542 637.775218,6.59622142 640.597865,6.44820156 C640.781086,6.43851802 640.967765,6.42883448 641.152715,6.41915093 C636.038071,6.07936236 632.779841,5.83018407 632.779841,5.83018407 C632.779841,5.83018407 636.770957,5.52463373 642.855291,5.12916478 C641.972026,5.08455132 641.10086,5.03855449 640.241793,4.99273059 C637.469273,4.84471073 634.866145,4.67697795 632.501552,4.51858286 C625.592721,4.05584788 620.892918,3.67455841 620.892918,3.67455841 C620.892918,3.67455841 625.592721,3.29309602 632.501552,2.83036104 C634.105604,2.72297747 635.818551,2.6112709 637.619652,2.50440609 C636.942079,2.4570259 636.280062,2.40964572 635.637058,2.36295721 C629.250236,1.90004931 624.909962,1.51893276 624.909962,1.51893276 C624.909962,1.51893276 629.250236,1.1378162 635.637058,0.674735385 C637.585082,0.533632342 639.707685,0.384920801 641.961655,0.249524131 L669.358445,0.249524131 Z" id="sun" fill="url(#linearGradient-2)"></path>
        <path d="M708.585117,19.1903597 C708.585117,19.1903597 705.147123,18.9430835 700.27447,18.6760944 C699.15267,18.6145348 697.960002,18.5557418 696.712023,18.5059408 C695.187482,18.4452457 693.590344,18.3864528 691.962093,18.3541167 C690.91462,18.3333662 689.855047,18.3254119 688.795474,18.329562 C688.00209,18.3326745 687.208707,18.3466811 686.420509,18.3667398 C684.519155,18.4153305 682.650642,18.4893404 680.878925,18.5626587 C679.179805,18.6330373 677.579211,18.7130994 676.130724,18.7884927 C671.895889,19.0084474 669.00583,19.1903597 669.00583,19.1903597 C669.00583,19.1903597 671.895889,19.3722719 676.130724,19.5923996 C677.579211,19.6677929 679.179805,19.7476821 680.878925,19.8180607 C682.650642,19.8915519 684.519155,19.9655618 686.420509,20.0139795 C687.208707,20.0342112 688.00209,20.0480449 688.795474,20.0511574 C689.855047,20.0553075 690.91462,20.0475261 691.962093,20.0267756 C693.590344,19.9942666 695.187482,19.9354737 696.712023,19.8747786 C697.958274,19.8249775 699.15267,19.7661846 700.27447,19.7047979 C705.147123,19.4376359 708.585117,19.1903597 708.585117,19.1903597 Z M664.190218,19.1903597 C664.190218,19.1903597 663.151387,18.948617 661.600919,18.6760944 C661.250032,18.6141889 660.885318,18.5564335 660.491219,18.5059408 C660.01588,18.4452457 659.523257,18.3866257 659.011619,18.3541167 C658.686661,18.3333662 658.356516,18.3254119 658.026372,18.329562 C657.777467,18.3326745 657.53202,18.3466811 657.286572,18.3667398 C656.68851,18.4156763 656.112918,18.4889946 655.559797,18.5626587 C655.02396,18.6340748 654.536522,18.7124077 654.080197,18.7884927 C652.738878,19.0122517 651.860798,19.1903597 651.860798,19.1903597 C651.860798,19.1903597 652.738878,19.3686406 654.080197,19.5923996 C654.536522,19.6683117 655.02396,19.7468175 655.559797,19.8180607 C656.112918,19.8917248 656.68851,19.965216 657.286572,20.0139795 C657.53202,20.0340383 657.777467,20.0480449 658.026372,20.0511574 C658.356516,20.0553075 658.686661,20.0473532 659.011619,20.0267756 C659.523257,19.9940937 660.01588,19.9356466 660.491219,19.8747786 C660.885318,19.8244588 661.250032,19.7667034 661.600919,19.7047979 C663.151387,19.4321024 664.190218,19.1903597 664.190218,19.1903597 Z M620.531661,15.2002216 C620.531661,15.2002216 618.300162,14.9536371 615.1128,14.6857834 C614.379915,14.6242237 613.603816,14.5656037 612.789691,14.5158026 C611.795801,14.4551076 610.75697,14.3963146 609.692212,14.3639785 C609.009452,14.3430552 608.319779,14.3352737 607.628378,14.3394238 C607.111555,14.3425364 606.593004,14.35637 606.079638,14.3766017 C604.838572,14.4250194 603.621705,14.4990293 602.467064,14.5725205 C601.357365,14.643072 600.316805,14.7227883 599.369585,14.7981816 C596.60225,15.0188281 594.725094,15.2002216 594.725094,15.2002216 C594.725094,15.2002216 596.60225,15.3814421 599.369585,15.6020886 C600.316805,15.6776548 601.357365,15.7573711 602.467064,15.8279226 C603.621705,15.9012408 604.838572,15.9752508 606.079638,16.0238414 C606.593004,16.0439002 607.111555,16.0579067 607.628378,16.0610193 C608.319779,16.0651694 609.009452,16.057215 609.692212,16.0364646 C610.75697,16.0041285 611.795801,15.9453355 612.789691,15.8846405 C613.603816,15.8346665 614.379915,15.7760465 615.1128,15.7144868 C618.300162,15.4466331 620.531661,15.2002216 620.531661,15.2002216 Z M710.277323,10.5322355 C710.277323,10.5322355 702.084213,10.2844405 690.522249,10.0177973 C687.858624,9.95641055 685.016964,9.8974447 682.054308,9.84781654 C678.433092,9.78712148 674.635568,9.72832855 670.765447,9.69599243 C668.276401,9.67506907 665.757971,9.66728765 663.23954,9.67143774 C661.353742,9.67455031 659.469673,9.68855686 657.595974,9.70861562 C653.077665,9.75703333 648.631952,9.83121618 644.424773,9.90453443 C640.390445,9.97491303 636.579093,10.0549752 633.135913,10.1301955 C623.08639,10.3499774 616.203487,10.5322355 616.203487,10.5322355 C616.203487,10.5322355 623.08639,10.7144936 633.135913,10.9342754 C636.579093,11.0094958 640.390445,11.0895579 644.424773,11.1599365 C648.631952,11.2332548 653.077665,11.3074376 657.595974,11.3558553 C659.469673,11.3759141 661.353742,11.3899206 663.23954,11.3930332 C665.757971,11.3971833 668.276401,11.3894019 670.765447,11.3684785 C674.635568,11.3361424 678.433092,11.2773495 682.054308,11.2166544 C685.016964,11.1670262 687.858624,11.1080604 690.522249,11.0466736 C702.084213,10.7800304 710.277323,10.5322355 710.277323,10.5322355 Z M547.9898,9.41638015 C547.9898,9.41638015 543.663354,9.16875815 537.54445,8.90194198 C536.135719,8.84055524 534.633649,8.78158938 533.067624,8.73196123 C531.152442,8.67126617 529.145648,8.61230031 527.097371,8.5799642 C525.781979,8.55921375 524.451031,8.55125941 523.118355,8.55558242 C522.121008,8.55869499 521.125389,8.57252862 520.134956,8.59258739 C517.744435,8.64117802 515.395398,8.71518795 513.170813,8.7885062 C511.036111,8.85905772 509.022404,8.93894694 507.20056,9.01434023 C501.881953,9.23429498 498.246909,9.41638015 498.246909,9.41638015 C498.246909,9.41638015 501.881953,9.59829241 507.20056,9.81824715 C509.022404,9.89364045 511.036111,9.97370259 513.170813,10.0440812 C515.395398,10.1173994 517.744435,10.1914094 520.134956,10.24 C521.125389,10.2600588 522.121008,10.2738924 523.118355,10.2771779 C524.451031,10.281328 525.781979,10.2733736 527.0991,10.2526232 C529.145648,10.2202871 531.152442,10.1613212 533.067624,10.1006262 C534.633649,10.050998 536.135719,9.99220507 537.54445,9.93064541 C543.663354,9.66382924 547.9898,9.41638015 547.9898,9.41638015 Z M778.783126,9.41638015 C778.783126,9.41638015 775.345132,9.16893107 770.472478,8.90194198 C769.350679,8.84038232 768.158011,8.78158938 766.910032,8.73196123 C765.385491,8.67126617 763.788353,8.61230031 762.160102,8.5799642 C761.112629,8.55921375 760.053056,8.55125941 758.993483,8.55558242 C758.200099,8.55869499 757.406716,8.57252862 756.618518,8.59258739 C754.717164,8.64117802 752.848651,8.71518795 751.078662,8.7885062 C749.377814,8.85905772 747.77722,8.93894694 746.328733,9.01434023 C742.093898,9.2344679 739.203839,9.41638015 739.203839,9.41638015 C739.203839,9.41638015 742.093898,9.59811949 746.328733,9.81824715 C747.77722,9.89364045 749.377814,9.97352967 751.078662,10.0440812 C752.848651,10.1173994 754.717164,10.1914094 756.618518,10.24 C757.406716,10.2600588 758.200099,10.2738924 758.993483,10.2771779 C760.053056,10.281328 761.112629,10.2733736 762.160102,10.2526232 C763.788353,10.2202871 765.385491,10.1614941 766.910032,10.1006262 C768.158011,10.050998 769.350679,9.99220507 770.472478,9.93064541 C775.345132,9.66365632 778.783126,9.41638015 778.783126,9.41638015 Z M205.490168,8.7444115 C205.490168,8.7444115 201.163722,8.49696241 195.043089,8.23014624 C193.634358,8.16858658 192.134016,8.10979364 190.566263,8.06016549 C188.652809,7.99929751 186.644287,7.94050458 184.597738,7.90816846 C183.282347,7.88741801 181.94967,7.87946368 180.618722,7.88361377 C179.621375,7.88689925 178.624028,7.90073289 177.633595,7.92079165 C175.244803,7.96938228 172.894037,8.04339221 170.670144,8.11671046 C168.535268,8.18708906 166.522079,8.2671512 164.700927,8.3425445 C159.382493,8.56249924 155.747276,8.7444115 155.747276,8.7444115 C155.747276,8.7444115 159.382493,8.92649667 164.700927,9.14645142 C166.521907,9.22184471 168.535095,9.30173393 170.670144,9.37228545 C172.894037,9.4456037 175.244803,9.51961363 177.633595,9.56820426 C178.624028,9.58826303 179.621375,9.60209666 180.618722,9.60520923 C181.94967,9.60953224 183.282347,9.6015779 184.597738,9.58082745 C186.644287,9.54849134 188.652809,9.48952548 190.566263,9.42883042 C192.134016,9.37920227 193.634358,9.32023641 195.043089,9.25884967 C201.163722,8.9920335 205.490168,8.7444115 205.490168,8.7444115 Z M364.192773,6.50249856 C364.192773,6.50249856 359.866327,6.25504948 353.747422,5.98806039 C352.338691,5.92667365 350.83835,5.86788071 349.270597,5.81807964 C347.355414,5.75738458 345.348621,5.69859164 343.302072,5.66625553 C341.984952,5.64550508 340.654004,5.63755074 339.321327,5.64170083 C338.32398,5.6448134 337.328362,5.65881995 336.337929,5.67887872 C333.947408,5.72729643 331.59837,5.80147928 329.373786,5.87479753 C327.239083,5.94517613 325.225376,6.02523827 323.403532,6.10063156 C318.086654,6.32058631 314.449881,6.50249856 314.449881,6.50249856 C314.449881,6.50249856 318.086654,6.68458374 323.403532,6.90453848 C325.225376,6.97975886 327.239083,7.059821 329.373786,7.1301996 C331.59837,7.20369077 333.947408,7.2777007 336.337929,7.32611841 C337.328362,7.3463501 338.32398,7.36018373 339.321327,7.3632963 C340.654004,7.36744638 341.984952,7.35966497 343.302072,7.3387416 C345.348621,7.30640548 347.355414,7.24761255 349.270597,7.18691749 C350.83835,7.13728934 352.338691,7.07832348 353.747422,7.01693674 C359.866327,6.75012057 364.192773,6.50249856 364.192773,6.50249856 Z M226.323828,6.50249856 C226.323828,6.50249856 225.139802,6.25954541 223.395742,5.98806039 C222.998186,5.92632781 222.583345,5.86839947 222.140848,5.81807964 C221.601554,5.75738458 221.043247,5.69876456 220.465927,5.66625553 C220.097756,5.64550508 219.724399,5.63755074 219.351042,5.64170083 C219.071024,5.6448134 218.791007,5.65881995 218.514446,5.67887872 C217.840329,5.72764227 217.186955,5.80130636 216.561236,5.87479753 C215.957988,5.94586781 215.403139,6.02471951 214.888044,6.10063156 C213.377332,6.32335303 212.378256,6.50249856 212.378256,6.50249856 C212.378256,6.50249856 213.377332,6.68164409 214.888044,6.90453848 C215.403139,6.98027762 215.957988,7.05912932 216.561236,7.1301996 C217.186955,7.20386369 217.840329,7.27735486 218.514446,7.32611841 C218.791007,7.34617718 219.071024,7.36018373 219.351042,7.3632963 C219.724399,7.36744638 220.097756,7.35949205 220.465927,7.3387416 C221.043247,7.30623256 221.601554,7.24778547 222.140848,7.18691749 C222.583345,7.13659766 222.998186,7.07866932 223.395742,7.01693674 C225.139802,6.74562464 226.323828,6.50249856 226.323828,6.50249856 Z M602.159391,6.22755514 C602.159391,6.22755514 600.287421,5.98166233 597.59614,5.71328988 C596.980792,5.65173022 596.329146,5.5931102 595.641202,5.54330913 C594.804606,5.48244115 593.929983,5.42382114 593.034617,5.3913121 C592.459026,5.37056165 591.878248,5.36260732 591.295742,5.3667574 C590.860159,5.37004289 590.424576,5.38387652 589.99245,5.40393529 C588.946705,5.45252592 587.923431,5.52653585 586.950283,5.5998541 C586.015162,5.67057854 585.140539,5.75012192 584.343699,5.82568814 C582.00849,6.0466804 580.432094,6.22755514 580.432094,6.22755514 C580.432094,6.22755514 582.00849,6.40860279 584.343699,6.62959506 C585.140539,6.70516127 586.015162,6.78470465 586.950283,6.85542909 C587.923431,6.92874734 588.946705,7.00275727 589.99245,7.0513479 C590.424576,7.07140667 590.860159,7.0852403 591.295742,7.08835287 C591.878248,7.09267588 592.459026,7.08472154 593.034617,7.06397109 C593.929983,7.03146206 594.804606,6.97284204 595.641202,6.91197406 C596.329146,6.86217299 596.980792,6.80355297 597.59614,6.74199331 C600.287421,6.47362086 602.159391,6.22755514 602.159391,6.22755514 Z M901.852619,5.46290114 C901.852619,5.46290114 898.414624,5.21562498 893.540243,4.94846297 C892.418444,4.88707623 891.225776,4.82811037 889.977796,4.77848222 C888.454984,4.71778716 886.857846,4.6588213 885.227866,4.62648519 C884.182121,4.60573474 883.122548,4.5977804 882.062975,4.60210341 C881.269592,4.60521598 880.476209,4.61904961 879.688011,4.63910838 C877.784928,4.68769901 875.916415,4.76170894 874.146427,4.83520011 C872.447307,4.90557871 870.846712,4.98546793 869.396497,5.06086122 C865.161662,5.28098889 862.273332,5.46290114 862.273332,5.46290114 C862.273332,5.46290114 865.161662,5.64464048 869.396497,5.86476814 C870.846712,5.94016144 872.447307,6.02005066 874.146427,6.09060218 C875.916415,6.16392043 877.784928,6.23793036 879.688011,6.28652099 C880.476209,6.30657976 881.269592,6.32058631 882.062975,6.32369888 C883.122548,6.32784896 884.182121,6.31989463 885.229595,6.29914418 C886.857846,6.26680807 888.454984,6.20801513 889.977796,6.14714715 C891.225776,6.097519 892.418444,6.03872606 893.540243,5.9771664 C898.414624,5.71017731 901.852619,5.46290114 901.852619,5.46290114 Z M825.950546,5.17412408 C825.950546,5.17412408 824.880602,4.93203553 823.28865,4.65985883 C822.927393,4.59795333 822.552307,4.54019791 822.147837,4.48970516 C821.658671,4.4290101 821.152219,4.37039008 820.626754,4.33788105 C820.291424,4.3171306 819.950909,4.30917626 819.612122,4.31332635 C819.356303,4.31643892 819.103942,4.33044547 818.85158,4.35050424 C818.236233,4.39944071 817.645084,4.47275896 817.076406,4.54642305 C816.525014,4.61766625 816.022019,4.69634503 815.553594,4.77225708 C814.175976,4.99567024 813.271969,5.17412408 813.271969,5.17412408 C813.271969,5.17412408 814.175976,5.35257793 815.553594,5.576164 C816.022019,5.65207606 816.525014,5.73058192 817.076406,5.80182512 C817.645084,5.87548921 818.236233,5.94898038 818.85158,5.99774393 C819.103942,6.0178027 819.356303,6.03180925 819.612122,6.03492181 C819.950909,6.0390719 820.291424,6.03129049 820.626754,6.01054004 C821.152219,5.97785808 821.658671,5.91941099 822.147837,5.85854301 C822.552307,5.80822318 822.927393,5.75046776 823.28865,5.68856226 C824.880602,5.41621264 825.950546,5.17412408 825.950546,5.17412408 Z M677.940468,3.69323381 C677.940468,3.69323381 672.42654,3.44561181 664.636172,3.17879564 C662.841984,3.1174089 660.92853,3.05861596 658.933837,3.00881489 C656.494917,2.94811983 653.93846,2.88932689 651.331876,2.85699078 C649.655227,2.83624033 647.959564,2.82828599 646.263902,2.83243608 C644.993451,2.83554865 643.723,2.8495552 642.461192,2.86961397 C639.419025,2.91803168 636.425256,2.99221453 633.592238,3.06553278 C630.875029,3.13591138 628.308201,3.21597352 625.990277,3.29136681 C619.219726,3.51114864 614.585607,3.69323381 614.585607,3.69323381 C614.585607,3.69323381 619.219726,3.87531899 625.990277,4.09527373 C628.308201,4.17049411 630.875029,4.25055625 633.592238,4.32093485 C636.425256,4.3942531 639.419025,4.46843595 642.461192,4.51685366 C643.723,4.53708535 644.993451,4.55091898 646.263902,4.55403154 C647.959564,4.55818163 649.655227,4.55040022 651.331876,4.52947685 C653.93846,4.49714073 656.494917,4.4383478 658.933837,4.37765274 C660.92853,4.32802459 662.841984,4.26905873 664.636172,4.20767199 C672.424811,3.94085582 677.940468,3.69323381 677.940468,3.69323381 Z" id="highlights" fill="#FF9886"></path>
    </g>
</svg>