<?xml version="1.0" encoding="UTF-8"?>
<svg width="1024px" height="79px" viewBox="0 0 1024 79" version="1.1" xmlns="http://www.w3.org/2000/svg" xmlns:xlink="http://www.w3.org/1999/xlink">
    <title>seascape/medium/sky</title>
    <g id="seascape/medium/sky" stroke="none" stroke-width="1" fill="none" fill-rule="evenodd">
        <path d="M0,14.8394469 C5.48724809,12.3821853 11.8357258,12.0312468 16.7513567,14.635425 C18.5052843,4.44972945 38.5194926,1.39459183 41.6893224,12.1362861 C40.5938093,1.02479126 57.7824376,-5.36668469 63.028486,5.93671883 C67.8052759,4.26370436 70.7420325,6.30738463 72.5248349,10.6814834 C78.9763627,12.7755202 81.1134432,17.8321147 80.5452841,24.7463644 C83.5019246,20.8214946 86.1831307,20.4728058 88.630399,23.1583159 C92.0371059,13.0030765 108.447498,13.216789 109.293166,26.7085398 C112.040076,25.1265478 114.176464,25.7263273 115.837543,28.0245591 C117.004292,23.7755731 119.859439,22.9022069 123.320783,23.2408591 C119.296812,17.3647159 120.053782,9.43277916 126.436321,7.9324652 C131.563758,6.72702262 133.521538,9.42568425 134.379829,14.1422422 C142.546554,7.33458921 152.206987,17.7417844 150.346725,28.0230017 C150.117455,28.6831745 149.927608,29.3995874 149.78358,30.1712021 C150.030485,29.4599806 150.216702,28.7423564 150.346725,28.0230017 C153.559953,18.7670855 164.549492,20.2691299 166.400591,31.4290778 C173.241842,32.038721 174.841194,37.1868571 172.984216,45.3286994 C177.652596,43.3192823 181.340616,44.5096698 183.657516,50.1563532 C190.826072,47.5509637 194.457034,51.5204795 195.790116,59.7675341 C205.462307,57.5160249 209.364727,61.5487027 209.688055,69.4808125 C217.036431,62.7875433 224.013065,61.2531391 230.234113,70.2238746 C232.784431,63.1627083 237.385379,61.2299509 243.76204,63.7451831 C246.018423,51.9510195 255.033583,52.6548 257.48016,64.5076264 C256.85598,58.0766958 264.806058,54.1691307 268.257201,59.3110372 C264.045285,30.5150457 295.152255,28.6698499 299.718622,43.4540856 C302.587082,39.8353352 307.345371,41.0215696 307.737861,44.9985265 C314.045361,33.8366751 333.32404,39.507412 331.958107,51.5957548 C332.234751,51.4718535 332.513125,51.3597193 332.791499,51.2602175 C332.597848,43.6468595 342.294245,38.8567568 348.162571,41.9648466 C349.096247,36.5362019 359.76263,34.9080065 361.451892,40.632907 C360.869209,34.7109065 370.029608,31.3044843 372.825448,37.3287553 C375.372309,36.4370462 376.937081,37.5263745 377.886318,39.8574852 C381.325358,40.9736357 382.464788,43.6684903 382.162208,47.3535176 C383.737354,45.2617303 385.165532,45.0760513 386.470949,46.5071467 C388.28643,41.0947684 397.031862,41.208633 397.483138,48.3992381 C398.947626,47.5561551 400.085328,47.8759452 400.970591,49.100769 C401.593042,46.8361082 403.114588,46.370786 404.959462,46.5511005 C402.815465,43.4194763 403.218329,39.191948 406.61933,38.3922997 C409.352926,37.7499507 410.395531,39.188314 410.853724,41.7019889 C415.205691,38.0733748 420.35647,43.6215947 419.362278,49.1018073 C419.239517,49.4541302 419.139233,49.8348327 419.063156,50.2447801 C419.194562,49.8663272 419.293117,49.4844133 419.362278,49.1018073 C421.072288,44.1665184 426.931969,44.9659937 427.919245,50.9151626 C431.565768,51.2401441 432.41818,53.9839709 431.427446,58.3232872 C433.917249,57.2523019 435.881426,57.8866907 437.117682,60.896144 C440.937108,59.5076181 442.871892,61.6231127 443.582524,66.0184962 C448.73849,64.8185911 450.818512,66.9678298 450.989686,71.1953581 C454.905938,67.6281756 458.62508,66.8103574 461.93963,71.5914618 C463.300376,67.8280445 465.75214,66.7978981 469.149683,68.1384901 C470.353088,61.8527456 475.158061,62.2277375 476.461749,68.5448035 C476.128046,65.1174426 480.365898,63.0348269 482.205585,65.7751927 C479.959576,50.4280364 496.53924,49.4446126 498.971984,57.3241162 C500.502175,55.3953389 503.036933,56.0276511 503.247874,58.1472989 C506.609108,52.1984761 516.883001,55.2207349 516.15508,61.6632596 C522.023406,59.0300095 529.880116,66.5410969 526.764405,72.6148593 C532.622357,65.9648518 543.729642,70.8920075 545.467317,78.9229268 L0,78.9229268 L0,14.8394469 Z M749.355049,78.9229268 C747.944489,67.0349062 764.087379,58.194335 772.09667,67.2721524 C768.338053,59.959447 777.811426,50.9164832 784.8884,54.0867831 C784.009605,46.3301252 796.397331,42.6913719 800.451182,49.85362 C800.704979,47.3017133 803.762633,46.5404548 805.604821,48.8625347 C808.539892,39.3759635 828.529452,40.5599517 825.822281,59.0373787 C828.040849,55.7380169 833.149599,58.2454076 832.747322,62.3719392 C834.320175,54.7662563 840.112624,54.314712 841.562894,61.8826081 C845.659908,60.2686435 848.617423,61.5088806 850.255884,66.0398523 C854.25276,60.2836547 858.736512,61.2681835 863.458523,65.5629443 C863.665705,60.4732792 866.174327,57.8856561 872.389772,59.3303562 C873.246122,54.0384711 875.580367,51.4913955 880.184975,53.1631619 C881.674955,49.5399374 884.045457,48.7760908 887.044409,50.0655025 C885.851389,44.8410816 886.878663,41.5377512 891.27609,41.1464244 C892.465657,33.9855565 899.527093,33.0217329 901.592002,38.9609983 C901.674874,39.4225501 901.79573,39.8830666 901.954569,40.3394421 C901.861337,39.8442445 901.738755,39.3845907 901.592002,38.9609983 C900.397255,32.3638275 906.604067,25.6859068 911.852664,30.0541707 C912.403422,27.0277715 913.662049,25.2961328 916.956235,26.0694692 C921.058428,27.0322576 921.545305,32.1219226 918.958989,35.8923261 C921.182737,35.6750948 923.01802,36.2355136 923.767326,38.9620336 C924.834311,37.487311 926.208614,37.1023682 927.97311,38.117437 C928.516961,29.4602787 939.062499,29.3231072 941.251717,35.8393555 C942.824569,34.1163439 944.545902,34.3399593 946.446792,36.8583928 C946.080772,32.4218019 947.455075,29.1771361 951.600431,27.833546 C952.746836,25.0267936 954.633914,23.7152964 957.703653,24.7888572 C961.073805,17.5358515 972.120031,21.6371919 971.415614,28.7670021 C973.452898,21.8744381 986.313689,23.8346959 987.441101,30.3706141 C996.356811,25.6536413 1012.61192,36.0458891 1003.06949,49.3056244 C1002.97281,49.4331334 1002.87785,49.5623679 1002.78462,49.6938455 C1002.8813,49.5647835 1002.97626,49.4358941 1003.06949,49.3056244 C1008.07638,42.6663532 1015.42959,41.6776834 1019.57322,48.5302174 C1020.78696,47.7622298 1022.41851,47.7658532 1024,48.3136763 L1024,78.9229268 L749.355049,78.9229268 Z" id="clouds-background" fill="#FFFFFF"></path>
        <path d="M624.821395,78.8653612 C623.385008,75.2181242 622.59681,71.2452781 622.59681,67.0894823 C622.59681,49.3219116 637.015991,34.8970651 654.776371,34.8970651 C672.536751,34.8970651 686.955932,49.3219116 686.955932,67.0894823 C686.955932,71.2452781 686.166006,75.2181242 684.731347,78.8653612 L624.821395,78.8653612 Z" id="sun" fill="#FF9886"></path>
    </g>
</svg>