<?xml version="1.0" encoding="UTF-8"?>
<svg width="1600px" height="79px" viewBox="0 0 1600 79" version="1.1" xmlns="http://www.w3.org/2000/svg" xmlns:xlink="http://www.w3.org/1999/xlink">
    <title>seascape/large/horizon</title>
    <g id="seascape/large/horizon" stroke="none" stroke-width="1" fill="none" fill-rule="evenodd">
        <g id="horizon" transform="translate(117.595506, 15.325843)">
            <path d="M1237.33266,49 L1270.65169,63.747191 L1192,63.747191 L1195.7077,60.6603356 L1205.39449,60.4700574 L1214.41944,50.4230439 L1219.2533,54.2965263 L1223.881,51.0193928 L1237.33266,49 Z M204.293036,47 C206.192978,47.5063181 208.038737,48.2629468 209.770883,49.5444088 C211.89805,48.5967536 214.117854,47.9173901 216.444279,47.5543863 C218.13972,49.1352952 220.069377,50.6070716 222.317147,51.9296586 L224.161158,51.7779768 C226.936787,55.8456127 230.441281,58.9935442 234.410711,61.5566462 L242.157303,63.7134831 L193,63.7134831 C197.574195,58.0604875 201.515659,52.4715828 204.293036,47 Z M95.5602805,31.2341573 C99.9074598,35.2556158 103.949971,48.4680415 115.663155,59.8852996 L120.226214,58.9508242 C121.155887,57.8224727 122.054223,57.2722933 122.940372,56.9849352 C126.383992,58.0994631 129.486385,59.580662 132.136127,61.5503524 L144.926966,63.6779775 L24,63.6779775 L41.6529948,62.2517274 L44.5889512,60.158143 L50.3208907,59.9091453 C53.9631548,58.6401387 56.088868,56.9018208 57.605419,55.7171381 C63.8747931,50.8182265 67.4298352,44.2938321 70.1666256,43.6971709 C74.418052,44.7947649 79.1134234,44.5340172 82.3446467,44.2089898 C86.3540796,39.6758852 90.7204094,35.3304361 95.5602805,31.2341573 Z" id="islands" fill="#19464C"></path>
            <path d="M1207.92117,57.0356959 L1207.859,57.248 L1207.8837,57.1832797 C1208.57049,55.5441322 1210.84193,56.1387622 1211.01497,57.974282 C1211.75604,54.830712 1216.49993,55.2734469 1216.32075,58.8043467 C1218.97538,59.157386 1223.15564,59.5742764 1229.91573,59.9719101 L1166.99438,59.9719101 C1174.69211,59.3849189 1181.11994,59.3006287 1185.9682,58.9325557 C1184.97141,55.116184 1190.54509,53.3297038 1192.19771,56.832732 C1192.48915,55.4810674 1194.82852,55.5740812 1195.2086,57.3206217 L1195.214,57.356 L1195.20628,57.2747543 C1194.91259,53.7315583 1198.9806,51.791332 1200.99487,53.8947356 C1202.8301,50.5159154 1209.23887,52.12707 1207.92117,57.0356959 Z M58.332924,54.092393 L58.273,54.292 L58.2962544,54.2338806 C59.0066091,52.5947754 61.3486735,53.189381 61.5260933,55.0247849 C62.2892014,51.8812542 67.1828945,52.3239028 66.9973683,55.8548748 C69.7365062,56.2080379 74.0456166,56.6248132 81.0168539,57.0224719 L16.1292135,57.0224719 C24.0676379,56.4354598 30.6974019,56.351083 35.6961099,55.983088 C34.6680143,52.1668499 40.4156533,50.3802697 42.1214449,53.8832259 C42.4212521,52.5314907 44.8345545,52.624672 45.2265826,54.3711958 L45.233,54.409 L45.2241024,54.3253203 C44.9204462,50.7821014 49.1152237,48.8418934 51.1935049,50.9451989 C53.0863166,47.5651011 59.7000202,49.1790228 58.332924,54.092393 Z M1129.80011,52.780542 L1129.748,52.958 L1129.75872,52.9316779 C1130.50776,51.0510441 1133.05246,51.7161799 1133.24382,53.7919663 C1134.06674,50.2555105 1139.331,50.7535665 1139.13182,54.7256278 C1142.07582,55.1230404 1146.71284,55.5918496 1154.21348,56.0393258 L1084.41011,56.0393258 C1092.94859,55.378864 1100.08058,55.2840699 1105.4584,54.8699694 C1104.35244,50.5767093 1110.53571,48.5669371 1112.37025,52.5076871 C1112.68493,51.0230556 1115.16689,51.0877575 1115.67711,52.9203222 L1115.715,53.081 L1115.70995,53.0267506 C1115.36523,49.0268956 1119.89046,46.8319358 1122.13,49.2024531 C1124.17046,45.3912068 1131.313,47.2235838 1129.80011,52.780542 Z M757.972201,43.8971494 C755.287769,34.502353 767.182109,31.3714091 770.565477,37.7624979 C774.25177,33.8163775 781.694521,37.4611248 781.147152,44.1125555 L781.138,44.209 L781.183887,44.0151835 C781.971603,40.9693992 785.958842,40.7879554 786.610685,43.1220285 L786.647023,43.2711803 C789.670949,36.703156 799.8603,40.0529198 798.0379,47.2084417 C806.899802,47.8985293 818.65271,48.0566816 832.724719,49.1573034 L832.724719,49.1573034 L717.696629,49.1573034 C730.054672,48.4116535 737.695811,47.6301232 742.549133,46.9679039 C742.22208,40.3476266 750.895097,39.517501 752.250529,45.4116362 C752.563682,41.9702005 756.716297,40.8551887 757.973412,43.9287732 L758.01,44.024 Z M350.650893,37.7113053 C348.384447,29.5731909 358.445257,26.8620303 361.308691,32.3997385 C364.41076,28.9975368 370.659861,32.1060211 370.268594,37.813937 L370.251,38.012 L370.266104,37.9337165 C370.861017,35.1900286 374.309662,34.9937479 374.881607,37.0316362 L374.916078,37.1740415 C377.475641,31.4817539 386.096503,34.384849 384.554134,40.5861394 C392.05137,41.1843066 401.996504,41.3213458 413.904494,42.2752809 L413.904494,42.2752809 L316.573034,42.2752809 C327.029383,41.629061 333.495465,40.9516959 337.602631,40.377733 C337.325214,34.6402403 344.663677,33.9208735 345.809984,39.0290538 C346.07499,36.0589199 349.560567,35.0882101 350.639901,37.7104409 L350.684,37.829 Z M72.2392925,36.3957922 C70.8723237,31.4823411 77.4881022,29.868447 79.379543,33.2486566 C81.4584885,31.1453812 85.6526152,33.085408 85.3500164,36.6285655 L85.342,36.699 L85.3474393,36.6744413 C85.726225,34.9825367 88.0040416,34.842346 88.4186032,36.0640066 L88.4527791,36.1864768 C90.1575114,32.6835707 95.9052945,34.4701254 94.8779045,38.2863088 C99.8765855,38.6544634 106.506489,38.738839 114.44382,39.3258427 L114.44382,39.3258427 L49.5561798,39.3258427 C56.5279046,38.9280249 60.8375168,38.5112555 63.57664,38.1580975 C63.3911147,34.6273408 68.2830312,34.1846985 69.0478854,37.3281843 C69.2253043,35.4926505 71.5673561,34.8980452 72.2762187,36.5372666 L72.298,36.593 Z M1361.9573,14.7533759 L1361.921,14.873 L1361.96333,14.7655636 C1363.1326,11.9184841 1366.95088,12.9614321 1367.24016,16.1670645 C1368.49028,10.6657028 1376.49629,11.4405449 1376.19382,17.6193874 C1380.67327,18.2375357 1387.72639,18.9669543 1399.13483,19.6629213 L1292.95506,19.6629213 C1305.94581,18.6356085 1316.79476,18.4878937 1324.97386,17.8438645 C1323.29189,11.1653624 1332.69663,8.03905648 1335.48711,14.1691302 C1335.97852,11.8066627 1339.91816,11.966248 1340.56632,15.0115676 L1340.575,15.059 L1340.56232,14.9138761 C1340.08948,8.73160936 1346.93709,5.35267204 1350.33294,9.02781213 C1353.45656,3.06278455 1364.4354,5.98487854 1361.9573,14.7533759 Z M34.077861,8.21695607 C31.8114821,0.0787517873 41.8739331,-2.63237959 44.7356575,2.90545035 C47.8394026,-0.496889889 54.0885696,2.61172222 53.6957589,8.3195966 L53.678,8.518 L53.6933768,8.43934444 C54.2896896,5.69553927 57.7382676,5.49925722 58.3086796,7.53712608 L58.3430441,7.67953002 C60.9026076,1.98729651 69.5234689,4.89036407 67.9811007,11.0917734 C75.480081,11.6899349 85.4234707,11.8269728 97.3314607,12.7808989 L97.3314607,12.7808989 L-9.9475983e-14,12.7808989 C10.458094,12.1345072 16.9224314,11.4573264 21.0295975,10.8833691 C20.7521806,5.14593084 28.0906429,4.42639294 29.2369506,9.53470267 C29.5019566,6.56459702 32.9875333,5.5938964 34.0668671,8.21610231 L34.111,8.333 Z" id="clouds" fill="#FFFFFF"></path>
        </g>
    </g>
</svg>