<?xml version="1.0" encoding="UTF-8"?>
<svg width="1600px" height="79px" viewBox="0 0 1600 79" version="1.1" xmlns="http://www.w3.org/2000/svg" xmlns:xlink="http://www.w3.org/1999/xlink">
    <title>seascape/large/reflections</title>
    <defs>
        <linearGradient x1="9.88694736%" y1="45.7817654%" x2="9.88694736%" y2="-1.5853656%" id="linearGradient-1">
            <stop stop-color="#F0F3F3" offset="0%"></stop>
            <stop stop-color="#9FB9BB" offset="100%"></stop>
        </linearGradient>
        <linearGradient x1="-1315.76699%" y1="79.7117314%" x2="-1315.76699%" y2="-21.0868477%" id="linearGradient-2">
            <stop stop-color="#FFEFEC" offset="0%"></stop>
            <stop stop-color="#FFCCC2" offset="100%"></stop>
        </linearGradient>
    </defs>
    <g id="seascape/large/reflections" stroke="none" stroke-width="1" fill="none" fill-rule="evenodd">
        <path d="M213.851893,34.0286277 C213.919815,34.0245029 213.989478,34.0334399 214.053916,34.0528605 C214.179309,34.0901551 214.255938,34.1403395 214.358691,34.2039293 C214.464927,34.2687222 214.503242,34.3008608 214.588579,34.372872 C215.048354,34.7616292 215.1215,34.8841684 215.1215,34.8841684 C215.1215,34.8841684 215.048354,35.0065359 214.588579,35.3952931 C214.503242,35.4673042 214.464927,35.4994429 214.358691,35.5642357 C214.255938,35.6278255 214.179309,35.6780099 214.053916,35.7153045 C213.989478,35.7347252 213.919815,35.7436621 213.851893,35.7397092 C213.797904,35.7364438 213.74914,35.7220072 213.698635,35.7027584 C213.550601,35.6451838 213.467006,35.5907028 213.343354,35.5080361 C212.749478,35.1065609 212.582287,34.8841684 212.582287,34.8841684 C212.582287,34.8841684 212.749478,34.6616041 213.343354,34.2603008 C213.467006,34.1774622 213.550601,34.1229812 213.698635,34.0654066 C213.74914,34.0461578 213.797904,34.0317212 213.851893,34.0286277 Z M213.851893,29.8121075 C213.945938,29.8079827 214.041725,29.8164041 214.134028,29.8365122 C214.292511,29.8712288 214.416163,29.9255379 214.555489,29.9874091 C214.686107,30.0451555 214.762736,30.0896684 214.872455,30.1563518 C215.421051,30.4907998 215.612624,30.6676482 215.612624,30.6676482 C215.612624,30.6676482 215.421051,30.8444967 214.872455,31.1789447 C214.762736,31.2456281 214.686107,31.2899691 214.555489,31.3478874 C214.416163,31.4097585 214.292511,31.4638958 214.134028,31.4987843 C214.041725,31.5187206 213.945938,31.5273138 213.851893,31.523189 C213.778747,31.5200955 213.710826,31.5058307 213.641163,31.4862382 C213.451331,31.4331321 213.313747,31.3678236 213.148298,31.2915159 C212.970657,31.210224 212.867904,31.1502434 212.725096,31.0672329 C212.268803,30.8025618 212.091163,30.6676482 212.091163,30.6676482 C212.091163,30.6676482 212.268803,30.5327347 212.725096,30.2680636 C212.867904,30.1850531 212.970657,30.1250725 213.148298,30.0437806 C213.313747,29.9674728 213.451331,29.9021644 213.641163,29.8490583 C213.710826,29.8294658 213.778747,29.815201 213.851893,29.8121075 Z M213.01768,27.1447726 C213.245826,27.140476 213.475713,27.1485536 213.700376,27.1690055 C214.057399,27.2016597 214.393522,27.2594061 214.72268,27.3200742 C214.99959,27.3709461 215.245152,27.4269739 215.490713,27.4890169 C216.383596,27.7146748 217.007447,27.9111742 217.21,27.9769282 L217.273017,27.9976225 L217.273017,27.9976225 C217.281051,28.0003134 216.589646,28.2337052 215.490713,28.511438 C215.245152,28.573481 214.99959,28.6295088 214.72268,28.6803806 C214.393522,28.7410488 214.057399,28.7987952 213.700376,28.8314494 C213.475713,28.8519013 213.245826,28.8599789 213.01768,28.8558542 C212.845264,28.8525887 212.676331,28.8388396 212.505657,28.8189033 C212.089421,28.7697501 211.697567,28.6975671 211.31268,28.624181 C210.9365,28.5521698 210.607343,28.4760339 210.288635,28.3997262 C209.342961,28.1728652 208.754309,28.0003134 208.754309,28.0003134 C208.754309,28.0003134 209.342961,27.8275897 210.288635,27.6007287 C210.607343,27.524421 210.9365,27.4482851 211.31268,27.3762739 C211.697567,27.3028878 212.089421,27.2307048 212.505657,27.1815516 C212.676331,27.1617872 212.845264,27.1478662 213.01768,27.1447726 Z M213.01768,22.924987 C213.435657,22.9206904 213.853635,22.9285961 214.266388,22.9492198 C214.91077,22.9815303 215.535994,23.0397924 216.138579,23.1002886 C216.633185,23.1501293 217.098185,23.2078757 217.542287,23.2692313 C219.487624,23.5380271 220.818185,23.7805277 220.818185,23.7805277 C220.818185,23.7805277 219.487624,24.0230284 217.542287,24.2916524 C217.098185,24.3530079 216.633185,24.4109262 216.138579,24.460595 C215.535994,24.5210913 214.91077,24.5793533 214.266388,24.6116638 C213.853635,24.6322875 213.435657,24.6401933 213.01768,24.6360685 C212.704197,24.632975 212.392455,24.619054 212.082455,24.5991177 C211.328354,24.5506519 210.596893,24.4774377 209.896781,24.4043954 C209.222792,24.3337591 208.599309,24.2552171 208.026331,24.1799405 C206.340489,23.9590948 205.217174,23.7805277 205.217174,23.7805277 C205.217174,23.7805277 206.340489,23.6019607 208.026331,23.3809431 C208.599309,23.3056665 209.222792,23.2271245 209.896781,23.1566601 C210.596893,23.0834459 211.328354,23.0102317 212.082455,22.9617659 C212.392455,22.9418297 212.704197,22.9280805 213.01768,22.924987 Z M189.065826,19.9024085 C189.184253,19.8982837 189.304421,19.9065332 189.419365,19.9268132 C189.61268,19.9606705 189.776388,20.0165264 189.948803,20.077882 C190.103803,20.1327067 190.213522,20.1820318 190.345882,20.2468246 C190.877062,20.5057669 191.166356,20.6880864 191.248033,20.7416667 L191.272399,20.7579493 C191.272399,20.7579493 190.983298,20.958515 190.345882,21.2692457 C190.213522,21.3338667 190.103803,21.3833637 189.948803,21.4381884 C189.776388,21.499544 189.61268,21.555228 189.419365,21.5892572 C189.304421,21.6093653 189.184253,21.6176148 189.065826,21.61349 C188.977006,21.6103965 188.889927,21.5963036 188.801107,21.5767111 C188.574702,21.5253236 188.388354,21.4569216 188.18459,21.3818169 C187.97386,21.3044779 187.827567,21.2376227 187.655152,21.1575339 C187.117006,20.9088462 186.860994,20.7579493 186.860994,20.7579493 C186.860994,20.7579493 187.117006,20.6072242 187.655152,20.3585365 C187.827567,20.2784477 187.97386,20.2114206 188.18459,20.1340816 C188.388354,20.0589769 188.574702,19.9907467 188.801107,19.9393593 C188.889927,19.9195949 188.977006,19.9056739 189.065826,19.9024085 Z M233.16768,-8.8817842e-14 C234.776893,0.0548247308 236.346051,0.112055563 237.871669,0.170489445 C252.310033,0.72372082 262.619568,1.23803042 263.075627,1.26086608 L263.091388,1.26165627 C263.091388,1.26165627 252.641949,1.78670189 237.871669,2.35265122 C234.900545,2.46642543 231.760489,2.57607489 228.493298,2.67231893 C230.682455,2.76718806 232.784534,2.87460328 234.778635,2.98631512 C244.897174,3.55295191 252.03414,4.07731007 252.03414,4.07731007 C252.03414,4.07731007 244.897174,4.6018401 234.778635,5.16830503 C232.450152,5.29875008 229.973635,5.42352361 227.383916,5.52904832 C227.23414,5.53506357 227.086107,5.54107883 226.93459,5.54709408 C230.177188,5.96605252 232.345513,6.30447759 232.59643,6.34395993 L232.620826,6.34781013 L232.620826,6.34781013 C232.620826,6.34781013 229.350152,6.86735609 224.611331,7.43897695 C224.076669,7.50325422 223.529815,7.56581285 222.969028,7.62544978 C229.202118,8.15427642 233.46723,8.61831019 233.46723,8.61831019 C233.46723,8.61831019 228.660489,9.14112157 221.796949,9.70947701 C220.220826,9.83992206 218.552399,9.96435186 216.796893,10.0700484 C215.119758,10.1709328 213.385152,10.2692392 211.610489,10.3402192 C213.790938,10.6609181 215.1215,10.8889821 215.1215,10.8889821 C215.1215,10.8889821 214.984545,10.9124362 214.72661,10.9548677 L214.510726,10.9901797 C213.99491,11.0740953 213.170181,11.2051677 212.105096,11.3641871 C212.321051,11.3705461 212.537006,11.3775925 212.752961,11.3856701 C214.604253,11.454244 216.408522,11.5790175 218.137904,11.7077439 C219.557287,11.8136124 220.901781,11.9378703 222.174871,12.0684872 C227.73223,12.6382176 231.596781,13.1594822 231.596781,13.1594822 C231.596781,13.1594822 227.73223,13.6807468 222.174871,14.2504771 C220.901781,14.381094 219.557287,14.5051801 218.137904,14.6110486 C216.951893,14.6993868 215.732792,14.7856627 214.485826,14.8533773 C219.377904,15.4124521 222.742624,15.9148116 222.742624,15.9148116 C222.742624,15.9148116 219.257736,16.4348731 214.22459,17.0058065 C213.656837,17.0700838 213.075152,17.1328143 212.476051,17.1926231 C213.406051,17.2412607 214.306444,17.2929919 215.173747,17.346098 C221.685489,17.7446514 226.272792,18.1129568 226.272792,18.1129568 C226.272792,18.1129568 221.685489,18.4814339 215.173747,18.8798155 C214.571163,18.9167664 213.951163,18.9530297 213.318972,18.9880901 C213.477455,18.9937616 213.63768,19.0009799 213.796163,19.0095731 C214.677399,19.0580389 215.53077,19.1455178 216.351051,19.2360903 C217.030264,19.3110232 217.662455,19.397471 218.268522,19.4895903 C220.933129,19.8939871 222.742624,20.256449 222.742624,20.256449 C222.742624,20.256449 220.933129,20.618911 218.268522,21.0233078 C217.662455,21.1154271 217.030264,21.2018749 216.351051,21.2768078 C215.53077,21.3673803 214.677399,21.4546874 213.796163,21.5031531 C213.231893,21.5340887 212.662399,21.5459473 212.091163,21.5397602 C211.664478,21.5351199 211.237792,21.5143243 210.812848,21.4844199 C209.783579,21.4117213 208.785657,21.3019 207.831275,21.1922505 C206.908242,21.0862102 206.060096,20.968655 205.274646,20.8557401 C203.479858,20.5973516 202.158112,20.3783667 201.659301,20.2938 L201.539478,20.2733778 C201.474928,20.2623108 201.441444,20.256449 201.441444,20.256449 C201.441444,20.256449 201.474928,20.2505873 201.539478,20.2395203 L201.659301,20.2190981 C202.158112,20.1345314 203.479858,19.9155465 205.274646,19.657158 C206.060096,19.5442431 206.908242,19.4265161 207.831275,19.3206476 C208.195264,19.2788846 208.564478,19.2371215 208.940657,19.1974209 C207.359309,19.2635886 205.730938,19.3230537 204.076444,19.3598327 C202.677961,19.3907683 201.262062,19.4026269 199.847904,19.3962679 C198.789028,19.3916276 197.730152,19.370832 196.6765,19.3409276 C194.135545,19.2685727 191.641612,19.1582358 189.278298,19.0487582 C187.007287,18.9437491 184.872118,18.8246471 182.935489,18.7122478 C177.27886,18.3839868 173.423365,18.1129568 173.423365,18.1129568 C173.423365,18.1129568 177.27886,17.8420985 182.935489,17.5136657 C184.872118,17.4014383 187.007287,17.2821644 189.278298,17.1771553 C190.229197,17.133158 191.202736,17.0889889 192.190208,17.0472259 C191.244534,16.954591 190.340657,16.85955 189.483803,16.7674307 C185.11768,16.2977254 182.183129,15.9148116 182.183129,15.9148116 C182.183129,15.9148116 185.11768,15.5318978 189.483803,15.0621925 C190.972848,14.9018431 192.601219,14.733416 194.3515,14.5832065 C195.500938,14.4847283 196.685208,14.3857344 197.895601,14.3003178 C196.814084,14.2051049 195.783073,14.1069704 194.807792,14.0121013 C189.983635,13.5430834 186.730376,13.1594822 186.730376,13.1594822 C186.730376,13.1594822 189.2365,12.8640473 193.109758,12.4746027 C192.176275,12.3960607 191.260208,12.308238 190.368522,12.2204153 C188.839421,12.070034 187.425264,11.9019507 186.124309,11.7416012 C182.308522,11.2706929 179.760601,10.8889821 179.760601,10.8889821 C179.760601,10.8889821 182.308522,10.5070995 186.124309,10.036363 C187.258073,9.89646544 188.477174,9.75089632 189.783354,9.61632653 C189.138972,9.56768892 188.510264,9.51887944 187.900713,9.47092928 C181.941051,9.00294263 177.89886,8.61831019 177.89886,8.61831019 C177.89886,8.61831019 181.941051,8.23367775 187.900713,7.7656911 C189.938354,7.60585725 192.178017,7.43657085 194.569197,7.286877 C196.192343,7.18530516 197.872961,7.08304586 199.58841,6.99573877 C196.66723,6.64814033 194.736717,6.38386552 194.499778,6.35121237 L194.475152,6.34781013 L194.475152,6.34781013 C194.475152,6.34781013 196.700882,6.03896988 200.135264,5.6352605 C198.223017,5.56393679 196.345601,5.4862541 194.516949,5.40874327 C190.988522,5.25939314 187.667343,5.08976302 184.657904,4.92992916 C176.153678,4.47828371 170.264061,4.10268688 169.886999,4.07854309 L169.86777,4.07731007 C169.86777,4.07731007 175.865399,3.69164645 184.657904,3.22469098 C186.618916,3.12054118 188.710545,3.01226664 190.90841,2.90811683 C186.843579,2.81582567 182.85886,2.70411384 179.027399,2.59308946 C173.874258,2.44373933 169.012309,2.27393735 164.616404,2.11427536 C152.100368,1.65949648 143.441508,1.28101539 143.016388,1.26237557 L143,1.26165627 C143,1.26165627 151.779444,0.875477049 164.616579,0.409037177 C168.340758,0.273608061 172.39932,0.131132507 176.686725,-8.8817842e-14 L233.16768,-8.8817842e-14 Z M323.219834,17.8324643 C323.293386,17.8283477 323.366937,17.837267 323.438738,17.8568209 C323.57008,17.8933558 323.654139,17.9444704 323.766218,18.0075917 C323.876545,18.07037 323.922077,18.1057042 324.01139,18.1762011 C324.250432,18.3633353 324.394033,18.4908644 324.477873,18.57161 L324.543115,18.6372359 C324.575091,18.6712234 324.585793,18.6863176 324.585793,18.6863176 C324.585793,18.6863176 324.575091,18.7014118 324.543115,18.7354056 L324.477873,18.8010467 C324.394033,18.8818137 324.250432,19.0093857 324.01139,19.1966056 C323.922077,19.2671025 323.876545,19.3022652 323.766218,19.3652151 C323.654139,19.4281649 323.57008,19.4792794 323.438738,19.5159859 C323.366937,19.5353682 323.293386,19.5442875 323.219834,19.5401709 C323.162044,19.5370835 323.109507,19.5226754 323.055219,19.503293 C322.899359,19.4472042 322.803042,19.3909439 322.673451,19.3089547 C322.053516,18.9207928 321.853876,18.6863176 321.853876,18.6863176 C321.853876,18.6863176 322.053516,18.4518424 322.673451,18.0636805 C322.803042,17.9818629 322.899359,17.9256026 323.055219,17.8693422 C323.109507,17.8499599 323.162044,17.8357233 323.219834,17.8324643 Z M333.177322,16.5974816 C333.25963,16.593365 333.341937,16.6021128 333.422494,16.6218382 C333.566095,16.6575155 333.667666,16.7101737 333.790252,16.772609 C333.911087,16.8328144 333.968877,16.8726083 334.066946,16.9412184 C334.449152,17.2064824 334.621538,17.3607909 334.683844,17.4213662 L334.71315,17.4513349 L334.71315,17.4513349 L334.683844,17.4813063 C334.621538,17.5418896 334.449152,17.6962303 334.066946,17.9616229 C333.968877,18.0300615 333.911087,18.0700269 333.790252,18.1302323 C333.667666,18.1924961 333.566095,18.2453259 333.422494,18.2810031 C333.341937,18.3007286 333.25963,18.3093048 333.177322,18.3051882 C333.112526,18.3021008 333.052985,18.2878642 332.991692,18.2683103 C332.821822,18.2137652 332.706241,18.1547605 332.56264,18.073972 C331.900676,17.7045064 331.639743,17.4513349 331.639743,17.4513349 C331.639743,17.4513349 331.900676,17.1981634 332.56264,16.8286978 C332.706241,16.7479093 332.821822,16.6889046 332.991692,16.6343595 C333.052985,16.6149772 333.112526,16.6007406 333.177322,16.5974816 Z M240.543242,15.0644267 C240.605938,15.060302 240.668635,15.0695827 240.727848,15.0886596 C240.844534,15.1271572 240.90723,15.1754511 241.003017,15.2397284 C241.104028,15.3076148 241.130152,15.3344256 241.210264,15.4086711 C241.652624,15.8199425 241.69268,15.9199675 241.69268,15.9199675 C241.69268,15.9199675 241.652624,16.0198207 241.210264,16.4310921 C241.130152,16.5053375 241.104028,16.5323202 241.003017,16.6002067 C240.90723,16.6644839 240.844534,16.7127778 240.727848,16.7511036 C240.668635,16.7703524 240.605938,16.7794612 240.543242,16.7755083 C240.494478,16.7722429 240.450938,16.7578063 240.405657,16.7385575 C240.266331,16.6790924 240.196669,16.6278768 240.083466,16.5438351 C239.515713,16.1215644 239.393803,15.9199675 239.393803,15.9199675 C239.393803,15.9199675 239.515713,15.7183706 240.083466,15.2960999 C240.196669,15.2120582 240.266331,15.1606708 240.405657,15.1013776 C240.450938,15.0821288 240.494478,15.0675203 240.543242,15.0644267 Z M1353.2538,15.0659911 C1353.36492,15.0619722 1353.47604,15.0700101 1353.58194,15.0897701 C1353.76425,15.1229267 1353.91356,15.1770155 1354.07502,15.2367979 C1354.22086,15.2910541 1354.31983,15.3379423 1354.44483,15.4014087 C1355.04903,15.7103679 1355.30599,15.899595 1355.30599,15.899595 C1355.30599,15.899595 1355.04903,16.0886546 1354.44483,16.3977813 C1354.31983,16.4612477 1354.22086,16.5081358 1354.07502,16.5623921 C1353.91356,16.6221744 1353.76425,16.6760958 1353.58194,16.7094198 C1353.47604,16.7290124 1353.36492,16.7372178 1353.2538,16.7331988 C1353.17047,16.7301846 1353.08887,16.7164531 1353.009,16.6971954 C1352.79545,16.6466233 1352.6253,16.5809799 1352.43432,16.507466 C1352.23639,16.4311053 1352.10444,16.3676389 1351.94124,16.2887664 C1351.43427,16.0422688 1351.20336,15.899595 1351.20336,15.899595 C1351.20336,15.899595 1351.43427,15.7567537 1351.94124,15.5102561 C1352.10444,15.431551 1352.23639,15.3680846 1352.43432,15.291724 C1352.6253,15.2182101 1352.79545,15.1523993 1353.009,15.1019945 C1353.08887,15.0827369 1353.17047,15.0690054 1353.2538,15.0659911 Z M1334.69736,15.0415423 C1334.80848,15.0375234 1334.91959,15.0455613 1335.0255,15.0653213 C1335.2078,15.0984779 1335.35712,15.1525667 1335.51858,15.2123491 C1335.66442,15.2666053 1335.76338,15.3134934 1335.88839,15.3769599 C1336.49259,15.6859191 1336.74954,15.8751462 1336.74954,15.8751462 C1336.74954,15.8751462 1336.49259,16.0643732 1335.88839,16.3733325 C1335.76338,16.4367989 1335.66442,16.483687 1335.51858,16.5379433 C1335.35712,16.5977256 1335.2078,16.6518144 1335.0255,16.684971 C1334.91959,16.704731 1334.80848,16.712769 1334.69736,16.70875 C1334.61402,16.7057358 1334.53242,16.6920043 1334.45256,16.6727466 C1334.23901,16.6223419 1334.06886,16.5565311 1333.87788,16.4830172 C1333.67995,16.4066565 1333.548,16.3431901 1333.3848,16.2644851 C1332.87783,16.01782 1332.64692,15.8751462 1332.64692,15.8751462 C1332.64692,15.8751462 1332.87783,15.7324723 1333.3848,15.4858073 C1333.548,15.4071022 1333.67995,15.3436358 1333.87788,15.2672752 C1334.06886,15.1937613 1334.23901,15.1279504 1334.45256,15.0775457 C1334.53242,15.0582881 1334.61402,15.0445566 1334.69736,15.0415423 Z M323.340669,14.6216808 C323.480767,14.6175641 323.622617,14.6257974 323.759213,14.6460374 C323.985121,14.6793133 324.18301,14.7359167 324.386153,14.7968082 C324.564778,14.849981 324.703125,14.9017817 324.857233,14.9654176 C325.191853,15.1029282 325.45149,15.2221698 325.634081,15.3107139 L325.790912,15.3885652 C325.900074,15.444147 325.955254,15.4755341 325.955254,15.4755341 C325.955254,15.4755341 325.900074,15.5069466 325.790912,15.5625596 L325.634081,15.6404499 C325.45149,15.7290334 325.191853,15.8483115 324.857233,15.9858221 C324.703125,16.049458 324.564778,16.1012587 324.386153,16.1544315 C324.18301,16.215323 323.985121,16.2717549 323.759213,16.3052023 C323.622617,16.3254423 323.480767,16.333504 323.340669,16.3293874 C323.233844,16.3263 323.130521,16.3124064 323.027199,16.292681 C322.762763,16.2422525 322.535104,16.1726132 322.295185,16.0981712 C322.053516,16.0230431 321.869637,15.9528892 321.668245,15.8743306 C321.051813,15.6341951 320.726084,15.4755341 320.726084,15.4755341 C320.726084,15.4755341 321.051813,15.3170446 321.668245,15.0769091 C321.869637,14.9983505 322.053516,14.9281966 322.295185,14.852897 C322.535104,14.7786265 322.762763,14.7089872 323.027199,14.6585587 C323.130521,14.6388333 323.233844,14.6249397 323.340669,14.6216808 Z M333.24562,14.2100199 C333.397977,14.2059032 333.552085,14.2139649 333.70269,14.2343765 C333.946111,14.2674809 334.165015,14.3242558 334.387421,14.3851473 C334.580056,14.437634 334.734164,14.4906354 334.902282,14.5537567 C335.681579,14.846379 336.101874,15.0638732 336.101874,15.0638732 C336.101874,15.0638732 335.681579,15.2815389 334.902282,15.5741612 C334.734164,15.6372825 334.580056,15.6901123 334.387421,15.7427706 C334.165015,15.8034906 333.946111,15.860437 333.70269,15.8935414 C333.552085,15.9137814 333.397977,15.9218431 333.24562,15.9177265 C333.130039,15.914639 333.016209,15.9007455 332.902379,15.8810201 C332.615177,15.8309347 332.363,15.7606093 332.102067,15.6865103 C331.841134,15.6122398 331.634489,15.5405422 331.417337,15.4626697 C330.753621,15.2259647 330.387614,15.0638732 330.387614,15.0638732 C330.387614,15.0638732 330.753621,14.9017817 331.417337,14.6652482 C331.634489,14.5873757 331.841134,14.5156781 332.102067,14.4412361 C332.363,14.3673086 332.615177,14.2969832 332.902379,14.2468978 C333.016209,14.2271724 333.130039,14.2132788 333.24562,14.2100199 Z M347.705517,-8.8817842e-14 C348.36573,0.0545450699 349.008431,0.111834546 349.635371,0.170153174 C355.727897,0.738245222 359.978129,1.25916779 359.978129,1.25916779 C359.978129,1.25916779 355.727897,1.78009036 349.635371,2.34801088 C348.237891,2.47837017 346.759853,2.60238302 345.203011,2.70787113 C344.521783,2.75401145 343.830047,2.7996372 343.127805,2.84234702 C347.292227,3.30392181 350.025895,3.67887628 350.025895,3.67887628 C350.025895,3.67887628 346.236236,4.1987697 340.779407,4.76771938 C340.688343,4.7773248 340.597279,4.78675869 340.504464,4.79619259 C340.931764,4.86360206 341.345054,4.93512815 341.751339,5.00957016 C344.912307,5.58846831 347.01203,6.09858478 347.01203,6.09858478 C347.01203,6.09858478 344.912307,6.60852972 341.751339,7.18742787 C341.036837,7.31847326 340.29957,7.4404278 339.497507,7.54728811 C338.630649,7.66272469 337.737522,7.77421618 336.812873,7.84574227 C338.761991,8.23218894 339.961583,8.51829327 339.961583,8.51829327 C339.961583,8.51829327 338.397735,8.89136096 335.937259,9.36099745 L336.105377,9.38861303 L336.105377,9.38861303 C336.758585,9.49633097 337.343495,9.61674178 337.924903,9.74847327 C340.507966,10.3352616 342.168131,10.8373164 342.168131,10.8373164 C342.168131,10.8373164 340.507966,11.3395427 337.924903,11.926331 C337.343495,12.0578909 336.758585,12.1783018 336.105377,12.2861912 C335.490695,12.3877342 334.863755,12.4856752 334.214049,12.5566867 C336.184182,12.8889314 337.453823,13.156511 337.453823,13.156511 C337.453823,13.156511 335.741121,13.5174004 333.20359,13.9218572 C332.627436,14.0137948 332.026764,14.0999006 331.382312,14.1746856 C330.601264,14.265251 329.790445,14.3523859 328.953358,14.4007561 C328.417482,14.4316306 327.874601,14.4434659 327.333471,14.437291 C326.927186,14.4326598 326.520901,14.4119052 326.118118,14.3820598 C325.139181,14.309333 324.193517,14.1998999 323.28463,14.0904667 C322.405513,13.984464 321.601699,13.8674837 320.855675,13.75462 C318.659634,13.4225468 317.211368,13.156511 317.211368,13.156511 C317.211368,13.156511 318.659634,12.8904751 320.855675,12.558402 C321.601699,12.4455383 322.405513,12.3283865 323.28463,12.2225553 C324.193517,12.1129506 325.139181,12.0035174 326.118118,11.9309622 C326.280982,11.9189554 326.443847,11.9084923 326.606711,11.8997446 C326.259968,11.8297622 325.925483,11.7587507 325.599754,11.6882538 C323.37044,11.2083258 321.962452,10.8373164 321.962452,10.8373164 L321.968961,10.8356079 L322.020397,10.8222272 C322.263019,10.7594272 323.25462,10.5064049 324.750408,10.1726555 C323.850277,10.0784881 322.976413,9.96287999 322.125316,9.84710036 C321.015037,9.69581498 320.009831,9.53012147 319.06767,9.36923066 C316.290221,8.89461995 314.481202,8.51829327 314.481202,8.51829327 C314.481202,8.51829327 316.290221,8.14179507 319.06767,7.66735587 C320.009831,7.50629355 321.015037,7.34060003 322.125316,7.18931465 C323.225088,7.03940147 324.365138,6.89017439 325.55072,6.78674459 C323.345923,6.39155012 321.962452,6.09858478 321.962452,6.09858478 C321.962452,6.09858478 323.309147,5.8135096 325.457905,5.42654835 C325.429885,5.42517615 325.400114,5.42380394 325.370343,5.42243174 C323.249605,5.31951651 321.179652,5.16308537 319.207769,5.00768338 C317.309436,4.85794173 315.540695,4.68967533 313.924311,4.52981368 C309.190739,4.0615494 306,3.67887628 306,3.67887628 C306,3.67887628 309.190739,3.29620317 313.924311,2.82793889 C315.540695,2.66807724 317.309436,2.49963932 319.207769,2.34989766 C319.754152,2.30684479 320.30754,2.2636204 320.867934,2.22159668 C320.433629,2.18420415 320.00808,2.14698314 319.591288,2.11010519 C314.302576,1.64235548 310.726567,1.25916779 310.726567,1.25916779 C310.726567,1.25916779 314.302576,0.875808575 319.591288,0.408230397 C321.123613,0.272725349 322.780276,0.131045388 324.542012,-8.8817842e-14 L347.705517,-8.8817842e-14 Z M1369.27367,-8.8817842e-14 C1370.33101,0.0532515109 1371.36231,0.109182343 1372.36583,0.166117921 C1382.09025,0.718393024 1388.94475,1.22930611 1388.94475,1.22930611 C1388.94475,1.22930611 1382.09025,1.74021919 1372.36583,2.29232683 C1371.22341,2.35713292 1370.04454,2.42059934 1368.83267,2.48088407 C1369.07748,2.49662508 1369.32228,2.51253355 1369.56361,2.52844202 C1377.90776,3.0812195 1383.7761,3.59163021 1383.7761,3.59163021 C1383.7761,3.59163021 1377.90776,4.10187346 1369.56361,4.65465093 C1367.64338,4.78175124 1365.60683,4.90315798 1363.47131,5.00597694 C1363.06677,5.02540202 1362.6605,5.0448271 1362.25076,5.06391726 C1368.5028,5.54586018 1372.70786,5.95395431 1372.70786,5.95395431 C1372.70786,5.95395431 1367.71456,6.43824163 1360.52499,6.97494318 C1362.01117,7.04259604 1363.46436,7.13201839 1364.87242,7.22361769 C1366.45582,7.3266041 1367.95763,7.44784339 1369.37958,7.5749437 C1374.4797,8.03141336 1378.31284,8.4571056 1379.50689,8.5931346 L1379.65936,8.61056886 C1379.81596,8.62854469 1379.89744,8.63813188 1379.89744,8.63813188 C1379.89744,8.63813188 1375.57258,9.14686801 1369.37958,9.70115261 C1367.95763,9.82825291 1366.45582,9.9494922 1364.87242,10.0524786 C1363.19178,10.1618284 1361.44343,10.268164 1359.65515,10.3379938 C1361.47989,10.660852 1362.58585,10.8906038 1362.58585,10.8906038 C1362.58585,10.8906038 1360.42949,11.3383854 1357.17587,11.8616903 C1357.4606,11.9038896 1357.73839,11.9480984 1358.01098,11.9939818 C1360.36526,12.390019 1361.94172,12.7411775 1361.94172,12.7411775 C1361.94172,12.7411775 1360.36526,13.0925035 1358.01098,13.4883733 C1357.47796,13.578298 1356.92412,13.6621942 1356.32687,13.7353732 C1355.60461,13.8237908 1354.85631,13.9088593 1354.08023,13.9560823 C1353.58542,13.9862247 1353.08366,13.9977792 1352.58363,13.9915833 C1352.20688,13.9870619 1351.83186,13.9667996 1351.46032,13.937662 C1350.55229,13.8666599 1349.67898,13.7599895 1348.83866,13.6531515 C1348.02612,13.5494953 1347.28477,13.4354567 1346.59376,13.3251021 C1344.55721,13.0002344 1343.22381,12.7411775 1343.22381,12.7411775 C1343.22381,12.7411775 1343.84537,12.6207755 1344.88535,12.4409261 C1344.11448,12.3632258 1343.35923,12.2756455 1342.62135,12.1878977 C1341.38344,12.0408699 1340.24971,11.8781012 1339.19931,11.7213609 C1336.60297,11.3344258 1334.75041,11.0121604 1334.22035,10.9182698 L1334.12176,10.9007312 C1334.08448,10.8940634 1334.06539,10.8906038 1334.06539,10.8906038 C1334.06539,10.8906038 1334.08448,10.8871442 1334.12176,10.8804764 L1334.22035,10.8629378 C1334.75041,10.7690472 1336.60297,10.4467818 1339.19931,10.0598467 C1339.98754,9.94212407 1340.82265,9.82105224 1341.71506,9.70584142 C1340.71154,9.6269689 1339.74795,9.54675672 1338.8295,9.46888894 C1333.45251,9.01239958 1329.81518,8.63813188 1329.81518,8.63813188 C1329.81518,8.63813188 1333.45251,8.26369673 1338.8295,7.80720736 C1339.25313,7.77137144 1339.68718,7.73486569 1340.12818,7.69835993 C1339.65593,7.6866379 1339.18195,7.67240401 1338.71144,7.65616062 C1335.79116,7.55585353 1332.92818,7.40296476 1330.21277,7.25124819 C1327.60154,7.10539264 1325.15177,6.94044692 1322.9277,6.78471137 C1316.42045,6.32905929 1312.0001,5.95395431 1312.0001,5.95395431 C1312.0001,5.95395431 1316.42045,5.57884933 1322.9277,5.12319725 C1325.15177,4.96729424 1327.60154,4.80234852 1330.21277,4.65649297 C1330.53918,4.63824009 1330.86732,4.61998721 1331.19893,4.6019018 C1330.1902,4.54178452 1329.21446,4.48133234 1328.27518,4.42238727 C1321.02483,3.96690265 1316.09231,3.59163021 1316.09231,3.59163021 C1316.09231,3.59163021 1321.02483,3.21619031 1328.27518,2.76087315 C1329.70233,2.67111588 1331.21629,2.57834438 1332.79623,2.48791729 C1329.73532,2.35210919 1326.84803,2.2020672 1324.21075,2.06006317 C1315.76069,1.60508092 1310,1.22930611 1310,1.22930611 C1310,1.22930611 1315.76069,0.853531293 1324.21075,0.398549044 C1326.66052,0.26659247 1329.32558,0.127770135 1332.14516,-8.8817842e-14 L1369.27367,-8.8817842e-14 Z M1335.39705,11.9075737 C1335.60365,11.9035547 1335.81026,11.9114252 1336.0134,11.9313527 C1336.33633,11.9631696 1336.64016,12.0194354 1336.93879,12.0785479 C1337.19054,12.1284503 1337.4093,12.182539 1337.63153,12.2431587 C1338.63679,12.5164495 1339.2514,12.7411775 1339.2514,12.7411775 C1339.2514,12.7411775 1338.63679,12.9660731 1337.63153,13.2393638 C1337.4093,13.2999835 1337.19054,13.3540723 1336.93879,13.4039746 C1336.64016,13.4630872 1336.33633,13.5191855 1336.0134,13.5511699 C1335.81026,13.5710973 1335.60365,13.5789678 1335.39705,13.5747814 C1335.24079,13.5717671 1335.08801,13.5582031 1334.93348,13.5389455 C1334.55499,13.4908851 1334.20255,13.4208879 1333.85531,13.349216 C1333.51154,13.2785489 1333.21812,13.2052025 1332.92992,13.1305164 C1332.18208,12.9374936 1331.68854,12.7866069 1331.57022,12.749802 L1331.5427,12.7411775 C1331.5427,12.7411775 1332.06703,12.5747247 1332.92992,12.3520061 C1333.21812,12.27732 1333.51154,12.2039736 1333.85531,12.1333065 C1334.20255,12.0616347 1334.55499,11.9916374 1334.93348,11.9435771 C1335.08801,11.9243195 1335.24079,11.9107554 1335.39705,11.9075737 Z M240.543242,11.4829453 C240.661669,11.4788206 240.781837,11.4870701 240.896781,11.5073501 C241.090096,11.5412074 241.252062,11.5970633 241.426219,11.658247 C241.581219,11.7130717 241.690938,11.7625687 241.823298,11.8271897 C242.354478,12.086132 242.643772,12.2685707 242.725449,12.3221908 L242.749815,12.3384861 L242.749815,12.3384861 L242.725449,12.3547695 C242.643772,12.4083538 242.354478,12.5906971 241.823298,12.8497826 C241.690938,12.9144036 241.581219,12.9639005 241.426219,13.0187253 C241.252062,13.079909 241.090096,13.1357649 240.896781,13.1696222 C240.781837,13.1899022 240.661669,13.1981517 240.543242,13.1940269 C240.454421,13.1909334 240.365601,13.1768405 240.278522,13.1570761 C240.052118,13.1056886 239.86577,13.0374585 239.662006,12.9623538 C239.451275,12.8850148 239.304983,12.8181596 239.132567,12.7378989 C238.594421,12.4892112 238.33841,12.3384861 238.33841,12.3384861 C238.33841,12.3384861 238.594421,12.1877611 239.132567,11.9389015 C239.304983,11.8588127 239.451275,11.7919575 239.662006,11.7146185 C239.86577,11.6395138 240.052118,11.5712836 240.278522,11.5198962 C240.365601,11.5001318 240.454421,11.4860389 240.543242,11.4829453 Z M240.543242,8.66007323 C240.794028,8.65594849 241.043073,8.66385425 241.288635,8.68447797 C241.678747,8.71696033 242.046219,8.77487862 242.406725,8.83537488 C242.708017,8.88607486 242.977961,8.94261824 243.246163,9.00448941 C244.43914,9.28015984 245.201949,9.51561401 245.201949,9.51561401 C245.201949,9.51561401 244.43914,9.75124005 243.246163,10.0269105 C242.977961,10.0887817 242.708017,10.1451532 242.406725,10.1958532 C242.046219,10.2563494 241.678747,10.3142677 241.288635,10.3469219 C241.043073,10.3673738 240.794028,10.3752795 240.543242,10.3711548 C240.356893,10.3680612 240.170545,10.3541402 239.984197,10.334204 C239.529646,10.2853945 239.099478,10.2128677 238.679758,10.1394816 C238.270489,10.0679861 237.908242,9.9911627 237.561669,9.91519865 C236.53414,9.68971261 235.884534,9.51561401 235.884534,9.51561401 C235.884534,9.51561401 236.53414,9.34168728 237.561669,9.11620124 C237.908242,9.04006533 238.270489,8.96341383 238.679758,8.89174639 C239.099478,8.81836031 239.529646,8.74600541 239.984197,8.69702407 C240.170545,8.6770878 240.356893,8.66316679 240.543242,8.66007323 Z M240.543242,5.49226935 C240.865433,5.4881446 241.187624,5.49605036 241.50459,5.51667409 C242.004421,5.54898459 242.483354,5.60724661 242.946612,5.667571 C243.3315,5.71775539 243.685039,5.77515809 244.029871,5.83668553 C245.543298,6.10805935 246.55341,6.34781013 246.55341,6.34781013 C246.55341,6.34781013 246.126638,6.44917745 245.412272,6.59466061 L245.062651,6.6647307 C244.755127,6.72538539 244.408228,6.79126315 244.029871,6.8591066 C243.685039,6.92063404 243.3315,6.97786488 242.946612,7.02804927 C242.483354,7.08854552 242.004421,7.14663568 241.50459,7.17911804 C241.187624,7.1995699 240.865433,7.20747566 240.543242,7.20335092 C240.302904,7.20025736 240.062567,7.18633634 239.82223,7.16640008 C239.240545,7.11793433 238.679758,7.04489198 238.139871,6.97167776 C237.617399,6.90086964 237.141949,6.82284322 236.697848,6.74739477 C235.388185,6.52465856 234.534815,6.34781013 234.534815,6.34781013 C234.534815,6.34781013 235.388185,6.17096171 236.697848,5.94839736 C237.141949,5.87277704 237.617399,5.79492249 238.139871,5.72394251 C238.679758,5.65072829 239.240545,5.5778578 239.82223,5.52922019 C240.062567,5.50928392 240.302904,5.49536291 240.543242,5.49226935 Z" id="islands" fill="url(#linearGradient-1)"></path>
        <path d="M938.440867,69.9215195 C938.440867,69.9215195 938.317759,69.7712021 937.823594,69.4135153 C937.728229,69.3446768 937.674478,69.3062434 937.558305,69.2454332 C937.440399,69.1832565 937.3433,69.1311579 937.204587,69.0954575 C937.128295,69.0758138 937.048535,69.0671022 936.968775,69.0712018 C936.908088,69.0744472 936.850869,69.0886249 936.791916,69.107927 C936.628928,69.1627587 936.519692,69.2208358 936.380979,69.3014605 C935.737698,69.6741792 935.496684,69.9215195 935.496684,69.9215195 C935.496684,69.9215195 935.737698,70.1688598 936.380979,70.5415784 C936.519692,70.6223739 936.628928,70.6804511 936.791916,70.7351119 C936.850869,70.7545848 936.908088,70.7687625 936.968775,70.7718372 C937.048535,70.7759367 937.128295,70.7672251 937.204587,70.7477522 C937.3433,70.711881 937.440399,70.6597824 937.558305,70.5976057 C937.674478,70.5369664 937.728229,70.4983621 937.823594,70.4296945 C938.317759,70.0720076 938.440867,69.9215195 938.440867,69.9215195 Z M941.834133,64.0535074 C941.834133,64.0535074 941.031331,63.8184658 939.791584,63.5455032 C939.512424,63.4840098 939.229797,63.4276408 938.915959,63.3775919 C938.5397,63.3172942 938.153037,63.2597295 937.747302,63.2274454 C937.490683,63.2069476 937.230596,63.1990901 936.968775,63.2031897 C936.772843,63.2062644 936.578645,63.2201004 936.386181,63.239915 C935.911089,63.2884264 935.462006,63.3605104 935.023326,63.4334485 C934.596783,63.5045076 934.217057,63.5810328 933.856403,63.656533 C932.784845,63.8799592 932.105152,64.0535074 932.105152,64.0535074 C932.105152,64.0535074 932.784845,64.2272264 933.856403,64.4506526 C934.217057,64.5261529 934.596783,64.6025072 935.023326,64.6735663 C935.462006,64.7465044 935.911089,64.8185884 936.386181,64.8670998 C936.578645,64.8869144 936.772843,64.9007504 936.968775,64.9038251 C937.230596,64.9079247 937.490683,64.9000672 937.747302,64.8797402 C938.153037,64.8474561 938.5397,64.7897206 938.915959,64.7295937 C939.229797,64.679374 939.512424,64.623005 939.791584,64.5616824 C941.031331,64.288549 941.834133,64.0535074 941.834133,64.0535074 Z M944.06221,56.9583595 C944.06221,56.9583595 942.323096,56.5986228 939.755172,56.1961824 C939.170844,56.1046255 938.562241,56.0187055 937.908556,55.9444009 C937.117892,55.8542105 936.297751,55.7674364 935.448134,55.7192665 C934.90542,55.6885198 934.35577,55.6767336 933.807853,55.6828829 C933.395182,55.6876657 932.984245,55.7081636 932.576776,55.7380562 C931.584978,55.810311 930.626125,55.9192911 929.705417,56.0282711 C928.81592,56.133664 928.000982,56.2505016 927.244996,56.3627271 C925.020387,56.6932544 923.553497,56.9583595 923.553497,56.9583595 C923.553497,56.9583595 925.020387,57.2234645 927.244996,57.5539918 C928.000982,57.6663882 928.81592,57.7830549 929.705417,57.8884478 C930.626125,57.9975987 931.584978,58.1065788 932.576776,58.1788336 C932.984245,58.2085554 933.395182,58.229224 933.807853,58.233836 C934.35577,58.2401562 934.90542,58.2283699 935.448134,58.1976232 C936.297751,58.1494534 937.117892,58.0625085 937.908556,57.9724889 C938.562241,57.8980135 939.170844,57.8120935 939.755172,57.7205366 C942.323096,57.3182669 944.06221,56.9583595 944.06221,56.9583595 Z M954.17612,51.3720216 C954.17612,51.3720216 952.463014,51.0124557 949.928035,50.6098445 C949.350642,50.5182876 948.752442,50.4323675 948.107427,50.3578922 C947.327166,50.2678726 946.51743,50.1809277 945.67995,50.1327578 C945.144171,50.1020111 944.603191,50.0902248 944.06221,50.096545 C943.654741,50.101157 943.250739,50.1218256 942.848471,50.1515475 C941.868811,50.2238023 940.923829,50.3327823 940.015259,50.4419332 C939.137899,50.5473261 938.335098,50.6639929 937.587782,50.7763892 C935.394383,51.1069165 933.946566,51.3720216 933.946566,51.3720216 C933.946566,51.3720216 935.394383,51.6369558 937.587782,51.9676539 C938.335098,52.0800503 939.137899,52.196717 940.015259,52.3021099 C940.923829,52.41109 941.868811,52.52007 942.848471,52.5924956 C943.250739,52.6222175 943.654741,52.6428861 944.06221,52.6474981 C944.603191,52.6536475 945.144171,52.6418612 945.67995,52.6111145 C946.51743,52.5629446 947.327166,52.4761705 948.107427,52.3859802 C948.752442,52.3115048 949.350642,52.2257556 949.928035,52.1341987 C952.463014,51.7315874 954.17612,51.3720216 954.17612,51.3720216 Z M947.784919,47.3450549 C947.784919,47.3450549 946.326699,46.9882221 944.131566,46.5828778 C943.633934,46.4911501 943.12243,46.4057426 942.56411,46.3310964 C941.893086,46.240906 941.199521,46.1541319 940.47648,46.105962 C940.016993,46.0752153 939.55057,46.063429 939.084148,46.0695784 C938.733898,46.0741904 938.385382,46.094859 938.040333,46.1245809 C937.194184,46.1971773 936.384447,46.3058157 935.602453,46.4149666 C934.844733,46.520872 934.158104,46.6368554 933.514822,46.7494226 C931.616188,47.0818288 930.381643,47.3450549 930.381643,47.3450549 C930.381643,47.3450549 931.616188,47.6082811 933.514822,47.9406873 C934.158104,48.0534253 934.844733,48.1694087 935.602453,48.2751433 C936.384447,48.3842942 937.194184,48.4931034 938.040333,48.565529 C938.385382,48.5952509 938.733898,48.6159195 939.084148,48.6205315 C939.55057,48.6268517 940.016993,48.6150654 940.47648,48.5843187 C941.199521,48.535978 941.893086,48.4493747 942.56411,48.3591844 C943.12243,48.2843673 943.633934,48.1991306 944.131566,48.107232 C946.326699,47.7020586 947.784919,47.3450549 947.784919,47.3450549 Z M950.087555,44.0891478 C950.087555,44.0891478 948.21493,43.7283863 945.464945,43.3269707 C944.839003,43.2354138 944.185318,43.149323 943.484817,43.0750184 C942.636934,42.9849988 941.754373,42.8980539 940.844069,42.8498841 C940.263208,42.8191373 939.673678,42.8075219 939.084148,42.8136713 C938.642001,42.8182833 938.201587,42.8389519 937.762907,42.8686737 C936.700019,42.9409285 935.670075,43.0500794 934.683479,43.1590594 C933.729827,43.2642816 932.852468,43.3812899 932.042731,43.4935155 C929.660336,43.8233595 928.080742,44.0891478 928.080742,44.0891478 C928.080742,44.0891478 929.660336,44.3549361 932.042731,44.6847802 C932.852468,44.7970057 933.729827,44.9140141 934.683479,45.0192362 C935.670075,45.1282162 936.700019,45.2373671 937.762907,45.3096219 C938.201587,45.3393437 938.642001,45.3600124 939.084148,45.3646244 C939.673678,45.3707737 940.263208,45.3589875 940.844069,45.3282407 C941.754373,45.2802417 942.636934,45.1932968 943.484817,45.1032772 C944.185318,45.0288018 944.839003,44.942711 945.464945,44.8513249 C948.21493,44.4499094 950.087555,44.0891478 950.087555,44.0891478 Z M953.328236,0.267722703 C954.233339,0.327507998 955.114166,0.390197149 955.968985,0.454594452 C963.346781,1.00974361 968.522509,1.52167655 968.522509,1.52167655 C968.522509,1.52167655 963.346781,2.03343867 955.968985,2.58858783 L955.930839,2.59149169 C963.853083,3.14339537 969.410272,3.65105792 969.410272,3.65105792 C969.410272,3.65105792 966.634278,3.90454757 962.207601,4.24822761 C963.032943,4.2842696 963.849615,4.32236137 964.652417,4.36062396 C966.816339,4.4637963 968.883162,4.5857583 970.826878,4.7133572 C979.283168,5.26799391 985.23222,5.78043929 985.23222,5.78043929 C985.23222,5.78043929 979.283168,6.29271386 970.826878,6.84735058 C968.883162,6.97494948 966.816339,7.09691148 964.652417,7.20008381 L964.628142,7.20127952 C968.333512,7.4901279 970.598002,7.69305627 970.598002,7.69305627 C970.598002,7.69305627 964.886495,8.20533084 956.761383,8.76013837 C954.893959,8.88773727 952.910364,9.00952845 950.831403,9.11287161 C949.794523,9.16428696 948.736837,9.21518987 947.663545,9.26199321 C947.899358,9.27873309 948.131702,9.29547298 948.362312,9.31255449 C955.915233,9.86770365 961.217537,10.3796366 961.217537,10.3796366 C961.217537,10.3796366 955.915233,10.8913987 948.362312,11.4465479 C947.750241,11.4916431 947.124299,11.5358842 946.486219,11.5789296 C948.102225,11.6419604 949.688755,11.7184856 951.230203,11.7965481 C953.26755,11.8998912 955.211265,12.0216824 957.040542,12.1492813 C965.002667,12.7040888 970.598002,13.2163634 970.598002,13.2163634 C970.598002,13.2163634 965.002667,13.7284672 957.040542,14.2832747 C956.057414,14.3519424 955.039608,14.4189019 953.994059,14.4821035 C954.049544,14.4836408 954.105029,14.485349 954.162248,14.4868863 C956.419802,14.5541875 958.627072,14.6761495 960.738977,14.8020402 C962.469421,14.9053834 964.116638,15.0271746 965.671957,15.1547735 C972.44115,15.7104351 977.179932,16.2218556 977.179932,16.2218556 C977.179932,16.2218556 972.44115,16.7331052 965.671957,17.2887668 C964.116638,17.4165366 962.469421,17.5381569 960.738977,17.6415001 C960.465019,17.6578983 960.189327,17.6741258 959.911901,17.6901824 C960.289894,17.7089721 960.662685,17.7281033 961.033742,17.7472346 C971.749319,18.3011881 979.312644,18.8143167 979.312644,18.8143167 C979.312644,18.8143167 971.749319,19.3274454 961.033742,19.881228 C958.568119,20.0088269 955.942976,20.1307889 953.199927,20.2339613 C953.021334,20.240623 952.842741,20.2474557 952.662414,20.2541174 C953.912565,20.3301302 955.119368,20.4126339 956.279355,20.4976998 C963.849615,21.052849 969.16579,21.5647819 969.16579,21.5647819 C969.16579,21.5647819 963.849615,22.0767148 956.279355,22.631864 C954.95638,22.728887 953.570984,22.8224937 952.131837,22.907218 C953.076819,22.96632 953.997527,23.0283259 954.892225,23.0916983 C962.708701,23.6466767 968.200001,24.1587804 968.200001,24.1587804 C968.200001,24.1587804 962.708701,24.6708842 954.892225,25.2258625 C954.080754,25.2834272 953.246743,25.3397962 952.393658,25.3937738 C953.336906,25.4581711 954.252412,25.5263263 955.138441,25.5961897 C962.181592,26.1516805 967.11804,26.6632718 967.11804,26.6632718 C967.11804,26.6632718 962.181592,27.1748631 955.138441,27.7303539 C953.520701,27.8579528 951.804128,27.9795732 950.004327,28.0829163 C947.876817,28.2048783 945.653941,28.3230824 943.382516,28.3915793 C947.963512,28.8073433 950.933704,29.1347959 950.933704,29.1347959 C950.933704,29.1347959 948.769781,29.3734246 945.288086,29.7019021 C946.621464,29.6942154 947.954843,29.7107845 949.270882,29.7531467 C951.363714,29.820277 953.40973,29.942239 955.365583,30.0683006 C956.969452,30.1716437 958.493561,30.2932641 959.934442,30.420863 C966.211204,30.977037 970.598002,31.4879451 970.598002,31.4879451 C970.598002,31.4879451 966.211204,31.9988531 959.934442,32.5550272 C958.493561,32.6826261 956.969452,32.8042464 955.365583,32.9075896 C953.40973,33.0336512 951.363714,33.1556132 949.270882,33.2227435 C947.928834,33.2659597 946.569447,33.282358 945.208326,33.2736464 C945.184051,33.2734756 945.159776,33.2733048 945.135502,33.273134 C945.192721,33.2796249 945.251674,33.2862867 945.308893,33.2929485 C950.165581,33.8513432 953.524169,34.3598598 953.524169,34.3598598 C953.524169,34.3598598 950.165581,34.8685473 945.308893,35.4269419 L945.248206,35.4339453 C945.91923,35.4419736 946.58852,35.457347 947.252608,35.4802362 C949.203259,35.5475374 951.107095,35.6693286 952.929437,35.7953901 C954.424069,35.8989041 955.842409,36.0203537 957.186191,36.1481234 C963.038145,36.7048099 967.11804,37.2152055 967.11804,37.2152055 C967.11804,37.2152055 963.038145,37.7254303 957.186191,38.2821168 C955.842409,38.4098865 954.424069,38.531336 952.929437,38.63485 C951.107095,38.7609116 949.203259,38.8827027 947.252608,38.9500039 C946.806993,38.9653773 946.359644,38.9773343 945.912294,38.9858751 C946.895422,39.0854603 947.823065,39.199394 948.710828,39.3198187 C952.849677,39.8804339 955.682889,40.3869007 955.682889,40.3869007 C955.682889,40.3869007 952.849677,40.8931968 948.710828,41.453812 C947.76758,41.5819234 946.77925,41.7026897 945.723298,41.8065453 C944.443671,41.9326068 943.112026,42.054398 941.740502,42.1216992 C940.861408,42.1647446 939.973645,42.1811428 939.084148,42.1724313 C938.416592,42.1659403 937.752504,42.1370725 937.091883,42.0953936 C935.488014,41.9944419 933.932695,41.8415624 932.443265,41.6890245 C931.007585,41.5417818 929.681142,41.3777993 928.460468,41.2206494 C924.873004,40.7597902 922.483673,40.3869007 922.483673,40.3869007 C922.483673,40.3869007 924.873004,40.0138405 928.460468,39.5529813 C929.681142,39.3960022 931.007585,39.2318489 932.443265,39.0846062 C933.811321,38.9445378 935.236597,38.8041278 936.701753,38.7038593 C935.787981,38.644074 934.889815,38.5805308 934.008987,38.5173292 C931.97164,38.3707698 930.069539,38.2055916 928.333893,38.0489541 C923.25353,37.5906571 919.820384,37.2152055 919.820384,37.2152055 C919.820384,37.2152055 923.25353,36.839583 928.333893,36.381286 C929.434927,36.2818716 930.603584,36.1790409 931.831194,36.0797973 C931.758369,36.0762102 931.687279,36.0724523 931.614455,36.0685235 C929.727958,35.9675718 927.890011,35.8145214 926.137026,35.6621543 C924.44993,35.5152533 922.880739,35.3505875 921.443326,35.1937793 C917.229919,34.7342866 914.400175,34.3598598 914.400175,34.3598598 C914.400175,34.3598598 917.229919,33.9856039 921.443326,33.5261112 C922.880739,33.3693029 924.44993,33.2046371 926.137026,33.0577361 C927.890011,32.905369 929.727958,32.7521478 931.614455,32.6513669 C931.917889,32.6351395 932.221324,32.620791 932.526492,32.6090048 C931.276342,32.5142024 930.085144,32.4163253 928.959835,32.3218645 C923.510149,31.8639092 919.820384,31.4879451 919.820384,31.4879451 C919.820384,31.4879451 922.173303,31.2482915 925.897746,30.9184474 C925.308216,30.9234011 924.718686,30.9240843 924.129156,30.9204972 C923.05413,30.9140063 921.980839,30.8851385 920.912749,30.8434596 C918.332687,30.7426787 915.806377,30.5892867 913.406643,30.4369196 C911.10054,30.290531 908.940085,30.125182 906.973829,29.9687153 C901.224176,29.5109308 897.324608,29.1347959 897.324608,29.1347959 C897.324608,29.1347959 901.224176,28.758661 906.973829,28.3010473 C908.940085,28.1445806 911.10054,27.9790607 913.406643,27.8326722 C915.502943,27.6996072 917.694608,27.565859 919.934822,27.466957 C914.039521,27.0231793 910.068862,26.6632718 910.068862,26.6632718 C910.068862,26.6632718 914.221582,26.2869661 920.33709,25.8293524 C921.736357,25.7248135 923.227521,25.6161751 924.794978,25.5119779 C924.474204,25.4950672 924.156898,25.4779857 923.839592,25.4609041 C921.115616,25.3146864 918.556362,25.1489957 916.234654,24.9926999 C909.444654,24.5354278 904.827246,24.1587804 904.827246,24.1587804 C904.827246,24.1587804 909.444654,23.7821331 916.234654,23.324861 C918.556362,23.1685651 921.115616,23.0028745 923.839592,22.8566567 C924.214117,22.8365005 924.59211,22.8163443 924.971837,22.7961882 C922.795777,22.6685893 920.741091,22.5303998 918.847659,22.3987014 C912.272664,21.9414293 907.802639,21.5647819 907.802639,21.5647819 C907.802639,21.5647819 912.272664,21.1881346 918.847659,20.7308625 C920.659598,20.6049717 922.618918,20.4731024 924.690943,20.3499447 C922.542626,20.2770067 920.434189,20.1965527 918.384705,20.1164405 C914.648124,19.9703935 911.126549,19.8043612 907.939618,19.6480654 C898.62851,19.1916474 892.271988,18.8143167 892.271988,18.8143167 C892.271988,18.8143167 898.62851,18.4369861 907.939618,17.9803973 C911.126549,17.8241014 914.648124,17.65824 918.384705,17.5120222 C922.277338,17.3598259 926.386709,17.2062631 930.570639,17.105653 C931.174041,17.0911337 931.779176,17.0781518 932.386045,17.0672196 L932.238663,17.0556042 C926.360701,16.5979905 922.372703,16.2218556 922.372703,16.2218556 C922.372703,16.2218556 926.360701,15.8455498 932.238663,15.3879361 C933.903219,15.2582874 935.706487,15.1223186 937.618992,14.996257 C936.557838,14.9846416 935.498418,14.9590193 934.444199,14.9248563 C931.340496,14.8242462 928.295747,14.6706834 925.407049,14.5184871 C922.631056,14.3722694 920.024986,14.2065787 917.65993,14.050112 C910.743354,13.5930108 906.03925,13.2163634 906.03925,13.2163634 C906.03925,13.2163634 910.743354,12.8395452 917.65993,12.382444 C919.678203,12.2490373 921.871602,12.1087981 924.195044,11.9798327 C922.202779,11.8915213 920.250394,11.7862992 918.3691,11.6817603 C915.737021,11.5353717 913.26793,11.3698519 911.024248,11.2133852 C904.464858,10.7561131 900.005236,10.3796366 900.005236,10.3796366 C900.005236,10.3796366 904.464858,10.0029892 911.024248,9.54571714 C913.26793,9.38925048 915.737021,9.22373062 918.3691,9.07734206 C919.622718,9.00764949 920.907547,8.9377861 922.214917,8.87270554 C920.220918,8.75996755 918.32922,8.64108023 916.569299,8.52697572 C909.512276,8.06987444 904.70934,7.69305627 904.70934,7.69305627 C904.70934,7.69305627 909.512276,7.31640892 916.569299,6.85930764 C918.984638,6.70284098 921.64446,6.53715031 924.475938,6.39093256 C924.661467,6.38136691 924.846995,6.37180126 925.034258,6.36223562 C919.901878,6.02658389 916.635187,5.78043929 916.635187,5.78043929 C916.635187,5.78043929 920.638791,5.47860897 926.742161,5.08795477 C925.856132,5.04388447 924.980507,4.99844764 924.120486,4.95318163 C921.339291,4.80696389 918.726285,4.64127321 916.356028,4.48480656 C909.425581,4.02770528 904.70934,3.65105792 904.70934,3.65105792 C904.70934,3.65105792 909.425581,3.27423975 916.356028,2.81713847 C917.963364,2.71106228 919.683405,2.60071571 921.490141,2.49515196 C920.808714,2.44834861 920.144626,2.40154527 919.501344,2.35542518 C913.094539,1.89815309 908.740685,1.52167655 908.740685,1.52167655 C908.740685,1.52167655 913.094539,1.14520001 919.501344,0.6877571 C921.455463,0.548371957 923.584707,0.401470948 925.845729,0.267722703 L953.328236,0.267722703 Z" id="sun" fill="url(#linearGradient-2)"></path>
        <path d="M947.436054,18.7435781 C947.436054,18.7435781 943.970406,18.4929996 939.058559,18.2224449 C937.927736,18.1600632 936.725475,18.1004851 935.467457,18.0500189 C933.930653,17.9885133 932.320669,17.9289352 930.679321,17.8961672 C929.623422,17.8751397 928.555326,17.8670791 927.48723,17.8712846 C926.687465,17.8744387 925.8877,17.8886323 925.093162,17.908959 C923.176514,17.9581985 921.292971,18.0331968 919.507003,18.1074942 C917.794217,18.1788127 916.180747,18.2599441 914.72061,18.3363442 C910.451711,18.5592364 907.538406,18.7435781 907.538406,18.7435781 C907.538406,18.7435781 910.451711,18.9279197 914.72061,19.1509871 C916.180747,19.2273873 917.794217,19.3083434 919.507003,19.3796619 C921.292971,19.4541345 923.176514,19.5291328 925.093162,19.5781972 C925.8877,19.598699 926.687465,19.6127174 927.48723,19.6158715 C928.555326,19.6200771 929.623422,19.6121917 930.679321,19.5911642 C932.320669,19.558221 933.930653,19.4986429 935.467457,19.4371372 C936.723733,19.3866711 937.927736,19.327093 939.058559,19.2648864 C943.970406,18.9941566 947.436054,18.7435781 947.436054,18.7435781 Z M902.684058,18.7435781 C902.684058,18.7435781 901.636871,18.4986069 900.073932,18.2224449 C899.720223,18.1597127 899.352575,18.101186 898.955306,18.0500189 C898.476144,17.9885133 897.979558,17.9291104 897.463805,17.8961672 C897.136233,17.8751397 896.803433,17.8670791 896.470633,17.8712846 C896.219726,17.8744387 895.972304,17.8886323 895.724883,17.908959 C895.12201,17.958549 894.541788,18.0328464 893.984217,18.1074942 C893.444071,18.1798641 892.952712,18.2592432 892.492716,18.3363442 C891.140608,18.5630915 890.255465,18.7435781 890.255465,18.7435781 C890.255465,18.7435781 891.140608,18.9242399 892.492716,19.1509871 C892.952712,19.227913 893.444071,19.3074673 893.984217,19.3796619 C894.541788,19.4543098 895.12201,19.5287824 895.724883,19.5781972 C895.972304,19.5985238 896.219726,19.6127174 896.470633,19.6158715 C896.803433,19.6200771 897.136233,19.6120165 897.463805,19.5911642 C897.979558,19.5580457 898.476144,19.4988181 898.955306,19.4371372 C899.352575,19.3861454 899.720223,19.3276187 900.073932,19.2648864 C901.636871,18.9885492 902.684058,18.7435781 902.684058,18.7435781 Z M858.674328,14.7001526 C858.674328,14.7001526 856.42488,14.4502751 853.21188,14.1788442 C852.473099,14.1164625 851.690758,14.0570596 850.870085,14.0065934 C849.8682,13.9450878 848.821013,13.8855097 847.74769,13.8527418 C847.059439,13.831539 846.364219,13.8236536 845.667256,13.8278591 C845.146276,13.8310133 844.623553,13.8450317 844.106058,13.8655335 C842.85501,13.9145978 841.628355,13.9895962 840.464427,14.0640688 C839.345801,14.1355625 838.296872,14.2163434 837.342032,14.2927436 C834.552438,14.5163367 832.660183,14.7001526 832.660183,14.7001526 C832.660183,14.7001526 834.552438,14.8837934 837.342032,15.1073865 C838.296872,15.1839618 839.345801,15.2647427 840.464427,15.3362364 C841.628355,15.4105338 842.85501,15.4855322 844.106058,15.5347717 C844.623553,15.5550984 845.146276,15.569292 845.667256,15.5724461 C846.364219,15.5766516 847.059439,15.568591 847.74769,15.5475635 C848.821013,15.5147955 849.8682,15.4552174 850.870085,15.3937118 C851.690758,15.3430704 852.473099,15.2836675 853.21188,15.2212858 C856.42488,14.9498549 858.674328,14.7001526 858.674328,14.7001526 Z M949.141871,9.96982672 C949.141871,9.96982672 940.882859,9.71872255 929.227895,9.44851834 C926.542845,9.3863118 923.678327,9.32655847 920.691841,9.27626754 C917.041497,9.21476192 913.213427,9.15518382 909.312177,9.12241586 C906.80311,9.10121307 904.264422,9.09332773 901.725734,9.09753324 C899.824768,9.10068738 897.925543,9.11488098 896.036773,9.13520763 C891.48212,9.18427195 887.000648,9.25944549 882.759628,9.33374289 C878.692849,9.40506138 874.85084,9.48619273 871.379964,9.56241765 C861.249606,9.78513461 854.311339,9.96982672 854.311339,9.96982672 C854.311339,9.96982672 861.249606,10.1545188 871.379964,10.3772358 C874.85084,10.4534607 878.692849,10.5345921 882.759628,10.6059105 C887.000648,10.6802079 891.48212,10.7553815 896.036773,10.8044458 C897.925543,10.8247725 899.824768,10.8389661 901.725734,10.8421202 C904.264422,10.8463257 906.80311,10.8384404 909.312177,10.8172376 C913.213427,10.7844696 917.041497,10.7248915 920.691841,10.6633859 C923.678327,10.613095 926.542845,10.5533416 929.227895,10.4911351 C940.882859,10.2209309 949.141871,9.96982672 949.141871,9.96982672 Z M785.548967,8.83906943 C785.548967,8.83906943 781.187721,8.58814049 775.019598,8.31776105 C773.599536,8.25555451 772.085384,8.19580118 770.506763,8.14551025 C768.576175,8.08400463 766.55324,8.0242513 764.488487,7.99148334 C763.162515,7.97045578 761.820861,7.96239521 760.477465,7.96677595 C759.472096,7.96993009 758.468469,7.98394846 757.470069,8.00427511 C755.06032,8.05351466 752.692388,8.12851297 750.449909,8.20281037 C748.298036,8.27430409 746.268131,8.35526021 744.431633,8.43166036 C739.070245,8.65455255 735.405962,8.83906943 735.405962,8.83906943 C735.405962,8.83906943 739.070245,9.02341108 744.431633,9.24630326 C746.268131,9.32270341 748.298036,9.40383477 750.449909,9.47515326 C752.692388,9.54945065 755.06032,9.62444897 757.470069,9.67368851 C758.468469,9.69401516 759.472096,9.70803354 760.477465,9.7113629 C761.820861,9.71556841 763.162515,9.70750785 764.490229,9.68648028 C766.55324,9.65371233 768.576175,9.593959 770.506763,9.53245337 C772.085384,9.48216245 773.599536,9.42258435 775.019598,9.36020257 C781.187721,9.08982314 785.548967,8.83906943 785.548967,8.83906943 Z M1018.19871,8.83906943 C1018.19871,8.83906943 1014.73306,8.58831572 1009.82121,8.31776105 C1008.69039,8.25537928 1007.48813,8.19580118 1006.23011,8.14551025 C1004.69331,8.08400463 1003.08332,8.0242513 1001.44198,7.99148334 C1000.38608,7.97045578 999.317982,7.96239521 998.249886,7.96677595 C997.450121,7.96993009 996.650356,7.98394846 995.855818,8.00427511 C993.93917,8.05351466 992.055627,8.12851297 990.271402,8.20281037 C988.556873,8.27430409 986.943403,8.35526021 985.483266,8.43166036 C981.214367,8.65472778 978.301062,8.83906943 978.301062,8.83906943 C978.301062,8.83906943 981.214367,9.02323585 985.483266,9.24630326 C986.943403,9.32270341 988.556873,9.40365954 990.271402,9.47515326 C992.055627,9.54945065 993.93917,9.62444897 995.855818,9.67368851 C996.650356,9.69401516 997.450121,9.70803354 998.249886,9.7113629 C999.317982,9.71556841 1000.38608,9.70750785 1001.44198,9.68648028 C1003.08332,9.65371233 1004.69331,9.59413423 1006.23011,9.53245337 C1007.48813,9.48216245 1008.69039,9.42258435 1009.82121,9.36020257 C1014.73306,9.08964791 1018.19871,8.83906943 1018.19871,8.83906943 Z M440.294393,8.15812679 C440.294393,8.15812679 435.933146,7.90737308 429.763281,7.63699365 C428.343219,7.57461187 426.830809,7.51503377 425.250446,7.46474285 C423.3216,7.40306199 421.296923,7.34348389 419.233912,7.31071593 C417.90794,7.28968837 416.564544,7.2816278 415.22289,7.28583332 C414.217521,7.28916268 413.212152,7.30318106 412.213752,7.3235077 C409.805745,7.37274725 407.436071,7.44774556 405.193592,7.52204296 C403.041719,7.59336145 401.013556,7.6744928 399.177059,7.75089295 C393.815671,7.97378514 390.151388,8.15812679 390.151388,8.15812679 C390.151388,8.15812679 393.815671,8.34264367 399.177059,8.56553586 C401.013556,8.64193601 403.041719,8.72289213 405.193592,8.79438585 C407.436071,8.86868325 409.805745,8.94368156 412.213752,8.99292111 C413.212152,9.01324775 414.217521,9.02726613 415.22289,9.03042026 C416.564544,9.03480101 417.90794,9.02674044 419.233912,9.00571288 C421.296923,8.97294492 423.3216,8.91319159 425.250446,8.85168597 C426.830809,8.80139504 428.343219,8.74164171 429.763281,8.67943516 C435.933146,8.40905573 440.294393,8.15812679 440.294393,8.15812679 Z M600.273543,5.88627366 C600.273543,5.88627366 595.912297,5.63551995 589.744174,5.36496528 C588.324112,5.30275874 586.811703,5.24318064 585.231339,5.19271448 C583.300751,5.13120886 581.277816,5.07163076 579.214806,5.0388628 C577.887091,5.01783524 576.545437,5.00977467 575.202041,5.01398018 C574.196672,5.01713432 573.193045,5.03132792 572.194645,5.05165457 C569.784896,5.10071889 567.416964,5.17589243 565.174485,5.25018983 C563.022612,5.32150832 560.992707,5.40263967 559.15621,5.47903982 C553.796564,5.70193201 550.130538,5.88627366 550.130538,5.88627366 C550.130538,5.88627366 553.796564,6.07079054 559.15621,6.29368272 C560.992707,6.36990765 563.022612,6.451039 565.174485,6.52235749 C567.416964,6.59683011 569.784896,6.67182843 572.194645,6.72089275 C573.193045,6.74139462 574.196672,6.755413 575.202041,6.75856713 C576.545437,6.76277265 577.887091,6.75488731 579.214806,6.73368451 C581.277816,6.70091656 583.300751,6.64133846 585.231339,6.57983283 C586.811703,6.52954191 588.324112,6.46978858 589.744174,6.40758203 C595.912297,6.1372026 600.273543,5.88627366 600.273543,5.88627366 Z M461.295631,5.88627366 C461.295631,5.88627366 460.102082,5.64007592 458.343993,5.36496528 C457.943239,5.30240828 457.525061,5.24370633 457.079005,5.19271448 C456.535374,5.13120886 455.972576,5.07180599 455.390612,5.0388628 C455.019479,5.01783524 454.643119,5.00977467 454.266759,5.01398018 C453.984489,5.01713432 453.702219,5.03132792 453.423434,5.05165457 C452.743895,5.10106935 452.085265,5.1757172 451.454513,5.25018983 C450.846413,5.32220924 450.2871,5.40211398 449.767863,5.47903982 C448.244998,5.70473568 447.237887,5.88627366 447.237887,5.88627366 C447.237887,5.88627366 448.244998,6.06781163 449.767863,6.29368272 C450.2871,6.37043333 450.846413,6.45033808 451.454513,6.52235749 C452.085265,6.59700534 452.743895,6.67147797 453.423434,6.72089275 C453.702219,6.74121939 453.984489,6.755413 454.266759,6.75856713 C454.643119,6.76277265 455.019479,6.75471208 455.390612,6.73368451 C455.972576,6.70074133 456.535374,6.64151369 457.079005,6.57983283 C457.525061,6.52884099 457.943239,6.47013904 458.343993,6.40758203 C460.102082,6.13264662 461.295631,5.88627366 461.295631,5.88627366 Z M840.154278,5.60765843 C840.154278,5.60765843 838.267251,5.35848178 835.554322,5.08652528 C834.934025,5.02414351 834.277137,4.96474064 833.583659,4.91427448 C832.740334,4.85259362 831.858676,4.79319075 830.956108,4.76024757 C830.375887,4.73922001 829.790438,4.73115944 829.203246,4.73536495 C828.76416,4.73869432 828.325073,4.75271269 827.889471,4.77303934 C826.835315,4.82227889 825.803809,4.8972772 824.822834,4.97157459 C823.880191,5.04324354 822.998533,5.12384921 822.195283,5.20042459 C819.841291,5.42436815 818.252215,5.60765843 818.252215,5.60765843 C818.252215,5.60765843 819.841291,5.79112393 822.195283,6.01506749 C822.998533,6.09164287 823.880191,6.17224854 824.822834,6.24391749 C825.803809,6.31821488 826.835315,6.3932132 827.889471,6.44245274 C828.325073,6.46277939 828.76416,6.47679777 829.203246,6.4799519 C829.790438,6.48433264 830.375887,6.47627208 830.956108,6.45524451 C831.858676,6.42230133 832.740334,6.36289846 833.583659,6.3012176 C834.277137,6.25075145 834.934025,6.19134858 835.554322,6.1289668 C838.267251,5.8570103 840.154278,5.60765843 840.154278,5.60765843 Z M1142.25813,4.83279267 C1142.25813,4.83279267 1138.79248,4.58221419 1133.87889,4.31148429 C1132.74807,4.24927775 1131.54581,4.18952442 1130.28779,4.13923349 C1128.75273,4.07772787 1127.14274,4.01797454 1125.49965,3.98520658 C1124.4455,3.96417902 1123.3774,3.95611845 1122.3093,3.96049919 C1121.50954,3.96365333 1120.70977,3.9776717 1119.91524,3.99799835 C1117.99685,4.0472379 1116.1133,4.12223621 1114.32908,4.19670884 C1112.61629,4.26802733 1111.00282,4.34898345 1109.54094,4.4253836 C1105.27204,4.64845102 1102.36048,4.83279267 1102.36048,4.83279267 C1102.36048,4.83279267 1105.27204,5.01695909 1109.54094,5.2400265 C1111.00282,5.31642666 1112.61629,5.39738278 1114.32908,5.4688765 C1116.1133,5.54317389 1117.99685,5.61817221 1119.91524,5.66741176 C1120.70977,5.6877384 1121.50954,5.70193201 1122.3093,5.70508614 C1123.3774,5.70929166 1124.4455,5.70123109 1125.5014,5.68020352 C1127.14274,5.64743557 1128.75273,5.58785747 1130.28779,5.52617661 C1131.54581,5.47588569 1132.74807,5.41630759 1133.87889,5.35392581 C1138.79248,5.08337115 1142.25813,4.83279267 1142.25813,4.83279267 Z M1065.74553,4.54015906 C1065.74553,4.54015906 1064.66698,4.29483747 1063.06222,4.01902592 C1062.69806,3.95629368 1062.31995,3.89776696 1061.91223,3.84659988 C1061.41913,3.78509426 1060.9086,3.72569139 1060.37891,3.6927482 C1060.04089,3.67172064 1059.69763,3.66366007 1059.35612,3.66786559 C1059.09824,3.67101972 1058.84385,3.68521333 1058.58946,3.70553997 C1057.96916,3.75512998 1057.37326,3.82942737 1056.80001,3.90407523 C1056.24418,3.97626987 1055.73714,4.05599938 1055.26495,4.13292522 C1053.87625,4.359322 1052.96497,4.54015906 1052.96497,4.54015906 C1052.96497,4.54015906 1053.87625,4.72099612 1055.26495,4.94756812 C1055.73714,5.02449397 1056.24418,5.10404825 1056.80001,5.17624289 C1057.37326,5.25089075 1057.96916,5.32536337 1058.58946,5.37477815 C1058.84385,5.39510479 1059.09824,5.4092984 1059.35612,5.41245253 C1059.69763,5.41665805 1060.04089,5.40877271 1060.37891,5.38774515 C1060.9086,5.35462673 1061.41913,5.29539909 1061.91223,5.23371823 C1062.31995,5.18272639 1062.69806,5.12419967 1063.06222,5.06146743 C1064.66698,4.78548065 1065.74553,4.54015906 1065.74553,4.54015906 Z M916.544911,3.03949186 C916.544911,3.03949186 910.984888,2.78856292 903.1336,2.51818349 C901.32498,2.45597694 899.396135,2.39639884 897.385397,2.34593269 C894.92686,2.28442706 892.349839,2.22484896 889.722288,2.192081 C888.032153,2.17105344 886.322851,2.16299287 884.613549,2.16719839 C883.33288,2.17035252 882.05221,2.18454613 880.780253,2.20487277 C877.713616,2.25393709 874.695766,2.32911063 871.83996,2.40340803 C869.100895,2.47472652 866.51342,2.55585787 864.176851,2.63225803 C857.351841,2.85497498 852.680446,3.03949186 852.680446,3.03949186 C852.680446,3.03949186 857.351841,3.22400874 864.176851,3.44690093 C866.51342,3.52312585 869.100895,3.6042572 871.83996,3.67557569 C874.695766,3.74987309 877.713616,3.82504663 880.780253,3.87411095 C882.05221,3.89461282 883.33288,3.9086312 884.613549,3.91178534 C886.322851,3.91599085 888.032153,3.90810551 889.722288,3.88690272 C892.349839,3.85413476 894.92686,3.79455666 897.385397,3.73305104 C899.396135,3.68276011 901.32498,3.62300678 903.1336,3.56080024 C910.984888,3.2904208 916.544911,3.03949186 916.544911,3.03949186 Z" id="Fill-29" fill="#FF9886"></path>
    </g>
</svg>