<?xml version="1.0" encoding="UTF-8"?>
<svg width="1600px" height="79px" viewBox="0 0 1600 79" version="1.1" xmlns="http://www.w3.org/2000/svg" xmlns:xlink="http://www.w3.org/1999/xlink">
    <title>seascape/large/sky</title>
    <g id="seascape/large/sky" stroke="none" stroke-width="1" fill="none" fill-rule="evenodd">
        <g id="sky" transform="translate(-81.000000, -24.000000)">
            <path d="M1685.41698,34.315161 C1688.22314,24.8422163 1705.94327,27.5363932 1707.49528,36.5189507 C1719.65789,30.1012548 1741.72406,44.0355493 1729.41204,61.9969582 L1729.02838,62.5424591 C1729.64918,61.7212292 1730.29616,60.9629036 1730.96374,60.2696772 L1731.41178,59.8171947 C1738.10117,53.2491424 1746.68371,53.0948413 1751.7686,61.4767702 C1753.4408,60.4213266 1755.68782,60.4263625 1757.86517,61.1793081 L1757.86517,103.247191 L1379.47352,103.247191 L1379.47073,103.22936 L1317.47446,103.230337 C1317.10221,100.083673 1318.53591,97.2516123 1320.74486,95.3328373 L1321.09067,95.0449273 C1324.5486,92.2862534 1329.6598,91.6880129 1332.85571,95.3230097 C1330.31452,90.3600356 1336.72235,84.2224293 1341.5069,86.374146 C1340.91296,81.1096975 1349.29244,78.6402625 1352.03393,83.5010566 C1352.20462,81.7692382 1354.27206,81.2525747 1355.51914,82.8285906 C1357.50472,76.3900339 1371.02405,77.1936745 1369.19349,89.7342056 C1370.69312,87.4948063 1374.14872,89.1965821 1373.87701,91.9971848 C1374.93947,86.8354402 1378.85837,86.5289005 1379.83897,91.6651438 C1380.84518,91.2674184 1381.74966,91.1250895 1382.54673,91.2523477 C1387.89662,83.4431344 1398.8882,79.4109064 1406.9825,84.0858745 C1407.72158,83.3233145 1408.62767,83.1040322 1409.67214,83.336681 C1408.90761,74.5546978 1419.31214,65.8095309 1427.71257,68.8252563 C1427.87895,68.3974341 1428.09359,68.0434864 1428.37234,67.7790175 C1428.65663,58.0530286 1444.5255,53.8725234 1449.87152,63.2955784 C1450.2199,59.7883731 1454.4335,58.7421329 1456.97316,61.9336429 C1460.68187,49.9733789 1484.16296,50.3541227 1485.14058,70.1022282 C1487.13907,70.8425098 1488.94843,72.2181443 1490.02171,74.0276899 C1492.24595,74.658387 1494.21842,76.7369165 1494.38686,79.4903062 L1494.61156,79.4582344 C1494.7593,78.8918087 1494.92521,78.3585265 1495.107,77.8586192 L1495.29398,77.3698455 C1497.82343,71.0810292 1502.97185,70.5914955 1505.50019,76.4293723 L1505.68709,76.8849301 C1506.0202,77.7424554 1506.29994,78.7229152 1506.51217,79.8277352 C1512.1576,77.6097062 1516.23185,79.3142527 1518.49106,85.5411614 C1522.83115,79.3054599 1527.5879,78.8256468 1532.59497,81.7928715 L1533.04403,82.0677464 C1533.11898,82.1150742 1533.19399,82.1631545 1533.26905,82.2119796 L1533.72007,82.5138074 C1533.87062,82.6173552 1534.02139,82.7238209 1534.17236,82.8331433 L1534.62589,83.1696187 C1534.85297,83.34208 1535.0805,83.5208303 1535.30847,83.7056626 L1535.765,84.0833749 L1536.22269,84.476937 L1536.6815,84.8859807 C1536.96542,77.8908452 1540.42131,74.334497 1548.98612,76.320009 C1549.03885,75.9943534 1549.09566,75.676261 1549.15665,75.3659137 L1549.28425,74.7555998 C1550.66099,68.5568462 1553.8527,65.717887 1559.7248,67.8439879 C1561.77847,62.8645795 1565.04275,61.8146928 1569.17623,63.5867891 C1567.53016,56.406543 1568.94804,51.8666422 1575.00455,51.3290224 C1576.62694,41.5876719 1586.17606,40.1905643 1589.12907,48.0783154 L1589.21828,48.3252279 C1587.57046,39.2584502 1596.12308,30.0805366 1603.35362,36.0841316 L1603.44568,35.612189 L1603.54703,35.1566091 C1604.39658,31.5789351 1606.19717,29.6265893 1610.38732,30.6077374 C1616.03798,31.930949 1616.70686,38.9259108 1613.14472,44.1079685 L1613.57868,44.0727772 C1616.44616,43.8893879 1618.78707,44.7578654 1619.77082,48.3266171 C1621.24097,46.2999501 1623.13264,45.7710128 1625.56431,47.1659418 C1626.31331,35.2679775 1640.84232,35.0795674 1643.85751,44.0350356 C1646.02441,41.6669731 1648.39859,41.9743333 1651.01663,45.435695 C1650.51323,39.3381555 1652.4049,34.8788282 1658.11652,33.0322361 C1659.69466,29.1747792 1662.29529,27.3724677 1666.52457,28.8477966 C1671.16842,18.8796027 1686.3872,24.516102 1685.41698,34.315161 Z M82.2480787,7.76500249 C88.481582,5.57670039 92.3137224,8.24991233 94.64013,13.9712539 C103.058846,16.7102163 105.847711,23.3242605 105.106349,32.3679252 C108.964637,27.2343161 112.463313,26.7782595 115.656937,30.2906645 C120.102318,17.0078421 141.516912,17.2872817 142.620326,34.9342926 C146.204939,32.8652507 148.992932,33.6497099 151.160539,36.6558711 C152.683006,31.0980315 156.408814,29.9557917 160.925489,30.3987331 C155.6746,22.7127461 156.662268,12.3379838 164.991038,10.3754367 C171.682118,8.79882397 174.236878,12.3287158 175.357375,18.4977202 C185.90669,9.68246854 198.367773,22.9358774 196.261544,36.2503091 L196.193243,36.6537727 L196.193243,36.6537727 C200.385518,24.5471147 214.726411,26.5117602 217.142416,41.1088928 C226.069086,41.9062923 228.157379,48.6399465 225.732658,59.2896018 C231.824966,56.6611561 236.63606,58.2181836 239.662167,65.6039217 C249.015909,62.196088 253.755533,67.3881032 255.49171,78.1753798 C268.1156,75.2302476 273.20734,80.5051503 273.629183,90.8800875 C283.218249,82.1254801 292.32272,80.1185165 300.440568,91.8520056 C303.769984,82.6161606 309.773392,80.0880894 318.095189,83.377887 C321.009927,68.1056193 332.569478,68.8550854 335.895596,83.9146083 L335.993,84.374 L335.972768,84.1239839 C335.386682,75.862608 345.598343,70.9198503 350.059325,77.5782045 C344.561431,39.9133181 385.154158,37.4997856 391.112244,56.8374234 C394.856529,52.1040878 401.065629,53.6556944 401.578115,58.8575022 C409.809268,44.2580963 434.966404,51.6753107 433.183162,67.4867289 C433.543994,67.324626 433.908312,67.1780863 434.272631,67.0476346 C434.019874,57.0894086 446.673398,50.8242266 454.327568,54.8893903 C455.547773,47.7888624 469.466823,45.6591412 471.671908,53.1473522 C470.910151,45.4013853 482.864672,40.9457406 486.513084,48.8254818 C489.835528,47.659285 491.878499,49.0839372 493.117878,52.1332908 C497.604746,53.5929167 499.091653,57.1179122 498.695958,61.9379824 C500.752874,59.2018179 502.616301,58.9589258 504.319359,60.8308911 C506.688299,53.7515222 518.1007,53.90051 518.689885,63.3058023 C520.600377,62.2030828 522.08554,62.621018 523.241249,64.2231615 C524.051813,61.2610671 526.039004,60.6523505 528.446294,60.8884228 C525.646795,56.7921325 526.173226,51.2626215 530.613029,50.2167341 C534.17777,49.3764919 535.53917,51.2577252 536.13707,54.5455992 C541.758819,49.8489369 548.396246,56.9066476 547.278809,64.0005443 L547.24,64.223 L547.321913,63.9998411 C549.651219,57.794838 557.134498,58.9067286 558.405808,66.5964743 C563.164606,67.0215792 564.276736,70.6104016 562.985062,76.2861025 C566.23255,74.8852324 568.796723,75.7151575 570.409137,79.6514432 C575.394545,77.8352609 577.920369,80.6023771 578.845981,86.3515227 C585.572796,84.7820796 588.288623,87.5932626 588.511746,93.1227736 C593.622661,88.4569372 598.47559,87.3872677 602.802088,93.6407336 C604.576614,88.7183654 607.775294,87.371005 612.21161,89.1244096 C613.780445,80.902626 620.050554,81.3931316 621.750125,89.6560093 C621.316081,85.1727354 626.845352,82.4488117 629.247412,86.0332624 C626.317177,65.959429 647.951408,64.6730977 651.127427,74.9793116 C653.12159,72.4566613 656.431832,73.2836135 656.703763,76.0559758 C661.091271,68.2748604 674.497835,72.2279335 673.549562,80.6550125 C681.207219,77.2106313 691.460425,87.035083 687.393657,94.9795254 C695.037368,86.2814005 709.531658,92.7259974 711.797753,103.230337 L1.13686838e-13,103.230337 L1.13686838e-13,19.4096585 C7.16033607,16.1957537 15.4448294,15.7367244 21.859446,19.1428094 C24.1482016,5.82011709 50.2652907,1.82402635 54.401785,15.873996 C52.9722279,1.3403406 75.4022068,-7.01941407 82.2480787,7.76500249 Z M196.193243,36.6537727 C195.893421,37.5172725 195.645894,38.4542169 195.457634,39.4635568 C195.780117,38.5332574 196.022414,37.5945643 196.193243,36.6537727 Z" id="clouds" fill="#FFFFFF"></path>
            <path d="M989.319822,103.230337 C987.873344,99.5604314 987.078652,95.5628928 987.078652,91.3812673 C987.078652,73.5032655 1001.61489,58.988764 1019.5216,58.988764 C1037.42831,58.988764 1051.96629,73.5032655 1051.96629,91.3812673 C1051.96629,95.5628928 1051.1716,99.5604314 1049.72338,103.230337 L989.319822,103.230337 Z" id="sun" fill="#FF9886"></path>
        </g>
    </g>
</svg>