<svg xmlns="http://www.w3.org/2000/svg" width="1731" height="243"><g fill="none" fill-rule="evenodd"><path fill="#423757" d="M716.076 178.065l12.359 27.487 12.358-27.487h10.004l-26.777 61.453h-10.788l9.71-21.695-19.224-39.758h12.358zm790.359-1.865c3.857 0 7.356.917 10.495 2.749 3.138 1.832 5.59 4.45 7.356 7.853 1.765 3.403 2.648 7.363 2.648 11.878 0 4.45-.964 8.344-2.894 11.682-1.929 3.338-4.61 5.89-8.042 7.657-3.432 1.767-7.307 2.65-11.623 2.65a19.67 19.67 0 01-7.944-1.668c-2.551-1.113-4.643-2.618-6.278-4.516v25.033h-10.985V177.28h9.513l.981 6.185a24.814 24.814 0 017.504-5.301c2.844-1.31 5.934-1.964 9.269-1.964zm122.266 0c5.624 0 10.299 1.653 14.027 4.958 3.726 3.305 6.211 7.968 7.454 13.988l-31.976 10.799a11.127 11.127 0 004.415 3.926c1.83.917 3.857 1.375 6.08 1.375 3.074 0 6.18-1.08 9.32-3.24l5 8.148a32.36 32.36 0 01-7.16 3.288c-2.55.819-5.002 1.228-7.355 1.228-4.774 0-8.91-.95-12.409-2.847-3.498-1.898-6.179-4.516-8.042-7.854-1.863-3.337-2.796-7.166-2.796-11.485 0-4.057 1.047-7.788 3.139-11.19 2.092-3.404 4.938-6.104 8.533-8.1 3.597-1.996 7.52-2.994 11.77-2.994zm-1006.131 0c6.735 0 11.77 2.487 15.104 7.46l.785-5.595h10.103v41.525h-10.985v-5.988c-1.505 1.767-3.532 3.386-6.082 4.859-2.55 1.472-5.525 2.209-8.925 2.209-3.99 0-7.553-.835-10.691-2.504-3.14-1.668-5.624-4.139-7.456-7.411-1.83-3.272-2.745-7.232-2.745-11.878 0-4.516.948-8.492 2.844-11.927 1.897-3.436 4.43-6.087 7.601-7.952 3.172-1.865 6.654-2.798 10.447-2.798zm828.174 0c4.513 0 8.518.966 12.016 2.896 3.499 1.93 6.196 4.581 8.093 7.952 1.895 3.37 2.844 7.15 2.844 11.338 0 4.188-.949 7.968-2.844 11.338-1.897 3.37-4.594 6.037-8.093 8-3.498 1.964-7.536 2.946-12.113 2.946-4.447 0-8.435-.9-11.967-2.7-3.53-1.8-6.293-4.385-8.288-7.755-1.994-3.37-2.991-7.313-2.991-11.83 0-4.122.997-7.885 2.991-11.288 1.995-3.403 4.757-6.07 8.288-8 3.532-1.931 7.553-2.897 12.064-2.897zm-66.065 0c5.625 0 10.3 1.653 14.027 4.958 3.727 3.305 6.212 7.968 7.454 13.988l-31.975 10.799a11.123 11.123 0 004.414 3.926c1.83.917 3.858 1.375 6.08 1.375 3.074 0 6.181-1.08 9.32-3.24l5.002 8.148a32.36 32.36 0 01-7.16 3.288c-2.551.819-5.003 1.228-7.357 1.228-4.774 0-8.909-.95-12.407-2.847-3.499-1.898-6.18-4.516-8.044-7.854-1.863-3.337-2.794-7.166-2.794-11.485 0-4.057 1.045-7.788 3.138-11.19 2.093-3.404 4.937-6.104 8.533-8.1 3.596-1.996 7.52-2.994 11.77-2.994zm-55.786 1.865l11.378 23.757 10.395-23.757h12.261l-22.755 42.605h-.49l-23.834-42.605h13.045zm-31.463-1.865c5.623 0 10.298 1.653 14.024 4.958 3.728 3.305 6.213 7.968 7.456 13.988l-31.976 10.799a11.123 11.123 0 004.414 3.926c1.83.917 3.858 1.375 6.082 1.375 3.073 0 6.179-1.08 9.317-3.24l5.003 8.148a32.36 32.36 0 01-7.16 3.288c-2.551.819-5.003 1.228-7.357 1.228-4.774 0-8.909-.95-12.407-2.847-3.499-1.898-6.18-4.516-8.043-7.854-1.864-3.337-2.795-7.166-2.795-11.485 0-4.057 1.045-7.788 3.138-11.19 2.092-3.404 4.936-6.104 8.533-8.1 3.596-1.996 7.52-2.994 11.77-2.994zm-122.834-33.18v76.57h-10.986v-5.596c-4.577 4.45-10.004 6.676-16.282 6.676-3.858 0-7.34-.917-10.446-2.749-3.105-1.833-5.54-4.45-7.307-7.853-1.766-3.403-2.648-7.363-2.648-11.878 0-4.516.932-8.443 2.795-11.78 1.864-3.338 4.447-5.874 7.749-7.608 3.302-1.735 7.045-2.602 11.23-2.602 3.009 0 5.853.573 8.534 1.718 2.68 1.145 4.838 2.7 6.473 4.663v-39.56h10.888zm-72.66 33.18c4.513 0 8.518.966 12.017 2.896 3.498 1.93 6.195 4.581 8.092 7.952 1.896 3.37 2.844 7.15 2.844 11.338 0 4.188-.948 7.968-2.844 11.338-1.897 3.37-4.594 6.037-8.092 8-3.499 1.964-7.537 2.946-12.113 2.946-4.447 0-8.435-.9-11.966-2.7-3.532-1.8-6.294-4.385-8.288-7.755-1.996-3.37-2.993-7.313-2.993-11.83 0-4.122.997-7.885 2.993-11.288 1.994-3.403 4.756-6.07 8.288-8 3.53-1.931 7.551-2.897 12.063-2.897zm-48.333 0c4.513 0 8.518.966 12.016 2.896 3.499 1.93 6.196 4.581 8.092 7.952 1.896 3.37 2.845 7.15 2.845 11.338 0 4.188-.949 7.968-2.845 11.338-1.896 3.37-4.593 6.037-8.092 8-3.498 1.964-7.536 2.946-12.113 2.946-4.447 0-8.435-.9-11.967-2.7-3.53-1.8-6.293-4.385-8.288-7.755-1.994-3.37-2.991-7.313-2.991-11.83 0-4.122.997-7.885 2.99-11.288 1.996-3.403 4.758-6.07 8.289-8 3.532-1.931 7.553-2.897 12.064-2.897zm-78.619-33.18v76.57H964v-5.596c-4.578 4.45-10.004 6.676-16.282 6.676-3.858 0-7.34-.917-10.446-2.749-3.106-1.833-5.542-4.45-7.308-7.853-1.764-3.403-2.647-7.363-2.647-11.878 0-4.516.931-8.443 2.794-11.78 1.865-3.338 4.447-5.874 7.75-7.608 3.302-1.735 7.046-2.602 11.23-2.602 3.008 0 5.852.573 8.533 1.718 2.68 1.145 4.84 2.7 6.475 4.663v-39.56h10.886zm-163.026 4.32c4.185 0 8.059.556 11.623 1.668 3.563 1.113 6.72 2.52 9.465 4.221l-4.512 10.7c-5.295-3.73-10.69-5.595-16.183-5.595-4.185 0-8.093 1.129-11.722 3.387-3.628 2.258-6.522 5.334-8.68 9.227-2.158 3.894-3.236 8.165-3.236 12.811 0 4.908.997 9.31 2.991 13.203 1.994 3.894 4.838 6.938 8.534 9.13 3.694 2.192 7.96 3.288 12.8 3.288 3.465 0 6.587-.523 9.367-1.57 2.778-1.047 5.116-2.389 7.013-4.025l4.806 10.21c-2.093 1.505-4.987 2.944-8.681 4.319-3.694 1.374-7.732 2.061-12.113 2.061-7.39 0-13.847-1.62-19.372-4.86-5.526-3.239-9.776-7.59-12.75-13.055-2.976-5.465-4.464-11.47-4.464-18.014 0-7.133 1.488-13.514 4.463-19.142s7.128-10.03 12.457-13.204c5.328-3.174 11.394-4.76 18.194-4.76zm869.981 28.958c3.858 0 7.078 1.162 9.662 3.485 2.582 2.324 3.907 5.318 3.972 8.983v30.824h-10.985v-26.898c-.131-2.16-.77-3.861-1.913-5.104-1.145-1.244-2.86-1.898-5.15-1.964-3.4 0-6.196 1.456-8.385 4.369-2.191 2.912-3.287 6.626-3.287 11.141v18.456h-10.985v-41.525h9.907l.784 7.363c1.504-2.88 3.678-5.121 6.523-6.724 2.844-1.604 6.13-2.406 9.857-2.406zm-997.304-.098l-.49 10.995c-3.008-.262-5.69.278-8.043 1.62-2.355 1.341-4.185 3.174-5.493 5.497-1.308 2.323-1.961 4.794-1.961 7.412v17.866H657.66v-41.525h9.907l.785 9.62c1.11-2.224 2.681-4.22 4.708-5.987 2.027-1.767 4.103-3.125 6.228-4.074 2.126-.95 3.907-1.424 5.346-1.424zm-88.33-28.075v10.994h-35.899v19.045h31.975v10.994h-31.975v19.437h37.272v10.995H548.93v-71.465h47.375zm398.47-5.105v42.113c1.57-2.683 3.743-4.826 6.523-6.43 2.78-1.603 6.032-2.405 9.76-2.405 3.857 0 7.078 1.162 9.661 3.485 2.583 2.324 3.906 5.318 3.972 8.983v30.824h-10.986v-26.898c-.13-2.16-.768-3.861-1.912-5.104-1.144-1.244-2.86-1.898-5.15-1.964-3.4 0-6.195 1.473-8.385 4.418-2.191 2.945-3.287 6.642-3.287 11.092v18.456h-10.985v-76.57h10.79zm427.058 0v76.57h-10.986v-76.57h10.986zm-721.036 0v76.57H689.81v-76.57h10.986zm885.456 33.18c4.054 0 7.275 1.146 9.662 3.436 2.386 2.29 3.645 5.301 3.776 9.031v30.923h-10.888v-26.701c-.13-2.226-.62-3.943-1.47-5.154-.85-1.21-2.256-1.882-4.218-2.013-3.401 0-6.147 1.522-8.24 4.565-2.092 3.043-3.171 6.594-3.236 10.651v18.652h-11.084v-26.701c-.13-2.16-.637-3.862-1.52-5.105-.883-1.244-2.337-1.93-4.365-2.062-2.223 0-4.185.72-5.885 2.16-1.7 1.44-3.024 3.338-3.972 5.694a19.535 19.535 0 00-1.422 7.362v18.652h-10.985v-41.525h9.906l.882 7.265c1.57-2.945 3.695-5.203 6.376-6.774 2.68-1.57 5.754-2.356 9.22-2.356 3.334 0 6.13.737 8.386 2.21 2.255 1.471 3.744 3.582 4.463 6.33 1.7-2.683 3.857-4.777 6.473-6.282 2.616-1.505 5.33-2.258 8.141-2.258zm-664.506-33.18v76.57H910.76v-76.57h10.986zm-19.987 35.046v41.524h-10.986v-41.524h10.986zm817.824-18.26v18.26h10.781v8.638h-10.78v32.886h-10.993v-32.886h-7.155v-8.639h7.155v-18.258h10.992zM851.857 143.02v42.113c1.569-2.683 3.743-4.826 6.522-6.43 2.779-1.603 6.032-2.405 9.76-2.405 3.858 0 7.079 1.162 9.66 3.485 2.583 2.324 3.908 5.318 3.973 8.983v30.824h-10.985v-26.898c-.131-2.16-.77-3.861-1.913-5.104-1.144-1.244-2.86-1.898-5.149-1.964-3.401 0-6.195 1.473-8.386 4.418-2.191 2.945-3.287 6.642-3.287 11.092v18.456h-10.985v-76.57h10.79zm379.584 5.105c8.958 0 16.364 1.767 22.215 5.3 5.853 3.535 10.12 8.083 12.8 13.646 2.68 5.563 4.022 11.485 4.022 17.768 0 6.937-1.618 13.04-4.856 18.308-3.236 5.268-7.569 9.326-12.995 12.173-5.428 2.846-11.345 4.27-17.754 4.27h-23.736v-71.465zM1503 185.526c-3.203 0-5.901.785-8.09 2.356-2.192 1.57-3.777 3.763-4.758 6.577v8.344c.653 2.684 2.076 4.876 4.266 6.577 2.191 1.702 4.79 2.553 7.798 2.553 2.42 0 4.66-.573 6.72-1.718 2.058-1.145 3.71-2.7 4.952-4.663 1.243-1.963 1.863-4.188 1.863-6.675 0-3.861-1.225-7.052-3.677-9.572-2.452-2.52-5.477-3.779-9.074-3.779zm-52.55-.294c-3.4 0-6.245 1.292-8.533 3.877-2.29 2.585-3.434 5.71-3.434 9.375 0 3.73 1.144 6.855 3.434 9.375 2.288 2.52 5.132 3.78 8.532 3.78 3.532 0 6.425-1.244 8.68-3.731 2.257-2.487 3.385-5.628 3.385-9.424 0-3.796-1.128-6.953-3.384-9.473-2.256-2.52-5.149-3.78-8.68-3.78zm-348.808 0c-3.4 0-6.244 1.292-8.533 3.877-2.29 2.585-3.433 5.71-3.433 9.375 0 3.73 1.144 6.855 3.433 9.375 2.289 2.52 5.133 3.78 8.533 3.78 3.53 0 6.425-1.244 8.68-3.731 2.256-2.487 3.384-5.628 3.384-9.424 0-3.796-1.128-6.953-3.384-9.473-2.255-2.52-5.15-3.78-8.68-3.78zm-476.425 0c-3.466 0-6.408 1.227-8.827 3.68-2.42 2.455-3.63 5.58-3.63 9.376 0 2.487.589 4.744 1.765 6.773 1.178 2.029 2.747 3.632 4.709 4.81a12.162 12.162 0 006.375 1.767c3.008 0 5.542-.769 7.602-2.307 2.06-1.538 3.515-3.714 4.365-6.528v-9.031c-.785-2.552-2.306-4.614-4.562-6.184-2.256-1.571-4.854-2.356-7.797-2.356zm428.091 0c-3.4 0-6.244 1.292-8.532 3.877-2.29 2.585-3.434 5.71-3.434 9.375 0 3.73 1.144 6.855 3.434 9.375 2.288 2.52 5.132 3.78 8.532 3.78 3.532 0 6.425-1.244 8.68-3.731 2.257-2.487 3.385-5.628 3.385-9.424 0-3.796-1.128-6.953-3.384-9.473-2.256-2.52-5.149-3.78-8.68-3.78zm97.55-.393c-2.289 0-4.414.573-6.375 1.718-1.962 1.145-3.531 2.716-4.708 4.712-1.177 1.996-1.766 4.237-1.766 6.724s.589 4.745 1.766 6.774c1.177 2.028 2.746 3.632 4.708 4.81a12.163 12.163 0 006.376 1.767c3.138 0 5.819-.786 8.042-2.356 2.224-1.57 3.793-3.763 4.708-6.577v-8.835c-.784-2.553-2.337-4.647-4.659-6.283-2.32-1.636-5.019-2.454-8.091-2.454zm-199.61 0c-2.29 0-4.415.573-6.376 1.718-1.962 1.145-3.532 2.716-4.708 4.712-1.177 1.996-1.765 4.237-1.765 6.724s.588 4.745 1.765 6.774c1.176 2.028 2.746 3.632 4.708 4.81a12.16 12.16 0 006.375 1.767c3.138 0 5.82-.786 8.043-2.356 2.223-1.57 3.792-3.763 4.708-6.577v-8.835c-.785-2.553-2.338-4.647-4.659-6.283-2.321-1.636-5.019-2.454-8.092-2.454zm283.33-25.818h-11.966v49.574h10.201c5.1 0 9.596-.949 13.487-2.847 3.89-1.898 6.93-4.695 9.121-8.393 2.19-3.697 3.286-8.131 3.286-13.301 0-5.629-1.193-10.324-3.58-14.087-2.386-3.763-5.427-6.528-9.122-8.295-3.695-1.767-7.504-2.65-11.427-2.65zm149.218 25.818c-3.465 0-6.294 1.21-8.484 3.632-2.19 2.421-3.286 5.563-3.286 9.424 0 .72.033 1.276.098 1.669l21.775-7.755c-.85-2.03-2.093-3.698-3.727-5.007-1.635-1.309-3.76-1.963-6.376-1.963zm-87.251 0c-3.465 0-6.294 1.21-8.484 3.632-2.19 2.421-3.285 5.563-3.285 9.424 0 .72.032 1.276.097 1.669l21.775-7.755c-.85-2.03-2.093-3.698-3.727-5.007-1.635-1.309-3.76-1.963-6.376-1.963zm331.273 0c-3.466 0-6.294 1.21-8.485 3.632-2.19 2.421-3.285 5.563-3.285 9.424 0 .72.032 1.276.098 1.669l21.775-7.755c-.85-2.03-2.093-3.698-3.728-5.007-1.634-1.309-3.76-1.963-6.375-1.963zm-731.16-27.487c1.57 0 2.991.573 4.266 1.718 1.275 1.146 1.913 2.536 1.913 4.172 0 1.636-.638 3.01-1.913 4.123-1.275 1.113-2.697 1.67-4.266 1.67-1.635 0-3.106-.557-4.414-1.67-1.308-1.112-1.962-2.487-1.962-4.123 0-1.636.654-3.026 1.962-4.172 1.308-1.145 2.78-1.718 4.414-1.718zM1014.453 46.64c4.557 0 8.708.796 12.448 2.39 3.741 1.59 6.558 3.679 8.45 6.26l1.162-6.197h13.287v54.873c0 5.078-1.355 9.66-4.065 13.75-2.708 4.088-6.493 7.316-11.351 9.683-4.86 2.367-10.342 3.55-16.448 3.55-5.935 0-10.88-.925-14.836-2.775-3.956-1.85-7.955-4.54-11.997-8.07l8.515-9.941c2.752 2.582 5.546 4.583 8.385 6.003 2.838 1.42 6.062 2.13 9.675 2.13 5.332 0 9.59-1.312 12.771-3.937 3.182-2.626 4.816-6.176 4.902-10.651V94.54c-1.892 3.184-4.709 5.745-8.45 7.68-3.74 1.938-8.105 2.906-13.094 2.906-4.988 0-9.59-1.27-13.803-3.808-4.214-2.54-7.568-6.026-10.061-10.458-2.496-4.433-3.742-9.36-3.742-14.784 0-5.508 1.311-10.523 3.935-15.04 2.623-4.52 6.105-8.049 10.449-10.588 4.343-2.539 8.966-3.809 13.868-3.809zm494.723 2.453v35.376c.258 6.025 3.224 9.081 8.9 9.167 4.215 0 7.72-1.936 10.514-5.81 2.795-3.873 4.192-8.737 4.192-14.59V49.093h14.449v54.615h-13.03l-.903-9.814c-1.892 3.701-4.686 6.65-8.385 8.844-3.698 2.196-7.912 3.293-12.642 3.293-4.987 0-9.138-1.528-12.449-4.584-3.31-3.054-5.009-6.992-5.095-11.814v-40.54h14.449zm141.558-1.42c8.6 0 15.695 2.324 21.286 6.972l-7.225 9.425c-1.634-1.291-3.547-2.389-5.74-3.292-2.194-.904-4.537-1.356-7.031-1.356-4.386 0-8.106 1.614-11.158 4.841-3.054 3.228-4.58 7.252-4.58 12.072 0 4.821 1.612 8.844 4.838 12.072 3.224 3.229 7.33 4.843 12.32 4.843 4.3 0 7.911-1.205 10.835-3.617l7.225 9.039c-2.41 1.98-5.354 3.55-8.838 4.712-3.482 1.162-6.987 1.743-10.513 1.743-6.02 0-11.331-1.161-15.933-3.485-4.6-2.325-8.148-5.66-10.642-10.006-2.494-4.348-3.741-9.447-3.741-15.3 0-5.767 1.333-10.824 4-15.171 2.665-4.346 6.213-7.682 10.641-10.007 4.43-2.323 9.182-3.485 14.256-3.485zm-194.278-1.033c5.934 0 11.202 1.27 15.802 3.809 4.602 2.54 8.15 6.024 10.644 10.458 2.494 4.433 3.74 9.403 3.74 14.912 0 5.51-1.246 10.48-3.74 14.912-2.494 4.433-6.042 7.94-10.644 10.523-4.6 2.582-9.91 3.873-15.931 3.873-5.848 0-11.094-1.184-15.738-3.55-4.645-2.367-8.278-5.767-10.901-10.2-2.622-4.433-3.935-9.618-3.935-15.558 0-5.422 1.313-10.372 3.935-14.848 2.623-4.475 6.256-7.983 10.901-10.522 4.644-2.539 9.934-3.809 15.867-3.809zm-889.169 0c8.858 0 15.48 3.271 19.866 9.812l1.032-7.36h13.288v54.616h-14.448V95.83c-1.978 2.324-4.645 4.454-7.998 6.39-3.355 1.937-7.268 2.905-11.74 2.905-5.246 0-9.933-1.098-14.061-3.292-4.128-2.195-7.396-5.445-9.804-9.748-2.408-4.303-3.612-9.511-3.612-15.622 0-5.94 1.247-11.169 3.74-15.687 2.495-4.52 5.827-8.006 9.998-10.458 4.172-2.453 8.751-3.68 13.74-3.68zm676.102 0c8.858 0 15.48 3.271 19.867 9.812l1.031-7.36h13.287v54.616h-14.448V95.83c-1.978 2.324-4.644 4.454-7.998 6.39-3.354 1.937-7.267 2.905-11.739 2.905-5.247 0-9.933-1.098-14.062-3.292-4.128-2.195-7.396-5.445-9.804-9.748-2.407-4.303-3.611-9.511-3.611-15.622 0-5.94 1.246-11.169 3.74-15.687 2.495-4.52 5.828-8.006 9.998-10.458 4.171-2.453 8.75-3.68 13.74-3.68zm-127.497 0c5.934 0 11.2 1.27 15.802 3.809 4.601 2.54 8.148 6.024 10.642 10.458 2.495 4.433 3.742 9.403 3.742 14.912 0 5.51-1.247 10.48-3.742 14.912-2.494 4.433-6.04 7.94-10.642 10.523-4.601 2.582-9.912 3.873-15.932 3.873-5.847 0-11.093-1.184-15.738-3.55-4.644-2.367-8.277-5.767-10.9-10.2-2.624-4.433-3.935-9.618-3.935-15.558 0-5.422 1.31-10.372 3.934-14.848 2.624-4.475 6.257-7.983 10.9-10.522 4.646-2.539 9.934-3.809 15.869-3.809zm-477.18 1.033c8.6 0 15.695 2.324 21.285 6.972l-7.224 9.425c-1.634-1.291-3.548-2.389-5.74-3.292-2.194-.904-4.537-1.356-7.03-1.356-4.388 0-8.107 1.614-11.16 4.841-3.053 3.228-4.58 7.252-4.58 12.072 0 4.821 1.613 8.844 4.838 12.072 3.225 3.229 7.332 4.843 12.32 4.843 4.3 0 7.912-1.205 10.836-3.617l7.224 9.039c-2.408 1.98-5.353 3.55-8.837 4.712-3.483 1.162-6.988 1.743-10.514 1.743-6.02 0-11.33-1.161-15.931-3.485-4.602-2.325-8.149-5.66-10.643-10.006-2.493-4.348-3.741-9.447-3.741-15.3 0-5.767 1.334-10.824 4-15.171 2.665-4.346 6.212-7.682 10.642-10.007 4.43-2.323 9.18-3.485 14.255-3.485zm316.7-1.033c7.397 0 13.546 2.173 18.448 6.52 4.902 4.348 8.17 10.48 9.804 18.4l-42.055 14.2c1.462 2.238 3.397 3.96 5.805 5.166 2.408 1.205 5.074 1.807 7.998 1.807 4.043 0 8.127-1.42 12.255-4.26l6.58 10.715a42.526 42.526 0 01-9.418 4.325c-3.354 1.076-6.58 1.614-9.675 1.614-6.278 0-11.718-1.247-16.318-3.743-4.601-2.498-8.127-5.94-10.579-10.33-2.45-4.39-3.676-9.425-3.676-15.105 0-5.338 1.375-10.244 4.127-14.72 2.753-4.475 6.494-8.026 11.225-10.65 4.73-2.626 9.89-3.939 15.479-3.939zm-166.154 1.033c8.6 0 15.695 2.324 21.284 6.972l-7.223 9.425c-1.634-1.291-3.547-2.389-5.74-3.292-2.194-.904-4.538-1.356-7.031-1.356-4.386 0-8.107 1.614-11.16 4.841-3.052 3.228-4.579 7.252-4.579 12.072 0 4.821 1.613 8.844 4.838 12.072 3.224 3.229 7.331 4.843 12.319 4.843 4.3 0 7.913-1.205 10.837-3.617l7.223 9.039c-2.408 1.98-5.353 3.55-8.836 4.712-3.484 1.162-6.987 1.743-10.514 1.743-6.02 0-11.33-1.161-15.932-3.485-4.6-2.325-8.148-5.66-10.642-10.006-2.494-4.348-3.742-9.447-3.742-15.3 0-5.767 1.334-10.824 4-15.171 2.666-4.346 6.214-7.682 10.642-10.007 4.43-2.323 9.18-3.485 14.256-3.485zm605.838-38.991c5.504 0 10.599.73 15.286 2.194 4.688 1.463 8.837 3.314 12.449 5.552l-5.934 14.073c-6.966-4.906-14.061-7.358-21.285-7.358-5.505 0-10.643 1.484-15.416 4.453-4.773 2.97-8.58 7.015-11.417 12.137-2.838 5.121-4.257 10.737-4.257 16.849 0 6.455 1.312 12.244 3.934 17.365 2.624 5.121 6.365 9.124 11.223 12.008 4.86 2.883 10.472 4.325 16.836 4.325 4.557 0 8.664-.689 12.32-2.066 3.655-1.377 6.73-3.142 9.223-5.294l6.322 13.428c-2.753 1.98-6.558 3.873-11.418 5.68-4.86 1.808-10.17 2.712-15.931 2.712-9.718 0-18.212-2.13-25.478-6.391-7.267-4.261-12.858-9.984-16.77-17.171-3.914-7.188-5.87-15.085-5.87-23.693 0-9.381 1.956-17.774 5.87-25.177 3.912-7.402 9.373-13.19 16.383-17.364 7.009-4.175 14.985-6.262 23.93-6.262zm-205.33 38.087c5.075 0 9.31 1.528 12.708 4.584 3.397 3.055 5.138 6.993 5.224 11.814v40.54h-14.448V68.33c-.172-2.84-1.011-5.078-2.515-6.713-1.506-1.637-3.763-2.498-6.773-2.584-4.473 0-8.15 1.916-11.03 5.746-2.881 3.83-4.322 8.715-4.322 14.654v24.274h-14.447V49.092h13.029l1.032 9.683c1.978-3.787 4.837-6.734 8.578-8.844 3.741-2.108 8.062-3.163 12.964-3.163zm-508.14 2.325v54.614h-14.448V49.093h14.448zM1304.88 3v100.707h-14.448V3h14.448zm415.945 0v100.707h-14.448V3h14.448zm-125.132 43.768c5.073 0 9.31 1.528 12.706 4.584 3.397 3.055 5.14 6.993 5.226 11.814v40.54h-14.449V68.33c-.172-2.84-1.01-5.078-2.516-6.713-1.505-1.637-3.763-2.498-6.773-2.584-4.471 0-8.148 1.916-11.03 5.746-2.88 3.83-4.32 8.715-4.32 14.654v24.274h-14.45V49.092h13.03l1.032 9.683c1.979-3.787 4.838-6.734 8.58-8.844 3.74-2.108 8.062-3.163 12.964-3.163zM881.28 9.714c10.491 0 18.898 2.668 25.219 8.004 6.321 5.337 9.482 12.74 9.482 22.207 0 5.768-1.226 11.125-3.677 16.075-2.451 4.95-6.3 8.757-11.546 11.426l22.834 36.28h-17.416L885.02 71.04h-15.093v32.667h-15.093V9.714zM721.574 3.129c2.15 0 4.473.323 6.967.968 2.494.646 4.643 1.571 6.45 2.776l-6.064 10.458c-1.462-1.549-3.396-2.324-5.805-2.324-6.364 0-9.546 4.304-9.546 12.91v21.046h14.965v12.782h-14.965v41.962h-14.448V61.745h-9.288V48.963h9.288V27.531c0-7.661 1.935-13.642 5.805-17.947 3.87-4.304 9.417-6.455 16.64-6.455zM509.322 9.714c10.664 0 19.006 2.668 25.027 8.004 6.02 5.337 9.03 12.74 9.03 22.207 0 5.423-1.075 10.48-3.225 15.17-2.15 4.692-5.612 8.522-10.385 11.492-4.773 2.97-10.9 4.453-18.383 4.453h-13.545v32.667h-15.093V9.714zm1184.326 39.379v54.614H1679.2V49.093h14.448zm-941.63 0v54.614H737.57V49.093h14.448zm324.957 0v54.614h-14.448V49.093h14.448zm38.53 9.424c-4.473 0-8.214 1.7-11.224 5.1-3.01 3.4-4.515 7.51-4.515 12.33 0 4.907 1.505 9.017 4.515 12.33 3.01 3.314 6.751 4.972 11.223 4.972 4.644 0 8.45-1.636 11.417-4.908 2.967-3.27 4.45-7.401 4.45-12.393 0-4.994-1.483-9.146-4.45-12.46-2.967-3.313-6.773-4.971-11.417-4.971zm-97.44 0c-4.902 0-9.009 1.614-12.32 4.842-3.31 3.228-4.967 7.337-4.967 12.33 0 3.271.774 6.241 2.322 8.91 1.548 2.667 3.634 4.775 6.256 6.326 2.624 1.549 5.527 2.324 8.709 2.324 4.213 0 7.848-1.033 10.9-3.1 3.053-2.066 5.182-4.862 6.386-8.391V69.879c-1.204-3.443-3.354-6.197-6.45-8.262-3.097-2.067-6.709-3.1-10.836-3.1zm-447.295 0c-4.558 0-8.428 1.614-11.61 4.842-3.182 3.228-4.773 7.337-4.773 12.33 0 3.271.774 6.241 2.322 8.91 1.548 2.667 3.612 4.775 6.192 6.326a15.998 15.998 0 008.385 2.324c3.956 0 7.289-1.012 9.998-3.035 2.71-2.022 4.623-4.885 5.74-8.586V69.75c-1.031-3.356-3.03-6.067-5.998-8.132-2.967-2.067-6.386-3.1-10.256-3.1zm676.101 0c-4.557 0-8.427 1.614-11.61 4.842-3.18 3.228-4.772 7.337-4.772 12.33 0 3.271.773 6.241 2.321 8.91 1.548 2.667 3.612 4.775 6.192 6.326a16.002 16.002 0 008.385 2.324c3.957 0 7.29-1.012 9.998-3.035 2.71-2.022 4.623-4.885 5.74-8.586V69.75c-1.031-3.356-3.03-6.067-5.998-8.132-2.967-2.067-6.385-3.1-10.256-3.1zm209.198 0c-4.472 0-8.214 1.7-11.223 5.1-3.01 3.4-4.515 7.51-4.515 12.33 0 4.907 1.505 9.017 4.515 12.33 3.01 3.314 6.75 4.972 11.223 4.972 4.645 0 8.45-1.636 11.417-4.908 2.966-3.27 4.45-7.401 4.45-12.393 0-4.994-1.484-9.146-4.45-12.46-2.967-3.313-6.772-4.971-11.417-4.971zM954.252 58c-4.558 0-8.278 1.593-11.16 4.778-2.88 3.184-4.32 7.316-4.32 12.395 0 .947.042 1.678.128 2.194l28.639-10.2c-1.118-2.668-2.752-4.862-4.902-6.584-2.15-1.722-4.945-2.583-8.385-2.583zM511.773 24.174h-13.932v32.407h13.545c4.128 0 7.46-.883 9.998-2.647 2.537-1.765 4.343-3.917 5.418-6.455 1.075-2.54 1.613-4.97 1.613-7.296 0-3.96-1.27-7.616-3.806-10.974-2.537-3.357-6.816-5.035-12.836-5.035zm372.087 0h-13.933v32.407h13.417c6.02 0 10.384-1.658 13.093-4.97 2.709-3.315 4.063-7.037 4.063-11.17 0-2.41-.516-4.84-1.548-7.294-1.031-2.453-2.795-4.562-5.289-6.327-2.494-1.764-5.762-2.646-9.803-2.646zM745.31 21.85c2.064 0 3.935.754 5.611 2.26 1.678 1.506 2.515 3.336 2.515 5.488 0 2.151-.837 3.959-2.515 5.422-1.676 1.463-3.547 2.195-5.61 2.195-2.152 0-4.086-.732-5.806-2.195-1.72-1.463-2.58-3.27-2.58-5.422 0-2.152.86-3.982 2.58-5.488 1.72-1.506 3.654-2.26 5.805-2.26zm-70.393 0c2.065 0 3.934.754 5.612 2.26 1.677 1.506 2.515 3.336 2.515 5.488 0 2.151-.838 3.959-2.515 5.422-1.678 1.463-3.547 2.195-5.612 2.195-2.15 0-4.084-.732-5.804-2.195-1.72-1.463-2.582-3.27-2.582-5.422 0-2.152.862-3.982 2.582-5.488 1.72-1.506 3.654-2.26 5.804-2.26zm1012.023 0c2.064 0 3.934.754 5.61 2.26 1.678 1.506 2.517 3.336 2.517 5.488 0 2.151-.839 3.959-2.516 5.422-1.677 1.463-3.547 2.195-5.611 2.195-2.15 0-4.086-.732-5.806-2.195-1.72-1.463-2.58-3.27-2.58-5.422 0-2.152.86-3.982 2.58-5.488 1.72-1.506 3.656-2.26 5.806-2.26zm-616.673 0c2.064 0 3.934.754 5.61 2.26 1.678 1.506 2.517 3.336 2.517 5.488 0 2.151-.839 3.959-2.516 5.422-1.677 1.463-3.547 2.195-5.611 2.195-2.15 0-4.086-.732-5.805-2.195-1.72-1.463-2.58-3.27-2.58-5.422 0-2.152.86-3.982 2.58-5.488 1.72-1.506 3.655-2.26 5.805-2.26z"/><path fill="#FD5486" d="M469.253 194.249l2.253-18.792h7.626l.751-5.724h-7.626l1.156-9.425c.5-3.855 2.156-5.782 4.968-5.782 1.078 0 1.887.347 2.426 1.04l3.351-4.683c-.77-.54-1.694-.954-2.773-1.243-1.078-.29-2.099-.434-3.062-.434-3.235 0-5.835.964-7.8 2.891-1.963 1.928-3.157 4.607-3.58 8.037l-1.156 9.599h-4.16l-.751 5.724h4.16l-2.254 18.792h6.471zm22.287.636c3.428 0 6.201-.762 8.32-2.284 2.118-1.523 3.63-3.364 4.535-5.522.905-2.159 1.357-4.24 1.357-6.245 0-2.467-.616-4.616-1.849-6.447a12.035 12.035 0 00-4.852-4.192c-2.003-.964-4.14-1.445-6.413-1.445-3.274 0-5.98.713-8.117 2.139-2.138 1.426-3.698 3.209-4.68 5.348-.982 2.14-1.473 4.327-1.473 6.563 0 2.583.655 4.79 1.964 6.62 1.31 1.831 2.976 3.2 4.998 4.106 2.022.906 4.092 1.359 6.21 1.359zm.173-5.378c-1.771 0-3.35-.578-4.737-1.734-1.386-1.157-2.08-2.91-2.08-5.262 0-1.31.27-2.612.81-3.903a7.883 7.883 0 012.483-3.238c1.117-.867 2.523-1.3 4.218-1.3 1.001 0 2.022.23 3.062.693 1.04.463 1.916 1.214 2.628 2.255.713 1.04 1.07 2.41 1.07 4.105 0 1.31-.26 2.602-.78 3.874a7.693 7.693 0 01-2.456 3.21c-1.117.867-2.523 1.3-4.218 1.3zm22.23 4.742l1.329-10.524c.192-1.542.75-2.997 1.675-4.365a9.912 9.912 0 013.61-3.238c1.484-.79 3.111-1.109 4.883-.954l1.097-6.476c-1.733 0-3.64.617-5.72 1.85-2.079 1.234-3.697 2.891-4.852 4.973l.347-5.725h-5.835l-2.947 24.459h6.413zm-238.888-44.108c-3.206 10.415-7.316 21.45-11.79 32.135a271.324 271.324 0 01-18.807 7.805.81.81 0 00.517 1.537 273.486 273.486 0 0016.707-5.608c-9.432 21.944-20.145 41.874-27.302 51.112-.372.48-.855.963-1.414 1.44a3.768 3.768 0 00-.16-.08l-3.322.124-2.77-8.583-2.283-.377-.017-15.097-2.37-3.376 1.797-15.93 1.602-13.601 5.047-12.194c.831-.739 1.422-1.05 1.233-2.983.45-1.448.9-2.931 1.356-4.438 6.38-1.061 12.718-2.385 18.909-4.023 7.397-1.958 14.582-4.365 21.409-7.17.555-.229 1.108-.46 1.658-.693zM54.633 85.323l13.449-3.15 18.534 14.434 13.773 6.337 3.014.717 11.696 6.005-.06.163c5.022 2.104 10.288 3.606 15.739 4.652 7.168 3.232 15.34 4.667 24.02 5.191 2.081.536 4.305.807 6.678.801.66.133 1.11.197 1.848.297 7.912 1.123 16.254 1.971 24.782 2.055 6.188 1.96 15.286 1.204 26.959-1.951l1.716 1.107c.862.287 2.462.463 5.11-1.384 3.934.051 8.292-1.71 12.794-4.08 5.011-.811 9.473-3.06 13.621-6.124l.261.318 12.167-8.019 13.737-8.69.269.144c1.254-1.45 2.573-2.95 3.804-4.5 10.88.722 20.254.168 28.761-2.018 5.377 2.572 17.257 3.375 32.231 1.533l.043.525-24.538 9.033-6.242.385c-4.069.759-8.313 1.128-12.633 1.324-3.006 1.053-5.99 2.148-8.796 3.587l.18 1.502c-1.81-3.471-4.988-6.41-8.272-8.55-3.614 6.416 1.401 6.51 2.247 13.808.97 8.368-1.048 20.36-4.814 33.747-1.65.699-3.325 1.373-5.02 2.026-6.715 2.585-13.757 4.784-20.965 6.706a270.408 270.408 0 01-16.126 3.776c2.426-7.862 5.21-16.04 9.29-23.072a50.414 50.414 0 002.108-1.935c8.276-1.534 16.39-3.467 24.23-5.831a1.128 1.128 0 00-.613-2.17c-6.595 1.733-13.375 3.13-20.27 4.244 2.765-3.715 3.457-6.97 2.214-9.795l-.08-.176-.072-.149-.074-.145-.075-.138-.079-.14-.082-.138-.083-.134-.074-.116-.088-.132-.095-.136-.097-.135-.093-.124-.091-.118-.107-.132-.11-.134-.114-.132-.095-.107-.116-.127-.124-.131-.128-.132-.165-.163-.133-.127-.138-.129-.176-.159-.146-.126-.177-.15-.157-.128-.157-.126-.16-.124-.192-.145-.174-.127-.172-.122-.174-.121-.088-.06-.124.34-.204.14-.23.155-.292.19-.292.186-.292.18-.311.186-.133.078-.203.117-.297.167-.297.162-.297.158-.298.154-.298.15-.299.145-.299.142-.3.14-.3.134-.3.132-.3.13-.3.125-.302.123-.401.158-.101.04c-4.253 1.647-8.554 2.524-12.523 4.283-4.234 1.877-8.424 1.514-13.355 3.29l-26.584 3.288-2.116-2.095c-9.183.496-18.088.705-26.853-1.165-9.903 1.054-18.79.934-25.282-1.95l-17.776-2.256c-1.393-1.258-3.087-1.723-4.943-1.76a13.952 13.952 0 00-.26-.003l-.177.002-.178.003-.182.006-.172.008-.183.01-.236.018-.119.01-.151.012-.12.012-.153.016-.122.013-.152.018-.122.016-.154.02-.123.016-.154.022-.123.018c-1.001-.525-2.138-.612-3.326-.527l-4.123 1.647-.004-.149-.455-.149a139.35 139.35 0 002.55-1.647l5.663-4.75c-22.117-16.285-29.812 3.93-46.769 13.075-2.829-2.204-5.494-4.477-7.966-6.848a.81.81 0 00-1.187 1.104 104.987 104.987 0 006.414 7.08c-.16.07-.32.139-.482.207-8.149 3.41-14.67 6.612-21.422 8.457-2.934-4.069-5.697-8.004-8.109-11.879a.811.811 0 00-1.44.746c1.224 2.949 2.552 5.966 4.066 9.044.491 1 .999 1.999 1.523 2.999-8.68 1.603-18.287.712-32.502-4.946l3.264 6.901-3.488-7.375c2.655-4.083 4.368-8.572 5.25-13.42l7.557-6.942 4.565.063c.409-.092.765-.385 1.074-.86 2.86-.208 5.04-2.006 6.664-5.1 4.908-.357 9.707.36 14.417 1.966l.607-2.884c2.348-1.935 6.224-.429 10.86 1.526.624-.062.735-.151.938-.695 8.581.279 17.323.02 26.292-.996 1.514-.928 2.676-2.25 3.469-3.987-7.209-4.046-17.971-7.524-30.283-10.753.214-.53.432-1.047.65-1.553.54-1.252 1.122-2.4 1.676-3.504zm-3.949.925a33.163 33.163 0 00-.941 3.469 539.08 539.08 0 00-6.738-1.67l7.68-1.799zm26.618-29.572c5.467 2.013 13.393 3.763 14.493 7.843l8.26-5.099c.12.084.18.127.175.126-.102-.024-28.926 17.85-33.52 20.7l-.03-.024 18.824-11.82-6.142 3.489c-1.548-1.815-4.391-3.318-7.852-4.673-1.478 1.115-3.15 1.624-5.128 1.19l-.085-1.574-3.542-.625-.56-2.246-1.84-.831 1.422-6.287 4.808-1.475 1.92-2.124 3.913-1.223-.27.084c-.497 1.663 1.067 2.858 3.504 3.914a57.49 57.49 0 00-2.684 3.365.577.577 0 00.89.73 52.492 52.492 0 013.444-3.44zm184.62-29.793a28.052 28.052 0 00-.043-5.47c9.479-4.578 28.792 17.615 25.61 30.39l-5.44-.101-20.907-10.822-.183-.687.101.007 3.277 1.815.133-6.46.621-2.228-1.243-2.504c.451.128.904.262 1.359.403 2.976.918 5.998 2.072 9.07 3.674a.576.576 0 00.619-.973c-2.868-2.185-5.726-3.979-8.656-5.362a33.935 33.935 0 00-3.182-1.302 34.125 34.125 0 00-1.135-.38zm-.212-6.84l.011.082-.012-.087v.006zm-.063-.413l.006.04-.013-.083.007.043zm-.023-.138l.005.028-.013-.086.008.058zm-.022-.138l.003.016-.017-.097.014.081zm-.072-.417l.017.097-.02-.11.003.013zm-.025-.138l.012.067-.017-.094.005.027zm-.026-.14l.01.052-.017-.09.007.038zm-.026-.14l.007.04-.017-.092.01.053zm-.027-.139l.005.026-.02-.096.015.07zm-.028-.14l.003.015-.024-.12.02.105zm-.086-.42l.019.09-.023-.11.004.02zm-.03-.14l.014.064-.02-.095.006.03zm-.03-.141l.01.05-.02-.094.01.044zm-.031-.14l.007.035-.021-.095.014.06zm-.033-.141l.006.023-.024-.103.018.08z"/><path fill="#FF99B7" d="M321.267 66.341c7.12-2.983 13.2-6.391 13.2-6.391 3.902 13.865 26.06 15.077 31.488-1.26 5.983-.367 11.282.485 15.63 3.493l-.053.278-4.933.153c.73 5.17-27.027 26.53-33.553 26.093-.552.032-.899.068-1.41.223l-2.057.756-.043-.525c-14.974 1.842-26.854 1.039-32.23-1.533-8.508 2.186-17.883 2.74-28.762 2.019-1.23 1.548-2.55 3.048-3.804 4.499l-.269-.144-13.737 8.69-12.167 8.019-.261-.318c-4.148 3.064-8.61 5.313-13.621 6.124-4.502 2.37-8.86 4.131-12.793 4.08-2.649 1.847-4.25 1.671-5.111 1.384l-1.716-1.107c-11.673 3.155-20.771 3.91-26.96 1.951-8.527-.084-16.869-.932-24.781-2.055-.738-.1-1.188-.164-1.848-.297-2.373.006-4.597-.265-6.678-.801-8.68-.524-16.852-1.96-24.02-5.19-5.451-1.047-10.717-2.55-15.738-4.653l.06-.163-11.697-6.005-3.014-.717-11.035-5.078s-5.515-3.697-11.014-7.704l-8.25-6.426a24.731 24.731 0 01-1.718-1.63l.431-.102-1.663-1.396c.883-1.556 35.987-12.717 35.777-10.665l.365-3.118c9.33-4.652 18.712-8.243 28.202-9.606l-.324-4.146c13.058-3.802 25.175-5.91 36.363-6.343l-.984-3.942c14.023-1.768 28.12-2.287 42.44.891l-.667-4.332c4.327.227 8.581.667 12.986 1.106-1.793 4.21.169 10.758 3.31 17.104-.74.066-1.48.135-2.219.205a701.43 701.43 0 00-4.57.454c-3.71.379-7.406.775-11.1 1.14-.167-.109-1.33-.863-2.648-1.69-1.87-1.173-4.046-2.495-4.046-2.495a.13.13 0 00-.146.218s2.046 1.515 3.838 2.804c.983.707 1.89 1.343 2.32 1.645a92.42 92.42 0 00-1.394 3.62c-.361.985-.735 2.027-1.066 2.958-.592 1.662-1.043 2.968-1.043 2.968a.127.127 0 10.235.094s.569-1.26 1.28-2.874a323.2 323.2 0 001.255-2.883 90.09 90.09 0 001.55-3.795 901.54 901.54 0 009.152-.415 349.79 349.79 0 003.905-.216 174.207 174.207 0 005.2-.396c1.336-.12 2.646-.244 3.895-.372l.217-.022c4.34 10.592 10.688 20.123 15.745 21.77l2.264-.397c.541 1.466 3.489 7.509 11.475 12.39a18.37 18.37 0 00-1.013.505c-3.378 1.819-6.187 4.627-9.888 6.074a.19.19 0 10.128.357c3.78-1.234 6.75-3.874 10.228-5.498a14.65 14.65 0 012.629-.95.61.61 0 00.129-.054l19.627-5.769c2.144-3.19 3.588-6.571 3.12-10.141.822-.241 1.686-.227 2.706.71.615-.587 1.45-1.206 2.372-1.792.625.186 1.34.455 1.868 1.237 1.054-.254 3.429-1.32 4.856-2.326l1.464-2.26s4.442-2.171 5.91-3.672c1.4.191 2.66.818 3.754 1.972 3.745-.33 8.411-1.813 12.848-3.576a47.342 47.342 0 003.527 6.475 47.162 47.162 0 003.247 4.389c.471.568.944 1.13 1.435 1.674-.06.287-.197.968-.316 1.72a66.839 66.839 0 00-.372 2.825.125.125 0 00.245.046s.401-1.472.686-2.766c.162-.735.282-1.41.333-1.705.296-.102.589-.21.886-.315.82-.289 1.643-.552 2.436-.926.28-.133.553-.28.818-.442.593-.36 1.153-.775 1.71-1.201 1.268-.967 2.46-2.043 3.634-3.202a.12.12 0 00.015-.169.12.12 0 00-.169-.014c-.944.67-1.894 1.28-2.86 1.864-.798.482-1.604.917-2.41 1.353-.346.188-.698.364-1.033.565-.912.55-1.755 1.172-2.691 1.657-.172.088-.347.17-.523.251a32.604 32.604 0 01-1.275-1.64 36.587 36.587 0 01-2.775-4.558c-1.068-2.062-1.965-4.267-2.726-6.625zm-92.226 55.32l-.125.053.125-.053zm.126-.052l-.122.05.122-.05zm.156-.065l-.125.052.125-.052zm4.019-1.422l-.25.079.25-.08zm.558-.176l-.224.07.224-.07zm.847-.26l-.15.046.15-.046zm.698-.214l-.524.16.607-.186-.083.026zm.596-.182l-.122.037.26-.08-.138.043zm.67-.207l-.235.073-.236.073.472-.146zm.226-.07l-.066.02.11-.034-.044.014zm.3-.094l-.024.007.09-.028-.066.021zm.3-.095l-.063.02.103-.033-.04.013zm.668-.215c-.13.043-.26.085-.391.126l.195-.062.196-.064zm.426-.14l.17-.058-.17.058-.023.007-.042.014-.06.02-.058.02-.04.012-.024.008c-.057.02-.114.038-.172.056l.172-.056.064-.02.118-.04.065-.021zm.599-.203l.168-.059-.168.059-.023.008-.041.014-.06.02-.06.021-.039.013-.023.008-.17.057.17-.057.062-.02.12-.042.064-.022zm.258-.09l-.072.026.19-.067-.118.042zm.507-.18l-.389.139.2-.071.189-.068zm.093-.034l-.07.026.18-.065-.11.04zm.502-.185l-.382.142.197-.073.185-.069zm.098-.037l-.067.026.168-.064-.101.038zm.315-.12l-.097.037-.097.037.194-.074zm.49-.194l-.192.077-.193.076.386-.153zm.297-.12l-.134.054-.135.055.269-.11zm.3-.125l-.134.055-.133.055.266-.11zm.298-.129c-.043.02-.087.038-.131.057-.044.02-.088.038-.131.056l.262-.113zm.3-.13l-.131.057-.13.057.261-.115zm.3-.135l-.131.058c-.043.02-.087.04-.13.058l.26-.116zm.3-.14a535294972220.388 535294972220.388 0 01-.261.121l.26-.12zm.298-.141l-.13.062-.13.061.26-.123zm.298-.146c-.042.022-.086.043-.129.064l-.13.063.26-.127zm.299-.149l-.13.065-.13.065.26-.13zm.298-.154a9.833 9.833 0 01-.13.067l-.13.067.26-.134zm.297-.158l-.13.07a10.07 10.07 0 01-.13.068l.26-.138zm.297-.161l-.13.07-.129.071.259-.141zm.296-.167c-.043.025-.086.05-.13.073l-.13.073.26-.146zm.08-.045l-.037.02.18-.103-.143.083zm1.476-.912l.218-.146-.218.146-.013.01-.012.006-.268.176-.01.007-.014.008c-.088.058-.178.114-.267.17l-.012.008-.013.007-.269.166-.01.007-.01.006-.3.18h-.002l-.128.075-.004.003.133-.078.3-.18.021-.013.27-.166.024-.015.267-.17.024-.015.268-.176.025-.016zm.35-.236l-.132.09.204-.14-.072.05zm-49.527-4.422c-.884.43-2.578.752-4.642 1.017-.995.127-2.073.236-3.19.338-.786.071-1.591.135-2.396.203-.805.068-1.608.142-2.398.2a61.808 61.808 0 01-3.603.18c-1.41.019-2.647-.028-3.581-.199a.19.19 0 10-.09.37c1.44.424 3.64.675 6.094.731a41.05 41.05 0 002.45-.018 33.428 33.428 0 003.251-.27 41.695 41.695 0 002.42-.383c2.652-.507 4.851-1.184 5.877-1.825a.197.197 0 00-.192-.344zm-48.879-2.004a6.08 6.08 0 01-1.303.41c-.575.11-1.136.137-1.608.074a.19.19 0 01.034-.378c.434.02.941-.05 1.456-.193.463-.13.929-.322 1.349-.572l.224-.123.165.194c.28.303.776.541 1.395.738 1.06.337 2.48.501 3.933.46a13.056 13.056 0 002.79-.37c.937-.234 1.787-.58 2.414-1.102l.34-.279.369.24c1.293.874 2.743 1.602 4.608 2.28 1.976.716 4.401 1.383 7.62 2.009a.196.196 0 01-.06.388c-3.309-.387-5.827-.843-7.872-1.454a20.006 20.006 0 01-4.589-1.994 6.836 6.836 0 01-1.955.896c-1.128.326-2.411.45-3.665.418-1.305-.035-2.576-.24-3.608-.566-.894-.282-1.61-.655-2.037-1.076zm72.633-1.297a41.871 41.871 0 01-3.223 1.513c-1.922.794-3.717 1.338-5.38 1.641-2.34.426-4.416.374-6.23-.143a.19.19 0 01-.138-.23.19.19 0 01.23-.138c1.77.378 3.757.279 5.973-.263 1.588-.388 3.287-1.013 5.111-1.858a46.4 46.4 0 003.246-1.658l.153-.083.174.012c.725.05 1.434.086 2.127.12 1.104.055 2.167.092 3.189.106 1.916.025 3.683-.032 5.298-.195 2.722-.275 5-.83 6.78-1.753a.197.197 0 01.192.343c-1.77 1.072-4.072 1.83-6.86 2.273-1.639.262-3.445.415-5.405.459a53.13 53.13 0 01-5.237-.146zm-98.62-2.947c1.082.385 2.254.742 3.47 1.093.82.236 1.659.463 2.504.69.557.149 1.115.3 1.673.446.845.223 1.686.44 2.518.637.716.17 1.422.328 2.113.47 1.83.378 3.538.646 4.996.711a.196.196 0 11.002.393c-1.582.086-3.478 0-5.506-.26a45.65 45.65 0 01-3.621-.621 37.57 37.57 0 01-3.55-.935 49.16 49.16 0 01-5.14-1.984l-.255-.105.012-.276c.057-.619.146-1.312.298-2.04a14.18 14.18 0 01.561-1.979.19.19 0 11.363.113c-.17.665-.276 1.325-.343 1.958-.064.598-.09 1.168-.095 1.69zm82.761 2.507c-.09-.769-.124-1.533-.183-2.33a33.145 33.145 0 00-.151-1.533 13.43 13.43 0 00-.103-.607c-.057-.303-.12-.604-.185-.91-.163-.758-.34-1.506-.488-2.292a.19.19 0 10-.38.021c-.062.809-.12 1.586-.127 2.373-.002.32.006.635.026.951.013.212.032.423.06.63a12.814 12.814 0 00.34 1.55c.23.782.515 1.511.81 2.244a.197.197 0 00.381-.097zm-44.923-2.305a21.93 21.93 0 00.632-2.263 12.748 12.748 0 00.225-1.54c.014-.203.018-.41.017-.62a14.148 14.148 0 00-.035-.932c-.05-.745-.147-1.503-.246-2.321a.19.19 0 00-.38-.005c-.12.807-.258 1.552-.372 2.282-.048.31-.092.61-.128.908-.025.205-.047.406-.061.604-.015.206-.021.408-.027.607-.008.314-.013.616-.011.912.003.841.03 1.592 0 2.298a.196.196 0 00.387.07zm152.994-21.457s-.396-.005-.984.09a4.152 4.152 0 00-.622.143 3.354 3.354 0 00-.437.182c-.147.071-.281.154-.416.235a21.86 21.86 0 00-1.211.795.104.104 0 10.077.193s.64-.09 1.426-.26a4.65 4.65 0 00.462-.115c.152-.048.303-.102.443-.17.204-.099.384-.212.55-.325.489-.337.773-.614.773-.614a.083.083 0 00-.06-.154zm3.367.236c.748-.193 1.48-.362 2.216-.585.486-.147.965-.306 1.439-.488.354-.136.701-.29 1.045-.448.345-.16.682-.332 1.02-.507 1.018-.528 2.005-1.083 3.005-1.633.052-.024.076-.085.052-.137a.104.104 0 00-.137-.053c-1.077.372-2.152.72-3.234 1.099-.357.126-.713.25-1.066.39-.351.137-.701.28-1.044.439-.46.212-.907.44-1.354.68-.674.365-1.314.757-1.985 1.137a.057.057 0 00.043.106zm-5.092-9.227c.132.939.258 1.853.506 2.75.165.603.38 1.19.63 1.758.255.572.562 1.114.883 1.647.484.801 1.026 1.55 1.608 2.284a.12.12 0 10.2-.132 28.065 28.065 0 01-.807-1.643c-.353-.77-.656-1.556-.967-2.35a37.988 37.988 0 00-.405-1.007c-.237-.556-.484-1.106-.726-1.667-.244-.564-.5-1.112-.731-1.69a.099.099 0 00-.191.05zM170.608 59.595l-3.832-2.834a.127.127 0 01.143-.209l4.226 2.687.19.13-.075.218s-.445 1.48-1.102 3.48a126.04 126.04 0 01-1.404 4.02c-.323.882-.65 1.754-.958 2.565a422.37 422.37 0 01-1.64 4.261.13.13 0 01-.247-.085s.569-1.924 1.324-4.369c.256-.83.535-1.718.821-2.611a122.751 122.751 0 011.364-4.034 165.44 165.44 0 011.19-3.219zm-37.058 5.728s-.43.51-.943 1.211a12.11 12.11 0 00-.56.848 6.205 6.205 0 00-.191.359 13.18 13.18 0 00-.257.553c-.348.796-.583 1.421-.583 1.421a.127.127 0 10.22.127s.424-.516.94-1.214c.117-.158.235-.325.351-.5a6 6 0 00.408-.7c.095-.189.184-.372.263-.552.35-.795.58-1.423.58-1.423a.131.131 0 10-.227-.13zm19.415-6.28a84.97 84.97 0 00-5.284.919 57.421 57.421 0 00-3.476.854 54.38 54.38 0 00-3.401 1.116 77.055 77.055 0 00-4.966 2.03.127.127 0 00.094.235 97.474 97.474 0 013.38-1.116 134.23 134.23 0 013.406-1.009c.546-.155 1.093-.305 1.64-.462.819-.234 1.637-.47 2.458-.7.82-.23 1.642-.456 2.467-.676 1.238-.328 2.476-.645 3.73-.934a.13.13 0 00-.048-.257zm39.161-4.279s-2.647.43-6.013 1.036a187.256 187.256 0 00-3.992.768c-.533.111-1.064.228-1.59.346-.816.183-1.615.37-2.377.55-3.327.79-5.928 1.444-5.928 1.444a.127.127 0 00-.098.15.127.127 0 00.15.099s2.646-.438 6.012-1.04c.771-.139 1.578-.287 2.4-.444.528-.1 1.062-.206 1.595-.316a189.017 189.017 0 003.967-.889c3.328-.787 5.928-1.448 5.928-1.448a.13.13 0 00-.054-.256z"/><path fill="#423757" d="M239.602 237.706c.24-.54.836-1.85 1.606-3.391 1.772-3.543 4.401-8.32 4.401-8.32a1.99 1.99 0 01.238-.345c2.04-2.353 4.089-5.078 6.04-7.94.983-1.44 1.92-2.924 2.853-4.399.403-.638.812-1.263 1.221-1.889.703-1.074 1.393-2.108 2.055-3.165.699-1.115 1.37-2.161 1.972-3.263a.608.608 0 111.145.41 42.433 42.433 0 01-1.047 4.3 33.613 33.613 0 01-.973 2.786 33.367 33.367 0 01-1.31 2.867c-.958 1.862-2.085 3.65-3.237 5.385-1.766 2.66-3.684 5.135-5.559 7.34-.489.899-2.731 5.005-4.523 8.021-1.157 1.95-2.142 3.426-2.142 3.426-.147.27-.366.491-.634.64l-5.558 2.288a.91.91 0 01-1.045-.11l-1.437-1.681a.6.6 0 01.792-.898l1.217.8 3.925-2.862zm-16.452-23.053l-1.99-2.35a1.342 1.342 0 01-.294-.754c-.138-1.687-.246-3.281-.215-4.79.024-1.117.132-2.183.249-3.205.341-3 .942-5.598 1.76-7.87l.03-.082c.117-.289.225-.603.295-.947.51-2.499-.114-6.12.332-10.195.179-1.632.579-3.313 1.121-5.011 1.07-3.349 2.86-6.738 5.861-9.85a1.407 1.407 0 012.089 1.884c-2.447 2.9-3.748 5.992-4.56 8.969-.423 1.547-.656 3.075-.92 4.528-.634 3.487-1.13 6.595-1.669 8.976-.201.892-.404 1.689-.705 2.358-.48 1.772-.8 3.733-.96 5.92-.106 1.423-.089 2.936-.087 4.556 0 1.325-.018 2.72.043 4.19l1.971 2.57c.256.318.342.74.229 1.133-.596 1.998-.804 3.91-.764 5.81.056 2.619.528 5.205.806 7.957l1.264-.01c.64.008 1.197.436 1.372 1.052 0 0 .546 1.647 1.055 3.547.385 1.43.753 2.998.998 4.075l2.717-.948a1.036 1.036 0 01.788 1.916l-3.952 1.886a1.275 1.275 0 01-1.713-.834s-.99-2.807-1.722-5.281c-.289-.976-.535-1.9-.703-2.564l-1.395-.05a1.39 1.39 0 01-1.367-1.319c-.099-3.29-.502-6.33-.533-9.388-.02-1.926.089-3.863.569-5.879zm49.825-33.197a421.85 421.85 0 00-1.555 6.08c-.909 3.663-1.743 7.153-2.662 10.131-.318 1.031-.644 1.999-1.012 2.884-.708 1.698-1.474 3.081-2.226 4.18a1.15 1.15 0 01-1.75.365l-2.249-2.544a.598.598 0 11.756-.928l1.553.89c.244-.94.444-2.014.702-3.2.204-.94.444-1.934.691-2.987.629-2.672 1.321-5.687 2.098-8.85.329-1.34.677-2.705 1.05-4.08a217.726 217.726 0 004.604-1.941zm-3.42-2.158l.221-.708c.23-.724.463-1.446.73-2.155.27-.717.554-1.42.876-2.11a35.356 35.356 0 011.61-3.05 42.043 42.043 0 011.9-2.892.608.608 0 011.104.511c-.467 1.705-.783 3.42-1.161 5.226-.145.693-.29 1.376-.455 2.071-.063.264-.128.526-.197.787a249.46 249.46 0 01-4.628 2.32zm14.151-33.167c.086.609.186 1.176.263 1.812.086.709.177 1.373.221 2.093.039.66.045 1.313.037 1.976-.02 1.532-.095 3.062-.117 4.572-.028 2.005 0 3.97.06 5.843.043 1.342.064 2.634.175 3.86a1.748 1.748 0 01-1.987 1.977s-1.635-.518-3.069-1.067c-1.125-.432-2.025-.85-2.025-.85a.599.599 0 01.175-1.184s.983-.14 2.185-.227c.295-.02.597-.039.893-.053l-.023-.155a34.418 34.418 0 01-.299-3.095 59.394 59.394 0 01.083-7.706c.063-.85.132-1.703.269-2.547.092-.568.201-1.123.353-1.677.196-.717.424-1.37.689-2.057.078-.2.156-.393.236-.582a140.8 140.8 0 001.881-.933zm-48.68 15.563c-.522 2.086-1.052 3.847-1.89 5.168a.758.758 0 11-1.367-.656c.386-1.137.476-2.491.484-4.043.925-.15 1.85-.307 2.773-.469zm12.813-30.02a32.65 32.65 0 01-3.216 2.686 92.034 92.034 0 00-1.22 2.842c-1.222 2.986-2.764 7.122-2.764 7.122l-.121.206c-1.277 2.148-2.064 4.243-2.671 6.234-.337 1.1-.558 2.175-.815 3.2-.119.473-.261.927-.393 1.378-.133.456-.258.905-.375 1.346-1.34.28-2.684.55-4.028.808.008-.4.021-.807.041-1.223.044-.89.086-1.804.262-2.742.111-.595.302-1.185.496-1.787.5-1.554 1.131-3.158 2.02-4.762a27.392 27.392 0 012.916-4.23l-.122.207s2.32-3.756 3.928-6.553c.914-1.588 1.577-2.86 1.577-2.86l.222-.27c.448-.348.876-.695 1.283-1.044.996-.18 1.989-.366 2.98-.557zM37.136 144.176c-1.627.627-3.16 1.25-4.621 1.813-1.833.707-3.545 1.32-5.17 1.742-1.299.338-2.544.565-3.741.597-1.822.047-3.547-.283-5.137-1.153-1.35-.74-2.59-1.865-3.767-3.46a.667.667 0 011.004-.878c1.224 1.186 2.447 1.928 3.676 2.417a9.385 9.385 0 001.61.471c.823.168 1.663.207 2.536.178a20.293 20.293 0 003.307-.403c1.582-.316 3.266-.776 5.08-1.299 1.419-.408 2.91-.85 4.486-1.283.242.42.488.84.737 1.258zM66.18 134.5a114.71 114.71 0 002.211 1.831c-5.116 1.628-10.671 3.247-16.676 4.869-1.08.715-2.198 1.594-3.349 2.612a60.134 60.134 0 00-3.458 3.34l-.525-.756c-.166-.24-.333-.477-.5-.714.314-.59.61-1.169.878-1.73.458-.967.83-1.88 1.043-2.715a.39.39 0 01.76.174c-.183.892-.524 1.875-.957 2.917l-.165.387c.65-.7 1.294-1.36 1.929-1.977 1.205-1.17 2.38-2.178 3.52-3l.238-.114a370.786 370.786 0 0015.05-5.124zm221.802 9.372c.018.43.015.853.045 1.28a1.239 1.239 0 01-1.715 1.384l-1.368-1.037a128.052 128.052 0 003.038-1.627zM41.05 141.753a65.872 65.872 0 013.91-.745.274.274 0 11.114.537c-1.19.313-2.335.656-3.438 1.016l-.126-.174-.46-.634zM5.914 117.95l.045-.486a1.35 1.35 0 01.654-1.026c1.244-.682 2.345-1.476 3.384-2.32a59.391 59.391 0 003.196-2.82.978.978 0 01.852-.287l3.934.845a.745.745 0 11-.23 1.473l-3.449-.336c-1.066 1.222-2.148 2.43-3.376 3.541a21.532 21.532 0 01-2.348 1.838l-.047.45c-.04.4-.256.76-.59.984l-.799.506a32.563 32.563 0 00-.618 2.08 28.267 28.267 0 00-.559 2.612c-.011.101-.037.2-.077.293-.562 1.199-1.137 2.32-1.672 3.395-.392.786-.764 1.543-1.13 2.263a77.41 77.41 0 01-.966 1.856c.465.683.904 1.37 1.317 2.058.533.89 1.015 1.784 1.448 2.683.093.213.121.45.083.678l-.019.146.54.334a23.79 23.79 0 013.21.203c1.262.172 2.528.453 3.941.686 1.178.195 2.442.392 3.891.506a.85.85 0 01-.016 1.7 40.444 40.444 0 01-4.69.006c-1.457-.08-2.779-.19-4.097-.304-.858-.074-1.71-.176-2.608-.192a1.3 1.3 0 01-.723-.22l-1.466-1.058a1.237 1.237 0 01-.532-1.235l.138-.663a30.91 30.91 0 00-1.004-2.225 40.282 40.282 0 00-1.376-2.52.973.973 0 01-.015-1.03c.701-1.126 1.443-2.386 2.118-3.818.565-1.196 1.067-2.511 1.596-3.9.069-.936.185-1.85.337-2.752.161-.956.37-1.89.606-2.815.087-.292.273-.543.526-.713l.591-.416zm278.682 22.96a41.886 41.886 0 01-.178-4.225c.005-1.068.037-2.148.145-3.23.072-.713.15-1.425.307-2.13a15.47 15.47 0 01.52-1.738c.212-.6.441-1.117.684-1.706a.487.487 0 01.967.111c.102.62.223 1.163.314 1.784.088.597.165 1.157.218 1.755.029.336.046.664.051 1 .012.773-.013 1.542-.02 2.308a89.144 89.144 0 00.063 4.498 129.95 129.95 0 01-3.07 1.573zM92.56 123.08a290.8 290.8 0 005.12 1.406c-2.502 1.378-5.287 2.707-8.315 4.055-4.721 2.103-10.094 4.165-16.142 6.208-.942-.607-1.873-1.22-2.792-1.84 6.617-2.53 12.428-5.032 17.494-7.473 1.627-.784 3.17-1.573 4.635-2.356zm40.923 1.575c-.56.043-1.238.074-2.006.067-1.813-.019-4.134-.216-6.522-.55-3.338-.464-6.782-1.233-9.177-2.346a1.187 1.187 0 01-.553-.456c-.3-.527-.666-.827-1.127-.97-1.523-.472-3.49-.069-5.437-.795a.73.73 0 01.431-1.394c2.023.5 3.938-.14 5.51.155.868.162 1.633.564 2.313 1.344 1.823.576 4.178.871 6.574 1.04 2.223.157 4.47.16 6.376.127.943-.016 1.798-.055 2.52-.077.654-.02 1.191-.02 1.572-.056a1.922 1.922 0 011.74.722c1.638 2.353 4.618 3.102 8.13 3.286 1.479.077 3.047.083 4.652-.049 3.66-.3 7.494-1.073 11.114-1.317a1.5 1.5 0 01.838.221c1.5.86 3.142 1.233 4.879 1.465.746.1 1.509.191 2.294.242 4.044.257 8.585-.157 13.4-.11 1.93.02 3.9.088 5.901.356a.94.94 0 01.597.311l1.321 1.539c6.743-1.046 12.348-.827 18.174-1.644 2.481-.347 5.003-.888 7.675-1.801a.7.7 0 01.46 1.32c-2.752.981-5.353 1.57-7.916 1.968-5.942.922-11.666.772-18.597 2.02a.904.904 0 01-.83-.293l-1.44-1.586a38.997 38.997 0 00-5.302-.083c-4.88.25-9.43 1.213-13.543 1.218-.904.001-1.788-.034-2.645-.153-2.036-.282-3.92-.928-5.642-1.98-3.441.036-7.092.343-10.547.59-.504.037-1.003.078-1.497.126-2.18.21-4.25.386-6.156.283-3.026-.162-5.592-1.006-7.534-2.74zm114.835 3.776c1.042-1.517 1.715-3.016 2.114-4.42a8.956 8.956 0 00.18-4.188c-.401-2.096-1.544-3.887-3.607-4.99a.771.771 0 01-.46-.772c-4.535 2.35-8.715 3.539-11.41 3.512-.894.486-1.867.912-2.86 1.367-2.358 1.079-4.876 2.256-7.481 2.924-.75.192-1.506.312-2.25.425-1.884.288-3.686.423-5.31.5a.789.789 0 01-.469-.084l-1.913-1.227a.6.6 0 01.56-1.058l1.8.767c1.85-.394 3.898-1.008 6.048-1.624a32.52 32.52 0 011.238-.325c1.656-.402 3.347-.764 4.952-1.29 1.061-.348 2.103-.705 3.054-1.174.664-.327 1.268-.726 1.85-1.112a1.03 1.03 0 01.513-.146c2.241-.162 5.467-1.71 9.19-3.85.5-.29 1.01-.589 1.535-.882.757-.423 1.543-.84 2.336-1.283 2.91-1.625 6.018-3.387 8.868-5.5 1.207-.897 2.336-1.888 3.45-2.856.139-.116.302-.2.477-.246 2.204-.67 4.19-1.659 6.154-2.767.833-.47 1.671-.942 2.505-1.461a44.759 44.759 0 007.785-6.145.56.56 0 11.847.735c-1.87 2.555-3.74 4.727-5.754 6.557-.967.879-1.941 1.698-3.001 2.367-2.351 1.485-4.937 2.389-7.677 3.034-.875.685-1.787 1.341-2.674 2.04-3.136 2.473-6.272 5.028-9.425 7.06a49.05 49.05 0 01-1.805 1.123c2.684.936 4.6 2.807 5.42 5.243.349 1.041.463 2.2.342 3.403-.187 1.87-.968 3.866-2.37 5.894-.915.155-1.832.304-2.752.449zm28.776-32a32.147 32.147 0 014.57 3.378 20.184 20.184 0 012.756 2.974 13.917 13.917 0 011.867 3.346c1.022 2.582 1.066 5.186.92 7.74-.102 1.785-.29 3.545-.355 5.235-.05 1.314-.037 2.59.143 3.806.059.401.105.805.233 1.184.091.27.186.518.331.76.291.484.54.88.942 1.28.403.399.71.687 1.199 1.011a.6.6 0 001.016-.634c-.064-.486-.005-.838-.01-1.314-.007-.43.083-.776.093-1.204.004-.205.03-.397.017-.604-.018-.296-.06-.59-.081-.891-.075-1.025-.033-2.09.04-3.187.114-1.688.322-3.447.406-5.236.146-3.13-.01-6.367-1.486-9.431-.853-1.771-2.119-3.496-4.015-5.067a19.595 19.595 0 00-3.087-2.096c-1.43-.786-3.062-1.494-4.981-2.15a.608.608 0 10-.518 1.1zm-65.369 24.598c-1.649.364-3.29.636-4.912.914-.704.12-1.403.24-2.098.367-2.37.43-4.695.812-7.024.942-3.192.18-6.336.013-9.462-.675a.355.355 0 10-.195.683c3.908 1.385 7.954 1.995 12.135 1.983 2.037-.005 4.105-.109 6.175-.457 1.994-.336 3.967-.924 5.965-1.52a1.158 1.158 0 00-.584-2.237zm-25.188.65c-1.09-.072-2.165-.166-3.235-.235-1.088-.071-2.164-.155-3.23-.188-3.372-.102-6.61-.07-9.712-.243-2.408-.135-4.712-.31-6.928-.583a.355.355 0 00-.133.698 103.353 103.353 0 0013.836 2.55c1.226.141 2.47.28 3.736.336 1.84.082 3.714.009 5.62-.022a1.158 1.158 0 00.046-2.313zm-91.22-.108c1.418-.795 2.76-1.573 4.04-2.323 2.003-1.172 3.857-2.239 5.524-3.336 1.978-1.3 3.718-2.523 5.189-3.835a.817.817 0 011.196 1.113 37.194 37.194 0 01-4.629 4.998 44.097 44.097 0 01-5.948 4.528 311.48 311.48 0 01-5.372-1.145zm59.648-1.352c-5.614-.127-10.946-.602-15.886-1.625a53.575 53.575 0 01-7.303-2.04c-.206-.074-.416-.136-.613-.228a4.831 4.831 0 01-.575-.321c-.58-.373-1.072-.775-1.608-1.195l.228.066c-.19-.062-.366-.14-.56-.183-.771-.174-1.547-.209-2.3-.328-3.823-.606-7.311-1.56-11.215-3.165a57.19 57.19 0 01-3.708-1.665 37.418 37.418 0 01-1.534-.81c-2.246-1.252-4.647-2.762-7.384-4.466a.994.994 0 01-.175-1.598l1.54-1.271a.9.9 0 011.208 1.331l-.414.413c1.816.923 3.499 1.753 5.069 2.536.925.461 1.815.894 2.662 1.332 1.234.637 2.383 1.263 3.504 1.824 1.867.934 3.613 1.749 5.372 2.417 2.103.799 4.193 1.44 6.462 1.897.384.076.768.185 1.167.207.175.01.34-.022.518-.033l.227.067c.622.128 1.21.185 1.837.328.254.058.502.125.75.212 3.148 1.099 6.382 2.314 9.897 3.114 4.086.93 8.428 1.582 12.984 1.987.07.004.14.02.206.049.83.396 1.8.693 2.95.863a17.98 17.98 0 003.162.164.376.376 0 01.048.75 18.91 18.91 0 01-3.32.057c-1.226-.096-2.279-.337-3.196-.686zM39.27 107.155l.258-2.393c.028-.556.435-1.02.983-1.119 2.962-.358 4.795-.22 6.125.177 1.181.352 1.974.874 2.774 1.45.67.482 1.34.994 2.348 1.392a.523.523 0 01-.326.993c-2.203-.584-3.052-1.789-5.19-2.162-1.026-.18-2.352-.128-4.315.282l.016 1.759c-.007.152-.04.296-.093.43.447.136.908.272 1.385.41a.494.494 0 11-.22.963c-4.127-.7-7.098-1.46-10.246-1.817a27.7 27.7 0 00-5.824-.071c-.472 1.154-1.095 1.99-1.88 2.611a7.687 7.687 0 01-2.06 1.152c-.919.35-1.919.584-3.016.959a.572.572 0 01-.518-1.02 61.185 61.185 0 012.183-1.465c.682-.441 1.278-.88 1.802-1.417.567-.58.997-1.308 1.247-2.39a1.32 1.32 0 011.167-.976c2.795-.134 5.067.049 7.237.496 2.03.42 3.956 1.048 6.163 1.756zm13.384-17.616l.205.056c4.99 1.373 9.662 2.418 14.974 4.197 4.561 1.527 9.577 3.614 15.653 6.93a.99.99 0 01.256.14c.08.051.145.118.193.194a1.009 1.009 0 01-.136 1.364c-.96.822-1.566 1.618-2.293 2.32a8.34 8.34 0 01-1.24 1.01.943.943 0 01-.383.151c-3.825.544-7.302.769-10.64.856-5.364.142-10.36-.07-15.865.145a.566.566 0 01-.06-1.131c5.498-.37 10.501-.3 15.861-.593 3.205-.176 6.538-.483 10.185-1.096.293-.221.547-.457.787-.703.6-.614 1.12-1.29 1.82-1.997a99.804 99.804 0 00-10.682-4.36c-6.494-2.213-11.82-3.176-17.403-4.51-.725-.173-1.454-.353-2.19-.543.31-.848.632-1.652.958-2.43zm2.506-5.267c2.891-.616 5.618-1.221 8.427-1.684a65.563 65.563 0 012.691-.387 31.568 31.568 0 00-.655-.484 1.116 1.116 0 01-.489-1.418.64.64 0 01.333-.46c1.076-.756 2.101-1.526 3.172-2.291.708-.505 1.408-1 2.126-1.49 1.07-.733 2.137-1.456 3.223-2.167.72-.472 1.45-.932 2.184-1.385a132.5 132.5 0 011.956-1.177 21.567 21.567 0 00-1.595-1.052c-1.504-.907-3.254-1.783-5.06-2.577-.218.037-.417.166-.65.308-.42.257-.907.568-1.603.745-.7.178-1.61.235-2.88-.055l-.216-.039.012-.218a4.032 4.032 0 00-.026-1.115 6.72 6.72 0 01-1.271-.116 7.73 7.73 0 01-.48-.103c-.28-.068-.555-.148-.847-.2-.27-.047-.541-.1-.838-.102l-.97.116.325-.921c.08-.153.144-.334.144-.569 0-.33-.043-.71-.167-1.165l-1.9-.381-.547-.158.118-.556s.086-.661.232-1.562c.113-.7.254-1.544.407-2.331.267-1.37.551-2.57.551-2.57l.098-.461 5.188-1.377 1.922-2.19.11-.135 4.12-.997.116-.033 2.375.904a.223.223 0 01.162-.122c1.319-.378 2.49-.497 3.598-.43.332.02.655.058.973.111a49.85 49.85 0 00-1.077 1.038 10.042 10.042 0 00-3.076-.3.278.278 0 01-.336.392l-2.624-.77-3.585 1.156-1.807 2.377-.129.158-4.57 1.454a73.11 73.11 0 01-.454 2.125 75.188 75.188 0 01-.856 3.32l1.356.516a.441.441 0 01.217.704c.263.42.43.795.537 1.138.022.07.04.138.054.206a5.76 5.76 0 011.404.03c.192.027.381.068.567.12a7.2 7.2 0 01.527.171c.25.092.487.193.74.286.245.09.469.192.73.258a.44.44 0 11-.02.88 5.798 5.798 0 01-.628.076 4.194 4.194 0 01.127.924c1.05.111 1.799-.002 2.372-.209.717-.258 1.147-.668 1.543-.95.321-.226.633-.371.981-.411l.111-.007.105.04c1.967.644 3.888 1.383 5.549 2.178.958.458 1.824.94 2.567 1.432 2.248-1.324 4.5-2.638 6.757-3.942a390.25 390.25 0 0110.644-5.953 5.42 5.42 0 01-.55-.289 54.92 54.92 0 00-3.26-1.818c-1.62-.82-3.203-1.6-4.536-2.56l-.03 1.017a.214.214 0 01-.052.15l-.007.02a.278.278 0 01-.357.166 22.687 22.687 0 01-3.534-1.23 53.936 53.936 0 01-2.21-1.042c-.478-.236-.946-.471-1.415-.7a37.792 37.792 0 00-.606-.29c.48-.368.962-.725 1.449-1.073.176.077.352.159.526.244.525.26 1.034.561 1.547.878.58.358 1.155.74 1.757 1.126.767.49 1.55.992 2.432 1.442l-.184-1.382a.355.355 0 01.18-.327.354.354 0 01.372.017c1.542.891 3.4 1.43 5.287 2.09 1.241.435 2.509.871 3.659 1.535.147.084.291.175.425.28a4.64 4.64 0 01.832.829c1.214-.641 2.432-1.27 3.654-1.889a.612.612 0 01.6 1.067c-5.116 3.186-10.079 6.664-15.11 10.097-2.344 1.598-4.69 3.19-7.075 4.73a97.13 97.13 0 01-3.098 1.941c-.75.447-1.507.879-2.276 1.29a73.95 73.95 0 01-3.516 1.763 56.08 56.08 0 01-4.231 1.78 40.94 40.94 0 013.56 1.702 42.773 42.773 0 014.443 2.804c2.973 2.138 5.64 4.598 7.963 6.782a26.566 26.566 0 004.552 3.555c5.15 3.176 9.563 3.734 12.684 7.155a1.106 1.106 0 01-1.578 1.545c-1.66-1.576-3.638-2.306-5.863-3.095-2.083-.738-4.367-1.499-6.842-2.813-1.71-.91-3.495-2.093-5.365-3.695-1.43-1.243-3.024-2.53-4.69-3.838-1.093-.86-2.232-1.707-3.364-2.576-.745-.573-1.484-1.156-2.223-1.737-.936-.737-1.854-1.467-2.774-2.184a16.842 16.842 0 01-.162-.126c-5.041.693-9.433 2.039-14.483 3.272.335-.691.673-1.356.998-2.007.126-.253.251-.503.376-.75zm244.42 14.466a13.43 13.43 0 01-1.104-2.205c-.761-1.914-1.32-4.28-1.682-7.03a.41.41 0 01.807-.149c.61 2.585 1.363 4.79 2.273 6.54.767 1.476 1.651 2.592 2.673 3.291a1.008 1.008 0 01-.823 1.787c-.627.032-1.196.093-1.747.134-.61.047-1.166.111-1.694.169-.195.087-.41.108-.613.067l-.536.055c-.499.05-.968.092-1.426.167a15.268 15.268 0 00-3.81 1.118.98.98 0 01-.199.088l-.01.004a.624.624 0 01-.727-.05l-.004-.004a1.004 1.004 0 01-.241-.162c-.87-.87-1.722-2.486-2.34-4.448-.68-2.168-1.124-4.734-1.126-7.002a.41.41 0 01.819-.043c.186 1.78.68 3.724 1.33 5.472.723 1.94 1.636 3.616 2.56 4.434.333-.255.662-.49.996-.707-.51-.789-.937-1.765-1.265-2.884-.532-1.817-.845-3.994-.957-6.25a.41.41 0 11.816-.088c.354 2.126.885 4.157 1.589 5.821.429 1.015.925 1.873 1.498 2.495a9.799 9.799 0 011.225-.424 15.226 15.226 0 01-.752-1.924c-.6-1.885-.959-4.015-1.19-6.279a.41.41 0 11.81-.13c.47 2.134 1.037 4.129 1.815 5.86a12.81 12.81 0 001.224 2.175c.29-.01.588-.005.897.015.297.018.601.046.915.087zm14.23-1.038c-1.12-.741-2.17-1.643-3.167-2.696a20.244 20.244 0 01-1.705-2.076 29.111 29.111 0 01-2.926-5.134 28.91 28.91 0 01-.951-2.46 46.04 46.04 0 01-1.104-3.77 69.35 69.35 0 01-1.197-5.944c-.472-2.981-.778-6.005-1-8.972a.756.756 0 111.5-.195 114.205 114.205 0 002.96 12.291 95.382 95.382 0 001.574 4.738c.38 1.054.774 2.08 1.17 3.082a63.148 63.148 0 001.317 3.143 37.033 37.033 0 001.532 3.024c1.042 1.812 2.18 3.399 3.568 4.653 1.794-.626 3.48-1.288 5.105-1.915 1.247-.48 2.454-.955 3.635-1.403 3.26-1.235 6.274-2.376 9.219-3.404 2.728-.953 5.392-1.755 8.15-2.37a.328.328 0 01.18.63c-3.651 1.275-7.054 2.962-10.733 4.728-2.262 1.087-4.606 2.226-7.164 3.298a72.575 72.575 0 01-3.97 1.51 92.554 92.554 0 01-4.053 1.3l-.086.028-.09.015c-.696.09-1.355.15-1.99.18-2.641.126-4.83-.17-7.57.22a.81.81 0 01-.819-.347c-1.138-1.174-2.129-2.728-2.913-4.652-.877-2.152-1.52-4.754-1.879-7.757a.411.411 0 01.81-.135c.606 2.837 1.44 5.268 2.465 7.248.846 1.631 1.83 2.926 2.93 3.861l.006.006a23.43 23.43 0 011.978-.276 15.437 15.437 0 01-2.189-3.01c-1.164-2.06-2.1-4.588-2.863-7.62a.41.41 0 11.786-.237c.99 2.833 2.091 5.174 3.38 7.042 1.03 1.49 2.182 2.651 3.497 3.503.05.035.095.075.136.117a35.686 35.686 0 002.471-.244zM51.086 85.107a32.182 32.182 0 00-.886 2.74 83.06 83.06 0 01-1.984.392c.589.185 1.17.362 1.744.532a34.9 34.9 0 00-.529 2.585 92.049 92.049 0 01-7.23-2.368l-5.185-1.971 5.512-.622c3.156-.319 5.956-.785 8.558-1.288zm305.8-54.463a11.512 11.512 0 00-1.966-.896c-.763-.274-1.573-.471-2.42-.639-.544-.107-1.1-.197-1.668-.28a27.244 27.244 0 00-3.423-.305c-1.762-.032-3.543.076-5.24.404-1.198.231-2.352.527-3.405.95-.757.305-1.468.656-2.09 1.075-.4.27-.755.575-1.079.89a6.81 6.81 0 00-1.23 1.61 4.268 4.268 0 00-.178.367c2.819-.417 5.781-.69 8.922-.867a.47.47 0 11.127.93c-3.139.69-6.05 1.509-8.833 2.345-2 .602-3.904 1.226-5.74 1.869a136.596 136.596 0 00-4.682 1.744 105.762 105.762 0 00-4.597 1.905c-2.655 1.186-5.104 2.44-7.35 3.809-2.416 1.471-4.611 3.027-6.583 4.697-.418.9-.694 1.747-.894 2.584-.373 1.566-.511 3.082-.823 4.765a.808.808 0 01-1.598-.226c.169-1.742.175-3.3.423-4.928.163-1.079.439-2.178.908-3.374l.097-.22.176-.163a52 52 0 0110.37-7.947c2.388-1.395 4.99-2.701 7.85-3.796 1.954-.75 4.032-1.388 6.22-1.94a57.338 57.338 0 014.142-.885c.49-1.042 1.285-1.969 2.341-2.788a20.101 20.101 0 011.56-1.07c.75-.475 1.557-.95 2.432-1.378a25.583 25.583 0 016.182-2.114c1.562-.313 3.155-.503 4.714-.471 1.096.022 2.175.142 3.188.39 1.099.268 2.126.669 3.041 1.19 1.277.728 2.335 1.65 3.119 2.773a39.623 39.623 0 013.714.283c1.073.133 2.133.326 3.179.53 1.734.34 3.419.75 5.021 1.208 2.61.745 4.99 1.624 7 2.585a.9.9 0 01.655.473c1.15 2.054 2.17 4.113 2.92 6.248.771 2.188 1.266 4.443 1.582 6.744.593 4.318.43 8.84-.537 13.712a.692.692 0 01-.169.347.41.41 0 01-.555.244c-.554-.14-1.09-.164-1.651-.179a8.677 8.677 0 00-1.585.127 12.85 12.85 0 00-1.211.262c-.405 1.857-1.567 3.736-3.202 5.633-.77.893-1.65 1.784-2.601 2.677a64.4 64.4 0 01-2.765 2.446c-1.829 1.527-3.797 3.03-5.647 4.61-3.826 3.151-7.653 5.698-11.276 7.447-3.08 1.487-6.001 2.4-8.616 2.663a.307.307 0 01-.08-.608c2.508-.414 5.261-1.492 8.153-3.1 3.424-1.905 7.029-4.558 10.59-7.817a190.394 190.394 0 015.604-4.737c.96-.783 1.91-1.539 2.807-2.29a51.217 51.217 0 002.68-2.378c1.458-1.408 2.63-2.786 3.262-4.226a12.31 12.31 0 00-.802.298c-1.126.465-2.322 1.103-3.6 1.952-1.545 1.027-3.205 2.311-4.984 3.916a.254.254 0 11-.365-.354c1.583-1.874 3.074-3.427 4.52-4.66 1.267-1.082 2.489-1.915 3.669-2.511.732-.37 1.45-.655 2.154-.825a6.95 6.95 0 011.564-.2c.685-.006 1.34.07 1.964.263.29.09.567.197.836.324.641-4.544.549-8.735-.151-12.725-.38-2.165-.978-4.257-1.674-6.34a61.22 61.22 0 00-1.423-3.867 47.664 47.664 0 01-1.184 3.903 34.204 34.204 0 01-1.628 3.849l-.066.167-.178.021a6.607 6.607 0 00-1.614.238 6.827 6.827 0 00-1.539.646 6.99 6.99 0 011.431-.926 6.929 6.929 0 011.449-.509c.388-1.35.654-2.606.855-3.82.36-2.173.476-4.142.615-6.074a1.23 1.23 0 01.05-.198c-1.727-.59-3.667-1.1-5.736-1.556a105.2 105.2 0 00-5.185-.983c-1.147-.193-2.312-.365-3.477-.56-.873-.145-1.739-.31-2.609-.467a118.89 118.89 0 01-1.742-.33c-1.494-.294-2.937-.597-4.386-.833a.262.262 0 01.022-.524 60.055 60.055 0 013.22-.212c.236-.008.473-.013.71-.017zM282.472 80.76c-.053-.422-.143-.829-.229-1.23-.095-.447-.223-.874-.328-1.295-.114-.455-.214-.897-.32-1.319-.095-.379-.174-.738-.255-1.085-.152-.647-.256-1.207-.38-1.698a.951.951 0 011.728-.79c.32.457.698.969 1.061 1.613.302.535.574 1.137.807 1.796.13.368.234.757.313 1.158.176.893.236 1.843.208 2.824.004.121-.008.242-.037.359a15.895 15.895 0 01-2.019 3.962 23.535 23.535 0 01-2.781 3.253.479.479 0 11-.74-.608 23.537 23.537 0 001.932-3.54c.51-1.162.85-2.288 1.04-3.4zm-137.319 4.233a18.59 18.59 0 01-2.581.341 18.86 18.86 0 01-1.877.028 25.121 25.121 0 01-4.638-.608.43.43 0 01.125-.85c1.265.083 2.472.035 3.582-.033.989-.06 1.886-.162 2.658-.249 1.585-.178 2.606-.355 2.606-.355a.858.858 0 01.508.044s1.22.536 2.571.845c.572.131 1.165.233 1.695.212a.72.72 0 01.108 1.433c-.65.07-1.392.013-2.107-.107a16.526 16.526 0 01-2.65-.701zm196.12-1.114a32.036 32.036 0 01-3.665.443c-.319.021-.627.028-.927.054a8.968 8.968 0 00-.61.071c-.223.033-.428.076-.639.118-.232.046-.43.107-.653.148a.246.246 0 00-.043.49c.226.084.433.16.678.22.225.055.451.088.694.11.182.015.367.016.556.005.269-.016.542-.061.82-.114a14.24 14.24 0 001.593-.403 25.128 25.128 0 002.283-.85.153.153 0 10-.087-.292zm-166.314-.936c-.707.017-1.467.018-2.261.074-.316.021-.636.055-.96.098-2.488.329-5.157.821-7.4 1.002-.992.08-1.889.118-2.645.076a.182.182 0 10-.045.36c1.694.334 4.169.405 6.757.358 1.353-.024 2.731-.02 4.032-.145.94-.09 1.824-.278 2.643-.392a.719.719 0 00-.12-1.431zm50.113-1.826c-1.884.12-3.661.165-5.354.257-.781.043-1.543.098-2.288.16-6.867.565-12.35.847-17.909 1.257-2.109.156-4.218.353-6.416.622a.286.286 0 00.043.57c7.502-.246 13.963.394 22.499.25 1.247-.02 2.538-.044 3.878-.15 1.828-.145 3.74-.432 5.778-.72a1.129 1.129 0 00-.23-2.246zm-108.104 1.705a58.182 58.182 0 00-6.414-.594 107.978 107.978 0 00-3.576-.08c-.787-.007-1.574-.008-2.366-.007-1.16.004-2.327.008-3.53-.021-1.681-.041-3.417-.126-5.274-.363a.43.43 0 00-.153.846c2.24.527 4.324.852 6.356 1.043 1.01.095 2.002.157 2.99.194.994.038 1.983.047 2.976.056 1.167.01 2.34.012 3.54.039 1.686.038 3.422.11 5.265.31a.718.718 0 00.186-1.423zM363.037 71.77a77.504 77.504 0 01-7.132 4.383 64.038 64.038 0 01-3.985 1.979c-.45.205-.898.403-1.339.608-.447.209-.89.415-1.326.633-.745.371-1.467.743-2.203 1.12-.76.389-1.461.797-2.238 1.17a.424.424 0 00.22.818c.742-.053 1.438-.103 2.166-.22a17.11 17.11 0 002.12-.477c.692-.2 1.37-.45 2.039-.743.654-.287 1.29-.63 1.924-.994 1.436-.828 2.845-1.792 4.274-2.897 1.874-1.448 3.737-3.13 5.733-5.071a.2.2 0 00-.253-.31zm-104.465 4.897c-1.527-.028-2.934.002-4.27.184-.96.131-1.878.345-2.782.576-4.563 1.17-8.704 3.069-15.542 4.335a.233.233 0 00.062.463 65.12 65.12 0 004.61-.536c5.003-.766 8.612-1.814 12.644-2.45.523-.082 1.053-.164 1.592-.25 1.175-.187 2.396-.383 3.731-.476a.923.923 0 10-.045-1.846zM97.915 68.005a15.215 15.215 0 00-1.675-.25 8.552 8.552 0 00-.729-.028c-.498.002-.984.038-1.461.11a7.304 7.304 0 00-.957.207c-.94.274-1.822.672-2.68 1.152-1.205.675-2.321 1.517-3.467 2.502a.182.182 0 00.206.3 23.445 23.445 0 014.214-1.756c.64-.197 1.281-.34 1.933-.491.424-.1.85-.197 1.283-.295.534-.121 1.068-.246 1.629-.357.552-.11 1.09-.241 1.683-.323a.385.385 0 10.021-.771zm189.69-16.182l-.058-.105.429-.238c1.197-.965 2.766-1.535 4.423-1.637 1.038-.062 2.07.143 3.034.559.11.047.22.1.325.157.623-.606 1.29-1.094 2.014-1.394 1.497-.622 2.99-.714 4.187-.14l.663.188-.376 1.327-.663-.188c-.694-.071-1.371.247-2.06.688-.358.228-.65.552-.973.888a5.848 5.848 0 00-1.082 1.622l-.728 1.316c-.47 1.944-.81 4.038-1.026 6.2a61.692 61.692 0 00-.234 8.763.41.41 0 01-.818.064 62.917 62.917 0 01-.363-8.92c.078-2.43.314-4.788.717-6.969l-.102-.103a4.506 4.506 0 00-.929-.765 8.707 8.707 0 00-.793-.456c-.663 1.549-1.1 3.791-1.381 6.163-.535 4.514-.486 9.478-.13 11.325a.41.41 0 11-.8.18c-.485-1.874-.862-6.969-.602-11.638.139-2.482.478-4.84 1.051-6.573a6.877 6.877 0 00-1.923-.023.996.996 0 01.007.523 40.281 40.281 0 00-1.525 9.23c-.153 3.132.034 6.237.421 9.455a.41.41 0 01-.811.125c-.6-3.254-.984-6.405-1.028-9.605a41.96 41.96 0 01.99-9.7c.03-.117.08-.225.144-.32zM261.724 30.25l.39.1a68.96 68.96 0 013.093.875l.214.066c.318.545.652 1.075 1.002 1.59l.45.688-1.016 2.247c.145.8.206 1.52.225 2.231.03 1.155-.07 2.29-.13 3.774a1.616 1.616 0 01-.016.153c1.01.393 2.024.804 3.044 1.238 1.084.462 2.164.949 3.244 1.469 1.412.68 2.814 1.417 4.219 2.176a154.145 154.145 0 016.173 3.553 1.506 1.506 0 01-.1 2.614c-2.482 1.264-3.209 3.251-3.25 5.418-.035 1.886.37 3.899.834 5.793.61 2.504 1.258 4.796 1.208 6.347a.753.753 0 01-1.504.048c-.141-1.443-1.099-3.46-1.924-5.722-.755-2.07-1.425-4.313-1.497-6.444-.085-2.522.628-4.879 2.698-6.71a319.817 319.817 0 00-4.036-2.422c-1.903-1.129-3.803-2.206-5.659-3.293-1.583-.928-6.763-3.9-8.546-4.934-.228-.133-.35-.391-.242-.633a.48.48 0 01.633-.242c.52.186 1.045.374 1.57.566.086-1.008.172-1.856.177-2.718.004-.675-.038-1.36-.18-2.156l-.095-.484.808-1.67a32.016 32.016 0 01-1.787-3.518zm87.124 40.15c-2.458.064-5.207-.721-7.61-2.271a15.177 15.177 0 01-1.886-1.448c-.39-.347-.761-.72-1.124-1.109a21.637 21.637 0 01-1.291-1.501 14.192 14.192 0 01-1.146-1.657.246.246 0 00-.45.2c.224.693.489 1.345.817 1.963.17.318.36.62.562.913.205.297.424.581.659.85.38.436.796.832 1.231 1.197a13.194 13.194 0 002.118 1.446c2.625 1.446 5.58 2.003 8.141 1.721a.152.152 0 10-.02-.305zm-65.454-15.723a15.36 15.36 0 00-.567 1.596c-.102.354-.187.718-.26 1.095-.087.45-.157.912-.199 1.386-.04.457-.053.923-.046 1.396.014 1.086.12 2.2.293 3.32.252 1.63.66 3.25 1.2 4.812a.41.41 0 10.794-.207c-.313-1.735-.425-3.516-.426-5.266 0-.798.037-1.583.077-2.354.027-.529.068-1.047.095-1.556.036-.67.063-1.317.105-1.943.046-.685.068-1.33.157-1.948a.634.634 0 00-1.223-.331zM100.05 65.524l.517.969a.768.768 0 01-1.258.88l-1.502-1.679a1.038 1.038 0 01.277-1.458c.632-.514 1.245-1.017 1.884-1.488.987-.727 1.979-1.4 2.995-2.01a36.73 36.73 0 013.198-1.687 47.201 47.201 0 015.04-2.025c4.5-1.529 9.23-2.455 14.64-2.957a.418.418 0 01.123.827 68.65 68.65 0 00-11.188 3.32c-2.28.894-4.45 1.918-6.612 3.042-.914.475-1.823.975-2.747 1.47-.808.433-1.623.867-2.455 1.301-.955.497-1.928.977-2.912 1.495zm240.969-13.34c.35-1.06 1.055-1.892 2.014-2.513.63-.409 1.38-.705 2.207-.904a10.37 10.37 0 012.315-.274c1.084-.011 2.238.13 3.408.386a20.88 20.88 0 016.261 2.514c2.995 1.816 5.482 4.391 6.485 7.485a.204.204 0 01-.122.261.204.204 0 01-.26-.122c-.654-1.627-1.753-3.058-3.12-4.274.908 1.31 1.23 2.843.915 4.694-.623 3.654-4.634 6.115-8.962 6.329 2.13.249 4.226.045 5.962-.547a.204.204 0 01.149.38c-2.73 1.225-6.467 1.592-9.934.625a12.782 12.782 0 01-2.87-1.183 10.496 10.496 0 01-1.713-1.197 8.967 8.967 0 01-.921-.93 9.017 9.017 0 01-.868-1.191c-1.195-1.604-1.834-3.794-1.615-6.782.079-1.065.306-1.983.669-2.757zm9.44 5.289c-.455-2.349-.759-4.217-.686-5.829 1.199-.094 2.414.492 3.146 1.43-1.22 1.764-2.01 3.05-2.46 4.399zm-238.263-5.262a23.419 23.419 0 012.424-2.213c1.469-1.153 2.977-2.09 4.504-2.922 2.59-1.41 5.265-2.443 8.201-3.358a.462.462 0 01.322.865 47.853 47.853 0 00-7.563 4.086c-1.378.915-2.704 1.947-4.087 3.06-.52.42-1.056.839-1.599 1.276-.351.282-.713.558-1.074.853a.981.981 0 01-.64.26l-2.877-.2a.712.712 0 11-.033-1.424l2.422-.283zm15.406-1.838l.679 1.77a.925.925 0 01-1.637.854l-2.033-2.996a1.338 1.338 0 01.819-1.907c1.393-.515 2.714-1.032 4.022-1.481.924-.317 1.83-.605 2.725-.863a80.585 80.585 0 014.162-1.07 92.906 92.906 0 016.36-1.248c6.126-.984 11.705-1.246 17.994-.605a.504.504 0 01-.048 1.005c-3.694.037-7.092.392-10.497.982-2.83.49-5.637 1.173-8.611 1.975-1.829.494-3.71 1.043-5.696 1.612-.778.222-1.57.449-2.385.662a74.91 74.91 0 01-2.41.59c-1.114.252-2.26.48-3.444.72zm120.116-10l-.472 1.665a.704.704 0 01-1.387-.237l.19-3.017a1.023 1.023 0 011.358-.791c1.117.316 2.25.634 3.391 1.02.737.248 1.476.515 2.211.815 1.773.723 3.547 1.565 5.342 2.457 2.059 1.022 4.12 2.144 6.21 3.317 2.999 1.686 6.01 3.5 9.057 5.38a.384.384 0 01-.368.673 333.53 333.53 0 00-7.932-3.671 334.847 334.847 0 00-6.717-2.912 488.28 488.28 0 00-4.493-1.865c-.628-.259-1.252-.515-1.866-.779a90.1 90.1 0 01-1.848-.819c-.91-.414-1.796-.836-2.676-1.237zm37.663-11.14a6.786 6.786 0 00-1.142-1.042c-.594-.416-1.171-.692-1.769-.854a.491.491 0 01.159-.968c.75.046 1.505.225 2.31.578.655.287 1.31.714 2.016 1.29l.248.247.703 4.97 2.21.397.656.154.341.582c.406.669.802 1.338 1.147 2.03.35.7.658 1.414.932 2.141.55 1.462.963 2.958 1.282 4.483l.11.41-.154.396c-.537 1.082-1.11 2.058-1.781 2.92a13.436 13.436 0 01-2.396 2.419.688.688 0 11-.947-1.002c.641-.74 1.17-1.574 1.646-2.501a14.94 14.94 0 00.932-2.281c-.437-1.242-.973-2.436-1.543-3.627a77.678 77.678 0 00-.955-1.903c-.232-.452-.462-.908-.703-1.36l-2.344-.69-1.017-.24.06-6.55zm77.27 17.55c-2.839-1.978-5.583-3.502-8.227-4.438-2.172-.768-4.276-1.142-6.29-1.065a11.8 11.8 0 00-3.22.552 10.58 10.58 0 00-1.996.885c-.757.434-1.486.96-2.173 1.598a15.161 15.161 0 00-1.762 1.984.329.329 0 00.484.444 16.678 16.678 0 012.51-1.868c.444-.275.888-.519 1.336-.741.46-.228.922-.423 1.388-.598a12.833 12.833 0 012.32-.643 13.875 13.875 0 013.646-.142c3.615.322 7.559 1.882 11.765 4.375a.203.203 0 10.22-.343zm-227.103-5.466c.614-.507 1.24-.881 1.925-1.088a4.94 4.94 0 012.703-.065.245.245 0 01-.055.487 4.218 4.218 0 00-2.176.635c-.588.359-1.061.893-1.498 1.57a.884.884 0 01-.847.302c-.511-.046-.996.013-1.48.078-.323.043-.637.117-.956.187-.402.088-.808.171-1.212.303-.409.132-.82.264-1.232.45a.883.883 0 01-.889-1.527 9.986 9.986 0 011.621-.968 6.296 6.296 0 011.226-.43c.323-.075.652-.119.983-.13a6.946 6.946 0 011.887.196zm28.901-1.68l.403 2.133a.96.96 0 01-1.835.56l-1.586-3.688a1.4 1.4 0 011.25-1.805c1.602-.218 3.112-.475 4.576-.661 1.604-.204 3.13-.37 4.589-.502 2.506-.225 4.807-.35 6.937-.47 2.563-.147 4.878-.226 7.027-.217 5.941.026 10.57.74 15.387 3.247a.523.523 0 01-.432.952c-3.67-1.431-7.123-1.848-11.06-1.743-2.857.076-5.945.461-9.548.927-1.982.255-4.11.546-6.436.81-.872.098-1.77.195-2.7.267-.878.068-1.782.121-2.714.152-1.24.041-2.522.043-3.858.037zm41.668-3.583l.013 1.923a.96.96 0 01-1.906.224l-.815-3.543a1.355 1.355 0 011.419-1.513c1.635-.037 3.22-.074 4.784-.032a56.619 56.619 0 015.562.432c1.891.248 3.723.565 5.504.91a126.96 126.96 0 019.296 2.179c4.852 1.32 9.311 2.818 13.585 4.32a.523.523 0 01-.293 1.003c-4.825-1.134-9.883-2.184-15.389-3.068a224.89 224.89 0 00-6.954-.986c-2.244-.287-4.563-.51-6.96-.789a253.78 253.78 0 01-4.634-.589c-1.06-.143-2.125-.313-3.212-.471zm-52.448.253l1.684-1.01a.358.358 0 01.491.52l-1.414 2.081a.9.9 0 01-.652.245c-.715.105-1.363.287-2.046.445-.67.157-1.303.357-1.957.532-.516.137-1.03.273-1.547.403-.788.197-1.572.367-2.359.605-1.146.346-2.268.691-3.4 1.202a.782.782 0 01-.85-1.31c1.015-.904 2.034-1.694 3.159-2.366a13.998 13.998 0 012.424-1.15 8.98 8.98 0 012.644-.53c.54-.03 1.073-.04 1.62.002a15.97 15.97 0 012.203.331zm105.948 3.52c-1.513-1.055-2.912-2.122-4.324-3.124a73.028 73.028 0 00-2.949-2.002 32.528 32.528 0 00-1.988-1.182c-.473-.258-.947-.48-1.401-.694a9.732 9.732 0 00-3.646-.728c-.989-.01-1.995.085-3.063.17-1.305.102-2.678.218-4.238-.02a.774.774 0 00-.385 1.5c1.56.574 3 .807 4.38.948 1.427.147 2.741.19 4.01.471.545.12 1.077.292 1.605.56.71.304 1.444.672 2.23 1.022 1.09.486 2.245.976 3.469 1.476 1.893.774 3.882 1.494 5.977 2.233a.354.354 0 00.323-.63zm-82.888-7.92c-1.785-.327-3.466-.613-5.223-.733a23.964 23.964 0 00-2.464-.03c-.352.011-.702.036-1.05.077-.468.054-.93.13-1.389.223-.694.143-1.374.318-2.045.522-1.714.524-3.318 1.18-4.92 1.893a.781.781 0 00.447 1.497c1.662-.275 3.317-.41 5.03-.571.663-.063 1.323-.123 1.991-.2.439-.05.879-.103 1.317-.177.657-.11 1.306-.252 1.966-.386.442-.09.874-.186 1.316-.289 1.672-.39 3.28-.801 5.022-1.11a.357.357 0 10.002-.716zm11.686-2.528c1.266-.417 2.441-.79 3.617-1.033 1.356-.28 2.7-.429 4.117-.464 1.513-.037 3.1.056 4.902.3 2.044.279 4.308.765 7.076 1.415a.357.357 0 11-.087.709c-2.703-.036-4.915.029-6.891.128a76.4 76.4 0 00-2.883.205c-1.677.147-3.16.41-4.662.69-1.49.28-2.997.553-4.658.992a1.48 1.48 0 01-.784.014c-1.77-.576-3.01-.638-4.085-.425-1.584.313-2.82 1.046-4.525 1.444a.781.781 0 01-.478-1.487c.937-.39 1.685-.884 2.461-1.325.911-.517 1.841-.951 3.004-1.194 1.052-.22 2.289-.233 3.876.031zm23.908.933a2.868 2.868 0 01-.562.795c-.374.363-.777.616-1.247.733a.782.782 0 01-.527-1.471c.219-.104.363-.296.492-.54.12-.227.16-.518.195-.881.1-.529.59-.89 1.124-.831 1.633.048 3.173.105 4.66.233 1.615.138 3.148.307 4.616.544.744.12 1.467.271 2.174.431 1.109.25 2.168.531 3.215.802.815.21 1.602.425 2.393.635 1.911.51 3.725.992 5.626 1.33a.358.358 0 01-.036.713 53.102 53.102 0 01-7.035.054 67.635 67.635 0 01-4.623-.432 44.67 44.67 0 01-2.27-.354c-.736-.133-1.48-.298-2.243-.46a379.44 379.44 0 01-2.68-.582c-1.059-.233-2.14-.483-3.272-.719zm48.269-3.817a30.52 30.52 0 00.1-4.418 31.043 31.043 0 00-.582-4.846l-.186-.731.67-.349a12.114 12.114 0 012.284-.797c.744-.178 1.53-.304 2.376-.336L265.5 15l1.767 1.02c1.342-.123 2.478-.018 3.48.23a7.997 7.997 0 012.13.85c.435.254.826.561 1.207.873l.106.091c1.47 1.622 2.857 3.128 4.238 4.533a55.096 55.096 0 002.976 2.842.499.499 0 01-.609.79 55.187 55.187 0 01-4.196-3.175c-1.258-1.042-2.521-2.165-3.853-3.35-.326-.23-.675-.434-1.027-.644-.49-.293-.996-.586-1.586-.803a9.176 9.176 0 00-3.015-.563l-.252.01-1.74-1.13a9.873 9.873 0 00-1.786.406 8.87 8.87 0 00-1.176.487c.417 1.48.72 2.947.898 4.41.202 1.653.233 3.293.157 4.92.085.207.172.413.26.618l-.42-.152a32.4 32.4 0 00-2.467-.768z"/><path fill="#FD5486" d="M187.215 196.782c-9.266.487-18.884.306-28.702-.352a362.594 362.594 0 01-9.512-.764 422.251 422.251 0 01-9.478-1.016 702.07 702.07 0 01-7.566-.92c-3.776-.482-7.556-.996-11.332-1.604a286.069 286.069 0 01-11.28-2.042c-5.647-1.145-11.244-2.444-16.772-4.008a.81.81 0 00-.516 1.537c5.414 2.112 10.905 4.018 16.496 5.663a190.63 190.63 0 0011.273 2.946c3.8.87 7.615 1.638 11.444 2.257 2.565.416 5.137.762 7.708 1.04 3.236.349 6.47.585 9.692.748 3.255.165 6.493.247 9.712.238 9.963-.03 19.681-.804 28.989-2.084a.824.824 0 00-.156-1.64zm161.716-99.01c1.676 10.25-1.22 22.149-8.629 34.006-3.87 6.194-8.99 12.352-15.348 18.294-4.146 3.875-8.831 7.63-14.021 11.28a161.271 161.271 0 01-15.335 9.548c-7.463 4.086-15.71 7.887-24.805 11.25a222.37 222.37 0 01-26.238 7.906.81.81 0 00.323 1.588c9.65-1.662 18.64-3.788 26.974-6.38 9.469-2.945 18.088-6.436 25.853-10.36 5.835-2.949 11.196-6.134 16.05-9.53a111.258 111.258 0 0014.395-11.976c6.48-6.397 11.57-13.083 15.312-19.747 7.197-12.813 9.439-25.528 7.086-36.19a.824.824 0 00-1.617.31zM60.484 169.308c-3.09-2.6-5.92-5.364-8.6-8.217a112.853 112.853 0 01-5.161-5.918c-1.388-1.698-2.688-3.428-3.964-5.146a149.187 149.187 0 01-3.745-5.273c-2.074-3.065-3.96-6.123-5.517-9.28-1.655-3.354-3.028-6.703-3.945-10.153a.811.811 0 00-1.595.287c.32 3.36.976 6.714 2 10.079a54.127 54.127 0 002.438 6.452 55.44 55.44 0 003.207 6.115 48.128 48.128 0 002.579 3.809 58.025 58.025 0 003.674 4.402 64.548 64.548 0 004.037 4.046c4.094 3.744 8.682 7.095 13.631 10.134a.824.824 0 00.961-1.337zm265.562-65.188c-5.002 13.62-14.886 24.454-27.648 33.036-7.753 5.214-16.576 9.568-26.044 13.213-6.716 2.585-13.758 4.784-20.965 6.706a270.268 270.268 0 01-21.546 4.813 290.695 290.695 0 01-32.96 4.02c-11.808.754-23.113.786-33.28.071a.811.811 0 00-.154 1.614c10.219 1.232 21.626 1.845 33.572 1.602 10.922-.222 22.283-1.121 33.566-2.844 7.442-1.136 14.853-2.618 22.063-4.526 7.397-1.958 14.583-4.365 21.41-7.17 9.69-3.983 18.653-8.802 26.447-14.49 12.88-9.402 22.556-21.169 27.098-35.512a.824.824 0 00-1.559-.533zm41.305-17.556c3.96 4.351 5.958 11.167 6.139 19.266.096 4.292-.358 8.928-1.31 13.785-.644 3.282-1.547 6.65-2.633 10.087-1.021 3.23-2.202 6.518-3.616 9.818-2.003 4.674-4.413 9.372-7.335 13.979-2.766 4.359-5.907 8.648-9.575 12.733a.811.811 0 001.15 1.144c4.177-3.784 7.886-7.794 11.12-11.993a85.324 85.324 0 006.129-9.114 79.92 79.92 0 004.908-9.878 68.624 68.624 0 002.435-6.966 68.722 68.722 0 001.962-9.029c.473-3.178.71-6.27.702-9.232-.029-11.258-3.229-20.573-8.912-25.765a.824.824 0 00-1.164 1.165zM120.657 159.51a147.283 147.283 0 01-16.664-4.536 134.06 134.06 0 01-10.66-4.089 128.515 128.515 0 01-8.516-4.091 115.272 115.272 0 01-8.153-4.678c-4.575-2.89-8.737-6.021-12.389-9.547-3.859-3.727-7.204-7.769-9.89-12.27a.811.811 0 00-1.437.752 58.31 58.31 0 007.756 12.606 62.604 62.604 0 006.852 7.213 67.78 67.78 0 007.864 6.114 66.132 66.132 0 005.7 3.388 78.797 78.797 0 007.506 3.454 90.608 90.608 0 007.765 2.72c7.408 2.22 15.44 3.704 24.014 4.591a.824.824 0 00.252-1.627zm148.81-35.437c-17.59 7.369-36.384 11.508-55.144 13.473-12.767 1.337-25.516 1.619-37.89 1.147a333.137 333.137 0 01-15.15-.911c-7.799-.654-15.372-1.573-22.617-2.754-7.878-1.284-15.363-2.848-22.325-4.632-12.774-3.274-23.774-7.256-32.129-11.556a.812.812 0 00-.775 1.424c8.267 4.761 19.214 9.387 32.03 13.263 6.984 2.112 14.517 3.998 22.467 5.565a251.228 251.228 0 0022.905 3.443c5.05.517 10.199.889 15.416 1.069 12.605.434 25.605-.104 38.57-1.801 19.016-2.49 37.94-7.546 55.55-15.665a1.128 1.128 0 00-.907-2.065zm116.308-45.92c3.373 2.126 5.918 5.515 7.869 9.597 1.157 2.42 2.04 5.086 2.74 7.913.497 2 .86 4.078 1.175 6.199.308 2.068.57 4.17.709 6.302.208 3.19.218 6.404-.087 9.595-.314 3.273-.855 6.474-1.807 9.542a.81.81 0 001.503.608 45.602 45.602 0 003.546-9.599 47.42 47.42 0 001.155-6.785 46.05 46.05 0 00.177-6.914 38.197 38.197 0 00-.52-4.6 39.944 39.944 0 00-1.42-5.628c-.621-1.89-1.355-3.696-2.225-5.382-2.94-5.703-7.044-10.111-12.045-12.304a.823.823 0 00-.77 1.456zM44.623 65.668c-3.52 1.744-6.739 4.176-9.533 7.074a35.715 35.715 0 00-2.6 3.033 35.283 35.283 0 00-2.26 3.296 31.19 31.19 0 00-1.506 2.82 36.603 36.603 0 00-1.743 4.465 34.783 34.783 0 00-1.154 4.65c-.449 2.611-.546 5.039-.3 7.168a.57.57 0 00.585.55.569.569 0 00.55-.586c.105-2.004.616-4.217 1.399-6.571a44.227 44.227 0 011.648-4.167c.596-1.326 1.283-2.651 2.012-3.992.468-.862.957-1.725 1.46-2.59a69.137 69.137 0 011.941-3.172 57.574 57.574 0 012.14-3.052c2.29-3.042 4.894-5.815 7.947-7.933a.577.577 0 00-.586-.993zm17.165 3.116c-2.724 1.878-5.264 4.117-7.449 6.66a31.062 31.062 0 00-2.049 2.679 27.94 27.94 0 00-1.754 2.9 22.834 22.834 0 00-1.113 2.489 24.825 24.825 0 00-1.124 3.949c-.274 1.393-.432 2.758-.439 4.097-.01 2.158.31 4.185 1.015 6.052a.568.568 0 001.096-.293c-.324-1.967-.148-4.016.303-6.146.407-1.92 1.127-3.845 1.993-5.807a62.201 62.201 0 011.602-3.339 63.363 63.363 0 011.782-3.28 51.067 51.067 0 012.459-3.8c1.35-1.882 2.797-3.667 4.412-5.272a.576.576 0 10-.734-.889zm11.968-8.569c3.598-2.373 7.386-4.47 11.379-6.45a157.463 157.463 0 017.898-3.626c1.962-.841 3.975-1.651 6.023-2.485 1.979-.806 3.988-1.633 6.053-2.447a313.974 313.974 0 019.198-3.473c3.012-1.08 6.102-2.171 9.336-3.219a.568.568 0 00-.286-1.099c-3.357.665-6.586 1.347-9.716 2.114-2.197.538-4.331 1.11-6.416 1.72a116.844 116.844 0 00-6.34 2.036 81.489 81.489 0 00-4.146 1.605 90.571 90.571 0 00-5.058 2.317 89.495 89.495 0 00-4.918 2.609 98.37 98.37 0 00-13.692 9.471.577.577 0 00.685.927zm25.362-24.41a63.998 63.998 0 00-8.366 1.296c-.914.205-1.822.443-2.729.704-.905.26-1.803.538-2.681.854-.712.257-1.41.538-2.089.838a49.766 49.766 0 00-3.036 1.483 57.147 57.147 0 00-2.95 1.66 52.87 52.87 0 00-4.232 2.83.568.568 0 00.568.984c1.294-.558 2.861-1.113 4.641-1.73.993-.344 2.032-.691 3.123-1.059 1.011-.34 2.056-.673 3.117-1.043a70.557 70.557 0 002.054-.748c.846-.325 1.69-.674 2.537-1.017.85-.343 1.693-.688 2.536-1.035 2.685-1.103 5.276-2.15 7.724-2.885a.577.577 0 10-.217-1.132zm217.114-1.293a34.59 34.59 0 00-5.751-4.03 26.976 26.976 0 00-2.101-1.046 24.722 24.722 0 00-2.177-.866c-.587-.2-1.188-.372-1.798-.516a29.84 29.84 0 00-2.759-.5 36.781 36.781 0 00-2.784-.283 50.573 50.573 0 00-4.18-.063.568.568 0 10-.137 1.126c2.107.545 4.123 1.251 6.17 1.973.81.284 1.605.572 2.407.852.534.186 1.065.375 1.6.543.905.284 1.805.542 2.694.81 1.39.42 2.738.816 4.043 1.282 1.46.523 2.835 1.04 4.134 1.678a.576.576 0 10.639-.96zm-41.45-.64c-3.09-1.425-6.089-2.73-9.1-3.82a60.779 60.779 0 00-3.133-1.032 51.635 51.635 0 00-3.189-.864 38.987 38.987 0 00-2.594-.51 54.636 54.636 0 00-3.945-.478 59.955 59.955 0 00-3.969-.22c-2.05-.044-4.015.02-5.947.148a.569.569 0 00-.039 1.134c2.08.275 4.175.686 6.364 1.134 1.963.402 3.95.886 6.012 1.367 1.31.304 2.642.607 3.998.904.993.218 2 .412 3.019.62 1.494.306 3.004.616 4.543.948 2.488.536 5.007 1.081 7.59 1.754a.578.578 0 00.39-1.085z"/></g></svg>