<svg xmlns="http://www.w3.org/2000/svg" width="500" height="283"><g fill="none" fill-rule="evenodd"><path fill="#FD5486" d="M341.259 167.669c-3.977 12.921-9.077 26.614-14.627 39.87a336.63 336.63 0 01-23.334 9.684 1.006 1.006 0 00.641 1.906 339.313 339.313 0 0020.728-6.958c-11.702 27.227-24.993 51.954-33.873 63.414-.461.596-1.061 1.196-1.754 1.788a4.674 4.674 0 00-.198-.1l-4.122.153-3.437-10.648-2.833-.468-.021-18.73-2.939-4.189 2.228-19.765 1.988-16.875 6.262-15.128c1.031-.917 1.764-1.304 1.529-3.701.56-1.797 1.118-3.637 1.683-5.506 7.915-1.317 15.779-2.96 23.46-4.992 9.177-2.429 18.092-5.415 26.562-8.896.689-.283 1.375-.57 2.057-.859zM67.783 87.249l16.686-3.907 22.995 17.907 17.088 7.863 3.739.889 14.512 7.45-.074.203c6.23 2.61 12.763 4.474 19.526 5.772 8.894 4.009 19.032 5.79 29.802 6.44 2.582.665 5.341 1.001 8.285.994.819.165 1.378.244 2.293.368 9.817 1.393 20.166 2.446 30.747 2.55 7.677 2.431 18.965 1.494 33.448-2.421l2.129 1.374c1.069.356 3.055.574 6.341-1.717 4.88.063 10.287-2.122 15.872-5.062 6.218-1.007 11.753-3.797 16.9-7.599l.324.395 15.095-9.949 17.044-10.782.333.179c1.556-1.8 3.193-3.661 4.72-5.582 13.498.895 25.129.207 35.684-2.505 6.671 3.191 21.41 4.187 39.989 1.902l.053.652-30.444 11.207-7.745.478c-5.048.941-10.313 1.399-15.674 1.642-3.729 1.307-7.432 2.665-10.912 4.451l.223 1.863c-2.247-4.307-6.189-7.952-10.263-10.607-4.484 7.959 1.738 8.075 2.788 17.13 1.204 10.383-1.301 25.261-5.973 41.87a204.741 204.741 0 01-6.228 2.514c-8.332 3.207-17.069 5.935-26.011 8.32a335.494 335.494 0 01-20.008 4.685c3.01-9.754 6.463-19.902 11.525-28.625a62.549 62.549 0 002.617-2.401c10.267-1.904 20.335-4.302 30.061-7.235a1.4 1.4 0 00-.76-2.693c-8.183 2.151-16.594 3.885-25.15 5.267 3.432-4.61 4.29-8.648 2.748-12.153l-.1-.218-.089-.185-.092-.18-.092-.171-.098-.174-.102-.171-.103-.167-.092-.143-.109-.164-.118-.169-.12-.167-.116-.154-.113-.147-.132-.164-.138-.166-.14-.163-.118-.133-.144-.158-.154-.163-.159-.163-.205-.203-.164-.157-.172-.16-.218-.197-.181-.157-.22-.186-.195-.159-.195-.156-.199-.154-.237-.179-.216-.158-.213-.152-.216-.15-.109-.075-.154.423-.253.173-.287.193-.361.236-.362.23-.363.223-.386.231-.165.097-.252.145-.368.207-.368.201-.369.196-.369.191-.37.186-.371.181-.371.176-.372.173-.372.167-.372.164-.373.16-.373.156-.374.152-.498.197-.125.049c-5.277 2.044-10.613 3.132-15.537 5.314-5.253 2.329-10.452 1.879-16.57 4.083l-32.982 4.078-2.626-2.599c-11.393.616-22.441.875-33.316-1.446-12.286 1.308-23.312 1.16-31.367-2.418l-22.055-2.8c-1.728-1.561-3.83-2.138-6.133-2.184a17.31 17.31 0 00-.323-.003l-.219.002-.22.004-.226.008-.214.01-.227.013-.292.021-.148.012-.188.016-.149.015-.189.019-.151.017-.189.022-.152.019-.19.025-.153.02-.191.028-.153.022c-1.242-.652-2.652-.76-4.127-.654l-5.115 2.043-.005-.184-.564-.185a172.89 172.89 0 003.163-2.044l7.026-5.893c-27.44-20.205-36.987 4.876-58.025 16.222-3.51-2.735-6.817-5.554-9.884-8.496a1.006 1.006 0 00-1.473 1.37 130.257 130.257 0 007.959 8.784 45.06 45.06 0 01-.6.256c-10.109 4.232-18.2 8.204-26.577 10.493-3.64-5.048-7.069-9.93-10.06-14.738a1.007 1.007 0 00-1.786.925c1.518 3.659 3.165 7.402 5.043 11.221.61 1.24 1.24 2.48 1.89 3.721-10.77 1.989-22.69.884-40.325-6.137l4.05 8.563-4.328-9.151c3.294-5.065 5.42-10.635 6.513-16.65l9.377-8.613 5.663.079c.508-.115.95-.478 1.332-1.067 3.55-.258 6.254-2.489 8.27-6.327 6.088-.444 12.043.445 17.886 2.438l.753-3.578c2.914-2.401 7.723-.532 13.474 1.894.774-.078.911-.188 1.164-.863 10.646.346 21.493.024 32.62-1.236 1.879-1.151 3.32-2.791 4.304-4.946-8.944-5.02-22.297-9.335-37.571-13.341a88.82 88.82 0 01.806-1.927c.669-1.554 1.392-2.978 2.079-4.348zm-4.9 1.148a41.146 41.146 0 00-1.168 4.304 668.834 668.834 0 00-8.36-2.073l9.529-2.231zm33.026-36.69c6.782 2.498 16.616 4.669 17.981 9.731l10.247-6.326c.149.104.224.157.217.156-.126-.03-35.888 22.147-41.588 25.683l-.037-.031 23.355-14.665-7.62 4.329c-1.92-2.251-5.448-4.116-9.742-5.797-1.834 1.383-3.91 2.015-6.362 1.477l-.106-1.954-4.394-.775-.696-2.787-2.283-1.031 1.765-7.8 5.966-1.83 2.381-2.635 4.856-1.518-.336.105c-.617 2.063 1.324 3.545 4.348 4.856a71.328 71.328 0 00-3.33 4.174.716.716 0 001.105.907 65.126 65.126 0 014.273-4.269zm229.057-36.964a34.804 34.804 0 00-.054-6.786c11.76-5.68 35.722 21.855 31.774 37.704l-6.749-.125-25.94-13.427-.227-.852.126.008 4.065 2.252.165-8.015.771-2.764-1.542-3.107c.56.159 1.121.325 1.686.5 3.692 1.14 7.442 2.571 11.254 4.559a.715.715 0 00.767-1.207c-3.558-2.711-7.104-4.937-10.739-6.653a42.103 42.103 0 00-3.948-1.615 42.339 42.339 0 00-1.409-.472zm-.264-8.485l.014.101-.015-.109.001.008zm-.078-.513l.007.048-.016-.102.009.054zm-.028-.172l.006.035-.017-.107.011.072zm-.028-.171l.004.02-.021-.12.017.1zm-.089-.517l.021.12-.024-.137.003.017zm-.031-.172l.015.083-.021-.116.006.033zm-.032-.173l.012.064-.021-.112.009.048zm-.033-.173l.009.048-.021-.113.012.065zm-.033-.173l.006.032-.024-.119.018.087zm-.035-.174l.004.019-.03-.149.026.13zm-.107-.521l.024.111-.029-.135.005.024zm-.037-.174l.017.08-.025-.119.008.039zm-.038-.175l.013.061-.025-.116.012.055zm-.038-.174l.009.044-.026-.118.017.074zm-.04-.175l.007.029-.03-.128.023.099z"/><path fill="#FF99B7" d="M398.594 63.699c8.835-3.702 16.378-7.93 16.378-7.93 4.841 17.203 32.331 18.706 39.067-1.562 7.422-.456 13.997.601 19.392 4.333l-.066.344-6.121.191c.907 6.413-33.532 32.914-41.628 32.373-.685.04-1.116.084-1.75.276l-2.552.939-.053-.652c-18.579 2.285-33.318 1.289-39.989-1.902-10.555 2.712-22.186 3.4-35.684 2.505-1.527 1.921-3.164 3.782-4.72 5.582l-.333-.179-17.044 10.782-15.095 9.949-.324-.395c-5.147 3.802-10.682 6.592-16.9 7.599-5.585 2.94-10.992 5.125-15.872 5.062-3.286 2.291-5.272 2.073-6.341 1.717l-2.129-1.374c-14.483 3.915-25.771 4.852-33.448 2.421-10.581-.104-20.93-1.157-30.747-2.55a32.263 32.263 0 01-2.293-.368c-2.944.007-5.703-.329-8.285-.994-10.77-.65-20.908-2.431-29.802-6.44-6.763-1.298-13.296-3.162-19.526-5.772l.074-.203-14.512-7.45-3.739-.889-13.691-6.3s-6.842-4.587-13.664-9.559l-10.238-7.972c-.854-.75-1.578-1.433-2.13-2.024l.535-.125-2.063-1.732c1.094-1.931 44.648-15.778 44.387-13.233l.453-3.868c11.576-5.772 23.216-10.227 34.99-11.918l-.401-5.144c16.2-4.717 31.234-7.333 45.115-7.87l-1.221-4.891c17.398-2.193 34.888-2.837 52.654 1.106l-.827-5.375c5.369.282 10.647.828 16.112 1.372-2.224 5.224.21 13.348 4.106 21.221-.918.082-1.835.168-2.752.255-1.893.181-3.782.37-5.67.563-4.603.47-9.189.962-13.771 1.415-.208-.136-1.65-1.071-3.286-2.097a475.414 475.414 0 00-5.02-3.096.162.162 0 00-.181.27s2.538 1.88 4.762 3.479a272.09 272.09 0 002.879 2.041 114.665 114.665 0 00-1.73 4.492 379.483 379.483 0 00-1.323 3.67c-.734 2.061-1.294 3.682-1.294 3.682a.157.157 0 10.292.116s.705-1.563 1.587-3.565c.494-1.123 1.045-2.38 1.558-3.577.366-.856.715-1.678 1.009-2.396.466-1.145.803-2.02.914-2.312 1.713-.069 6.095-.25 11.354-.515 1.555-.078 3.185-.167 4.846-.269 1.068-.066 2.148-.137 3.228-.22 1.079-.082 2.158-.176 3.224-.271a408.37 408.37 0 004.831-.461l.27-.028c5.384 13.142 13.26 24.967 19.535 27.011l2.808-.493c.672 1.819 4.329 9.316 14.237 15.373-.426.195-.845.405-1.256.626-4.192 2.256-7.676 5.74-12.268 7.535a.235.235 0 10.159.444c4.69-1.531 8.373-4.807 12.689-6.822a18.175 18.175 0 013.262-1.179.758.758 0 00.16-.066l24.351-7.158c2.66-3.958 4.452-8.153 3.872-12.582 1.019-.299 2.091-.282 3.356.882.763-.73 1.799-1.497 2.944-2.224.775.23 1.662.564 2.317 1.534 1.308-.315 4.254-1.637 6.025-2.885l1.816-2.805s5.511-2.693 7.332-4.555c1.738.237 3.302 1.015 4.658 2.446 4.647-.409 10.436-2.249 15.941-4.436a58.737 58.737 0 004.376 8.033 58.513 58.513 0 004.028 5.445 64.964 64.964 0 001.78 2.077 48.152 48.152 0 00-.392 2.134c-.257 1.622-.461 3.505-.461 3.505a.155.155 0 00.304.057s.498-1.826.851-3.431c.201-.912.35-1.75.413-2.116.367-.126.731-.261 1.099-.391 1.018-.358 2.039-.684 3.023-1.149.347-.164.686-.347 1.015-.548.736-.447 1.43-.961 2.122-1.49 1.572-1.2 3.051-2.535 4.508-3.973a.148.148 0 00.018-.209.15.15 0 00-.209-.018 57.302 57.302 0 01-3.548 2.313c-.99.598-1.991 1.138-2.991 1.679-.429.233-.865.451-1.281.701-1.132.681-2.178 1.454-3.339 2.055-.213.11-.431.212-.649.312a40.451 40.451 0 01-1.582-2.034c-1.273-1.768-2.408-3.659-3.443-5.656-1.325-2.558-2.438-5.294-3.382-8.219zM284.17 132.334l-.155.065.155-.065zm.156-.065l-.151.063.151-.063zm.194-.08l-.155.064.155-.064zm4.986-1.765l-.31.098.31-.098zm.693-.218l-.278.087.278-.087zm1.05-.323l-.186.057.186-.057zm.866-.265l-.65.198.753-.23-.103.032zm.74-.226l-.151.046.321-.099-.17.053zm.832-.257l-.293.091-.292.09.585-.181zm.28-.087l-.083.026.138-.043-.055.017zm.372-.116l-.03.009.111-.035-.081.026zm.372-.118l-.078.024.128-.04-.05.016zm.829-.267l-.486.157.243-.078.243-.079zm.528-.174l.212-.071-.212.071-.028.009-.052.017-.074.025-.073.024-.049.016-.03.01-.213.07.213-.07.079-.026.147-.049.08-.026zm.743-.252l.209-.072-.209.072-.028.01-.051.018-.075.025-.074.026-.048.016-.029.01-.211.071.211-.071.077-.026.149-.051.079-.028zm.32-.11l-.089.031.235-.083-.146.052zm.629-.224l-.482.172.248-.088.234-.084zm.116-.042l-.087.032.223-.081-.136.049zm.623-.23c-.158.06-.316.118-.474.176l.244-.09.23-.086zm.121-.046l-.083.032.209-.079-.126.047zm.391-.149l-.12.046-.12.046.24-.092zm.609-.241l-.239.096-.24.094.479-.19zm.367-.149l-.166.068-.167.068.333-.136zm.372-.155l-.165.069-.165.068.33-.137zm.371-.159l-.163.07-.163.07.326-.14zm.372-.163l-.163.072-.162.071.325-.143zm.371-.167l-.162.073c-.053.024-.107.049-.161.072l.323-.145zm.372-.172l-.162.075-.161.074.323-.149zm.371-.176l-.161.077-.161.076.322-.153zm.37-.181l-.16.079-.161.078.321-.157zm.37-.185l-.16.081-.161.08.321-.161zm.37-.191a12.2 12.2 0 01-.322.166l.322-.166zm.369-.196l-.161.086-.161.085.322-.171zm.368-.2l-.16.088-.161.087.321-.175zm.368-.207l-.161.091-.161.09.322-.181zm.099-.056l-.046.026.224-.129-.178.103zm1.831-1.131l.271-.182-.271.182-.016.011-.015.009-.332.218-.014.009-.016.01c-.11.071-.221.141-.332.21l-.014.01-.016.009c-.111.07-.222.138-.334.206l-.013.008-.013.008c-.124.075-.248.15-.372.223l-.002.001-.159.093-.005.003.166-.097.372-.223.026-.016.334-.206.03-.019.332-.21.03-.019.332-.218.031-.02zm.434-.293l-.163.111.253-.173-.09.062zm-61.447-5.486c-1.097.534-3.199.932-5.76 1.261-1.235.158-2.572.293-3.957.419-.976.089-1.975.168-2.974.252-.998.085-1.995.176-2.975.249a76.685 76.685 0 01-4.47.222c-1.749.024-3.284-.034-4.443-.246a.236.236 0 10-.111.458c1.786.527 4.516.839 7.56.908.989.022 2.009.016 3.039-.022a41.474 41.474 0 004.035-.336 51.731 51.731 0 003.001-.474c3.291-.629 6.02-1.469 7.292-2.265a.244.244 0 00-.237-.426zm-60.644-2.487a7.543 7.543 0 01-1.617.508c-.714.138-1.41.171-1.995.093a.236.236 0 01.042-.47c.539.026 1.168-.061 1.807-.239a7.004 7.004 0 001.673-.71l.278-.152.205.24c.348.377.963.672 1.73.916 1.316.418 3.078.622 4.88.572a16.198 16.198 0 003.461-.459c1.163-.292 2.218-.721 2.996-1.368l.421-.346.458.297c1.605 1.085 3.404 1.988 5.718 2.828 2.451.889 5.46 1.717 9.453 2.493a.244.244 0 11-.074.481c-4.105-.479-7.229-1.045-9.766-1.803-2.275-.681-4.074-1.513-5.694-2.474-.693.474-1.518.849-2.426 1.112-1.399.404-2.991.559-4.547.518-1.619-.043-3.196-.298-4.476-.702-1.109-.35-1.998-.813-2.527-1.335zm90.115-1.609a51.95 51.95 0 01-3.999 1.877c-2.384.985-4.611 1.66-6.675 2.036-2.902.529-5.479.464-7.729-.177a.235.235 0 01-.172-.286.235.235 0 01.286-.171c2.195.469 4.661.346 7.41-.326 1.971-.482 4.079-1.257 6.342-2.305a57.568 57.568 0 004.027-2.058l.19-.103.216.015c.899.063 1.779.107 2.639.15 1.369.068 2.688.114 3.956.131 2.377.031 4.57-.04 6.573-.242 3.377-.341 6.203-1.03 8.412-2.175a.244.244 0 01.239.425c-2.196 1.331-5.052 2.271-8.511 2.821-2.034.324-4.275.514-6.707.569a65.917 65.917 0 01-6.497-.181zm-122.357-3.656c1.342.477 2.796.92 4.305 1.356 1.017.293 2.058.574 3.107.855.691.185 1.383.372 2.075.554 1.048.277 2.092.546 3.124.79.889.211 1.765.407 2.622.584 2.27.469 4.389.801 6.198.882a.243.243 0 11.002.487c-1.962.107-4.314 0-6.831-.323a56.637 56.637 0 01-4.492-.77 46.613 46.613 0 01-2.218-.525 43.672 43.672 0 01-2.187-.635 60.992 60.992 0 01-6.376-2.462l-.317-.13.015-.342c.07-.768.181-1.628.369-2.53.168-.8.392-1.629.697-2.456a.235.235 0 11.45.14 17.17 17.17 0 00-.426 2.429 21.718 21.718 0 00-.117 2.096zm102.681 3.11c-.111-.954-.154-1.902-.227-2.891-.028-.38-.063-.759-.101-1.144a17.945 17.945 0 00-.087-.758c-.035-.251-.08-.501-.127-.753a48.024 48.024 0 00-.23-1.128c-.202-.942-.422-1.869-.605-2.845a.236.236 0 10-.471.026c-.078 1.004-.15 1.968-.158 2.945-.003.397.007.788.032 1.18.016.263.039.524.074.782a15.899 15.899 0 00.423 1.922c.285.971.638 1.875 1.005 2.784a.244.244 0 00.472-.12zm-55.736-2.86c.277-.851.561-1.763.784-2.807a15.816 15.816 0 00.279-1.911c.017-.252.023-.509.021-.77a17.598 17.598 0 00-.043-1.156c-.063-.924-.182-1.865-.305-2.88a.236.236 0 00-.472-.006c-.148 1.002-.32 1.926-.461 2.832-.06.385-.114.757-.159 1.126-.031.254-.059.504-.076.75-.019.255-.026.506-.033.753-.01.389-.016.764-.014 1.131.004 1.044.037 1.976-.001 2.851a.244.244 0 00.48.087zm189.819-26.622s-.492-.005-1.221.112a5.152 5.152 0 00-.772.178 4.161 4.161 0 00-.542.225c-.182.089-.349.191-.516.292-.85.519-1.503.987-1.503.987a.129.129 0 10.096.239s.795-.111 1.769-.322c.19-.041.382-.083.574-.144.188-.059.375-.126.549-.21.253-.123.477-.263.682-.404.607-.418.96-.761.96-.761a.103.103 0 00-.076-.192zm4.177.294c.928-.24 1.837-.45 2.749-.726.604-.183 1.198-.38 1.786-.606.439-.168.87-.359 1.296-.556.429-.198.847-.412 1.265-.629 1.264-.655 2.488-1.344 3.729-2.026a.129.129 0 00-.105-.236c-1.336.462-2.67.894-4.012 1.364-.443.156-.885.311-1.323.483-.436.171-.87.348-1.296.545-.569.263-1.125.547-1.679.845-.837.452-1.63.939-2.463 1.41a.071.071 0 00.053.132zm-6.318-11.449c.164 1.165.321 2.3.628 3.413.205.748.471 1.477.782 2.18.316.71.697 1.383 1.096 2.044.6.994 1.272 1.924 1.995 2.834a.148.148 0 10.247-.164 34.918 34.918 0 01-1-2.038c-.439-.956-.815-1.931-1.2-2.917a47.132 47.132 0 00-.503-1.248c-.294-.69-.6-1.373-.9-2.069-.303-.7-.621-1.379-.908-2.097a.122.122 0 00-.237.062zM211.673 55.329l-4.755-3.516a.157.157 0 01.178-.259l5.243 3.333.236.162-.093.27s-.553 1.836-1.368 4.318a156.378 156.378 0 01-1.742 4.988 313.033 313.033 0 01-1.188 3.182c-1.125 2.969-2.035 5.286-2.035 5.286a.162.162 0 01-.307-.105s.706-2.387 1.643-5.421c.318-1.029.664-2.132 1.019-3.24.232-.722.466-1.447.703-2.153.338-1.003.673-1.971.989-2.852a205.26 205.26 0 011.477-3.993zm-45.978 7.106s-.533.634-1.17 1.503c-.144.197-.287.406-.43.624a8.326 8.326 0 00-.266.428 8.26 8.26 0 00-.236.445c-.116.234-.221.464-.319.687-.431.987-.723 1.763-.723 1.763a.157.157 0 10.272.157s.527-.64 1.167-1.506c.145-.196.292-.403.436-.62a7.444 7.444 0 00.506-.87c.118-.233.228-.461.326-.684.435-.986.719-1.765.719-1.765a.163.163 0 10-.282-.162zm24.088-7.791c-2.205.322-4.391.683-6.556 1.14-.87.184-1.734.386-2.595.602-.575.144-1.148.295-1.717.458a52.04 52.04 0 00-1.699.519c-.847.272-1.686.561-2.521.866a95.602 95.602 0 00-6.161 2.517.157.157 0 00.117.292 120.18 120.18 0 014.193-1.384 166.54 166.54 0 014.226-1.252c.677-.192 1.356-.379 2.034-.573 1.016-.29 2.031-.584 3.05-.868 1.018-.285 2.037-.567 3.061-.839a144.77 144.77 0 014.627-1.159.162.162 0 00-.059-.319zm48.587-5.309s-3.284.534-7.46 1.285a232.327 232.327 0 00-4.954.953c-.661.138-1.32.283-1.971.429-1.013.228-2.005.459-2.95.683a653.726 653.726 0 00-7.355 1.792.158.158 0 00-.122.186.158.158 0 00.186.122s3.283-.543 7.46-1.291a251.19 251.19 0 002.976-.55c.656-.125 1.319-.255 1.98-.392s1.32-.282 1.972-.427c1.012-.226 2.005-.452 2.95-.676 4.129-.976 7.355-1.796 7.355-1.796a.162.162 0 00-.067-.318z"/><path fill="#423757" d="M297.273 276.31c.298-.669 1.037-2.294 1.993-4.207 2.198-4.396 5.46-10.324 5.46-10.324.083-.152.182-.295.295-.426 2.531-2.92 5.073-6.3 7.494-9.851 1.219-1.786 2.381-3.629 3.539-5.458a185.25 185.25 0 011.516-2.344c.872-1.333 1.728-2.616 2.549-3.927.867-1.383 1.701-2.682 2.447-4.048a.754.754 0 111.42.509 52.646 52.646 0 01-1.299 5.334 41.703 41.703 0 01-1.207 3.457 41.399 41.399 0 01-1.626 3.557c-1.188 2.31-2.586 4.53-4.015 6.68-2.191 3.3-4.571 6.372-6.897 9.107-.607 1.116-3.389 6.21-5.612 9.953-1.436 2.418-2.658 4.25-2.658 4.25a2.016 2.016 0 01-.786.795l-6.896 2.838a1.128 1.128 0 01-1.297-.138l-1.782-2.085a.743.743 0 01.982-1.114l1.51.992 4.87-3.55zm-20.412-28.601l-2.469-2.916a1.665 1.665 0 01-.365-.936c-.171-2.093-.305-4.07-.266-5.942.029-1.387.163-2.71.308-3.977.424-3.721 1.169-6.945 2.185-9.764l.037-.102c.145-.358.278-.748.365-1.175.634-3.1-.141-7.594.412-12.65.222-2.024.718-4.11 1.391-6.216 1.327-4.155 3.549-8.36 7.272-12.22a1.746 1.746 0 012.591 2.337c-3.036 3.599-4.65 7.433-5.658 11.127-.524 1.92-.813 3.816-1.141 5.618-.786 4.326-1.402 8.183-2.07 11.137-.25 1.106-.501 2.095-.875 2.926-.596 2.197-.993 4.63-1.192 7.344-.13 1.766-.109 3.643-.107 5.652.001 1.644-.022 3.374.053 5.199l2.446 3.189c.318.394.424.92.284 1.406-.739 2.478-.998 4.85-.948 7.209.07 3.248.655 6.456 1 9.871l1.569-.013c.793.011 1.485.542 1.701 1.306 0 0 .678 2.044 1.31 4.4.477 1.775.934 3.72 1.238 5.057l3.371-1.176a1.285 1.285 0 01.978 2.376l-4.904 2.34a1.581 1.581 0 01-2.125-1.034s-1.228-3.483-2.137-6.553a87.024 87.024 0 01-.872-3.18l-1.73-.063a1.723 1.723 0 01-1.697-1.636c-.122-4.083-.622-7.853-.661-11.648-.025-2.39.11-4.792.706-7.293zm61.818-41.188a523.388 523.388 0 00-1.929 7.543c-1.128 4.545-2.163 8.875-3.303 12.57-.395 1.28-.799 2.48-1.256 3.579-.878 2.106-1.829 3.822-2.762 5.185a1.427 1.427 0 01-2.17.453l-2.791-3.156a.743.743 0 11.938-1.151l1.927 1.103c.302-1.165.55-2.498.87-3.97.254-1.165.551-2.399.858-3.705.78-3.315 1.639-7.057 2.603-10.98.408-1.663.84-3.357 1.302-5.063a270.115 270.115 0 005.713-2.408zm-4.244-2.677l.275-.879c.285-.898.574-1.794.905-2.673.335-.89.688-1.762 1.087-2.618a43.866 43.866 0 011.998-3.784c.751-1.27 1.532-2.418 2.358-3.589a.755.755 0 011.369.635c-.58 2.115-.972 4.243-1.441 6.484-.18.86-.359 1.707-.564 2.57-.078.326-.159.65-.244.976-1.886.969-3.8 1.929-5.743 2.878zm17.558-41.15c.106.755.23 1.459.326 2.248.106.879.22 1.703.274 2.596.048.819.056 1.629.046 2.452-.024 1.901-.118 3.799-.145 5.673-.035 2.487-.001 4.925.074 7.249.054 1.665.08 3.267.217 4.79a2.17 2.17 0 01-2.465 2.452s-2.029-.643-3.807-1.325c-1.396-.534-2.513-1.054-2.513-1.054a.743.743 0 01.217-1.469s1.22-.173 2.711-.28c.366-.027.741-.05 1.108-.067l-.029-.192a42.703 42.703 0 01-.37-3.84 73.69 73.69 0 01.102-9.561c.079-1.055.164-2.113.334-3.16.114-.705.25-1.393.438-2.081.243-.889.526-1.7.855-2.552.097-.249.194-.488.293-.722a174.69 174.69 0 002.334-1.157zm-60.398 19.309c-.647 2.587-1.305 4.773-2.345 6.412a.94.94 0 11-1.695-.815c.479-1.41.59-3.09.6-5.016 1.148-.187 2.295-.38 3.44-.581zm15.898-37.245a40.508 40.508 0 01-3.991 3.331c-.221.491-.83 1.856-1.513 3.526-1.516 3.705-3.429 8.836-3.429 8.836l-.151.256c-1.584 2.665-2.56 5.265-3.314 7.735-.417 1.365-.692 2.698-1.011 3.971-.147.586-.324 1.149-.487 1.708-.165.566-.32 1.123-.466 1.671-1.663.347-3.329.681-4.997 1.002.01-.496.026-1.001.051-1.517.054-1.104.107-2.238.325-3.402.138-.738.375-1.471.615-2.217.62-1.929 1.404-3.919 2.507-5.908.973-1.758 2.165-3.498 3.617-5.248l-.151.256s2.878-4.66 4.874-8.13c1.133-1.97 1.956-3.549 1.956-3.549l.275-.334a42.599 42.599 0 001.592-1.296c1.236-.224 2.468-.454 3.698-.691zM46.074 160.267c-2.019.778-3.921 1.551-5.733 2.249-2.273.877-4.398 1.638-6.413 2.162-1.613.419-3.158.701-4.643.74-2.26.059-4.4-.351-6.373-1.431-1.674-.917-3.214-2.313-4.674-4.292a.827.827 0 011.245-1.089c1.52 1.471 3.037 2.391 4.562 2.998.661.263 1.324.448 1.997.585 1.02.208 2.063.257 3.147.221a25.177 25.177 0 004.103-.5c1.962-.393 4.052-.963 6.303-1.612 1.76-.507 3.61-1.054 5.565-1.592.3.521.605 1.042.914 1.561zm36.035-12.005c.9.764 1.814 1.522 2.744 2.272-6.348 2.019-13.24 4.028-20.69 6.04-1.34.888-2.727 1.978-4.155 3.241a74.608 74.608 0 00-4.29 4.145c-.217-.313-.434-.627-.652-.939-.206-.297-.413-.592-.62-.886.39-.732.757-1.45 1.088-2.147.569-1.199 1.03-2.332 1.295-3.368a.483.483 0 01.942.216c-.226 1.107-.65 2.326-1.187 3.619l-.205.481a66.798 66.798 0 012.394-2.453c1.494-1.452 2.954-2.703 4.367-3.723l.295-.141a460.032 460.032 0 0018.674-6.357zm275.189 11.627c.022.535.018 1.059.055 1.589a1.537 1.537 0 01-2.128 1.717l-1.697-1.287a158.874 158.874 0 003.77-2.019zM50.93 157.262a81.727 81.727 0 014.853-.924.34.34 0 11.14.666 75.648 75.648 0 00-4.266 1.26l-.155-.215-.572-.787zM7.338 127.729l.056-.602a1.673 1.673 0 01.81-1.273c1.544-.846 2.91-1.832 4.199-2.878 1.384-1.123 2.683-2.298 3.966-3.5a1.214 1.214 0 011.057-.356l4.88 1.049a.925.925 0 11-.284 1.827l-4.28-.417c-1.323 1.516-2.665 3.016-4.189 4.394-.9.814-1.869 1.571-2.912 2.28l-.06.559c-.049.496-.317.943-.731 1.22l-.991.628a40.4 40.4 0 00-.767 2.581 35.07 35.07 0 00-.693 3.241 1.327 1.327 0 01-.096.363c-.697 1.487-1.41 2.879-2.075 4.212-.486.975-.947 1.915-1.401 2.808-.41.804-.803 1.575-1.2 2.303a52.267 52.267 0 011.635 2.553 41.656 41.656 0 011.796 3.329c.115.264.151.557.103.841l-.023.181.67.414c1.361.002 2.667.073 3.982.252 1.566.214 3.137.562 4.89.851 1.462.242 3.03.487 4.827.628a1.056 1.056 0 01-.02 2.109 50.178 50.178 0 01-5.818.008c-1.808-.1-3.448-.236-5.083-.377-1.065-.092-2.123-.219-3.236-.239-.32 0-.632-.095-.897-.273l-1.819-1.312a1.535 1.535 0 01-.66-1.532l.172-.823a38.349 38.349 0 00-1.247-2.761 49.978 49.978 0 00-1.706-3.127 1.207 1.207 0 01-.02-1.278c.87-1.396 1.791-2.96 2.629-4.736.7-1.484 1.324-3.116 1.98-4.838.085-1.162.23-2.296.418-3.415.2-1.186.46-2.346.752-3.493.108-.362.339-.674.652-.884l.734-.517zm345.759 28.487a51.968 51.968 0 01-.221-5.242c.006-1.325.046-2.665.18-4.007.089-.885.186-1.768.381-2.642.168-.747.39-1.433.646-2.158.262-.745.546-1.385.848-2.116a.604.604 0 011.199.138c.127.769.277 1.443.39 2.213.109.741.205 1.435.27 2.178.036.416.057.823.064 1.239.014.96-.017 1.914-.026 2.865a110.6 110.6 0 00.079 5.58 162.004 162.004 0 01-3.81 1.952zm-238.259-22.123c2.04.581 4.16 1.164 6.353 1.745-3.105 1.709-6.561 3.358-10.318 5.031-5.857 2.609-12.523 5.167-20.027 7.702a205.404 205.404 0 01-3.464-2.282c8.21-3.141 15.419-6.244 21.705-9.273a156.11 156.11 0 005.751-2.923zm50.772 1.954c-.694.054-1.536.092-2.489.083-2.249-.023-5.128-.268-8.091-.681-4.142-.577-8.414-1.531-11.386-2.912a1.472 1.472 0 01-.686-.566c-.372-.653-.826-1.026-1.399-1.203-1.889-.585-4.33-.085-6.745-.986a.905.905 0 01.535-1.73c2.509.62 4.885-.173 6.835.192 1.078.202 2.027.7 2.871 1.668 2.261.715 5.183 1.081 8.156 1.291 2.758.194 5.546.198 7.91.157 1.17-.02 2.231-.068 3.128-.096.81-.025 1.477-.024 1.949-.069a2.385 2.385 0 012.16.895c2.032 2.92 5.729 3.849 10.085 4.077 1.836.096 3.781.104 5.773-.06 4.542-.373 9.298-1.331 13.789-1.634a1.86 1.86 0 011.04.274c1.861 1.068 3.898 1.53 6.053 1.818.926.124 1.872.237 2.846.3 5.018.319 10.651-.195 16.625-.136 2.394.023 4.839.108 7.322.441.286.033.55.17.741.386l1.639 1.909c8.366-1.297 15.319-1.026 22.548-2.039 3.078-.431 6.207-1.102 9.522-2.235a.868.868 0 01.572 1.638c-3.415 1.217-6.643 1.948-9.822 2.441-7.373 1.144-14.474.958-23.074 2.506a1.121 1.121 0 01-1.03-.363l-1.785-1.967a48.383 48.383 0 00-6.579-.104c-6.055.31-11.701 1.506-16.803 1.512-1.121.001-2.218-.042-3.281-.19-2.526-.35-4.864-1.151-7.001-2.456-4.269.044-8.799.425-13.085.732-.625.045-1.245.096-1.858.155-2.704.261-5.272.479-7.637.352-3.755-.201-6.938-1.248-9.348-3.4zm142.476 4.685c1.292-1.882 2.128-3.742 2.622-5.483.533-1.881.526-3.618.224-5.197-.498-2.601-1.916-4.823-4.475-6.19a.957.957 0 01-.57-.959c-5.628 2.915-10.814 4.391-14.157 4.358-1.11.602-2.317 1.131-3.548 1.695-2.927 1.339-6.05 2.799-9.283 3.628-.929.238-1.868.387-2.792.528-2.337.357-4.572.524-6.587.621a.978.978 0 01-.582-.105l-2.373-1.522a.743.743 0 01.694-1.313l2.234.951c2.295-.489 4.836-1.25 7.503-2.014a37.982 37.982 0 011.536-.404c2.055-.498 4.153-.947 6.144-1.6 1.317-.432 2.609-.875 3.789-1.457.824-.406 1.573-.9 2.296-1.38.192-.115.412-.177.636-.181 2.781-.2 6.783-2.12 11.401-4.777.621-.358 1.253-.73 1.905-1.094.94-.524 1.915-1.041 2.899-1.591 3.609-2.017 7.466-4.203 11.002-6.825 1.498-1.112 2.898-2.341 4.281-3.542.172-.144.374-.249.591-.306 2.735-.83 5.198-2.058 7.636-3.433 1.033-.583 2.073-1.168 3.107-1.813a55.532 55.532 0 009.659-7.623.695.695 0 111.051.911c-2.319 3.17-4.64 5.865-7.139 8.136-1.2 1.09-2.408 2.106-3.723 2.936-2.917 1.843-6.125 2.964-9.525 3.765-1.086.85-2.217 1.664-3.317 2.531-3.891 3.068-7.782 6.238-11.694 8.758-.751.484-1.493.958-2.239 1.394 3.33 1.162 5.706 3.483 6.723 6.505.434 1.292.576 2.729.426 4.222-.232 2.321-1.202 4.797-2.942 7.313-1.134.192-2.272.377-3.413.557zm35.702-39.702a39.885 39.885 0 015.669 4.191 25.042 25.042 0 013.42 3.69 17.266 17.266 0 012.316 4.151c1.268 3.203 1.323 6.434 1.142 9.602-.126 2.216-.359 4.399-.44 6.496-.063 1.63-.046 3.214.177 4.722.073.498.13.999.289 1.469.113.334.231.643.411.943.361.6.669 1.093 1.168 1.587.501.496.882.854 1.488 1.256a.744.744 0 001.023.237.745.745 0 00.237-1.024c-.079-.603-.005-1.04-.013-1.631-.007-.534.104-.962.116-1.493.005-.255.037-.493.022-.749-.023-.368-.074-.733-.101-1.106-.093-1.272-.041-2.592.05-3.954.141-2.095.399-4.277.503-6.497.182-3.882-.012-7.899-1.843-11.701-1.059-2.197-2.629-4.337-4.981-6.286a24.312 24.312 0 00-3.831-2.601c-1.773-.975-3.798-1.853-6.18-2.667a.754.754 0 10-.642 1.365zm-81.103 30.518c-2.046.452-4.082.79-6.095 1.134-.873.15-1.74.299-2.602.456-2.941.533-5.826 1.007-8.715 1.169-3.96.223-7.861.016-11.739-.838a.44.44 0 10-.243.847c4.849 1.719 9.869 2.475 15.056 2.461 2.528-.007 5.094-.135 7.662-.567 2.474-.417 4.922-1.147 7.401-1.885a1.436 1.436 0 00-.725-2.777zm-31.251.807c-1.352-.089-2.686-.206-4.013-.292-1.35-.088-2.685-.192-4.008-.233-4.183-.127-8.2-.087-12.049-.302-2.988-.167-5.847-.384-8.596-.723a.44.44 0 00-.165.866 128.23 128.23 0 0017.166 3.164c1.521.175 3.064.347 4.636.417 2.282.102 4.607.011 6.971-.028a1.436 1.436 0 001.464-1.405 1.436 1.436 0 00-1.406-1.464zm-113.176-.134a303.708 303.708 0 005.013-2.882c2.484-1.455 4.785-2.778 6.853-4.139 2.454-1.614 4.613-3.131 6.438-4.758a1.014 1.014 0 011.484 1.381 46.147 46.147 0 01-5.743 6.2 54.71 54.71 0 01-7.38 5.619c-2.297-.469-4.52-.943-6.665-1.421zm74.005-1.677c-6.965-.158-13.58-.748-19.71-2.017a66.47 66.47 0 01-9.061-2.531c-.255-.091-.516-.169-.76-.283a5.994 5.994 0 01-.714-.398c-.72-.463-1.329-.961-1.994-1.483l.282.083c-.236-.077-.454-.174-.694-.228-.957-.215-1.92-.259-2.853-.407-4.744-.752-9.072-1.935-13.915-3.926a70.954 70.954 0 01-4.601-2.066 46.425 46.425 0 01-1.903-1.005c-2.787-1.553-5.765-3.427-9.161-5.541a1.233 1.233 0 01-.218-1.983l1.912-1.577a1.116 1.116 0 011.498 1.652l-.514.512c2.253 1.145 4.341 2.175 6.289 3.146 1.148.573 2.252 1.11 3.303 1.653 1.531.79 2.957 1.567 4.347 2.263 2.317 1.159 4.483 2.17 6.665 2.999 2.61.991 5.203 1.787 8.018 2.353.476.095.953.23 1.448.257.217.012.422-.027.642-.041l.282.083c.772.159 1.501.23 2.279.408.315.071.623.155.93.262 3.906 1.364 7.919 2.872 12.28 3.864 5.069 1.153 10.456 1.963 16.109 2.465a.755.755 0 01.256.061c1.03.491 2.234.86 3.659 1.071 1.161.172 2.459.246 3.924.203a.467.467 0 01.059.932c-1.528.151-2.893.165-4.119.07-1.521-.119-2.827-.419-3.965-.851zM48.722 114.336l.32-2.969a1.484 1.484 0 011.22-1.388c3.675-.444 5.949-.273 7.6.219 1.465.437 2.449 1.085 3.44 1.799.832.598 1.663 1.234 2.914 1.727a.649.649 0 01-.404 1.232c-2.734-.724-3.787-2.219-6.44-2.682-1.272-.222-2.917-.158-5.354.35l.02 2.182c-.009.189-.049.368-.115.535.555.168 1.127.337 1.719.507a.614.614 0 11-.273 1.196c-5.12-.87-8.807-1.813-12.713-2.255a34.368 34.368 0 00-7.226-.088c-.585 1.432-1.358 2.468-2.333 3.24a9.562 9.562 0 01-2.554 1.429c-1.14.435-2.381.724-3.742 1.189a.71.71 0 01-.644-1.264 75.912 75.912 0 012.71-1.818c.845-.548 1.584-1.093 2.235-1.759.703-.72 1.237-1.623 1.547-2.965a1.641 1.641 0 011.448-1.211c3.467-.166 6.287.061 8.979.616 2.518.52 4.908 1.3 7.646 2.178zM65.327 92.48l.255.07c6.191 1.703 11.987 3 18.579 5.207 5.658 1.894 11.881 4.484 19.42 8.598.112.041.219.1.317.174.1.063.18.146.24.24a1.251 1.251 0 01-.169 1.693c-1.19 1.02-1.943 2.007-2.845 2.879-.46.445-.953.866-1.54 1.252a1.17 1.17 0 01-.474.188c-4.745.674-9.059.953-13.2 1.062-6.656.175-12.855-.088-19.684.179a.702.702 0 01-.074-1.403c6.82-.46 13.028-.373 19.678-.736 3.977-.218 8.111-.599 12.636-1.36.365-.274.68-.567.977-.872.745-.762 1.389-1.599 2.259-2.477-4.92-2.334-9.266-4.049-13.254-5.409-8.057-2.747-14.666-3.941-21.592-5.596-.9-.215-1.803-.438-2.716-.674.383-1.052.782-2.05 1.188-3.015zm3.11-6.535c3.587-.764 6.97-1.515 10.456-2.089 1.1-.181 2.21-.342 3.338-.48-.27-.204-.54-.404-.813-.6a1.384 1.384 0 01-.606-1.76.793.793 0 01.413-.571c1.334-.938 2.607-1.893 3.936-2.842.877-.627 1.746-1.24 2.637-1.849a233.24 233.24 0 013.998-2.688c.895-.586 1.799-1.157 2.71-1.718.804-.495 1.615-.98 2.427-1.461-.6-.439-1.265-.875-1.979-1.305-1.865-1.125-4.038-2.212-6.279-3.198-.27.046-.516.206-.804.383-.522.319-1.127.704-1.99.924-.87.221-1.999.292-3.574-.068l-.268-.048.016-.271c.035-.323.05-.66.015-1.028a4.924 4.924 0 00-.047-.356 8.337 8.337 0 01-1.578-.143 9.59 9.59 0 01-.596-.128c-.346-.084-.687-.184-1.05-.248-.335-.058-.671-.125-1.04-.127l-1.204.144.404-1.143c.1-.189.179-.414.179-.705 0-.41-.053-.882-.208-1.446l-2.358-.473-.678-.196.147-.69s.107-.82.288-1.938c.14-.869.315-1.915.505-2.892.33-1.7.684-3.187.684-3.187l.121-.573 6.437-1.708 2.384-2.718.136-.167 5.111-1.237.145-.041 2.947 1.122a.277.277 0 01.201-.152c1.636-.469 3.09-.616 4.464-.533.412.025.813.072 1.207.138-.45.42-.896.85-1.337 1.287a12.459 12.459 0 00-3.816-.373.345.345 0 01-.417.486l-3.255-.954-4.448 1.434-2.241 2.949-.16.196-5.67 1.805c-.116.587-.319 1.575-.564 2.636a93.285 93.285 0 01-1.063 4.119l1.683.64a.547.547 0 01.27.874c.326.52.532.986.666 1.411.028.087.05.172.067.256a7.112 7.112 0 011.741.037c.239.034.474.085.704.149.223.061.438.135.654.213.311.114.605.239.918.354.305.111.582.239.907.32a.546.546 0 11-.026 1.092 7.193 7.193 0 01-.78.094 5.204 5.204 0 01.158 1.146c1.304.139 2.232-.002 2.943-.258.89-.32 1.423-.829 1.915-1.178.399-.282.785-.462 1.217-.511l.138-.009.13.049c2.44.8 4.823 1.717 6.884 2.703a26.54 26.54 0 013.185 1.777c2.789-1.643 5.583-3.273 8.384-4.891 4.384-2.532 8.778-5.01 13.206-7.386a6.724 6.724 0 01-.683-.358c-1.332-.793-2.675-1.562-4.045-2.256-2.01-1.018-3.973-1.986-5.627-3.176l-.038 1.262a.266.266 0 01-.064.186l-.008.024a.345.345 0 01-.443.206 28.147 28.147 0 01-4.385-1.525 66.918 66.918 0 01-2.743-1.293c-.592-.293-1.173-.585-1.754-.869-.251-.122-.5-.243-.752-.36a66.053 66.053 0 011.797-1.331c.219.096.437.197.653.303.651.322 1.283.696 1.919 1.089.72.444 1.433.919 2.18 1.397.952.609 1.923 1.231 3.017 1.789l-.228-1.715a.44.44 0 01.223-.405.44.44 0 01.462.021c1.913 1.106 4.219 1.774 6.56 2.594 1.54.539 3.112 1.08 4.539 1.903.183.105.362.218.528.348a5.757 5.757 0 011.032 1.028 294.562 294.562 0 014.533-2.343.76.76 0 01.745 1.323c-6.348 3.954-12.505 8.268-18.748 12.528-2.907 1.983-5.819 3.957-8.777 5.869-1.27.822-2.545 1.635-3.844 2.408-.93.554-1.87 1.09-2.823 1.6a91.75 91.75 0 01-4.363 2.187 69.578 69.578 0 01-5.25 2.208c1.471.628 2.95 1.312 4.418 2.113a53.069 53.069 0 015.512 3.478c3.689 2.653 6.997 5.705 9.88 8.415a32.96 32.96 0 005.648 4.411c6.389 3.94 11.864 4.632 15.737 8.877a1.37 1.37 0 11-1.958 1.917c-2.06-1.956-4.514-2.861-7.274-3.84-2.585-.916-5.419-1.86-8.489-3.491-2.123-1.128-4.336-2.596-6.657-4.584-1.773-1.542-3.751-3.138-5.82-4.762-1.355-1.066-2.768-2.118-4.172-3.196-.925-.711-1.842-1.434-2.758-2.155-1.161-.914-2.301-1.82-3.443-2.709a20.895 20.895 0 01-.2-.157c-6.255.86-11.704 2.53-17.97 4.06.416-.858.836-1.682 1.24-2.49.156-.314.311-.624.466-.93zm303.251 17.948a16.662 16.662 0 01-1.371-2.736c-.944-2.374-1.636-5.31-2.086-8.722a.51.51 0 011.001-.184c.758 3.207 1.691 5.942 2.82 8.113.952 1.832 2.049 3.217 3.317 4.084a1.25 1.25 0 01-.006 1.994l-.05.036a1.257 1.257 0 01-.966.187c-.778.04-1.484.115-2.167.166-.758.058-1.447.138-2.102.21a1.257 1.257 0 01-.761.083l-.665.068c-.618.063-1.2.115-1.769.207a18.943 18.943 0 00-4.726 1.387 1.294 1.294 0 01-.247.11l-.012.005a.774.774 0 01-.902-.062l-.006-.005a1.245 1.245 0 01-.299-.201c-1.079-1.079-2.137-3.084-2.902-5.519-.844-2.69-1.396-5.873-1.398-8.687a.51.51 0 011.016-.054c.231 2.21.844 4.621 1.651 6.789.896 2.407 2.029 4.487 3.175 5.502.413-.316.821-.608 1.236-.877-.632-.979-1.163-2.19-1.57-3.579-.659-2.254-1.048-4.955-1.187-7.753a.508.508 0 111.012-.11c.44 2.638 1.098 5.158 1.972 7.222.532 1.259 1.148 2.324 1.858 3.096.486-.206.991-.38 1.521-.526a18.89 18.89 0 01-.934-2.387c-.745-2.339-1.189-4.982-1.475-7.791a.509.509 0 111.005-.161c.581 2.647 1.285 5.122 2.251 7.271.442.984.944 1.887 1.518 2.698.36-.012.73-.006 1.113.018.369.023.746.058 1.135.108zm17.655-1.288c-1.389-.919-2.693-2.038-3.93-3.345a25.116 25.116 0 01-2.115-2.575c-1.366-1.896-2.586-4.035-3.63-6.37a35.869 35.869 0 01-1.181-3.051 57.121 57.121 0 01-1.369-4.678 86.042 86.042 0 01-1.485-7.375c-.586-3.699-.966-7.451-1.24-11.131a.937.937 0 111.86-.242 141.694 141.694 0 003.672 15.249 118.34 118.34 0 001.954 5.878c.471 1.308.96 2.582 1.451 3.824.532 1.347 1.061 2.652 1.634 3.9.605 1.319 1.222 2.571 1.901 3.752 1.293 2.248 2.705 4.216 4.427 5.772 2.225-.776 4.317-1.597 6.333-2.375 1.548-.597 3.045-1.185 4.51-1.741 4.044-1.533 7.784-2.948 11.438-4.224 3.385-1.182 6.69-2.177 10.111-2.939a.407.407 0 01.224.781c-4.53 1.582-8.752 3.675-13.316 5.866-2.807 1.348-5.715 2.761-8.889 4.092a90.043 90.043 0 01-4.926 1.873c-1.607.564-3.283 1.09-5.027 1.613l-.107.035-.112.018c-.864.111-1.681.187-2.47.224-3.276.156-5.991-.211-9.391.272-.406.074-.8-.107-1.016-.43-1.412-1.457-2.641-3.385-3.614-5.772-1.088-2.67-1.885-5.898-2.331-9.624a.51.51 0 011.004-.167c.752 3.52 1.786 6.536 3.059 8.992 1.049 2.024 2.27 3.631 3.634 4.791l.008.007a29.069 29.069 0 012.454-.342c-1.004-1.066-1.907-2.305-2.715-3.734-1.444-2.556-2.607-5.693-3.552-9.456a.508.508 0 11.975-.293c1.227 3.515 2.594 6.419 4.194 8.737 1.276 1.849 2.707 3.289 4.338 4.346.062.044.118.093.169.145a44.276 44.276 0 003.066-.303zM63.383 86.981a39.928 39.928 0 00-1.1 3.401c-.803.168-1.623.33-2.462.485.73.23 1.451.449 2.164.66a43.3 43.3 0 00-.656 3.207 114.204 114.204 0 01-8.971-2.937l-6.432-2.446 6.838-.772c3.915-.395 7.39-.973 10.619-1.598zm379.404-67.572c-.748-.441-1.569-.799-2.439-1.111-.947-.34-1.952-.585-3.004-.793a42.628 42.628 0 00-2.068-.347c-1.378-.201-2.8-.352-4.248-.379-2.185-.04-4.395.094-6.5.501-1.487.287-2.919.654-4.225 1.18-.939.378-1.821.813-2.594 1.333a9.681 9.681 0 00-1.338 1.104 8.45 8.45 0 00-1.526 1.997 5.296 5.296 0 00-.221.456c3.497-.518 7.173-.856 11.07-1.076a.583.583 0 11.157 1.155c-3.894.855-7.505 1.871-10.959 2.909a167.883 167.883 0 00-7.121 2.318 169.475 169.475 0 00-5.809 2.164 131.218 131.218 0 00-5.704 2.364c-3.294 1.471-6.332 3.028-9.118 4.725-2.998 1.826-5.722 3.756-8.168 5.828a16.64 16.64 0 00-1.11 3.206c-.463 1.943-.634 3.824-1.021 5.912a1.001 1.001 0 01-1.983-.28c.21-2.162.218-4.095.525-6.115a19.127 19.127 0 011.127-4.186l.12-.273.219-.202a64.516 64.516 0 0112.865-9.86c2.963-1.731 6.191-3.351 9.739-4.71 2.425-.929 5.003-1.722 7.719-2.407 1.66-.42 3.369-.787 5.138-1.098.609-1.292 1.595-2.442 2.905-3.458a24.94 24.94 0 011.934-1.327 31.87 31.87 0 013.018-1.711 31.74 31.74 0 017.671-2.623c1.938-.388 3.914-.623 5.848-.584 1.36.027 2.698.176 3.956.484 1.363.332 2.637.83 3.773 1.477 1.584.902 2.897 2.046 3.869 3.44a49.16 49.16 0 014.608.351c1.331.165 2.647.404 3.944.658 2.151.422 4.242.931 6.23 1.498 3.238.924 6.192 2.015 8.685 3.207.336.055.643.262.812.587 1.426 2.549 2.692 5.103 3.624 7.752.956 2.715 1.57 5.512 1.962 8.367.735 5.358.534 10.967-.666 17.013a.858.858 0 01-.21.43.51.51 0 01-.689.303c-.687-.173-1.352-.204-2.048-.222-.65-.017-1.292.052-1.966.158-.491.077-.987.192-1.503.325-.503 2.304-1.944 4.635-3.973 6.988-.956 1.109-2.047 2.214-3.227 3.322a79.9 79.9 0 01-3.43 3.034c-2.269 1.895-4.711 3.76-7.006 5.72-4.747 3.91-9.496 7.07-13.99 9.24-3.823 1.845-7.446 2.978-10.69 3.303a.381.381 0 01-.1-.754c3.112-.513 6.528-1.851 10.116-3.847 4.248-2.362 8.72-5.654 13.139-9.698a235.59 235.59 0 016.952-5.876c1.192-.972 2.37-1.91 3.483-2.842 1.192-.998 2.315-1.974 3.326-2.95 1.808-1.747 3.263-3.457 4.047-5.243-.327.109-.659.231-.996.37-1.397.576-2.88 1.368-4.465 2.421-1.918 1.275-3.978 2.868-6.185 4.859a.315.315 0 11-.453-.439c1.965-2.326 3.814-4.252 5.609-5.783 1.571-1.342 3.087-2.375 4.551-3.115.909-.459 1.799-.812 2.673-1.023a8.623 8.623 0 011.94-.249c.85-.006 1.662.087 2.437.327.359.112.703.245 1.037.402.796-5.637.681-10.837-.187-15.788-.471-2.686-1.214-5.281-2.077-7.865a75.955 75.955 0 00-1.766-4.799c-.411 1.558-.868 3.159-1.468 4.843a42.437 42.437 0 01-2.02 4.775l-.082.208-.221.026a8.198 8.198 0 00-2.003.295 8.47 8.47 0 00-1.909.802 8.673 8.673 0 011.776-1.15 8.596 8.596 0 011.797-.631 41.22 41.22 0 001.061-4.739c.446-2.697.591-5.139.763-7.536.014-.085.034-.167.061-.246-2.141-.732-4.548-1.364-7.115-1.931-2.06-.455-4.223-.847-6.433-1.219-1.424-.24-2.869-.453-4.315-.695-1.082-.18-2.157-.385-3.236-.58-.726-.132-1.442-.267-2.162-.409-1.853-.364-3.644-.74-5.441-1.033a.325.325 0 01.027-.65c1.319-.112 2.632-.221 3.994-.264.294-.009.588-.016.881-.021zm-92.326 62.179c-.065-.524-.177-1.028-.283-1.527-.119-.554-.277-1.083-.408-1.606-.141-.564-.265-1.112-.396-1.636-.118-.47-.216-.916-.317-1.346-.188-.803-.318-1.498-.471-2.107a1.18 1.18 0 012.144-.981c.396.568.866 1.203 1.316 2.002.375.664.712 1.411 1.001 2.229.161.456.291.938.389 1.436.218 1.108.292 2.287.257 3.504.006.15-.009.3-.045.445a19.72 19.72 0 01-2.505 4.916c-.956 1.365-2.095 2.699-3.451 4.036a.594.594 0 11-.918-.754 29.202 29.202 0 002.397-4.392c.633-1.442 1.055-2.839 1.29-4.219zm-170.37 5.252c-.51.109-1.651.32-3.203.423a23.4 23.4 0 01-2.329.035 31.168 31.168 0 01-5.754-.754.534.534 0 01.155-1.056c1.57.104 3.067.044 4.444-.04 1.227-.074 2.341-.201 3.298-.309a60.06 60.06 0 003.233-.441c.211-.046.431-.027.631.055 0 0 1.514.665 3.19 1.049.709.162 1.445.289 2.102.262a.892.892 0 01.134 1.778c-.807.088-1.727.016-2.614-.132-1.393-.233-2.695-.66-3.287-.87zm243.325-1.382a39.747 39.747 0 01-4.548.549c-.395.027-.778.035-1.15.067-.259.021-.511.052-.757.089-.276.041-.531.094-.792.146-.288.057-.534.133-.81.184a.306.306 0 00-.054.608c.28.104.537.199.841.273.28.068.56.109.861.135.226.019.456.021.69.007.334-.02.673-.076 1.018-.141.641-.12 1.295-.289 1.976-.5.915-.283 1.846-.64 2.833-1.054a.19.19 0 10-.108-.363zm-206.345-1.162c-.877.022-1.82.023-2.806.092-.392.027-.789.069-1.19.122-3.087.408-6.399 1.019-9.181 1.243-1.231.1-2.344.147-3.282.094a.225.225 0 10-.056.447c2.101.414 5.172.502 8.383.444 1.679-.03 3.389-.025 5.003-.18 1.166-.112 2.263-.344 3.279-.486a.892.892 0 00-.15-1.776zm62.175-2.265c-2.338.149-4.543.205-6.643.319-.969.053-1.915.122-2.839.198-8.52.701-15.322 1.051-22.219 1.56-2.617.194-5.234.438-7.961.772a.355.355 0 00.054.707c9.307-.305 17.323.489 27.914.311 1.547-.026 3.149-.056 4.811-.188 2.269-.179 4.64-.535 7.169-.893a1.4 1.4 0 00-.286-2.786zm-134.125 2.115a72.186 72.186 0 00-7.957-.736 135.801 135.801 0 00-4.437-.101c-.977-.008-1.953-.009-2.935-.007-1.439.004-2.888.009-4.379-.027-2.087-.051-4.241-.156-6.544-.45a.534.534 0 00-.19 1.05 57.735 57.735 0 007.885 1.294 66.66 66.66 0 003.711.241c1.233.046 2.459.058 3.691.069 1.448.013 2.904.015 4.393.048 2.091.047 4.245.137 6.532.386a.891.891 0 00.23-1.767zm305.297-13.712a96.159 96.159 0 01-8.849 5.438 79.451 79.451 0 01-4.944 2.455c-.558.255-1.114.5-1.661.755-.554.259-1.104.515-1.645.785-.925.461-1.82.922-2.733 1.389-.943.483-1.813.99-2.777 1.452a.526.526 0 00.273 1.015c.92-.065 1.784-.128 2.687-.272a21.227 21.227 0 002.631-.592c.858-.249 1.7-.558 2.529-.922a24.55 24.55 0 002.387-1.234c1.782-1.027 3.53-2.223 5.303-3.594 2.325-1.796 4.637-3.884 7.113-6.292a.248.248 0 00-.314-.383zM320.809 76.51c-1.895-.035-3.64.003-5.297.228-1.192.163-2.331.428-3.452.715-5.662 1.451-10.8 3.807-19.283 5.378a.29.29 0 00.077.575 80.795 80.795 0 005.72-.665c6.206-.951 10.684-2.251 15.687-3.04l1.975-.31c1.457-.232 2.972-.475 4.629-.591a1.145 1.145 0 10-.056-2.29zM121.483 65.763a18.877 18.877 0 00-2.078-.309 10.611 10.611 0 00-.905-.036c-.618.002-1.221.047-1.813.136-.403.061-.8.145-1.187.257-1.166.34-2.26.834-3.324 1.43-1.496.837-2.881 1.882-4.302 3.104a.226.226 0 00.255.373 29.088 29.088 0 015.228-2.179c.794-.245 1.59-.422 2.398-.61.527-.123 1.056-.244 1.593-.366.662-.15 1.325-.305 2.02-.443.685-.136 1.354-.299 2.088-.401a.478.478 0 10.027-.956zM356.83 45.686l-.072-.13.532-.295c1.486-1.198 3.432-1.905 5.488-2.031 1.288-.078 2.568.177 3.764.693.137.059.272.125.404.195.772-.752 1.601-1.357 2.498-1.73 1.857-.771 3.711-.886 5.195-.174l.823.234-.467 1.646-.823-.233c-.861-.088-1.701.307-2.556.854-.443.283-.807.684-1.207 1.101a7.266 7.266 0 00-1.342 2.013l-.903 1.632c-.583 2.412-1.005 5.01-1.273 7.693a76.54 76.54 0 00-.291 10.872.51.51 0 01-1.015.079 78.061 78.061 0 01-.45-11.067c.097-3.014.39-5.94.89-8.646l-.127-.128a5.59 5.59 0 00-1.152-.949 10.802 10.802 0 00-.984-.566c-.823 1.922-1.365 4.704-1.714 7.647-.663 5.6-.603 11.759-.161 14.051a.508.508 0 11-.993.224c-.601-2.326-1.069-8.647-.746-14.44.172-3.08.593-6.005 1.304-8.155a8.532 8.532 0 00-2.386-.029c.058.205.065.427.009.649a49.977 49.977 0 00-1.893 11.451c-.189 3.887.042 7.739.523 11.732a.51.51 0 01-1.007.154c-.744-4.037-1.22-7.946-1.275-11.916a52.031 52.031 0 011.229-12.034c.037-.146.098-.28.178-.397zm-32.111-26.764l.485.124c1.269.329 2.545.686 3.837 1.085l.266.082c.394.676.808 1.334 1.243 1.974l.558.853-1.261 2.787c.18.993.256 1.886.279 2.769.038 1.433-.086 2.84-.161 4.682-.004.064-.01.127-.02.19 1.253.487 2.512.997 3.777 1.536a96.187 96.187 0 014.025 1.822c1.752.844 3.491 1.758 5.234 2.7 2.562 1.386 5.111 2.873 7.659 4.408a1.868 1.868 0 01-.123 3.244c-3.08 1.568-3.982 4.033-4.033 6.722-.044 2.34.46 4.837 1.034 7.187.758 3.107 1.562 5.95 1.499 7.874a.934.934 0 01-1.866.06c-.175-1.79-1.363-4.292-2.387-7.099-.936-2.569-1.768-5.351-1.857-7.995-.106-3.129.779-6.053 3.347-8.326a396.795 396.795 0 00-5.007-3.004c-2.361-1.401-4.718-2.737-7.021-4.086-1.964-1.151-8.391-4.839-10.603-6.122-.283-.165-.434-.485-.3-.785a.595.595 0 01.785-.3c.646.231 1.296.464 1.947.702.108-1.251.214-2.302.221-3.372a14.226 14.226 0 00-.225-2.675l-.117-.6 1.003-2.073a39.722 39.722 0 01-2.218-4.364zm108.095 49.813c-3.05.08-6.46-.894-9.441-2.817a18.83 18.83 0 01-2.341-1.796 21.512 21.512 0 01-1.394-1.376 28.78 28.78 0 01-.821-.91c-.266-.31-.525-.626-.781-.953-.507-.648-.994-1.314-1.422-2.056a.305.305 0 00-.558.248 14.89 14.89 0 001.014 2.436c.211.395.447.77.697 1.133.254.369.526.721.817 1.054a13.64 13.64 0 001.528 1.486 16.37 16.37 0 002.628 1.794c3.256 1.794 6.922 2.485 10.1 2.135a.189.189 0 10-.026-.378zm-81.209-19.507a19.058 19.058 0 00-.703 1.981c-.127.439-.232.89-.323 1.358a16.83 16.83 0 00-.246 1.72c-.05.566-.066 1.145-.058 1.731.018 1.348.149 2.729.364 4.12a34.435 34.435 0 001.489 5.97.509.509 0 10.985-.257c-.388-2.153-.528-4.362-.529-6.533 0-.991.046-1.965.096-2.921.034-.656.084-1.299.118-1.931.044-.83.078-1.633.13-2.41.057-.85.085-1.65.195-2.417a.787.787 0 00-1.518-.411zM124.132 62.685l.641 1.202a.953.953 0 01-1.561 1.091l-1.863-2.082a1.287 1.287 0 01.343-1.809c.785-.638 1.545-1.262 2.338-1.846a47.075 47.075 0 013.716-2.493 45.571 45.571 0 013.968-2.094 58.562 58.562 0 016.252-2.513c5.583-1.896 11.451-3.046 18.164-3.668a.518.518 0 01.153 1.026c-5.091 1.062-9.604 2.441-13.881 4.118-2.829 1.11-5.52 2.38-8.204 3.775-1.134.59-2.261 1.21-3.408 1.824a290.586 290.586 0 01-3.046 1.614c-1.184.617-2.392 1.212-3.612 1.855zM423.1 46.134c.434-1.315 1.309-2.347 2.499-3.118.782-.507 1.712-.874 2.738-1.122a12.865 12.865 0 012.873-.34c1.345-.013 2.776.161 4.228.479a25.906 25.906 0 017.768 3.12c3.716 2.253 6.802 5.448 8.046 9.286a.254.254 0 01-.151.324.254.254 0 01-.324-.151c-.811-2.019-2.174-3.795-3.87-5.303 1.126 1.625 1.526 3.527 1.135 5.824-.773 4.533-5.749 7.586-11.119 7.852 2.643.309 5.243.056 7.397-.678a.253.253 0 01.185.47c-3.387 1.521-8.024 1.976-12.325.776a15.859 15.859 0 01-3.561-1.467 13.022 13.022 0 01-2.125-1.486 11.125 11.125 0 01-1.143-1.154 11.188 11.188 0 01-1.077-1.477c-1.482-1.99-2.275-4.707-2.003-8.415.097-1.321.379-2.46.829-3.42zm11.712 6.562c-.564-2.914-.941-5.232-.851-7.232 1.488-.117 2.995.61 3.904 1.775-1.514 2.188-2.493 3.784-3.053 5.457zm-295.611-6.529a29.055 29.055 0 013.008-2.746c1.822-1.43 3.693-2.592 5.588-3.624 3.213-1.75 6.532-3.032 10.175-4.167a.574.574 0 01.399 1.074c-3.395 1.472-6.427 3.107-9.383 5.069-1.71 1.135-3.355 2.415-5.071 3.797-.645.52-1.31 1.04-1.984 1.583-.436.35-.885.692-1.332 1.058-.217.2-.5.315-.795.322l-3.569-.248a.883.883 0 11-.041-1.767l3.005-.351zm19.114-2.28l.842 2.195a1.147 1.147 0 01-.485 1.546 1.147 1.147 0 01-1.546-.485l-2.522-3.718a1.66 1.66 0 011.016-2.365c1.729-.639 3.368-1.281 4.991-1.838a71.37 71.37 0 013.38-1.071 99.982 99.982 0 015.164-1.327c2.735-.636 5.347-1.14 7.891-1.548 7.601-1.222 14.522-1.547 22.325-.751a.625.625 0 01-.059 1.247c-4.584.046-8.799.486-13.024 1.218-3.512.608-6.994 1.455-10.684 2.451-2.269.612-4.603 1.293-7.067 1.999-.965.276-1.948.557-2.959.822-.973.254-1.968.5-2.99.731-1.382.313-2.804.596-4.273.894zm149.027-12.408l-.585 2.067a.874.874 0 01-1.721-.294l.235-3.743a1.269 1.269 0 011.685-.982c1.387.392 2.792.787 4.208 1.265.914.308 1.831.64 2.743 1.012 2.2.897 4.401 1.942 6.628 3.048 2.554 1.268 5.112 2.66 7.704 4.116 3.721 2.091 7.457 4.341 11.238 6.675a.476.476 0 01-.457.835 413.81 413.81 0 00-9.841-4.555 415.442 415.442 0 00-8.334-3.613 659.835 659.835 0 00-5.574-2.314c-.78-.321-1.554-.639-2.316-.966-.775-.334-1.539-.672-2.293-1.016-1.129-.514-2.228-1.037-3.32-1.535zm46.729-13.821a8.42 8.42 0 00-1.417-1.292c-.737-.516-1.453-.858-2.195-1.06a.61.61 0 01.197-1.201c.93.057 1.867.28 2.867.718.812.356 1.625.886 2.5 1.601l.308.305.872 6.167 2.742.492.814.192.424.722c.503.829.994 1.659 1.422 2.517.434.869.817 1.756 1.157 2.658.683 1.813 1.194 3.669 1.59 5.562l.138.509-.192.491c-.666 1.342-1.377 2.553-2.21 3.622-.903 1.161-1.879 2.157-2.972 3.001a.854.854 0 11-1.175-1.243c.795-.917 1.45-1.953 2.042-3.103.451-.876.83-1.815 1.156-2.83-.542-1.54-1.207-3.022-1.914-4.5-.38-.791-.78-1.574-1.185-2.361-.288-.561-.573-1.126-.873-1.686l-2.908-.857-1.262-.299.074-8.125zm95.869 21.775c-3.523-2.454-6.927-4.345-10.208-5.506-2.695-.953-5.305-1.417-7.804-1.322-1.367.052-2.706.265-3.995.685-.849.276-1.678.64-2.477 1.098a14.698 14.698 0 00-2.696 1.983c-.773.717-1.487 1.539-2.185 2.461a.408.408 0 00.6.551 20.692 20.692 0 013.113-2.317 20.415 20.415 0 011.659-.92c.57-.283 1.144-.524 1.722-.741a15.921 15.921 0 012.877-.798 17.215 17.215 0 014.525-.177c4.485.4 9.378 2.335 14.597 5.428a.252.252 0 10.272-.425zm-281.766-6.782c.761-.629 1.539-1.093 2.388-1.349a6.129 6.129 0 013.354-.081.305.305 0 01-.069.604 5.233 5.233 0 00-2.699.788c-.73.445-1.317 1.108-1.859 1.947a1.097 1.097 0 01-1.051.375c-.634-.056-1.236.016-1.837.097-.4.053-.789.146-1.185.232-.499.109-1.002.213-1.504.376-.507.164-1.018.328-1.528.559a1.096 1.096 0 01-1.103-1.895 12.39 12.39 0 012.011-1.201 7.812 7.812 0 011.521-.533 6.356 6.356 0 011.219-.162 8.618 8.618 0 012.342.243zm35.857-2.085l.5 2.648a1.19 1.19 0 01-2.277.695l-1.967-4.577a1.737 1.737 0 011.551-2.239c1.987-.27 3.86-.589 5.677-.82a156.6 156.6 0 015.693-.623c3.11-.279 5.964-.433 8.607-.584 3.18-.182 6.052-.28 8.718-.268 7.372.032 13.114.917 19.091 4.028a.649.649 0 01-.536 1.181c-4.553-1.775-8.837-2.292-13.723-2.162-3.544.094-7.375.572-11.845 1.15-2.459.317-5.1.677-7.985 1.004a92.328 92.328 0 01-3.351.332c-1.089.085-2.21.151-3.367.189a129.06 129.06 0 01-4.786.046zm51.697-4.445l.017 2.387a1.191 1.191 0 01-2.365.277l-1.011-4.395a1.681 1.681 0 011.76-1.877c2.028-.046 3.995-.092 5.936-.04a70.247 70.247 0 016.9.536c2.347.307 4.619.701 6.829 1.128 4.048.783 7.87 1.706 11.534 2.704 6.02 1.639 11.552 3.497 16.854 5.36a.649.649 0 01-.363 1.245c-5.987-1.408-12.262-2.71-19.093-3.807a277.189 277.189 0 00-8.628-1.223c-2.784-.357-5.661-.633-8.636-.979-1.878-.218-3.79-.467-5.748-.731-1.315-.178-2.637-.388-3.986-.585zm-65.072.315l2.09-1.253a.444.444 0 01.609.645L191.6 28.41c-.218.205-.51.315-.809.303-.886.131-1.691.356-2.538.553-.83.194-1.616.443-2.428.66-.64.17-1.278.338-1.919.499-.978.245-1.951.456-2.927.751-1.422.429-2.814.858-4.219 1.492a.97.97 0 01-1.055-1.626c1.26-1.121 2.525-2.102 3.92-2.935a17.367 17.367 0 013.008-1.426 11.14 11.14 0 013.28-.659c.671-.038 1.332-.05 2.011.003.924.072 1.808.209 2.732.411zm131.449 4.366c-1.877-1.308-3.613-2.632-5.364-3.875a90.605 90.605 0 00-3.659-2.484 40.357 40.357 0 00-2.467-1.467c-.587-.32-1.175-.594-1.738-.861a12.075 12.075 0 00-4.524-.903c-1.226-.013-2.474.105-3.8.21-1.619.128-3.322.271-5.258-.023a.96.96 0 00-.478 1.86c1.935.713 3.722 1.001 5.435 1.177 1.77.182 3.401.236 4.975.584a8.278 8.278 0 011.991.694c.882.378 1.792.834 2.768 1.269 1.352.603 2.785 1.211 4.303 1.831 2.349.96 4.817 1.854 7.416 2.77a.44.44 0 00.4-.782zm-102.838-9.825c-2.215-.406-4.301-.761-6.48-.91a29.732 29.732 0 00-3.057-.038c-.437.015-.872.046-1.304.096-.58.067-1.154.161-1.722.277-.862.178-1.705.394-2.538.648-2.126.65-4.116 1.464-6.105 2.348a.97.97 0 00.556 1.857c2.062-.341 4.115-.508 6.24-.708.823-.078 1.642-.152 2.471-.248.544-.062 1.09-.128 1.634-.219.815-.136 1.62-.313 2.439-.479a56.862 56.862 0 001.633-.359c2.074-.485 4.068-.994 6.23-1.378a.443.443 0 10.003-.887zm14.498-3.137c1.571-.517 3.029-.98 4.488-1.282a28.344 28.344 0 015.108-.575c1.877-.046 3.846.069 6.082.373 2.536.345 5.345.948 8.779 1.754a.443.443 0 11-.108.88c-3.353-.045-6.098.036-8.55.159a94.79 94.79 0 00-3.577.254c-2.08.182-3.919.508-5.783.857-1.849.346-3.719.685-5.78 1.23a1.836 1.836 0 01-.973.017c-2.196-.714-3.734-.791-5.068-.527-1.965.389-3.499 1.298-5.614 1.792a.97.97 0 01-.593-1.845c1.163-.485 2.091-1.097 3.054-1.644 1.13-.642 2.284-1.18 3.726-1.482 1.306-.273 2.84-.289 4.809.039zm29.663 1.158c-.2.402-.43.727-.697.986-.464.45-.964.764-1.547.909a.97.97 0 01-.654-1.825c.271-.129.45-.367.61-.67.148-.281.199-.643.242-1.093a1.275 1.275 0 011.395-1.031c2.026.06 3.937.131 5.782.289 2.003.171 3.905.381 5.726.675.923.15 1.82.337 2.698.535 1.375.311 2.69.659 3.988.995 1.012.261 1.988.527 2.969.788 2.372.633 4.622 1.231 6.98 1.65a.444.444 0 01-.044.885 65.883 65.883 0 01-8.728.067 83.914 83.914 0 01-5.736-.537 55.422 55.422 0 01-2.817-.439c-.913-.165-1.835-.369-2.782-.57-1.082-.23-2.185-.472-3.325-.723-1.314-.289-2.656-.599-4.06-.891zm59.887-4.736c.177-1.805.212-3.629.125-5.482-.092-1.973-.303-3.973-.723-6.012l-.231-.907.831-.433a15.03 15.03 0 012.834-.989 15.048 15.048 0 012.948-.417l.305-.022 2.193 1.266c1.665-.153 3.074-.023 4.318.285a9.921 9.921 0 012.641 1.054c.541.315 1.026.697 1.499 1.083l.131.114c1.823 2.012 3.545 3.881 5.258 5.623 1.23 1.25 2.438 2.429 3.693 3.527a.62.62 0 01-.756.98c-1.753-1.189-3.464-2.499-5.206-3.94-1.561-1.292-3.128-2.685-4.78-4.155-.405-.287-.838-.539-1.275-.8-.607-.363-1.236-.727-1.968-.996a11.384 11.384 0 00-3.74-.698l-.313.013-2.159-1.404a12.25 12.25 0 00-2.216.504c-.512.169-.995.374-1.459.605a36.404 36.404 0 011.115 5.471c.25 2.051.289 4.086.194 6.104.106.257.214.513.324.767l-.523-.188a40.198 40.198 0 00-3.06-.953z"/><path fill="#FD5486" d="M232.277 225.536c-11.497.605-23.43.38-35.611-.437a449.867 449.867 0 01-11.801-.947 523.875 523.875 0 01-11.759-1.26 857.652 857.652 0 01-9.388-1.143c-4.684-.598-9.374-1.235-14.059-1.99a354.925 354.925 0 01-13.996-2.534c-7.006-1.42-13.949-3.031-20.808-4.972a1.005 1.005 0 00-.64 1.907c6.717 2.62 13.53 4.985 20.466 7.026a236.513 236.513 0 0013.987 3.655c4.715 1.08 9.447 2.032 14.198 2.8 3.183.516 6.374.946 9.563 1.29 4.015.434 8.028.726 12.025.929 4.038.204 8.056.306 12.05.295 12.361-.036 24.418-.997 35.966-2.586a1.022 1.022 0 00-.193-2.033zm200.64-122.842c2.079 12.718-1.514 27.481-10.706 42.192-4.802 7.685-11.154 15.325-19.042 22.697-5.144 4.808-10.957 9.467-17.396 13.994a200.089 200.089 0 01-19.026 11.847c-9.26 5.07-19.491 9.786-30.776 13.958a275.893 275.893 0 01-32.553 9.809 1.006 1.006 0 00.401 1.97c11.973-2.062 23.127-4.7 33.466-7.915 11.748-3.654 22.442-7.985 32.076-12.853 7.24-3.66 13.891-7.612 19.913-11.825a138.037 138.037 0 0017.86-14.858c8.04-7.937 14.354-16.232 18.998-24.5 8.929-15.897 11.71-31.673 8.791-44.901a1.022 1.022 0 00-2.006.385zM75.043 191.45c-3.835-3.226-7.345-6.655-10.67-10.195a140.017 140.017 0 01-6.405-7.342c-1.722-2.107-3.335-4.253-4.917-6.385a185.096 185.096 0 01-4.647-6.542c-2.572-3.802-4.914-7.597-6.845-11.513-2.053-4.161-3.757-8.317-4.893-12.597a1.007 1.007 0 00-1.98.356 63.515 63.515 0 002.48 12.505 67.155 67.155 0 003.026 8.005 68.783 68.783 0 003.98 7.587 59.713 59.713 0 003.199 4.725 71.991 71.991 0 004.558 5.462 80.085 80.085 0 005.01 5.02c5.079 4.645 10.77 8.802 16.911 12.573a1.022 1.022 0 001.193-1.659zm329.481-80.878c-6.207 16.898-18.469 30.34-34.303 40.988-9.619 6.469-20.566 11.871-32.313 16.393-8.332 3.207-17.069 5.935-26.011 8.32a335.32 335.32 0 01-26.732 5.971 360.664 360.664 0 01-40.894 4.99c-14.649.934-28.676.973-41.29.086a1.006 1.006 0 00-.191 2.003c12.679 1.528 26.831 2.289 41.653 1.987 13.551-.275 27.646-1.39 41.645-3.528 9.233-1.41 18.428-3.249 27.374-5.616 9.177-2.429 18.092-5.415 26.562-8.896 12.022-4.941 23.144-10.92 32.813-17.978 15.981-11.664 27.986-26.263 33.621-44.059a1.022 1.022 0 00-1.934-.661zM455.77 88.79c4.914 5.399 7.392 13.855 7.617 23.903.119 5.325-.444 11.077-1.626 17.103-.798 4.073-1.918 8.25-3.266 12.516-1.267 4.006-2.732 8.086-4.486 12.18-2.486 5.8-5.476 11.628-9.101 17.344-3.431 5.408-7.328 10.73-11.879 15.798a1.006 1.006 0 001.426 1.419c5.183-4.694 9.784-9.67 13.797-14.879a105.861 105.861 0 007.604-11.308c2.36-4.046 4.401-8.144 6.09-12.256a85.142 85.142 0 003.021-8.642 85.263 85.263 0 002.434-11.202c.586-3.944.88-7.779.871-11.454-.036-13.968-4.006-25.525-11.057-31.967a1.022 1.022 0 00-1.445 1.445zm-306.072 90.504a182.733 182.733 0 01-20.674-5.628 166.328 166.328 0 01-13.226-5.073c-3.675-1.59-7.182-3.307-10.566-5.076a143.017 143.017 0 01-10.115-5.804c-5.676-3.586-10.84-7.47-15.371-11.845-4.788-4.623-8.938-9.638-12.271-15.222a1.006 1.006 0 00-1.783.932 72.344 72.344 0 009.624 15.64c2.545 3.161 5.385 6.139 8.5 8.95 3 2.706 6.247 5.25 9.757 7.585a82.05 82.05 0 007.073 4.203c2.963 1.568 6.076 2.987 9.312 4.286a112.417 112.417 0 009.634 3.374c9.191 2.755 19.157 4.596 29.794 5.697a1.022 1.022 0 00.312-2.019zm184.629-43.966c-21.825 9.142-45.142 14.278-68.417 16.715-15.84 1.659-31.658 2.009-47.01 1.424a413.321 413.321 0 01-18.798-1.131c-9.675-.811-19.071-1.952-28.06-3.417-9.774-1.593-19.06-3.533-27.698-5.747-15.849-4.062-29.496-9.002-39.862-14.337a1.007 1.007 0 00-.962 1.767c10.257 5.907 23.838 11.646 39.74 16.455 8.664 2.62 18.011 4.96 27.874 6.905a311.698 311.698 0 0028.418 4.271 283.504 283.504 0 0019.127 1.326c15.639.539 31.768-.128 47.853-2.234 23.593-3.09 47.073-9.362 68.921-19.436a1.4 1.4 0 00-1.126-2.561zm144.302-56.973c4.185 2.638 7.343 6.842 9.763 11.907 1.435 3.002 2.53 6.31 3.4 9.817.616 2.482 1.066 5.06 1.457 7.691.382 2.566.707 5.174.88 7.819.258 3.957.271 7.946-.108 11.905-.389 4.06-1.061 8.032-2.242 11.839a1.006 1.006 0 001.865.754 56.578 56.578 0 004.4-11.909 58.99 58.99 0 001.433-8.419c.283-2.866.367-5.739.219-8.578a47.391 47.391 0 00-.645-5.708 49.559 49.559 0 00-1.761-6.982c-.772-2.345-1.682-4.585-2.761-6.677-3.648-7.076-8.74-12.545-14.945-15.265a1.021 1.021 0 00-.955 1.806zM55.364 62.864c-4.367 2.163-8.361 5.181-11.828 8.776a44.312 44.312 0 00-3.225 3.763 43.775 43.775 0 00-2.804 4.089 38.697 38.697 0 00-1.87 3.499 45.413 45.413 0 00-2.162 5.54 43.155 43.155 0 00-1.431 5.77c-.558 3.239-.678 6.251-.372 8.892a.706.706 0 00.726.682.706.706 0 00.681-.726c.13-2.487.764-5.232 1.736-8.153.562-1.691 1.254-3.412 2.045-5.17.74-1.645 1.592-3.289 2.496-4.953.581-1.069 1.187-2.14 1.812-3.213a85.778 85.778 0 012.408-3.936 71.431 71.431 0 012.654-3.786c2.842-3.774 6.073-7.215 9.861-9.842a.716.716 0 00-.727-1.232zM76.66 66.73c-3.38 2.33-6.53 5.108-9.241 8.262a38.538 38.538 0 00-2.543 3.324 34.664 34.664 0 00-2.177 3.599 28.33 28.33 0 00-1.38 3.087 30.8 30.8 0 00-1.395 4.9c-.34 1.728-.536 3.422-.544 5.083-.013 2.677.384 5.193 1.259 7.509a.705.705 0 001.36-.364c-.402-2.44-.184-4.982.376-7.625.504-2.382 1.398-4.77 2.473-7.205a77.173 77.173 0 011.987-4.142c.698-1.357 1.415-2.725 2.21-4.07a63.36 63.36 0 013.051-4.714c1.677-2.335 3.47-4.55 5.475-6.542a.715.715 0 10-.911-1.102zm14.849-10.632c4.464-2.944 9.164-5.545 14.117-8.003 3.163-1.569 6.425-3.05 9.8-4.498 2.434-1.044 4.931-2.049 7.472-3.083 2.455-1 4.948-2.026 7.51-3.036a389.546 389.546 0 0111.412-4.309c3.737-1.341 7.571-2.694 11.583-3.994a.705.705 0 00-.354-1.363c-4.166.825-8.172 1.671-12.055 2.622a184.212 184.212 0 00-7.961 2.135c-2.697.791-5.32 1.618-7.865 2.525a101.103 101.103 0 00-5.144 1.991 112.371 112.371 0 00-6.276 2.875 111.036 111.036 0 00-6.101 3.237c-6.16 3.525-11.757 7.449-16.989 11.751a.715.715 0 00.85 1.15zm31.466-30.285a79.402 79.402 0 00-10.379 1.607c-1.135.255-2.261.55-3.386.874a52.992 52.992 0 00-3.327 1.06 39.97 39.97 0 00-2.591 1.039 61.744 61.744 0 00-3.767 1.84 70.902 70.902 0 00-3.66 2.059 65.294 65.294 0 00-5.25 3.513.704.704 0 00.704 1.22c1.605-.693 3.55-1.381 5.758-2.147 1.232-.427 2.521-.857 3.874-1.313 1.255-.423 2.551-.836 3.868-1.294a87.54 87.54 0 002.548-.929c1.05-.403 2.096-.836 3.148-1.261 1.055-.426 2.101-.854 3.146-1.284 3.331-1.369 6.546-2.669 9.583-3.58a.715.715 0 10-.269-1.404zm269.372-1.604a42.916 42.916 0 00-7.135-5.001 33.469 33.469 0 00-2.607-1.297 30.673 30.673 0 00-2.701-1.075 24.562 24.562 0 00-2.23-.64 37.022 37.022 0 00-3.423-.621 45.635 45.635 0 00-3.454-.35c-1.744-.107-3.443-.114-5.186-.078a.704.704 0 10-.17 1.397c2.613.676 5.115 1.552 7.655 2.447 1.004.353 1.991.71 2.986 1.057.663.231 1.321.466 1.985.674 1.123.352 2.24.673 3.342 1.005 1.726.521 3.397 1.012 5.016 1.591 1.813.649 3.518 1.291 5.13 2.081a.714.714 0 10.792-1.19zm-51.427-.795c-3.832-1.768-7.554-3.387-11.289-4.738-1.3-.47-2.594-.892-3.888-1.282a64.064 64.064 0 00-3.956-1.071 48.37 48.37 0 00-3.219-.634 67.787 67.787 0 00-4.894-.592 74.385 74.385 0 00-4.924-.273 83.887 83.887 0 00-7.379.183.705.705 0 00-.728.68.705.705 0 00.68.727c2.58.341 5.18.851 7.895 1.407 2.436.499 4.902 1.1 7.459 1.696 1.625.378 3.278.754 4.961 1.122 1.232.27 2.481.511 3.745.77 1.854.379 3.727.764 5.637 1.175 3.087.665 6.212 1.342 9.416 2.176a.716.716 0 00.484-1.346z"/></g></svg>