<svg width="1019" height="486" xmlns="http://www.w3.org/2000/svg"><g fill="none" fill-rule="evenodd"><path d="M204.763 436.15l9.916 22.036 9.916-22.035h8.027l-21.485 49.265h-8.656l7.791-17.392-15.425-31.873h9.916zm634.154-1.495c3.095 0 5.902.735 8.421 2.204 2.518 1.469 4.485 3.568 5.902 6.296 1.416 2.728 2.125 5.902 2.125 9.522 0 3.568-.774 6.69-2.322 9.365-1.548 2.676-3.699 4.722-6.453 6.139-2.754 1.417-5.863 2.125-9.326 2.125-2.204 0-4.328-.446-6.374-1.338-2.047-.892-3.725-2.099-5.037-3.62v20.068h-8.814v-49.895h7.633l.787 4.958a19.91 19.91 0 016.021-4.25c2.282-1.049 4.761-1.574 7.437-1.574zm98.102 0c4.512 0 8.263 1.325 11.254 3.975 2.99 2.65 4.984 6.387 5.981 11.214l-25.656 8.657a8.925 8.925 0 003.542 3.148c1.469.734 3.095 1.102 4.879 1.102 2.466 0 4.958-.866 7.477-2.597l4.013 6.532a25.975 25.975 0 01-5.745 2.636c-2.046.656-4.014.984-5.902.984-3.83 0-7.149-.76-9.956-2.282-2.807-1.522-4.958-3.62-6.453-6.296s-2.243-5.745-2.243-9.208c0-3.253.84-6.243 2.518-8.972 1.679-2.728 3.962-4.892 6.847-6.492 2.886-1.6 6.034-2.4 9.444-2.4zm-807.282 0c5.404 0 9.444 1.994 12.119 5.981l.63-4.485h8.106v33.29h-8.814v-4.801c-1.207 1.416-2.834 2.715-4.88 3.895-2.046 1.18-4.433 1.77-7.161 1.77-3.201 0-6.06-.668-8.578-2.006-2.519-1.338-4.512-3.318-5.982-5.942-1.469-2.623-2.203-5.797-2.203-9.522 0-3.62.761-6.808 2.282-9.562 1.522-2.755 3.555-4.88 6.099-6.375 2.545-1.495 5.339-2.243 8.382-2.243zm664.496 0c3.621 0 6.834.774 9.641 2.322 2.807 1.548 4.971 3.673 6.493 6.374 1.521 2.703 2.282 5.732 2.282 9.09 0 3.358-.761 6.388-2.282 9.09-1.522 2.702-3.686 4.84-6.493 6.414-2.807 1.574-6.047 2.36-9.719 2.36-3.568 0-6.768-.72-9.602-2.163-2.833-1.443-5.049-3.516-6.65-6.218-1.6-2.702-2.4-5.863-2.4-9.483 0-3.305.8-6.322 2.4-9.05 1.601-2.728 3.817-4.866 6.65-6.414 2.834-1.548 6.06-2.322 9.68-2.322zm-53.008 0c4.513 0 8.264 1.325 11.254 3.975 2.991 2.65 4.985 6.387 5.981 11.214l-25.655 8.657a8.922 8.922 0 003.541 3.148c1.469.734 3.096 1.102 4.879 1.102 2.466 0 4.959-.866 7.477-2.597l4.014 6.532a25.975 25.975 0 01-5.745 2.636c-2.047.656-4.014.984-5.903.984-3.83 0-7.148-.76-9.955-2.282-2.807-1.522-4.958-3.62-6.454-6.296-1.495-2.676-2.242-5.745-2.242-9.208 0-3.253.839-6.243 2.518-8.972 1.679-2.728 3.961-4.892 6.847-6.492 2.885-1.6 6.033-2.4 9.443-2.4zm-44.761 1.496l9.129 19.045 8.341-19.045h9.838l-18.258 34.155h-.394l-19.123-34.155h10.467zm-25.245-1.496c4.512 0 8.263 1.325 11.253 3.975 2.991 2.65 4.985 6.387 5.982 11.214l-25.656 8.657a8.922 8.922 0 003.541 3.148c1.469.734 3.096 1.102 4.88 1.102 2.466 0 4.958-.866 7.476-2.597l4.014 6.532a25.975 25.975 0 01-5.745 2.636c-2.047.656-4.014.984-5.903.984-3.83 0-7.148-.76-9.955-2.282-2.807-1.522-4.958-3.62-6.453-6.296-1.496-2.676-2.243-5.745-2.243-9.208 0-3.253.839-6.243 2.518-8.972 1.679-2.728 3.961-4.892 6.847-6.492 2.885-1.6 6.033-2.4 9.444-2.4zm-98.557-26.6v61.385h-8.815v-4.486c-3.672 3.568-8.027 5.352-13.064 5.352-3.095 0-5.889-.735-8.381-2.204-2.492-1.469-4.446-3.567-5.863-6.296-1.417-2.728-2.125-5.902-2.125-9.522s.748-6.768 2.243-9.444c1.495-2.676 3.568-4.709 6.217-6.1 2.65-1.39 5.653-2.085 9.011-2.085 2.414 0 4.696.46 6.847 1.378 2.151.918 3.882 2.164 5.194 3.738v-31.716h8.736zm-58.299 26.6c3.62 0 6.834.774 9.641 2.322 2.807 1.548 4.971 3.673 6.493 6.374 1.521 2.703 2.282 5.732 2.282 9.09 0 3.358-.761 6.388-2.282 9.09-1.522 2.702-3.686 4.84-6.493 6.414-2.807 1.574-6.047 2.36-9.719 2.36-3.568 0-6.768-.72-9.601-2.163-2.834-1.443-5.05-3.516-6.65-6.218-1.601-2.702-2.401-5.863-2.401-9.483 0-3.305.8-6.322 2.401-9.05 1.6-2.728 3.816-4.866 6.65-6.414 2.833-1.548 6.059-2.322 9.679-2.322zm-38.781 0c3.621 0 6.834.774 9.641 2.322 2.807 1.548 4.971 3.673 6.493 6.374 1.521 2.703 2.282 5.732 2.282 9.09 0 3.358-.761 6.388-2.282 9.09-1.522 2.702-3.686 4.84-6.493 6.414-2.807 1.574-6.047 2.36-9.719 2.36-3.568 0-6.768-.72-9.602-2.163-2.833-1.443-5.049-3.516-6.65-6.218-1.6-2.702-2.4-5.863-2.4-9.483 0-3.305.8-6.322 2.4-9.05 1.601-2.728 3.817-4.866 6.65-6.414 2.834-1.548 6.06-2.322 9.68-2.322zm-63.081-26.6v61.385h-8.814v-4.486c-3.673 3.568-8.027 5.352-13.064 5.352-3.096 0-5.89-.735-8.382-2.204-2.492-1.469-4.446-3.567-5.863-6.296-1.416-2.728-2.124-5.902-2.124-9.522s.747-6.768 2.242-9.444c1.496-2.676 3.568-4.709 6.218-6.1 2.649-1.39 5.653-2.085 9.011-2.085 2.413 0 4.695.46 6.846 1.378 2.151.918 3.883 2.164 5.195 3.738v-31.716h8.735zm-130.806 3.463c3.358 0 6.466.446 9.326 1.338 2.859.892 5.391 2.02 7.594 3.384l-3.62 8.578c-4.249-2.99-8.578-4.486-12.985-4.486-3.358 0-6.493.905-9.405 2.715-2.911 1.81-5.233 4.276-6.964 7.398-1.732 3.122-2.597 6.545-2.597 10.27 0 3.935.8 7.463 2.4 10.585 1.6 3.122 3.882 5.562 6.847 7.32 2.964 1.757 6.387 2.636 10.27 2.636 2.781 0 5.286-.42 7.516-1.26 2.229-.84 4.105-1.915 5.627-3.226l3.856 8.184c-1.679 1.207-4.001 2.361-6.965 3.463-2.964 1.102-6.204 1.653-9.719 1.653-5.929 0-11.11-1.299-15.543-3.896-4.434-2.597-7.844-6.086-10.231-10.467-2.387-4.38-3.581-9.194-3.581-14.441 0-5.719 1.194-10.834 3.581-15.346 2.387-4.512 5.719-8.04 9.995-10.585 4.275-2.545 9.142-3.817 14.598-3.817zm698.04 23.216c3.095 0 5.679.931 7.752 2.794 2.072 1.862 3.135 4.263 3.187 7.2v24.712h-8.814v-21.563c-.105-1.732-.617-3.096-1.535-4.093-.918-.996-2.295-1.521-4.132-1.574-2.728 0-4.971 1.168-6.728 3.503-1.758 2.334-2.637 5.312-2.637 8.932v14.795h-8.814v-33.29h7.949l.629 5.903c1.207-2.309 2.951-4.105 5.234-5.39 2.282-1.286 4.918-1.929 7.909-1.929zm-800.199-.079l-.394 8.815c-2.413-.21-4.565.223-6.453 1.298-1.889 1.076-3.358 2.545-4.407 4.407-1.05 1.863-1.574 3.843-1.574 5.942v14.323h-8.815v-33.29h7.949l.63 7.713c.891-1.784 2.151-3.384 3.777-4.8 1.627-1.417 3.292-2.506 4.997-3.267 1.706-.76 3.135-1.14 4.29-1.14zm-70.873-22.507v8.814H79.859v15.267h25.656v8.815H79.859v15.582h29.906v8.814H70.651v-57.293h38.012zm319.718-4.093v33.762c1.259-2.151 3.003-3.87 5.233-5.155 2.23-1.285 4.84-1.928 7.831-1.928 3.095 0 5.679.931 7.752 2.794 2.072 1.862 3.134 4.263 3.187 7.2v24.712h-8.815v-21.563c-.104-1.732-.616-3.096-1.534-4.093-.918-.996-2.295-1.521-4.132-1.574-2.728 0-4.971 1.18-6.728 3.542-1.758 2.36-2.637 5.325-2.637 8.893v14.795h-8.814v-61.385h8.657zm342.654 0v61.385h-8.814v-61.385h8.814zm-578.532 0v61.385h-8.814v-61.385h8.814zm710.457 26.6c3.253 0 5.837.919 7.752 2.755 1.915 1.836 2.925 4.25 3.03 7.24v24.79h-8.736v-21.406c-.105-1.784-.498-3.16-1.18-4.132-.682-.97-1.81-1.508-3.384-1.613-2.729 0-4.932 1.22-6.611 3.66-1.679 2.44-2.545 5.285-2.597 8.538v14.953h-8.893v-21.406c-.105-1.731-.511-3.095-1.22-4.092-.708-.997-1.875-1.548-3.502-1.653-1.784 0-3.358.577-4.722 1.731-1.364 1.155-2.426 2.676-3.187 4.565a15.65 15.65 0 00-1.141 5.902v14.953h-8.814v-33.29h7.948l.708 5.824c1.26-2.36 2.965-4.17 5.116-5.43 2.151-1.26 4.617-1.889 7.397-1.889 2.676 0 4.919.59 6.729 1.771 1.81 1.18 3.004 2.873 3.581 5.076 1.364-2.151 3.095-3.83 5.194-5.037 2.099-1.206 4.276-1.81 6.532-1.81zm-533.175-26.6v61.385h-8.814v-61.385h8.814zm-16.037 28.096v33.29h-8.814v-33.29h8.814zm656.192-14.638v14.638h8.65v6.925h-8.65v26.364h-8.82v-26.364h-5.741v-6.925h5.741v-14.638h8.82zm-696.232-13.458v33.762c1.259-2.151 3.004-3.87 5.233-5.155 2.23-1.285 4.84-1.928 7.831-1.928 3.096 0 5.68.931 7.752 2.794 2.072 1.862 3.135 4.263 3.187 7.2v24.712h-8.814v-21.563c-.105-1.732-.617-3.096-1.535-4.093-.918-.996-2.295-1.521-4.131-1.574-2.729 0-4.971 1.18-6.729 3.542-1.758 2.36-2.637 5.325-2.637 8.893v14.795h-8.814v-61.385h8.657zm304.564 4.093c7.188 0 13.13 1.416 17.825 4.25 4.696 2.832 8.119 6.479 10.27 10.938 2.151 4.46 3.227 9.208 3.227 14.245 0 5.561-1.298 10.454-3.896 14.677-2.597 4.224-6.073 7.477-10.427 9.759-4.355 2.282-9.103 3.423-14.245 3.423h-19.045v-57.293zm217.89 29.984c-2.57 0-4.735.63-6.492 1.889-1.758 1.259-3.03 3.016-3.817 5.272v6.69c.524 2.15 1.666 3.908 3.423 5.273 1.758 1.364 3.843 2.046 6.257 2.046 1.941 0 3.738-.46 5.391-1.378a10.883 10.883 0 003.974-3.738c.997-1.574 1.495-3.358 1.495-5.351 0-3.096-.983-5.653-2.951-7.673-1.967-2.02-4.394-3.03-7.28-3.03zm-42.165-.236c-2.728 0-5.01 1.036-6.846 3.108-1.837 2.073-2.755 4.578-2.755 7.516 0 2.99.918 5.496 2.755 7.516 1.836 2.02 4.118 3.03 6.846 3.03 2.834 0 5.155-.997 6.965-2.991 1.81-1.994 2.715-4.512 2.715-7.555s-.905-5.574-2.715-7.594c-1.81-2.02-4.131-3.03-6.965-3.03zm-279.87 0c-2.728 0-5.01 1.036-6.846 3.108-1.837 2.073-2.755 4.578-2.755 7.516 0 2.99.918 5.496 2.755 7.516 1.836 2.02 4.118 3.03 6.846 3.03 2.833 0 5.155-.997 6.965-2.991 1.81-1.994 2.715-4.512 2.715-7.555s-.905-5.574-2.715-7.594c-1.81-2.02-4.132-3.03-6.965-3.03zm-382.265 0c-2.781 0-5.142.983-7.083 2.95-1.942 1.968-2.912 4.474-2.912 7.517 0 1.993.472 3.803 1.416 5.43.945 1.626 2.204 2.912 3.778 3.856a9.765 9.765 0 005.115 1.417c2.414 0 4.447-.617 6.1-1.85 1.652-1.233 2.82-2.977 3.502-5.233v-7.24c-.63-2.047-1.85-3.7-3.66-4.959-1.81-1.259-3.895-1.888-6.256-1.888zm343.484 0c-2.728 0-5.01 1.036-6.846 3.108-1.837 2.073-2.755 4.578-2.755 7.516 0 2.99.918 5.496 2.755 7.516 1.836 2.02 4.118 3.03 6.846 3.03 2.834 0 5.155-.997 6.965-2.991 1.81-1.994 2.715-4.512 2.715-7.555s-.905-5.574-2.715-7.594c-1.81-2.02-4.131-3.03-6.965-3.03zm78.271-.315a9.978 9.978 0 00-5.116 1.377 10.426 10.426 0 00-3.777 3.778c-.945 1.6-1.417 3.397-1.417 5.39 0 1.994.472 3.804 1.417 5.43.944 1.627 2.203 2.913 3.777 3.857a9.766 9.766 0 005.116 1.417c2.518 0 4.669-.63 6.453-1.89 1.784-1.258 3.043-3.016 3.777-5.272v-7.083c-.629-2.046-1.875-3.725-3.738-5.037-1.862-1.311-4.027-1.967-6.492-1.967zm-160.161 0a9.975 9.975 0 00-5.115 1.377 10.428 10.428 0 00-3.778 3.778c-.944 1.6-1.416 3.397-1.416 5.39 0 1.994.472 3.804 1.416 5.43.944 1.627 2.204 2.913 3.778 3.857a9.762 9.762 0 005.115 1.417c2.518 0 4.669-.63 6.453-1.89 1.784-1.258 3.043-3.016 3.778-5.272v-7.083c-.63-2.046-1.876-3.725-3.738-5.037-1.863-1.311-4.027-1.967-6.493-1.967zm227.334-20.698h-9.601v39.743h8.185c4.092 0 7.699-.76 10.821-2.282 3.121-1.522 5.561-3.765 7.319-6.73 1.757-2.963 2.636-6.518 2.636-10.663 0-4.512-.957-8.276-2.872-11.293-1.915-3.017-4.355-5.233-7.319-6.65-2.965-1.417-6.021-2.125-9.169-2.125zm119.727 20.698c-2.78 0-5.05.97-6.807 2.912-1.758 1.94-2.637 4.46-2.637 7.555 0 .577.027 1.023.079 1.338l17.471-6.218c-.682-1.626-1.679-2.964-2.99-4.013-1.312-1.05-3.017-1.574-5.116-1.574zm-70.007 0c-2.78 0-5.05.97-6.807 2.912-1.758 1.94-2.636 4.46-2.636 7.555 0 .577.026 1.023.078 1.338l17.471-6.218c-.682-1.626-1.679-2.964-2.99-4.013-1.312-1.05-3.017-1.574-5.116-1.574zm265.801 0c-2.781 0-5.05.97-6.808 2.912-1.757 1.94-2.636 4.46-2.636 7.555 0 .577.026 1.023.079 1.338l17.471-6.218c-.682-1.626-1.679-2.964-2.991-4.013-1.311-1.05-3.017-1.574-5.115-1.574zm-586.655-22.036c1.259 0 2.4.46 3.423 1.377 1.023.919 1.535 2.034 1.535 3.345 0 1.312-.512 2.414-1.535 3.306-1.023.891-2.164 1.337-3.423 1.337-1.312 0-2.492-.446-3.542-1.337-1.049-.892-1.574-1.994-1.574-3.306 0-1.311.525-2.426 1.574-3.345 1.05-.918 2.23-1.377 3.542-1.377zm94.513-88.757c3.657 0 6.987.638 9.988 1.915 3.002 1.276 5.262 2.95 6.78 5.02l.932-4.969h10.661v43.991c0 4.071-1.087 7.745-3.261 11.023-2.173 3.278-5.21 5.866-9.108 7.763-3.899 1.898-8.298 2.847-13.197 2.847-4.762 0-8.73-.742-11.904-2.226-3.174-1.483-6.383-3.64-9.626-6.469l6.832-7.97c2.208 2.07 4.45 3.674 6.728 4.813 2.277 1.139 4.864 1.708 7.763 1.708 4.278 0 7.694-1.052 10.247-3.157s3.864-4.951 3.933-8.539v-7.349c-1.518 2.553-3.778 4.606-6.78 6.158-3.001 1.553-6.503 2.329-10.506 2.329-4.002 0-7.694-1.018-11.075-3.053-3.381-2.036-6.072-4.831-8.073-8.384-2.002-3.554-3.002-7.504-3.002-11.852 0-4.416 1.052-8.436 3.157-12.058 2.105-3.623 4.899-6.452 8.384-8.488 3.485-2.035 7.194-3.053 11.127-3.053zm396.947 1.966v28.361c.207 4.83 2.587 7.28 7.142 7.349 3.381 0 6.193-1.552 8.435-4.658 2.243-3.105 3.364-7.004 3.364-11.696v-19.356h11.593v43.784h-10.454l-.725-7.867c-1.518 2.967-3.76 5.331-6.728 7.09-2.967 1.76-6.348 2.64-10.143 2.64-4.002 0-7.332-1.225-9.989-3.675-2.656-2.449-4.019-5.606-4.088-9.471v-32.501h11.593zm113.581-1.138c6.9 0 12.593 1.863 17.079 5.589l-5.797 7.556c-1.311-1.035-2.846-1.915-4.606-2.639-1.76-.725-3.64-1.087-5.641-1.087-3.519 0-6.504 1.294-8.953 3.881-2.45 2.588-3.675 5.814-3.675 9.678 0 3.865 1.294 7.09 3.882 9.678 2.587 2.588 5.882 3.882 9.885 3.882 3.45 0 6.348-.966 8.694-2.899l5.797 7.246c-1.933 1.587-4.296 2.846-7.091 3.778-2.794.931-5.606 1.397-8.435 1.397-4.831 0-9.092-.931-12.784-2.794-3.691-1.864-6.538-4.537-8.539-8.022-2.001-3.485-3.002-7.573-3.002-12.266 0-4.623 1.07-8.677 3.209-12.162 2.139-3.484 4.986-6.158 8.539-8.022 3.554-1.863 7.367-2.794 11.438-2.794zm-155.881-.828c4.761 0 8.988 1.018 12.679 3.053 3.692 2.036 6.539 4.83 8.54 8.384 2.001 3.554 3.001 7.539 3.001 11.955 0 4.417-1 8.402-3.001 11.955-2.001 3.554-4.848 6.366-8.54 8.436-3.691 2.07-7.952 3.105-12.783 3.105-4.692 0-8.901-.949-12.627-2.846-3.727-1.898-6.642-4.623-8.747-8.177-2.104-3.554-3.157-7.711-3.157-12.473 0-4.347 1.053-8.315 3.157-11.903 2.105-3.588 5.02-6.4 8.747-8.436 3.726-2.035 7.97-3.053 12.731-3.053zm-713.436 0c7.108 0 12.421 2.622 15.94 7.866l.828-5.9h10.662v43.784h-11.593v-6.314c-1.587 1.863-3.726 3.571-6.418 5.123-2.69 1.553-5.83 2.329-9.419 2.329-4.209 0-7.97-.88-11.282-2.639-3.312-1.76-5.934-4.365-7.866-7.815-1.933-3.45-2.899-7.625-2.899-12.524 0-4.762 1.001-8.954 3.002-12.576 2.001-3.623 4.675-6.418 8.022-8.384 3.347-1.967 7.021-2.95 11.023-2.95zm542.479 0c7.107 0 12.42 2.622 15.94 7.866l.828-5.9h10.661v43.784h-11.593v-6.314c-1.587 1.863-3.726 3.571-6.417 5.123-2.691 1.553-5.831 2.329-9.419 2.329-4.21 0-7.97-.88-11.283-2.639-3.312-1.76-5.934-4.365-7.866-7.815-1.932-3.45-2.898-7.625-2.898-12.524 0-4.762 1-8.954 3.001-12.576 2.002-3.623 4.676-6.418 8.022-8.384 3.347-1.967 7.021-2.95 11.024-2.95zm-102.299 0c4.761 0 8.987 1.018 12.679 3.053 3.692 2.036 6.538 4.83 8.539 8.384 2.002 3.554 3.002 7.539 3.002 11.955 0 4.417-1 8.402-3.002 11.955-2.001 3.554-4.847 6.366-8.539 8.436-3.692 2.07-7.953 3.105-12.783 3.105-4.692 0-8.901-.949-12.628-2.846-3.726-1.898-6.641-4.623-8.746-8.177-2.105-3.554-3.157-7.711-3.157-12.473 0-4.347 1.052-8.315 3.157-11.903 2.105-3.588 5.02-6.4 8.746-8.436 3.727-2.035 7.97-3.053 12.732-3.053zm-382.871.828c6.9 0 12.593 1.863 17.078 5.589l-5.796 7.556c-1.311-1.035-2.847-1.915-4.606-2.639-1.76-.725-3.64-1.087-5.641-1.087-3.52 0-6.504 1.294-8.954 3.881-2.449 2.588-3.674 5.814-3.674 9.678 0 3.865 1.294 7.09 3.881 9.678 2.588 2.588 5.883 3.882 9.885 3.882 3.45 0 6.349-.966 8.695-2.899l5.796 7.246c-1.932 1.587-4.295 2.846-7.09 3.778-2.795.931-5.607 1.397-8.436 1.397-4.83 0-9.091-.931-12.783-2.794-3.692-1.864-6.538-4.537-8.539-8.022-2.001-3.485-3.002-7.573-3.002-12.266 0-4.623 1.07-8.677 3.209-12.162 2.139-3.484 4.985-6.158 8.539-8.022 3.554-1.863 7.366-2.794 11.438-2.794zm254.108-.828c5.935 0 10.869 1.742 14.802 5.227 3.933 3.485 6.555 8.401 7.866 14.75l-33.743 11.385a11.747 11.747 0 004.658 4.141c1.932.966 4.071 1.449 6.417 1.449 3.244 0 6.521-1.139 9.833-3.416l5.279 8.591a34.135 34.135 0 01-7.556 3.467c-2.691.863-5.279 1.294-7.763 1.294-5.037 0-9.402-1-13.093-3.001-3.692-2.002-6.521-4.762-8.488-8.281-1.966-3.519-2.95-7.556-2.95-12.11 0-4.279 1.104-8.212 3.312-11.8 2.209-3.588 5.21-6.435 9.006-8.539 3.795-2.105 7.935-3.157 12.42-3.157zm-133.316.828c6.9 0 12.593 1.863 17.078 5.589l-5.796 7.556c-1.311-1.035-2.846-1.915-4.606-2.639-1.76-.725-3.64-1.087-5.641-1.087-3.519 0-6.504 1.294-8.954 3.881-2.449 2.588-3.674 5.814-3.674 9.678 0 3.865 1.294 7.09 3.882 9.678 2.587 2.588 5.882 3.882 9.884 3.882 3.451 0 6.349-.966 8.695-2.899l5.796 7.246c-1.932 1.587-4.295 2.846-7.09 3.778-2.795.931-5.606 1.397-8.436 1.397-4.83 0-9.091-.931-12.783-2.794-3.691-1.864-6.538-4.537-8.539-8.022-2.001-3.485-3.002-7.573-3.002-12.266 0-4.623 1.07-8.677 3.209-12.162 2.139-3.484 4.986-6.158 8.539-8.022 3.554-1.863 7.366-2.794 11.438-2.794zm486.102-31.259c4.416 0 8.504.586 12.265 1.759 3.761 1.173 7.09 2.657 9.988 4.451l-4.761 11.282c-5.589-3.933-11.282-5.899-17.078-5.899-4.417 0-8.54 1.19-12.369 3.57-3.83 2.381-6.884 5.624-9.161 9.73-2.277 4.106-3.416 8.608-3.416 13.508 0 5.175 1.053 9.816 3.157 13.921 2.105 4.106 5.107 7.315 9.005 9.627 3.899 2.311 8.402 3.467 13.508 3.467 3.657 0 6.952-.552 9.885-1.656 2.933-1.104 5.4-2.519 7.401-4.244l5.072 10.765c-2.209 1.587-5.262 3.105-9.161 4.554-3.899 1.449-8.16 2.174-12.783 2.174-7.797 0-14.612-1.708-20.442-5.124-5.831-3.416-10.317-8.004-13.456-13.766-3.14-5.762-4.71-12.093-4.71-18.994 0-7.521 1.57-14.249 4.71-20.184 3.139-5.934 7.521-10.574 13.145-13.921 5.624-3.347 12.024-5.02 19.201-5.02zm-164.749 30.534c4.072 0 7.47 1.225 10.196 3.675 2.726 2.449 4.123 5.606 4.192 9.471v32.501h-11.593v-28.361c-.138-2.277-.811-4.071-2.018-5.382-1.208-1.312-3.019-2.002-5.434-2.071-3.589 0-6.539 1.536-8.85 4.606-2.312 3.071-3.468 6.987-3.468 11.748v19.46h-11.592v-43.784h10.454l.828 7.763c1.587-3.036 3.881-5.399 6.883-7.09 3.002-1.69 6.469-2.536 10.402-2.536zm-407.712 1.864v43.783h-11.593v-43.783h11.593zm500.075-36.952v80.735h-11.593v-80.735h11.593zm333.739 0v80.735h-11.593v-80.735h11.593zM910.534 330.89c4.071 0 7.47 1.225 10.195 3.675 2.726 2.449 4.124 5.606 4.193 9.471v32.501h-11.593v-28.361c-.138-2.277-.811-4.071-2.019-5.382-1.207-1.312-3.019-2.002-5.434-2.071-3.588 0-6.538 1.536-8.85 4.606-2.311 3.071-3.467 6.987-3.467 11.748v19.46h-11.593v-43.784h10.454l.828 7.763c1.588-3.036 3.882-5.399 6.884-7.09 3.001-1.69 6.469-2.536 10.402-2.536zm-573.218-29.706c8.418 0 15.163 2.139 20.235 6.417 5.072 4.279 7.608 10.213 7.608 17.803 0 4.624-.984 8.919-2.95 12.887-1.967 3.968-5.055 7.021-9.264 9.16l18.321 29.086h-13.974l-16.975-26.188h-12.11v26.188h-12.11v-75.353zm-128.142-5.279c1.725 0 3.589.259 5.59.776 2.001.518 3.726 1.26 5.175 2.226l-4.865 8.384c-1.173-1.242-2.725-1.863-4.658-1.863-5.106 0-7.659 3.45-7.659 10.35v16.872h12.007v10.247h-12.007v33.64h-11.593v-33.64h-7.452V332.65h7.452v-17.182c0-6.142 1.553-10.937 4.658-14.388 3.105-3.45 7.556-5.175 13.352-5.175zm-170.303 5.279c8.557 0 15.25 2.139 20.08 6.417 4.831 4.279 7.246 10.213 7.246 17.803 0 4.348-.862 8.402-2.588 12.162-1.725 3.761-4.502 6.832-8.332 9.213-3.83 2.38-8.746 3.57-14.75 3.57H29.66v26.188H17.55v-75.353zm950.259 31.57v43.783h-11.593v-43.783h11.593zm-755.528 0v43.783h-11.593v-43.783h11.593zm260.733 0v43.783h-11.593v-43.783h11.593zm30.914 7.555c-3.588 0-6.59 1.363-9.005 4.089-2.415 2.726-3.623 6.02-3.623 9.885 0 3.933 1.208 7.228 3.623 9.885 2.415 2.656 5.417 3.985 9.005 3.985 3.726 0 6.78-1.311 9.16-3.934 2.381-2.622 3.571-5.934 3.571-9.936 0-4.003-1.19-7.332-3.571-9.989-2.38-2.656-5.434-3.985-9.16-3.985zm-78.182 0c-3.933 0-7.228 1.294-9.885 3.882-2.656 2.588-3.985 5.882-3.985 9.885 0 2.622.621 5.003 1.863 7.142a13.89 13.89 0 005.02 5.072c2.105 1.242 4.434 1.863 6.987 1.863 3.381 0 6.297-.828 8.746-2.485 2.45-1.656 4.158-3.898 5.124-6.727v-9.523c-.966-2.76-2.691-4.968-5.175-6.624-2.485-1.657-5.383-2.485-8.695-2.485zm-358.892 0c-3.657 0-6.762 1.294-9.316 3.882-2.553 2.588-3.83 5.882-3.83 9.885 0 2.622.622 5.003 1.864 7.142 1.242 2.139 2.898 3.829 4.968 5.072a12.845 12.845 0 006.728 1.863c3.174 0 5.848-.811 8.022-2.433 2.173-1.621 3.709-3.916 4.606-6.883v-9.523c-.828-2.691-2.433-4.864-4.813-6.52-2.38-1.657-5.124-2.485-8.229-2.485zm542.478 0c-3.657 0-6.762 1.294-9.315 3.882s-3.83 5.882-3.83 9.885c0 2.622.621 5.003 1.863 7.142 1.242 2.139 2.898 3.829 4.968 5.072a12.847 12.847 0 006.728 1.863c3.175 0 5.849-.811 8.022-2.433 2.174-1.621 3.709-3.916 4.606-6.883v-9.523c-.828-2.691-2.432-4.864-4.813-6.52-2.381-1.657-5.123-2.485-8.229-2.485zm167.852 0c-3.588 0-6.59 1.363-9.005 4.089-2.415 2.726-3.622 6.02-3.622 9.885 0 3.933 1.207 7.228 3.622 9.885 2.415 2.656 5.417 3.985 9.005 3.985 3.727 0 6.78-1.311 9.161-3.934 2.38-2.622 3.571-5.934 3.571-9.936 0-4.003-1.191-7.332-3.571-9.989-2.381-2.656-5.434-3.985-9.161-3.985zm-402.639-.414c-3.657 0-6.642 1.277-8.954 3.83-2.311 2.553-3.467 5.865-3.467 9.937 0 .759.034 1.345.103 1.759l22.979-8.177c-.897-2.139-2.208-3.898-3.933-5.279-1.725-1.38-3.968-2.07-6.728-2.07zM40.838 312.778H29.659v25.98h10.869c3.312 0 5.986-.708 8.021-2.122 2.036-1.415 3.485-3.14 4.348-5.175.862-2.036 1.293-3.985 1.293-5.849 0-3.174-1.017-6.106-3.053-8.798-2.036-2.691-5.469-4.036-10.299-4.036zm298.548 0h-11.179v25.98h10.765c4.83 0 8.332-1.329 10.506-3.985 2.173-2.657 3.26-5.641 3.26-8.954 0-1.932-.414-3.881-1.242-5.848-.828-1.966-2.243-3.657-4.244-5.072-2.001-1.414-4.623-2.121-7.866-2.121zm-111.166-1.864c1.656 0 3.157.604 4.502 1.812 1.346 1.207 2.018 2.674 2.018 4.399s-.672 3.174-2.018 4.347c-1.345 1.173-2.846 1.76-4.502 1.76-1.726 0-3.278-.587-4.658-1.76-1.38-1.173-2.07-2.622-2.07-4.347 0-1.725.69-3.192 2.07-4.399 1.38-1.208 2.932-1.812 4.658-1.812zm-56.481 0c1.657 0 3.157.604 4.503 1.812 1.346 1.207 2.018 2.674 2.018 4.399s-.672 3.174-2.018 4.347c-1.346 1.173-2.846 1.76-4.503 1.76-1.725 0-3.277-.587-4.657-1.76s-2.071-2.622-2.071-4.347c0-1.725.691-3.192 2.071-4.399 1.38-1.208 2.932-1.812 4.657-1.812zm812.009 0c1.656 0 3.157.604 4.502 1.812 1.346 1.207 2.019 2.674 2.019 4.399s-.673 3.174-2.019 4.347c-1.345 1.173-2.846 1.76-4.502 1.76-1.725 0-3.278-.587-4.658-1.76-1.38-1.173-2.07-2.622-2.07-4.347 0-1.725.69-3.192 2.07-4.399 1.38-1.208 2.933-1.812 4.658-1.812zm-494.795 0c1.656 0 3.157.604 4.502 1.812 1.346 1.207 2.019 2.674 2.019 4.399s-.673 3.174-2.019 4.347c-1.345 1.173-2.846 1.76-4.502 1.76-1.725 0-3.278-.587-4.658-1.76-1.38-1.173-2.07-2.622-2.07-4.347 0-1.725.69-3.192 2.07-4.399 1.38-1.208 2.933-1.812 4.658-1.812z" fill="#19464C"/><path d="M6.721 449.124L8.53 434.06h6.119l.603-4.589H9.13l.928-7.556c.402-3.09 1.73-4.635 3.986-4.635.866 0 1.515.278 1.947.835l2.689-3.755c-.618-.433-1.36-.765-2.225-.997a9.505 9.505 0 00-2.457-.347c-2.596 0-4.682.772-6.258 2.317-1.576 1.545-2.534 3.693-2.874 6.444l-.927 7.694H.603L0 434.06h3.337L1.53 449.123h5.19zm17.883.51c2.75 0 4.975-.61 6.675-1.83 1.7-1.221 2.912-2.697 3.639-4.427.726-1.731 1.089-3.4 1.089-5.007 0-1.978-.494-3.7-1.483-5.168a9.654 9.654 0 00-3.894-3.36 11.722 11.722 0 00-5.145-1.16c-2.627 0-4.798.572-6.513 1.715-1.715 1.144-2.967 2.573-3.755 4.288-.788 1.715-1.182 3.469-1.182 5.261 0 2.07.525 3.84 1.576 5.308a9.759 9.759 0 004.01 3.291c1.622.726 3.283 1.09 4.983 1.09zm.139-4.31c-1.422 0-2.689-.464-3.801-1.391-1.113-.927-1.669-2.333-1.669-4.219 0-1.05.216-2.093.649-3.128a6.32 6.32 0 011.993-2.596c.896-.696 2.024-1.043 3.384-1.043.804 0 1.623.185 2.457.556.834.37 1.537.974 2.109 1.808.572.834.858 1.931.858 3.291a8.14 8.14 0 01-.626 3.106 6.168 6.168 0 01-1.97 2.572c-.896.696-2.024 1.043-3.384 1.043zm17.836 3.8l1.066-8.436c.155-1.236.603-2.403 1.344-3.5a7.95 7.95 0 012.897-2.596c1.19-.633 2.496-.888 3.917-.764l.881-5.192c-1.39 0-2.92.494-4.589 1.483a10.482 10.482 0 00-3.894 3.987l.278-4.59h-4.681l-2.364 19.608h5.145z" fill="#FF9886"/><path d="M627.874 162.754l-1.48 25.307-6.928-.969c-.573 1.09-.881 2.35-1.047 3.7l-3.651 10.894c-1.71.868-3.445 1.729-5.203 2.581-9.446 4.58-19.51 8.964-30.267 12.956a1.006 1.006 0 00.641 1.906c11.088-3.342 21.534-7.046 31.306-11.143.55-.23 1.098-.462 1.645-.695l-9.27 27.663-2.74-2.59c-.368.626-.587 1.46-.881 3.764l-16.349 25.997-8.777 14.144-6.385 4.676-2.794-1.62c.297-1.32-.094-1.69-.852-2.052l-4.122.153-3.437-10.648-2.833-.468-.021-18.73-2.939-4.189 2.228-19.765 1.988-16.875 6.262-15.128c1.031-.917 1.764-1.304 1.529-3.701.56-1.797 1.118-3.637 1.683-5.506 7.915-1.317 15.779-2.96 23.46-4.992 9.177-2.429 18.092-5.415 26.562-8.896a180.422 180.422 0 0012.672-5.774zM600.966 14.743c.363-3.912.015-8.014-.992-12.292 1.554-.955 3.283-1.371 5.11-1.486l2.201 1.323c5.851.053 15.059 8.038 17.971 10.844.384.37.63.989 1.232 1.02l4.547 3.245.866 7.174 3.518.303 6.009 10.761c-1.456 3.3-3.983 6.395-7.921 9.726 3.325-.953 7.025-.759 9.66 1.184 2.872-3.86 6.702-4.189 10.638-4.122 10.73-8.711 22.598-14.399 35.413-17.567 3.609-9.696 23.29-12.798 31.18-5.006 8.986 1.347 17.777 2.526 24.14 6.595 5.536 10.272 7.046 21.099 4.827 32.439l-6.121.191c.907 6.413-33.532 32.914-41.628 32.373-.685.04-1.116.084-1.75.276L666.87 103.87l-7.745.478c-5.048.941-10.313 1.399-15.674 1.642-3.729 1.307-7.432 2.665-10.912 4.451l3.462 28.964c-1.599-.109-3.08-.143-4.297.394l-.06 15.127c-5.885 3.048-12.1 5.799-18.558 8.285-8.332 3.207-17.069 5.935-26.011 8.32a335.494 335.494 0 01-20.008 4.685c3.01-9.754 6.463-19.902 11.525-28.625a61.98 61.98 0 002.617-2.401c10.267-1.904 20.335-4.302 30.061-7.235a1.4 1.4 0 00-.76-2.693c-8.183 2.151-16.594 3.885-25.15 5.267 5.422-7.284 4.421-13.138-2.321-17.716l-.154.423c-7.665 5.31-16.004 6.115-23.411 9.398-5.253 2.329-10.452 1.879-16.57 4.083l-32.982 4.078-2.626-2.599c-11.393.616-22.441.875-33.316-1.446-12.286 1.308-23.312 1.16-31.367-2.418l-22.055-2.8c-2.59-2.34-6.019-2.468-9.707-1.914-1.242-.652-2.652-.76-4.127-.654l-9.678 3.866c-6.226-1.336-11.845-2.707-16.752-4.074a1.007 1.007 0 00-.586 1.925 285.293 285.293 0 0012.916 3.915l-29.253 11.686c-.68-.459-1.355-.92-2.024-1.385-6.607-4.589-12.68-9.341-18.027-14.47a1.006 1.006 0 00-1.473 1.37 130.642 130.642 0 0012.209 12.879 134.737 134.737 0 004.15 3.669l-18.835 7.524-8.186 7.322-.119-.17-.166-.24 2.071-6.018c-.314-.02-.626.03-1 .225-1.558.319-3.06.659-4.507 1.009-1.321-1.822-2.632-3.622-3.927-5.411-3.979-5.496-7.73-10.789-10.968-15.994a1.007 1.007 0 00-1.786.925c1.518 3.659 3.165 7.402 5.043 11.221a173.845 173.845 0 005.808 10.783c-12.994 3.604-21.126 6.895-27.466.044a42.836 42.836 0 01-1.068-2.373l-11.659-2.307-4.328-9.151c3.294-5.065 5.42-10.635 6.513-16.65l9.377-8.613 5.663.079c.508-.115.95-.478 1.332-1.067 3.55-.258 6.254-2.489 8.27-6.327 6.088-.444 12.043.445 17.886 2.438l.753-3.578c2.914-2.401 7.722-.532 13.474 1.894.774-.078.911-.188 1.164-.863 10.646.346 21.493.024 32.62-1.236 1.879-1.151 3.32-2.791 4.304-4.946-8.944-5.02-22.297-9.335-37.571-13.341a88.82 88.82 0 01.805-1.927c.67-1.554 1.393-2.978 2.08-4.348l17.581-4.117-2.635-2.212 23.355-14.665-7.62 4.329c-1.92-2.251-5.448-4.116-9.742-5.797-1.834 1.383-3.91 2.015-6.362 1.477l-.106-1.954-4.394-.775-.696-2.787-2.283-1.031 1.765-7.8 5.965-1.83 2.382-2.635 4.855-1.518 3.251.908c1.304-.545 2.92-.601 4.804-.233-2.605 2.52-5.058 5.33-7.372 8.46a.716.716 0 001.105.907 64.923 64.923 0 019.391-8.471c2.588.947 5.534 2.456 8.767 4.416l.197-1.884c4.475 1.803 8.972 3.594 11.815 6.347l5.632-3.537c3.395-.927 5.86-3.337 8.14-6.042l4.352.515 18.192-11.713c1-.005 1.881-.397 2.752-1.065l7.814-1.1 5.289-2.194c.479.201.973.18 1.539.004l14.984-3.593s2.399-2.562 2.493-2.565c.813-.021 4.167-1.059 4.826-1.56l10.633-1.605 10.982-.741 2.639.043 6.755-1.737 4.97.632s23.811-2.446 24.551-1.956c.477.316 2.509 1.804 2.703 1.697l1.76-2.41 28.244 3.799c.933.173 2.465.158 4.001.142l12.37 2.315 14.757 7.158c.273.289.867.342 1.712.394l4.065 2.252.165-8.015.771-2.764-1.542-3.107c.56.159 1.121.325 1.686.5 3.692 1.14 7.442 2.571 11.254 4.559a.715.715 0 00.767-1.207c-3.558-2.711-7.104-4.937-10.739-6.653a42.103 42.103 0 00-3.948-1.615 42.339 42.339 0 00-1.409-.472zm30.651 146.84l-.875-.31.878-.469-.003.779zM338.884 88.397a41.146 41.146 0 00-1.169 4.304 668.834 668.834 0 00-8.36-2.073l9.529-2.231z" fill="#FFF"/><path d="M579.299 217.222a1.02 1.02 0 01.119-.031 275.893 275.893 0 0032.553-9.809c11.285-4.172 21.516-8.888 30.776-13.958a200.089 200.089 0 0019.026-11.847c6.439-4.527 12.252-9.186 17.396-13.994 7.888-7.372 14.24-15.012 19.042-22.697 9.192-14.711 12.785-29.474 10.706-42.192a1.022 1.022 0 012.006-.385c2.919 13.228.138 29.004-8.791 44.901-4.644 8.268-10.958 16.563-18.998 24.5a138.037 138.037 0 01-17.86 14.858c-6.022 4.213-12.673 8.166-19.913 11.825-9.634 4.868-20.328 9.2-32.076 12.853a238.508 238.508 0 01-13.886 3.851c-11.383 26.059-24.044 49.439-32.605 60.488-.461.596-1.061 1.196-1.754 1.788a4.674 4.674 0 00-.198-.1l-4.122.153-3.437-10.648-2.833-.468-.021-18.73-2.939-4.189 2.228-19.765 1.988-16.875 6.262-15.128c1.031-.917 1.764-1.304 1.529-3.701l.117-.377c-.509.08-1.017.159-1.526.237-13.999 2.137-28.094 3.253-41.645 3.528-14.822.302-28.974-.459-41.653-1.987a1.006 1.006 0 11.191-2.003c12.614.887 26.641.848 41.29-.087a360.664 360.664 0 0040.894-4.989 335.32 335.32 0 0026.732-5.971c8.942-2.385 17.679-5.113 26.011-8.32 11.747-4.522 22.694-9.924 32.313-16.393 15.834-10.648 28.096-24.09 34.303-40.988a1.021 1.021 0 011.934.661c-5.635 17.796-17.64 32.395-33.621 44.059-9.669 7.058-20.791 13.037-32.813 17.978l-.627.256c-3.654 11.16-8.047 22.744-12.765 34.013a336.609 336.609 0 01-23.333 9.683zm-71.022 8.314c-11.497.605-23.43.38-35.611-.437a449.867 449.867 0 01-11.801-.947 523.875 523.875 0 01-11.759-1.26 857.652 857.652 0 01-9.388-1.143c-4.684-.598-9.374-1.235-14.059-1.99a354.925 354.925 0 01-13.996-2.534c-7.006-1.42-13.949-3.031-20.808-4.972a1.005 1.005 0 00-.64 1.907c6.717 2.62 13.53 4.985 20.466 7.026a236.513 236.513 0 0013.987 3.655c4.715 1.08 9.447 2.032 14.198 2.8 3.183.516 6.374.946 9.563 1.29 4.015.434 8.028.726 12.025.929 4.038.204 8.056.306 12.05.295 12.361-.036 24.418-.997 35.966-2.586a1.022 1.022 0 00-.193-2.033zm-194.025-72.553c-9.892 1.165-21.091-.382-36.86-6.661l-.279-.588c3.294-5.065 5.42-10.635 6.513-16.65l9.377-8.613 5.663.079c.508-.115.95-.478 1.332-1.067 3.55-.258 6.254-2.489 8.27-6.327 6.088-.444 12.043.445 17.886 2.438l.753-3.578c2.914-2.401 7.722-.532 13.474 1.894.774-.078.911-.188 1.164-.863 10.646.346 21.493.024 32.62-1.236 1.879-1.151 3.32-2.791 4.304-4.946-8.944-5.02-22.297-9.335-37.571-13.341a88.82 88.82 0 01.805-1.927c.67-1.554 1.393-2.978 2.08-4.348l16.686-3.907 22.995 17.907 17.088 7.863 3.739.889 14.512 7.45-.074.203c6.23 2.61 12.763 4.474 19.526 5.772 8.894 4.009 19.032 5.79 29.802 6.44 2.582.665 5.341 1.001 8.285.994.819.165 1.378.244 2.293.368 9.817 1.393 20.166 2.446 30.747 2.55 7.677 2.431 18.965 1.494 33.448-2.421l2.129 1.374c1.069.356 3.055.574 6.341-1.717 4.88.063 10.287-2.122 15.872-5.062 6.218-1.007 11.753-3.797 16.9-7.599l.324.395 15.095-9.949 17.044-10.782.333.179c1.556-1.8 3.193-3.661 4.72-5.582 13.498.895 25.129.207 35.684-2.505 6.671 3.191 21.41 4.187 39.989 1.902l.053.652-30.444 11.207-7.745.478c-5.048.941-10.313 1.399-15.674 1.642-3.729 1.307-7.432 2.665-10.912 4.451l.223 1.864c-2.247-4.308-6.189-7.953-10.263-10.608-4.484 7.959 1.738 8.075 2.788 17.13 1.204 10.383-1.301 25.261-5.973 41.87a204.741 204.741 0 01-6.228 2.514c-8.332 3.207-17.069 5.935-26.011 8.32a335.494 335.494 0 01-20.008 4.685c2.693-8.727 5.74-17.769 9.978-25.824-11.358 3.129-22.922 5.415-34.513 6.933-16.085 2.106-32.214 2.773-47.853 2.234a283.504 283.504 0 01-19.127-1.326 311.698 311.698 0 01-28.418-4.271c-9.863-1.945-19.21-4.285-27.874-6.905-15.902-4.809-29.483-10.548-39.74-16.455a1.006 1.006 0 01.962-1.767c10.366 5.335 24.013 10.275 39.862 14.337 8.638 2.214 17.924 4.154 27.698 5.747 8.989 1.465 18.385 2.606 28.06 3.417 6.165.517 12.441.889 18.798 1.131 15.352.585 31.17.235 47.01-1.424 23.275-2.437 46.592-7.573 68.417-16.715a1.35 1.35 0 01.181-.065c-8.183 2.15-16.593 3.884-25.148 5.266 5.422-7.284 4.421-13.138-2.321-17.716l-.154.423c-7.665 5.31-16.004 6.115-23.411 9.398-5.253 2.329-10.452 1.879-16.57 4.083l-32.982 4.078-2.626-2.599c-11.393.616-22.441.875-33.316-1.446-12.286 1.308-23.312 1.16-31.367-2.418l-22.055-2.8c-2.59-2.34-6.019-2.468-9.707-1.914-1.242-.652-2.652-.76-4.127-.654l-5.115 2.043-.005-.184-.564-.185a172.89 172.89 0 003.163-2.044l7.026-5.893c-27.44-20.205-36.987 4.876-58.025 16.222-3.51-2.735-6.815-5.553-9.883-8.495.06.064.111.137.154.218 3.333 5.584 7.483 10.599 12.271 15.222 4.531 4.375 9.695 8.259 15.37 11.845a143.017 143.017 0 0010.116 5.804c3.384 1.769 6.891 3.486 10.566 5.076a166.328 166.328 0 0013.226 5.073 182.733 182.733 0 0020.674 5.628 1.021 1.021 0 01-.312 2.019c-10.637-1.101-20.603-2.942-29.794-5.697a112.417 112.417 0 01-9.634-3.374c-3.236-1.299-6.349-2.718-9.312-4.286a82.05 82.05 0 01-7.073-4.203 84.095 84.095 0 01-9.756-7.585c-3.116-2.811-5.956-5.789-8.501-8.95a73.264 73.264 0 01-4.062-5.557c-9.213 3.919-16.794 7.529-24.625 9.669-3.64-5.048-7.068-9.929-10.06-14.737a.997.997 0 01.097.283c1.136 4.28 2.84 8.436 4.893 12.597 1.931 3.916 4.273 7.711 6.845 11.513a185.096 185.096 0 004.647 6.542c1.582 2.132 3.195 4.278 4.917 6.385a140.017 140.017 0 006.404 7.342c3.326 3.54 6.836 6.97 10.67 10.195a1.022 1.022 0 01-1.192 1.659c-6.14-3.77-11.832-7.928-16.912-12.573a80.085 80.085 0 01-5.009-5.02 71.991 71.991 0 01-4.558-5.462 59.713 59.713 0 01-3.2-4.725 68.783 68.783 0 01-3.98-7.587 70.486 70.486 0 01-1.939-4.759zM731.77 88.79c4.914 5.399 7.392 13.855 7.617 23.903.119 5.325-.444 11.077-1.626 17.103-.798 4.073-1.918 8.25-3.266 12.516-1.267 4.006-2.732 8.086-4.486 12.18-2.486 5.8-5.476 11.628-9.101 17.344-3.431 5.408-7.328 10.73-11.879 15.798a1.006 1.006 0 001.426 1.419c5.183-4.694 9.784-9.67 13.797-14.879a105.861 105.861 0 007.604-11.308c2.36-4.046 4.401-8.144 6.09-12.256a85.142 85.142 0 003.021-8.642 85.263 85.263 0 002.434-11.202c.586-3.944.88-7.779.871-11.454-.036-13.968-4.006-25.525-11.057-31.967a1.022 1.022 0 00-1.445 1.445zm22.859-10.435c4.185 2.638 7.343 6.842 9.763 11.907 1.435 3.002 2.53 6.31 3.4 9.817.616 2.482 1.066 5.06 1.457 7.691.382 2.566.707 5.174.88 7.819.258 3.957.271 7.946-.108 11.905-.389 4.06-1.061 8.032-2.242 11.839a1.006 1.006 0 001.865.754 56.578 56.578 0 004.4-11.909 58.99 58.99 0 001.433-8.419c.283-2.866.367-5.739.219-8.578a47.391 47.391 0 00-.645-5.708 49.559 49.559 0 00-1.761-6.982c-.772-2.345-1.682-4.585-2.761-6.677-3.648-7.076-8.74-12.545-14.945-15.265a1.021 1.021 0 00-.955 1.806zM331.364 62.864c-4.367 2.163-8.361 5.181-11.828 8.776a44.312 44.312 0 00-3.225 3.763 43.775 43.775 0 00-2.804 4.089 38.697 38.697 0 00-1.87 3.499 45.413 45.413 0 00-2.162 5.54 43.155 43.155 0 00-1.431 5.77c-.558 3.239-.678 6.251-.372 8.892a.706.706 0 00.726.682.706.706 0 00.681-.726c.13-2.487.764-5.232 1.736-8.153.562-1.691 1.254-3.412 2.045-5.17.74-1.645 1.592-3.289 2.496-4.953.581-1.069 1.187-2.14 1.812-3.213a85.778 85.778 0 012.408-3.936 71.431 71.431 0 012.654-3.786c2.841-3.774 6.073-7.215 9.861-9.842a.716.716 0 00-.727-1.232zm4.741 26.183c.305-1.347.707-2.7 1.214-4.045a28.33 28.33 0 011.38-3.087c.64-1.23 1.375-2.43 2.177-3.599a38.538 38.538 0 012.543-3.324c2.71-3.154 5.861-5.932 9.241-8.262a.715.715 0 01.911 1.102c-2.005 1.992-3.798 4.207-5.475 6.542a63.36 63.36 0 00-3.05 4.714c-.796 1.345-1.513 2.713-2.211 4.07a77.173 77.173 0 00-1.987 4.142c-1.075 2.435-1.969 4.823-2.473 7.205-.56 2.643-.778 5.185-.376 7.625a.705.705 0 01-1.36.364c-.875-2.316-1.272-4.832-1.259-7.509a24.49 24.49 0 01.183-2.829 663.79 663.79 0 00-6.207-1.528l6.749-1.581zm33.756-38.152c-1.14 1.323-3.25 4.088-3.203 4.053 5.232-4.302 10.829-8.226 16.989-11.751a111.036 111.036 0 016.101-3.237 112.371 112.371 0 016.276-2.875c1.675-.702 3.39-1.366 5.144-1.991a144.968 144.968 0 017.865-2.525 184.212 184.212 0 017.961-2.135c3.883-.951 7.889-1.797 12.055-2.622a.704.704 0 11.354 1.363c-4.012 1.3-7.846 2.653-11.583 3.994a389.546 389.546 0 00-11.412 4.309c-2.562 1.01-5.055 2.036-7.51 3.036-2.541 1.034-5.038 2.039-7.472 3.083-3.375 1.448-6.637 2.929-9.8 4.498a153.718 153.718 0 00-7.967 4.231c6.61 2.26 14.979 4.471 16.231 9.112l10.247-6.326c.149.104.224.157.217.156-.126-.03-35.888 22.147-41.588 25.683l-.037-.031 23.355-14.665-7.62 4.329c-1.92-2.251-5.448-4.116-9.742-5.797-1.834 1.383-3.91 2.015-6.362 1.477l-.106-1.954-4.394-.775-.696-2.787-2.283-1.031 1.765-7.8 5.965-1.83 2.382-2.635 4.52-1.413c-.617 2.063 1.324 3.545 4.348 4.856zm247.2-27.412c-3.558-2.711-7.103-4.937-10.738-6.653a42.103 42.103 0 00-3.948-1.615 42.339 42.339 0 00-1.409-.472 34.804 34.804 0 00-.054-6.786c11.759-5.681 35.722 21.854 31.774 37.704l-6.749-.125-25.94-13.427-.227-.852.126.008 4.065 2.252.165-8.015.771-2.764-.335-.674c-1.068-.223-2.126-.44-3.179-.655-1.264-.259-2.513-.5-3.745-.77a382.428 382.428 0 01-4.961-1.122c-2.557-.596-5.023-1.197-7.459-1.696-2.715-.556-5.315-1.066-7.895-1.407a.705.705 0 01-.68-.727.705.705 0 01.728-.68 83.887 83.887 0 017.379-.183c1.62.035 3.253.126 4.924.273 1.613.142 3.243.325 4.894.592a48.37 48.37 0 013.219.634c1.316.306 2.631.672 3.956 1.071 1.294.39 2.588.812 3.888 1.282 3.735 1.351 11.387 4.779 11.43 4.807zm-218.086 2.33a79.402 79.402 0 00-10.379 1.607c-1.135.255-2.261.55-3.386.874a52.992 52.992 0 00-3.327 1.06 39.97 39.97 0 00-2.591 1.039 61.744 61.744 0 00-3.767 1.84 70.902 70.902 0 00-3.66 2.059 65.294 65.294 0 00-5.25 3.513.704.704 0 00.703 1.22c1.606-.693 3.551-1.381 5.76-2.147 1.231-.427 2.52-.857 3.873-1.313 1.255-.423 2.551-.836 3.868-1.294a87.54 87.54 0 002.548-.929c1.05-.403 2.096-.836 3.148-1.261 1.055-.426 2.101-.854 3.146-1.284 3.331-1.369 6.546-2.669 9.583-3.58a.715.715 0 10-.269-1.404zm269.372-1.604a42.916 42.916 0 00-7.135-5.001 33.469 33.469 0 00-2.607-1.297 30.673 30.673 0 00-2.701-1.075 24.562 24.562 0 00-2.23-.64 37.022 37.022 0 00-3.423-.621 45.635 45.635 0 00-3.454-.35c-1.744-.107-3.443-.114-5.186-.078a.704.704 0 10-.17 1.397c2.613.676 5.115 1.552 7.655 2.447 1.004.353 1.991.71 2.986 1.057.663.231 1.321.466 1.985.674 1.123.352 2.24.673 3.342 1.005 1.726.521 3.397 1.012 5.016 1.591 1.813.649 3.518 1.291 5.13 2.081a.714.714 0 10.792-1.19z" fill="#FF9886"/><path d="M674.594 63.699c8.835-3.702 16.378-7.93 16.378-7.93 4.841 17.203 32.331 18.706 39.067-1.562 7.422-.456 13.997.601 19.392 4.333l-.066.344-6.121.191c.907 6.413-33.532 32.914-41.628 32.373-.685.04-1.116.084-1.75.276l-15.519 5.301-67.812.992-17.044 10.782s-26.101 16.146-32.319 17.153c-5.585 2.94-10.992 5.125-15.872 5.062-3.286 2.291-5.272 2.073-6.341 1.717l-2.129-1.374c-14.483 3.915-25.771 4.852-33.448 2.421-10.581-.104-20.93-1.157-30.747-2.55a32.263 32.263 0 01-2.293-.368c-2.944.007-5.703-.329-8.285-.994-10.77-.65-20.908-2.431-29.802-6.44-6.763-1.298-13.296-3.162-19.526-5.772l.074-.203-14.512-7.45-3.739-.889-17.088-7.863-21.315-16.599a161.23 161.23 0 01-1.32-1.393l.535-.125-2.063-1.732c1.094-1.931 44.648-15.778 44.387-13.233l.453-3.868c11.576-5.772 23.216-10.227 34.99-11.918l-.401-5.144c16.2-4.717 31.234-7.333 45.115-7.87l-1.221-4.891c17.398-2.193 34.888-2.837 52.654 1.106l-.827-5.375c5.369.282 10.647.828 16.112 1.372-2.224 5.224.21 13.348 4.106 21.221-.918.082-1.835.168-2.752.255-1.893.181-3.782.37-5.67.563-4.603.47-9.189.962-13.771 1.415-.208-.136-1.65-1.071-3.286-2.097a475.414 475.414 0 00-5.02-3.096.162.162 0 00-.181.27s2.538 1.88 4.762 3.479a272.09 272.09 0 002.879 2.041 114.665 114.665 0 00-1.73 4.492 379.483 379.483 0 00-1.323 3.67c-.734 2.061-1.294 3.682-1.294 3.682a.157.157 0 10.292.116s.705-1.563 1.587-3.565c.494-1.123 1.045-2.38 1.558-3.577.366-.856.715-1.678 1.009-2.396.466-1.145.803-2.02.914-2.312 1.713-.069 6.095-.25 11.354-.515 1.555-.078 3.185-.167 4.846-.269 1.068-.066 2.148-.137 3.228-.22 1.079-.082 2.158-.176 3.224-.271a408.37 408.37 0 004.831-.461l.27-.028c5.384 13.142 13.26 24.967 19.535 27.011l2.808-.493c.672 1.819 4.329 9.316 14.237 15.373-.426.195-.845.405-1.256.626-4.192 2.256-7.676 5.74-12.268 7.535a.235.235 0 10.159.444c4.69-1.531 8.373-4.807 12.689-6.822a18.175 18.175 0 013.262-1.179.758.758 0 00.16-.066l24.351-7.158c2.66-3.957 4.452-8.153 3.872-12.582 1.019-.299 2.091-.282 3.356.882.763-.73 1.799-1.497 2.944-2.224.775.23 1.662.564 2.317 1.534 1.308-.315 4.254-1.637 6.025-2.885l1.816-2.805s5.511-2.693 7.332-4.555c1.738.237 3.302 1.015 4.658 2.446 4.647-.409 10.436-2.249 15.941-4.436a58.737 58.737 0 004.376 8.033 58.513 58.513 0 004.028 5.445 64.964 64.964 0 001.78 2.077 48.152 48.152 0 00-.392 2.134 84.566 84.566 0 00-.461 3.505.155.155 0 00.304.057s.498-1.826.851-3.431c.201-.912.35-1.75.413-2.116.367-.126.731-.261 1.099-.391 1.018-.358 2.039-.684 3.023-1.149.347-.164.686-.347 1.015-.548.736-.447 1.43-.961 2.122-1.49 1.572-1.2 3.051-2.535 4.508-3.973a.148.148 0 00.018-.209.15.15 0 00-.209-.018 57.302 57.302 0 01-3.548 2.313c-.99.598-1.991 1.138-2.991 1.679-.429.233-.865.451-1.281.701-1.132.681-2.178 1.454-3.339 2.055-.213.11-.431.212-.649.312a40.451 40.451 0 01-1.582-2.034c-1.273-1.768-2.408-3.659-3.443-5.656-1.325-2.558-2.438-5.294-3.382-8.219zm-153.246 54.113c-1.097.534-3.199.932-5.76 1.261-1.235.158-2.572.293-3.957.419-.976.089-1.975.168-2.974.252-.998.085-1.995.176-2.975.249a76.685 76.685 0 01-4.47.222c-1.749.024-3.284-.034-4.443-.246a.236.236 0 10-.111.458c1.786.527 4.516.839 7.56.908.989.022 2.009.016 3.039-.022a41.474 41.474 0 004.035-.336 51.731 51.731 0 003.001-.474c3.291-.629 6.02-1.469 7.292-2.265a.244.244 0 00-.237-.426zm-60.644-2.487a7.543 7.543 0 01-1.617.508c-.714.138-1.41.171-1.995.093a.236.236 0 01.042-.47c.539.026 1.168-.061 1.807-.239a7.004 7.004 0 001.673-.71l.278-.152.205.24c.348.377.963.672 1.73.916 1.316.418 3.078.622 4.88.572a16.198 16.198 0 003.461-.459c1.163-.292 2.218-.721 2.996-1.368l.421-.346.458.297c1.605 1.085 3.404 1.988 5.718 2.828 2.451.889 5.46 1.717 9.453 2.493a.244.244 0 11-.074.481c-4.105-.479-7.229-1.045-9.766-1.803-2.275-.681-4.074-1.513-5.694-2.474-.693.474-1.518.849-2.426 1.112-1.399.404-2.991.559-4.547.518-1.619-.043-3.196-.298-4.476-.702-1.109-.35-1.998-.813-2.527-1.335zm90.115-1.609a51.95 51.95 0 01-3.999 1.877c-2.384.985-4.611 1.66-6.675 2.036-2.902.529-5.479.464-7.729-.177a.235.235 0 01-.172-.286.235.235 0 01.286-.171c2.195.469 4.661.346 7.41-.326 1.971-.482 4.079-1.257 6.342-2.305a57.568 57.568 0 004.027-2.058l.19-.103.216.015c.899.063 1.779.107 2.639.15 1.369.068 2.688.114 3.956.131 2.377.031 4.57-.04 6.573-.242 3.377-.341 6.203-1.03 8.412-2.175a.244.244 0 01.239.425c-2.196 1.331-5.052 2.271-8.511 2.821-2.034.324-4.275.514-6.707.569a65.917 65.917 0 01-6.497-.181zm-122.357-3.656c1.342.477 2.796.92 4.305 1.356 1.017.293 2.058.574 3.107.855.691.185 1.383.372 2.075.554 1.048.277 2.092.546 3.124.79.889.211 1.765.407 2.622.584 2.27.469 4.389.801 6.198.882a.243.243 0 11.002.487c-1.962.107-4.314 0-6.831-.323a56.637 56.637 0 01-4.492-.77 46.613 46.613 0 01-2.218-.525 43.672 43.672 0 01-2.187-.635 60.992 60.992 0 01-6.376-2.462l-.317-.13.015-.342c.07-.768.181-1.628.369-2.53.168-.8.392-1.629.697-2.456a.235.235 0 11.45.14 17.17 17.17 0 00-.426 2.429 21.718 21.718 0 00-.117 2.096zm102.681 3.11c-.111-.954-.154-1.902-.227-2.891-.028-.38-.063-.759-.101-1.144a17.945 17.945 0 00-.087-.758c-.035-.251-.08-.501-.127-.753a48.024 48.024 0 00-.23-1.128c-.202-.942-.422-1.869-.605-2.845a.236.236 0 10-.471.026c-.078 1.004-.15 1.968-.158 2.945-.003.397.007.788.032 1.18.016.263.039.524.074.782a15.899 15.899 0 00.423 1.922c.285.971.638 1.875 1.005 2.784a.244.244 0 00.472-.12zm-55.736-2.86c.277-.851.561-1.763.784-2.807a15.816 15.816 0 00.279-1.911c.017-.252.023-.509.021-.77a17.598 17.598 0 00-.043-1.156c-.063-.924-.182-1.865-.305-2.88a.236.236 0 00-.472-.006c-.148 1.002-.32 1.926-.461 2.832-.06.385-.114.757-.159 1.126-.031.254-.059.504-.076.75-.019.255-.026.506-.033.753-.01.389-.016.764-.014 1.131.004 1.044.037 1.976-.001 2.851a.244.244 0 00.48.087zm189.819-26.622s-.492-.005-1.221.112a5.152 5.152 0 00-.772.178 4.161 4.161 0 00-.542.225c-.182.089-.349.191-.516.292-.85.519-1.503.987-1.503.987a.129.129 0 10.096.239s.795-.111 1.769-.322c.19-.041.382-.083.574-.144.188-.059.375-.126.549-.21.253-.123.477-.263.682-.404.607-.418.96-.761.96-.761a.103.103 0 00-.076-.192zm4.177.294c.928-.24 1.837-.45 2.749-.726.604-.183 1.198-.38 1.786-.606.439-.168.87-.359 1.296-.556.429-.198.847-.412 1.265-.629 1.264-.655 2.488-1.344 3.729-2.026a.129.129 0 00-.105-.236c-1.336.462-2.67.894-4.012 1.364-.443.156-.885.311-1.323.483-.436.171-.87.348-1.296.545-.569.263-1.125.547-1.679.845-.837.452-1.63.939-2.463 1.41a.071.071 0 00.053.132zm-6.318-11.449c.164 1.165.321 2.3.628 3.413.205.748.471 1.477.782 2.18.316.71.697 1.383 1.096 2.044.6.994 1.272 1.924 1.995 2.834a.148.148 0 10.247-.164 34.918 34.918 0 01-1-2.038c-.439-.956-.815-1.931-1.2-2.917a47.132 47.132 0 00-.503-1.248c-.294-.69-.6-1.373-.9-2.069-.303-.7-.621-1.379-.908-2.097a.122.122 0 00-.237.062zM487.673 55.329l-4.755-3.516a.157.157 0 01.178-.259l5.243 3.333.236.162-.093.27s-.553 1.836-1.368 4.318a156.378 156.378 0 01-1.742 4.988 313.033 313.033 0 01-1.188 3.182c-1.125 2.969-2.035 5.286-2.035 5.286a.162.162 0 01-.307-.105s.706-2.387 1.643-5.421c.318-1.029.664-2.132 1.019-3.24.232-.722.466-1.447.703-2.153.338-1.003.673-1.971.989-2.852a205.26 205.26 0 011.477-3.993zm-45.978 7.106s-.533.634-1.17 1.503c-.144.197-.287.406-.43.624a8.326 8.326 0 00-.266.428 8.26 8.26 0 00-.236.445c-.116.234-.221.464-.319.687-.431.987-.723 1.763-.723 1.763a.157.157 0 10.272.157s.527-.64 1.167-1.506c.145-.196.292-.403.436-.62a7.444 7.444 0 00.506-.87c.118-.233.228-.461.326-.684.435-.986.719-1.765.719-1.765a.163.163 0 10-.282-.162zm24.088-7.791c-2.205.322-4.391.683-6.556 1.14-.87.184-1.734.386-2.595.602-.575.144-1.148.295-1.717.458a52.04 52.04 0 00-1.699.519c-.847.272-1.686.561-2.521.866a95.602 95.602 0 00-6.161 2.517.157.157 0 00.117.292 120.18 120.18 0 014.193-1.384 166.54 166.54 0 014.226-1.252c.677-.192 1.356-.379 2.034-.573 1.016-.29 2.031-.584 3.05-.868 1.018-.285 2.037-.567 3.061-.839a144.77 144.77 0 014.627-1.159.162.162 0 00-.059-.319zm48.587-5.309s-3.284.534-7.46 1.285a232.327 232.327 0 00-4.954.953c-.661.138-1.32.283-1.971.429-1.013.228-2.005.459-2.95.683a653.726 653.726 0 00-7.355 1.792.158.158 0 00-.122.186.158.158 0 00.186.122s3.283-.543 7.46-1.291a251.19 251.19 0 002.976-.55c.656-.125 1.319-.255 1.98-.392s1.32-.282 1.972-.427c1.012-.226 2.005-.452 2.95-.676 4.129-.976 7.355-1.796 7.355-1.796a.162.162 0 00-.067-.318z" fill="#FFB4A7"/><path d="M573.273 276.31c.298-.669 1.037-2.294 1.993-4.207 2.198-4.396 5.46-10.324 5.46-10.324a2.45 2.45 0 01.295-.426c2.531-2.92 5.073-6.3 7.494-9.851 1.219-1.786 2.381-3.629 3.539-5.458a185.25 185.25 0 011.516-2.344c.872-1.333 1.728-2.616 2.549-3.927.867-1.383 1.701-2.682 2.447-4.048a.754.754 0 111.42.509 52.646 52.646 0 01-1.299 5.334 41.703 41.703 0 01-1.207 3.457 41.399 41.399 0 01-1.626 3.557c-1.188 2.31-2.586 4.53-4.015 6.68-2.191 3.3-4.571 6.372-6.897 9.107-.607 1.116-3.389 6.21-5.612 9.953-1.436 2.418-2.658 4.25-2.658 4.25a2.016 2.016 0 01-.786.795l-6.896 2.838a1.128 1.128 0 01-1.297-.138l-1.782-2.085a.743.743 0 01.982-1.114l1.51.992 4.87-3.55zm-20.412-28.601l-2.469-2.916a1.665 1.665 0 01-.365-.936c-.171-2.093-.305-4.07-.266-5.942.029-1.387.163-2.71.308-3.977.424-3.721 1.169-6.945 2.185-9.764l.037-.102a6.66 6.66 0 00.365-1.175c.634-3.1-.141-7.594.412-12.65.222-2.024.718-4.11 1.391-6.216 1.327-4.155 3.549-8.36 7.272-12.22a1.746 1.746 0 012.591 2.337c-3.036 3.599-4.65 7.433-5.658 11.127-.524 1.92-.813 3.816-1.141 5.618-.786 4.326-1.402 8.183-2.07 11.137-.25 1.106-.501 2.095-.875 2.926-.596 2.197-.993 4.63-1.192 7.344-.13 1.766-.109 3.643-.107 5.652.001 1.644-.022 3.374.053 5.199l2.446 3.189c.318.394.424.92.284 1.406-.739 2.478-.998 4.85-.948 7.209.07 3.248.655 6.456 1 9.871l1.569-.013a1.794 1.794 0 011.701 1.306s.678 2.044 1.31 4.4a140.8 140.8 0 011.238 5.057l3.371-1.176a1.285 1.285 0 01.978 2.376l-4.904 2.34a1.581 1.581 0 01-2.125-1.034s-1.228-3.483-2.137-6.553a87.024 87.024 0 01-.872-3.18l-1.73-.063a1.723 1.723 0 01-1.697-1.636c-.122-4.083-.622-7.853-.661-11.648-.025-2.39.11-4.792.706-7.293zm60.611-36.521a597.33 597.33 0 00-.722 2.876c-1.128 4.545-2.163 8.875-3.303 12.57-.395 1.28-.799 2.48-1.256 3.579-.878 2.106-1.829 3.822-2.762 5.185a1.427 1.427 0 01-2.17.453l-2.791-3.156a.743.743 0 11.938-1.151l1.927 1.103c.302-1.165.55-2.498.87-3.97.254-1.165.551-2.399.858-3.705.78-3.315 1.639-7.057 2.603-10.98.094-.385.19-.771.287-1.159a228.262 228.262 0 005.334-1.587l.187-.058zm-3.037-7.344l.275-.879c.285-.898.574-1.794.905-2.673a37.14 37.14 0 011.087-2.618 43.866 43.866 0 011.998-3.784c.751-1.27 1.532-2.418 2.358-3.589a.755.755 0 011.369.635c-.58 2.115-.972 4.243-1.441 6.484-.18.86-.359 1.707-.564 2.57-.078.326-.159.65-.244.976-1.886.969-3.8 1.929-5.743 2.878zm18.158-36.296c.048.816.056 1.623.046 2.442-.024 1.901-.118 3.799-.145 5.673-.035 2.487-.001 4.925.074 7.249.054 1.665.08 3.267.217 4.79a2.17 2.17 0 01-2.465 2.452s-2.029-.643-3.807-1.325c-1.396-.534-2.513-1.054-2.513-1.054a.743.743 0 01.217-1.469s1.22-.173 2.711-.28c.366-.027.741-.05 1.108-.067l-.029-.192a42.703 42.703 0 01-.37-3.84 73.69 73.69 0 01.102-9.561c.065-.862.133-1.727.249-2.586 1.554-.725 3.09-1.47 4.605-2.232zm-62.668 19.622c-.207.444-.43.86-.675 1.245a.94.94 0 11-1.695-.815l.016-.049c.785-.124 1.57-.25 2.354-.38zm12.769-37.238c-.215.502-.455 1.072-.705 1.683-1.516 3.705-3.429 8.836-3.429 8.836l-.151.256c-1.584 2.665-2.56 5.265-3.314 7.735-.417 1.365-.692 2.698-1.011 3.971-.147.586-.324 1.149-.487 1.708-.165.566-.32 1.123-.466 1.671-1.663.347-3.329.681-4.997 1.002.01-.496.026-1.001.051-1.517.054-1.104.107-2.238.325-3.402.138-.738.375-1.471.615-2.217.62-1.929 1.404-3.919 2.507-5.908.973-1.758 2.165-3.498 3.617-5.248l-.151.256s2.84-4.599 4.834-8.062c.922-.249 1.842-.504 2.762-.764zM318.17 161.801c-.62.245-1.23.484-1.829.715-2.273.877-4.398 1.638-6.413 2.162-1.613.419-3.158.701-4.643.74-2.26.059-4.4-.351-6.373-1.431-1.674-.917-3.214-2.313-4.674-4.292a.827.827 0 011.245-1.089c1.52 1.471 3.037 2.391 4.562 2.998.661.263 1.324.448 1.997.585 1.02.208 2.063.257 3.147.221a25.177 25.177 0 004.103-.5c1.962-.393 4.052-.963 6.303-1.612.519-.149 1.046-.302 1.58-.457.32.656.652 1.309.995 1.96zm35.405-11.911a77.37 77.37 0 002.085 2.257 526.906 526.906 0 01-15.498 4.427c-1.339.888-2.726 1.978-4.155 3.241a74.608 74.608 0 00-4.29 4.145l-.65-.939c-.207-.297-.414-.592-.622-.886.39-.732.758-1.45 1.09-2.147.568-1.199 1.028-2.332 1.294-3.368a.483.483 0 01.942.216c-.226 1.107-.65 2.326-1.187 3.619l-.205.481a66.798 66.798 0 012.394-2.453c1.494-1.452 2.954-2.703 4.367-3.723l.295-.141a476.573 476.573 0 0014.14-4.729zm-26.645 7.372a81.727 81.727 0 014.853-.924.34.34 0 11.14.666 75.648 75.648 0 00-4.266 1.26l-.155-.215-.572-.787zm-43.592-29.533l.056-.602a1.673 1.673 0 01.81-1.273c1.544-.846 2.91-1.832 4.199-2.878 1.384-1.123 2.683-2.298 3.965-3.5a1.214 1.214 0 011.058-.356l4.88 1.049a.925.925 0 11-.284 1.827l-4.28-.417c-1.323 1.516-2.665 3.016-4.189 4.394-.9.814-1.869 1.571-2.912 2.28l-.06.559a1.664 1.664 0 01-.731 1.22l-.991.628a40.4 40.4 0 00-.767 2.581 35.07 35.07 0 00-.693 3.241 1.327 1.327 0 01-.096.363c-.697 1.487-1.41 2.879-2.075 4.212-.486.975-.947 1.915-1.401 2.808-.41.804-.803 1.575-1.2 2.303a52.267 52.267 0 011.635 2.553 41.656 41.656 0 011.796 3.329c.115.264.151.557.103.841l-.023.181.67.414c1.361.002 2.667.073 3.982.252 1.566.214 3.137.562 4.89.851 1.462.242 3.03.487 4.827.628a1.056 1.056 0 01-.02 2.109 50.178 50.178 0 01-5.819.008c-1.807-.1-3.447-.236-5.082-.377-1.065-.092-2.123-.219-3.236-.239-.32 0-.632-.095-.897-.273l-1.819-1.312a1.535 1.535 0 01-.66-1.532l.172-.823a38.349 38.349 0 00-1.247-2.761 49.978 49.978 0 00-1.706-3.127 1.207 1.207 0 01-.02-1.278c.87-1.396 1.791-2.96 2.629-4.736.7-1.484 1.324-3.116 1.98-4.838.085-1.162.23-2.296.418-3.415.2-1.186.46-2.346.752-3.493.108-.362.339-.674.652-.884l.734-.517zm345.759 28.487a51.968 51.968 0 01-.221-5.242c.006-1.325.046-2.665.18-4.007.089-.885.186-1.768.381-2.642.168-.747.39-1.433.646-2.158.262-.745.546-1.385.848-2.116a.604.604 0 011.199.138c.127.769.277 1.443.39 2.213.109.741.205 1.435.27 2.178.036.416.057.823.064 1.239.014.96-.017 1.914-.026 2.865a110.6 110.6 0 00.079 5.58 162.004 162.004 0 01-3.81 1.952zm-240.598-20.899a170.05 170.05 0 005.152 2.373 167.604 167.604 0 01-6.778 3.179c-5.857 2.609-12.523 5.167-20.027 7.702a205.404 205.404 0 01-3.464-2.282c8.21-3.141 15.419-6.244 21.705-9.273a148.78 148.78 0 003.412-1.699zm53.111.73c-.694.054-1.536.092-2.489.083-2.249-.023-5.128-.268-8.091-.681-4.142-.577-8.414-1.531-11.386-2.912a1.472 1.472 0 01-.686-.566c-.372-.653-.826-1.026-1.399-1.203-1.889-.585-4.33-.085-6.745-.986a.905.905 0 01.535-1.73c2.509.62 4.885-.173 6.835.192 1.078.202 2.027.7 2.871 1.668 2.261.715 5.183 1.081 8.156 1.291 2.758.194 5.546.198 7.91.157 1.17-.02 2.231-.068 3.128-.096.81-.025 1.477-.024 1.949-.069a2.385 2.385 0 012.16.895c2.032 2.92 5.729 3.849 10.085 4.077 1.836.096 3.781.104 5.773-.06 4.542-.373 9.298-1.331 13.789-1.634a1.86 1.86 0 011.04.274c1.861 1.068 3.898 1.53 6.053 1.818.926.124 1.872.237 2.846.3 5.018.319 10.651-.195 16.625-.136 2.394.023 4.839.108 7.322.441.286.033.55.17.741.386l1.639 1.909c8.366-1.297 15.319-1.026 22.548-2.039 3.078-.431 6.207-1.102 9.522-2.235a.868.868 0 01.572 1.638c-3.415 1.217-6.643 1.948-9.822 2.441-7.373 1.144-14.474.958-23.074 2.506a1.121 1.121 0 01-1.03-.363l-1.785-1.967a48.383 48.383 0 00-6.579-.104c-6.055.31-11.701 1.506-16.803 1.512-1.121.001-2.218-.042-3.281-.19-2.526-.35-4.864-1.151-7.001-2.456-4.269.044-8.799.425-13.085.732-.625.045-1.245.096-1.858.155-2.704.261-5.272.479-7.637.352-3.755-.201-6.938-1.248-9.348-3.4zm142.476 4.685c1.292-1.882 2.128-3.742 2.622-5.483.533-1.881.526-3.618.224-5.197-.498-2.601-1.916-4.823-4.475-6.19a.957.957 0 01-.57-.959c-5.628 2.915-10.814 4.391-14.157 4.358-1.11.602-2.317 1.131-3.548 1.695-2.927 1.339-6.05 2.799-9.283 3.628-.929.238-1.868.387-2.792.528-2.337.357-4.572.524-6.587.621a.978.978 0 01-.582-.105l-2.373-1.522a.743.743 0 01.694-1.313l2.234.951c2.295-.489 4.836-1.25 7.503-2.014a37.982 37.982 0 011.536-.404c2.055-.498 4.153-.947 6.144-1.6 1.317-.432 2.609-.875 3.789-1.457.824-.406 1.573-.9 2.296-1.38.192-.115.412-.177.636-.181 2.781-.2 6.783-2.12 11.401-4.777.621-.358 1.253-.73 1.905-1.094.94-.524 1.915-1.041 2.899-1.591 3.609-2.017 7.466-4.203 11.002-6.825 1.498-1.112 2.898-2.341 4.281-3.542.172-.144.374-.249.591-.306 2.735-.83 5.198-2.058 7.636-3.433 1.033-.583 2.073-1.168 3.107-1.813a55.532 55.532 0 009.659-7.623.695.695 0 111.051.911c-2.319 3.17-4.64 5.865-7.139 8.136-1.2 1.09-2.408 2.106-3.723 2.936-2.917 1.843-6.125 2.964-9.525 3.765-1.086.85-2.217 1.664-3.317 2.531-3.891 3.068-7.782 6.238-11.694 8.758-.751.484-1.493.958-2.239 1.394 3.33 1.162 5.706 3.483 6.723 6.505.434 1.292.576 2.729.426 4.222-.232 2.321-1.202 4.797-2.942 7.313-1.134.192-2.272.377-3.413.557zm35.702-39.702a39.885 39.885 0 015.669 4.191 25.042 25.042 0 013.42 3.69 17.266 17.266 0 012.316 4.151c1.268 3.203 1.323 6.434 1.142 9.602-.126 2.216-.359 4.399-.44 6.496-.063 1.63-.046 3.214.177 4.722.073.498.13.999.289 1.469.113.334.231.643.411.943.361.6.669 1.093 1.168 1.587.501.496.882.854 1.488 1.256a.744.744 0 001.023.237.745.745 0 00.237-1.024c-.079-.603-.005-1.04-.013-1.631-.007-.534.104-.962.116-1.493.005-.255.037-.493.022-.749-.023-.368-.074-.733-.101-1.106-.093-1.272-.041-2.592.05-3.954.141-2.095.399-4.277.503-6.497.182-3.882-.012-7.899-1.843-11.701-1.059-2.197-2.629-4.337-4.981-6.286a24.312 24.312 0 00-3.831-2.601c-1.773-.975-3.798-1.853-6.18-2.667a.754.754 0 10-.642 1.365zm-81.103 30.518c-2.046.452-4.082.79-6.095 1.134-.873.15-1.74.299-2.602.456-2.941.533-5.826 1.007-8.715 1.169-3.96.223-7.861.016-11.739-.838a.44.44 0 10-.243.847c4.849 1.719 9.869 2.475 15.056 2.461 2.528-.007 5.094-.135 7.662-.567 2.474-.417 4.922-1.147 7.401-1.885a1.436 1.436 0 00-.725-2.777zm-143.555 3.738c.679.184 1.366.368 2.061.552l-.239.131c-.613-.227-1.221-.454-1.822-.683zm112.304-2.931c-1.352-.089-2.686-.206-4.013-.292-1.35-.088-2.685-.192-4.008-.233-4.183-.127-8.2-.087-12.049-.302-2.988-.167-5.847-.384-8.596-.723a.44.44 0 00-.165.866 128.23 128.23 0 0017.166 3.164c1.521.175 3.064.347 4.636.417 2.282.102 4.607.011 6.971-.028a1.436 1.436 0 001.464-1.405 1.436 1.436 0 00-1.406-1.464zm-113.176-.134a303.708 303.708 0 005.013-2.882c2.484-1.455 4.785-2.778 6.853-4.139 2.454-1.614 4.613-3.131 6.438-4.758a1.014 1.014 0 011.484 1.381 46.147 46.147 0 01-5.743 6.2 54.71 54.71 0 01-7.38 5.619c-2.297-.469-4.52-.943-6.665-1.421zm74.005-1.677c-6.965-.158-13.58-.748-19.71-2.017a66.47 66.47 0 01-9.061-2.531c-.255-.091-.516-.169-.76-.283a5.994 5.994 0 01-.714-.398c-.72-.463-1.329-.961-1.994-1.483l.282.083c-.236-.077-.454-.174-.694-.228-.957-.215-1.92-.259-2.853-.407-4.744-.752-9.072-1.935-13.915-3.926a70.954 70.954 0 01-4.601-2.066 46.425 46.425 0 01-1.903-1.005c-2.787-1.553-5.765-3.427-9.161-5.541a1.233 1.233 0 01-.218-1.983l1.912-1.577a1.116 1.116 0 011.498 1.652l-.514.512c2.253 1.145 4.341 2.175 6.289 3.146 1.148.573 2.252 1.11 3.303 1.653 1.531.79 2.957 1.567 4.347 2.263 2.317 1.159 4.483 2.17 6.665 2.999 2.61.991 5.203 1.787 8.018 2.353.476.095.953.23 1.448.257.217.012.422-.027.642-.041l.282.083c.772.159 1.501.23 2.279.408.315.071.623.155.93.262 3.906 1.364 7.919 2.872 12.28 3.864 5.069 1.153 10.456 1.963 16.109 2.465a.755.755 0 01.256.061c1.03.491 2.234.86 3.659 1.071 1.161.172 2.459.246 3.924.203a.467.467 0 01.059.932c-1.528.151-2.893.165-4.119.07-1.521-.119-2.827-.419-3.965-.851zm-143.541-16.208l.32-2.969a1.484 1.484 0 011.22-1.388c3.675-.444 5.948-.273 7.6.219 1.465.437 2.449 1.085 3.44 1.799.832.598 1.663 1.234 2.914 1.727a.649.649 0 01-.404 1.232c-2.734-.724-3.787-2.219-6.44-2.682-1.272-.222-2.918-.158-5.354.35l.02 2.182a1.665 1.665 0 01-.115.535c.555.168 1.127.337 1.719.507a.614.614 0 11-.273 1.196c-5.12-.87-8.807-1.813-12.713-2.255a34.368 34.368 0 00-7.226-.088c-.585 1.432-1.358 2.468-2.333 3.24a9.562 9.562 0 01-2.554 1.429c-1.14.435-2.381.724-3.742 1.189a.71.71 0 01-.644-1.264 75.912 75.912 0 012.71-1.818c.845-.548 1.584-1.093 2.235-1.759.703-.72 1.237-1.623 1.547-2.965a1.641 1.641 0 011.448-1.211c3.467-.166 6.287.061 8.979.616 2.518.52 4.908 1.3 7.646 2.178zm16.605-21.856l.254.07c6.192 1.703 11.988 3 18.58 5.207 5.658 1.894 11.881 4.484 19.42 8.598.112.041.219.1.317.174.1.063.18.146.24.24a1.251 1.251 0 01-.169 1.693c-1.19 1.02-1.943 2.007-2.845 2.879-.46.445-.953.866-1.54 1.252a1.17 1.17 0 01-.474.188c-4.745.674-9.059.953-13.2 1.062-6.656.175-12.855-.088-19.684.179a.702.702 0 01-.074-1.403c6.82-.46 13.028-.373 19.678-.736 3.977-.218 8.111-.599 12.636-1.36.365-.274.68-.567.977-.872.745-.762 1.389-1.599 2.259-2.477-4.92-2.334-9.266-4.049-13.254-5.409-8.057-2.747-14.666-3.941-21.592-5.596-.9-.215-1.803-.438-2.716-.674.383-1.052.782-2.05 1.187-3.015zm39.532-44.002c.596.377 1.192.771 1.812 1.167.952.609 1.923 1.231 3.017 1.789l-.228-1.715a.44.44 0 01.223-.405.44.44 0 01.462.021c1.913 1.106 4.219 1.774 6.56 2.594 1.54.539 3.112 1.08 4.539 1.903.183.105.362.218.528.348a5.757 5.757 0 011.032 1.028 294.562 294.562 0 014.533-2.343.76.76 0 01.745 1.323c-6.348 3.954-12.505 8.268-18.748 12.528-2.907 1.983-5.819 3.957-8.777 5.869a120.5 120.5 0 01-3.844 2.408c-.93.554-1.87 1.09-2.823 1.6a91.75 91.75 0 01-4.363 2.187 69.578 69.578 0 01-5.25 2.208 50.826 50.826 0 014.418 2.113 53.069 53.069 0 015.512 3.478c3.689 2.653 6.997 5.705 9.88 8.415a32.96 32.96 0 005.648 4.411c6.389 3.94 11.864 4.632 15.737 8.877a1.37 1.37 0 11-1.958 1.917c-2.06-1.956-4.514-2.861-7.274-3.84-2.585-.916-5.419-1.86-8.489-3.491-2.123-1.128-4.336-2.596-6.657-4.584-1.773-1.542-3.751-3.138-5.82-4.762-1.355-1.066-2.768-2.118-4.172-3.196-.925-.711-1.842-1.434-2.758-2.155-1.161-.914-2.301-1.82-3.443-2.709a20.895 20.895 0 01-.2-.157c-6.255.86-11.704 2.53-17.97 4.06.416-.858.836-1.682 1.24-2.49.156-.314.311-.624.466-.93 3.587-.764 6.97-1.515 10.455-2.089 1.1-.181 2.21-.342 3.339-.48-.27-.204-.54-.404-.813-.6a1.384 1.384 0 01-.606-1.76.793.793 0 01.413-.571c1.334-.938 2.607-1.893 3.936-2.842.877-.627 1.746-1.24 2.637-1.849a233.24 233.24 0 013.998-2.688 115.63 115.63 0 012.71-1.718c.804-.495 1.615-.98 2.427-1.461-.6-.439-1.265-.875-1.979-1.305-1.865-1.125-4.038-2.212-6.279-3.198-.27.046-.516.206-.804.383-.522.319-1.127.704-1.99.924-.87.221-1.999.292-3.574-.068l-.268-.048.016-.271c.035-.323.05-.66.015-1.028a4.87 4.87 0 00-.047-.356 8.336 8.336 0 01-1.578-.143 9.59 9.59 0 01-.596-.128c-.346-.084-.687-.184-1.05-.248-.335-.058-.671-.125-1.04-.127l-1.204.144.404-1.143c.1-.189.179-.414.179-.705 0-.41-.054-.882-.208-1.446l-2.358-.473-.678-.196.147-.69s.107-.82.288-1.938c.14-.869.315-1.915.505-2.892.33-1.7.684-3.187.684-3.187l.121-.573 6.437-1.708 2.384-2.718.136-.167 5.111-1.237.145-.041 2.947 1.122a.277.277 0 01.201-.152c1.636-.469 3.09-.616 4.464-.533.411.025.813.072 1.207.138-.45.42-.896.85-1.337 1.287a12.459 12.459 0 00-3.816-.373.345.345 0 01-.417.486l-3.255-.954-4.448 1.434-2.241 2.949-.16.196-5.67 1.805a88.136 88.136 0 01-.564 2.636 93.285 93.285 0 01-1.063 4.119l1.683.64a.547.547 0 01.27.874c.326.52.532.986.666 1.411.027.087.05.172.067.256a7.112 7.112 0 011.741.037c.239.034.474.085.704.149.223.061.438.135.654.213.311.114.605.239.917.354.306.111.583.239.908.32a.546.546 0 11-.026 1.092 7.196 7.196 0 01-.78.094 5.204 5.204 0 01.158 1.146c1.303.139 2.232-.002 2.943-.258.89-.32 1.423-.829 1.915-1.178.399-.282.785-.462 1.217-.511l.138-.009.13.049c2.44.8 4.823 1.717 6.884 2.703a26.53 26.53 0 013.185 1.777c2.789-1.643 5.583-3.273 8.384-4.891 4.384-2.532 8.778-5.01 13.207-7.386a6.724 6.724 0 01-.684-.358c-1.332-.793-2.675-1.562-4.045-2.256-2.01-1.018-3.973-1.986-5.627-3.176l-.038 1.262a.266.266 0 01-.064.186l-.008.024a.345.345 0 01-.443.206 28.147 28.147 0 01-4.385-1.525c-.881-.386-1.72-.79-2.543-1.195.673-.349 1.35-.694 2.031-1.036zm266.829 55.415a16.662 16.662 0 01-1.371-2.736c-.944-2.374-1.636-5.31-2.086-8.722a.51.51 0 011.001-.184c.758 3.207 1.691 5.942 2.82 8.113.952 1.832 2.049 3.217 3.317 4.084a1.25 1.25 0 01.004 1.986l-.065.047c-.283.19-.631.255-.96.184-.779.04-1.484.115-2.168.166-.758.058-1.447.138-2.102.21a1.257 1.257 0 01-.761.083l-.665.068c-.618.063-1.2.115-1.769.207a18.918 18.918 0 00-4.728 1.388 1.26 1.26 0 01-.244.108l-.013.006a.782.782 0 01-.895-.056l-.013-.012a1.212 1.212 0 01-.299-.2c-1.079-1.079-2.137-3.084-2.902-5.519-.844-2.69-1.396-5.873-1.398-8.687a.51.51 0 011.016-.054c.231 2.21.844 4.621 1.651 6.789.896 2.407 2.029 4.487 3.175 5.502.413-.316.821-.608 1.236-.877-.632-.979-1.163-2.189-1.57-3.579-.659-2.254-1.048-4.955-1.187-7.753a.508.508 0 111.012-.11c.44 2.638 1.098 5.158 1.972 7.222.532 1.259 1.148 2.324 1.858 3.096.487-.206.991-.38 1.521-.526a18.89 18.89 0 01-.934-2.387c-.745-2.339-1.189-4.982-1.475-7.791a.509.509 0 111.005-.161c.581 2.647 1.285 5.122 2.251 7.271.442.984.944 1.887 1.518 2.698.36-.012.73-.006 1.113.018.369.023.746.058 1.135.108zm17.655-1.288c-1.389-.919-2.693-2.038-3.93-3.345a25.116 25.116 0 01-2.115-2.575c-1.366-1.896-2.586-4.035-3.63-6.37a35.869 35.869 0 01-1.181-3.051 57.121 57.121 0 01-1.369-4.678 86.042 86.042 0 01-1.485-7.375c-.586-3.699-.966-7.451-1.24-11.131a.937.937 0 111.86-.242 141.694 141.694 0 003.672 15.249 118.34 118.34 0 001.954 5.878c.471 1.308.96 2.582 1.451 3.824.532 1.347 1.061 2.652 1.634 3.9.605 1.319 1.222 2.571 1.901 3.752 1.293 2.248 2.705 4.216 4.427 5.772 2.225-.776 4.317-1.597 6.333-2.375 1.548-.597 3.045-1.185 4.51-1.741 4.044-1.533 7.784-2.948 11.438-4.224 3.385-1.182 6.69-2.177 10.111-2.939a.407.407 0 01.224.781c-4.53 1.582-8.752 3.675-13.316 5.866-2.807 1.348-5.715 2.761-8.889 4.092a90.043 90.043 0 01-4.926 1.873c-1.607.564-3.283 1.09-5.027 1.613l-.107.035-.112.018c-.864.111-1.681.187-2.47.224-3.276.156-5.991-.211-9.391.272-.406.074-.8-.107-1.016-.43-1.412-1.457-2.641-3.385-3.614-5.772-1.088-2.67-1.885-5.898-2.331-9.624a.51.51 0 011.004-.167c.752 3.52 1.786 6.536 3.059 8.992 1.049 2.024 2.27 3.631 3.634 4.791l.008.007a29.069 29.069 0 012.454-.342c-1.004-1.066-1.907-2.305-2.715-3.734-1.444-2.556-2.607-5.693-3.552-9.456a.508.508 0 11.975-.293c1.227 3.515 2.594 6.419 4.194 8.737 1.276 1.849 2.707 3.289 4.338 4.346.062.044.118.093.169.145a44.336 44.336 0 003.066-.303zM336.495 87.511a30.653 30.653 0 00-.57 2.391 28.01 28.01 0 00-.526 4.269 114.18 114.18 0 01-7.041-2.374l-6.433-2.446 6.839-.772c2.775-.28 5.329-.652 7.731-1.068zM688.31 23.724c.609-1.292 1.595-2.442 2.905-3.458a24.94 24.94 0 011.934-1.327 31.87 31.87 0 013.018-1.711 31.74 31.74 0 017.671-2.623c1.938-.388 3.914-.623 5.848-.584 1.36.027 2.698.176 3.956.484 1.363.332 2.637.83 3.773 1.477 1.584.902 2.897 2.046 3.869 3.44a49.16 49.16 0 014.608.351c1.331.165 2.647.404 3.944.658 2.151.422 4.242.931 6.23 1.498 3.238.924 6.192 2.015 8.685 3.207.336.055.643.262.812.587 1.426 2.549 2.692 5.103 3.624 7.752.956 2.715 1.57 5.512 1.962 8.367.735 5.358.534 10.967-.666 17.013a.854.854 0 01-.21.43l-.017.043a.51.51 0 01-.672.26c-.687-.173-1.352-.204-2.048-.222-.65-.017-1.292.052-1.966.158-.491.077-.987.192-1.503.325-.503 2.304-1.944 4.635-3.973 6.988-.956 1.109-2.047 2.214-3.227 3.322a79.9 79.9 0 01-3.43 3.034c-2.269 1.895-4.711 3.76-7.006 5.72-4.747 3.91-9.496 7.07-13.99 9.24-3.823 1.845-7.446 2.978-10.69 3.303a.381.381 0 01-.1-.754c3.112-.513 6.528-1.851 10.116-3.847 4.248-2.362 8.72-5.654 13.139-9.698a235.59 235.59 0 016.952-5.876c1.192-.972 2.37-1.91 3.483-2.842 1.192-.998 2.315-1.974 3.326-2.95 1.808-1.747 3.263-3.457 4.047-5.243-.327.109-.659.231-.996.37-1.397.576-2.88 1.368-4.465 2.421-1.918 1.275-3.978 2.868-6.185 4.859a.315.315 0 11-.453-.439c1.965-2.326 3.814-4.252 5.609-5.783 1.571-1.342 3.087-2.375 4.551-3.115.909-.459 1.799-.812 2.673-1.023a8.623 8.623 0 011.94-.249c.85-.006 1.662.087 2.437.327.359.112.703.245 1.037.402.796-5.637.681-10.837-.187-15.788-.471-2.686-1.214-5.281-2.077-7.865a75.955 75.955 0 00-1.766-4.799c-.411 1.558-.868 3.159-1.468 4.843a42.437 42.437 0 01-2.02 4.775l-.082.208-.221.026a8.198 8.198 0 00-2.003.295 8.47 8.47 0 00-1.909.802 8.673 8.673 0 011.776-1.15 8.596 8.596 0 011.797-.631 41.22 41.22 0 001.061-4.739c.446-2.697.591-5.139.763-7.536.014-.085.034-.167.061-.246-2.141-.732-4.548-1.364-7.115-1.931-2.06-.455-4.223-.847-6.433-1.219-1.424-.24-2.869-.453-4.315-.695-1.082-.18-2.157-.385-3.236-.58-.726-.132-1.442-.267-2.162-.409-1.853-.364-3.644-.74-5.441-1.033a.325.325 0 01.027-.65c1.319-.112 2.632-.221 3.994-.264.294-.009.588-.016.881-.021-.748-.441-1.569-.799-2.439-1.111-.947-.34-1.952-.585-3.004-.793a42.628 42.628 0 00-2.068-.347c-1.378-.201-2.8-.352-4.248-.379-2.185-.04-4.395.094-6.5.501-1.487.287-2.919.654-4.225 1.18-.939.378-1.821.813-2.594 1.333a9.681 9.681 0 00-1.338 1.104 8.45 8.45 0 00-1.526 1.997 5.296 5.296 0 00-.221.456c3.497-.518 7.173-.856 11.07-1.076a.583.583 0 11.157 1.155c-3.894.855-7.505 1.871-10.959 2.909a167.883 167.883 0 00-7.121 2.318 169.475 169.475 0 00-5.809 2.164 131.218 131.218 0 00-5.704 2.364c-3.294 1.471-6.332 3.028-9.118 4.725-2.998 1.826-5.722 3.756-8.168 5.828a16.64 16.64 0 00-1.11 3.206c-.463 1.943-.634 3.824-1.021 5.912a1.001 1.001 0 01-1.983-.28c.21-2.162.218-4.095.525-6.115a19.127 19.127 0 011.127-4.186l.12-.273.219-.202a64.516 64.516 0 0112.865-9.86c2.963-1.731 6.191-3.351 9.739-4.71 2.425-.929 5.003-1.722 7.719-2.407 1.66-.42 3.369-.787 5.138-1.098zm-61.849 57.864c-.065-.524-.177-1.028-.283-1.527-.119-.554-.277-1.083-.408-1.606-.141-.564-.265-1.112-.396-1.636-.118-.47-.216-.916-.317-1.346-.188-.803-.318-1.498-.471-2.107a1.18 1.18 0 012.144-.981c.396.568.866 1.203 1.316 2.002.375.664.712 1.411 1.001 2.229.161.456.291.938.389 1.436.218 1.108.292 2.287.257 3.504.006.15-.009.3-.045.445a19.72 19.72 0 01-2.505 4.916c-.956 1.365-2.095 2.699-3.451 4.036a.594.594 0 11-.918-.754 29.202 29.202 0 002.397-4.392c.633-1.442 1.055-2.839 1.29-4.219zm-170.37 5.252c-.51.109-1.651.32-3.203.423a23.4 23.4 0 01-2.329.035 31.168 31.168 0 01-5.754-.754.534.534 0 01.155-1.056c1.57.104 3.067.044 4.444-.04 1.227-.074 2.341-.201 3.298-.309a60.06 60.06 0 003.233-.441c.211-.046.431-.027.631.055 0 0 1.514.665 3.19 1.049.709.162 1.445.289 2.102.262a.892.892 0 01.134 1.778c-.807.088-1.727.016-2.614-.132-1.393-.233-2.695-.66-3.287-.87zm243.325-1.382a39.747 39.747 0 01-4.548.549c-.395.027-.778.035-1.15.067-.259.021-.511.052-.757.089-.276.041-.531.094-.792.146-.288.057-.534.133-.81.184a.306.306 0 00-.054.608c.28.104.537.199.841.273.28.068.56.109.861.135.226.019.456.021.69.007.334-.02.673-.076 1.018-.141.641-.12 1.295-.289 1.976-.5.915-.283 1.846-.64 2.833-1.054a.19.19 0 10-.108-.363zm-206.345-1.162c-.877.022-1.82.023-2.806.092-.392.027-.789.069-1.19.122-3.087.408-6.399 1.019-9.181 1.243-1.231.1-2.344.147-3.282.094a.225.225 0 10-.056.447c2.101.414 5.172.502 8.383.444 1.679-.03 3.389-.025 5.003-.18 1.166-.112 2.263-.344 3.279-.486a.892.892 0 00-.15-1.776zm62.175-2.265c-2.338.149-4.543.205-6.643.319-.969.053-1.915.122-2.839.198-8.52.701-15.322 1.051-22.219 1.56-2.617.194-5.234.438-7.961.772a.355.355 0 00.054.707c9.307-.305 17.323.489 27.914.311 1.547-.026 3.149-.056 4.811-.188 2.269-.179 4.64-.535 7.169-.893a1.4 1.4 0 00-.286-2.786zm-134.125 2.115a72.186 72.186 0 00-7.957-.736 135.801 135.801 0 00-4.437-.101c-.977-.008-1.953-.009-2.935-.007-1.439.004-2.888.009-4.379-.027-2.087-.051-4.241-.156-6.544-.45a.534.534 0 00-.19 1.05 57.735 57.735 0 007.885 1.294 66.66 66.66 0 003.711.241c1.233.046 2.459.058 3.691.069 1.448.013 2.904.015 4.393.048 2.091.047 4.245.137 6.532.386a.891.891 0 00.23-1.767zm305.297-13.712a96.159 96.159 0 01-8.849 5.438 79.451 79.451 0 01-4.944 2.455c-.558.255-1.114.5-1.661.755-.554.259-1.104.515-1.645.785-.925.461-1.82.922-2.733 1.389-.943.483-1.813.99-2.777 1.452a.526.526 0 00.273 1.015c.92-.065 1.784-.128 2.687-.272a21.227 21.227 0 002.631-.592c.858-.249 1.7-.558 2.529-.922a24.55 24.55 0 002.387-1.234c1.782-1.027 3.53-2.223 5.303-3.594 2.325-1.796 4.637-3.884 7.113-6.292a.248.248 0 00-.314-.383zM596.809 76.51c-1.895-.035-3.64.003-5.297.228-1.192.163-2.331.428-3.452.715-5.662 1.451-10.8 3.807-19.283 5.378a.29.29 0 00.077.575 80.795 80.795 0 005.72-.665c6.206-.951 10.684-2.251 15.687-3.04l1.975-.31c1.457-.232 2.972-.475 4.629-.591a1.145 1.145 0 10-.056-2.29zM397.483 65.763a18.877 18.877 0 00-2.078-.309 10.611 10.611 0 00-.905-.036c-.618.002-1.221.047-1.813.136-.403.061-.8.145-1.187.257-1.166.34-2.26.834-3.324 1.43-1.496.837-2.881 1.882-4.302 3.104a.226.226 0 00.255.373 29.088 29.088 0 015.228-2.179c.794-.245 1.59-.422 2.398-.61.527-.123 1.056-.244 1.593-.366.662-.15 1.325-.305 2.02-.443.685-.136 1.354-.299 2.088-.401a.478.478 0 10.027-.956zM632.83 45.686l-.072-.13.532-.295c1.486-1.198 3.432-1.905 5.488-2.031 1.288-.078 2.568.177 3.764.693.137.059.272.125.404.195.772-.752 1.601-1.357 2.498-1.73 1.857-.771 3.711-.886 5.195-.174l.823.234-.467 1.646-.823-.233c-.861-.088-1.701.307-2.556.854-.443.283-.807.684-1.207 1.101a7.266 7.266 0 00-1.342 2.013l-.903 1.632c-.583 2.412-1.005 5.01-1.273 7.693a76.54 76.54 0 00-.291 10.872.51.51 0 01-1.015.079 78.061 78.061 0 01-.45-11.067c.097-3.014.39-5.94.89-8.646l-.127-.128a5.59 5.59 0 00-1.152-.949 10.802 10.802 0 00-.984-.566c-.823 1.922-1.365 4.704-1.714 7.647-.663 5.6-.603 11.759-.161 14.051a.508.508 0 11-.993.224c-.601-2.326-1.069-8.647-.746-14.44.172-3.08.593-6.005 1.304-8.155a8.532 8.532 0 00-2.386-.029c.058.205.065.427.009.649a49.977 49.977 0 00-1.893 11.451c-.189 3.887.042 7.739.523 11.732a.51.51 0 01-1.007.154c-.744-4.037-1.22-7.946-1.275-11.916a52.031 52.031 0 011.229-12.034c.037-.146.098-.28.178-.397zm-30.867-24.158c1.585.324 3.185.655 4.812 1.004l.333.508-1.261 2.787c.18.993.256 1.886.279 2.769.038 1.433-.086 2.84-.161 4.682-.004.064-.01.127-.02.19 1.253.487 2.512.997 3.777 1.536a96.187 96.187 0 014.025 1.822c1.752.844 3.491 1.758 5.234 2.7 2.562 1.386 5.111 2.873 7.659 4.408a1.868 1.868 0 01-.123 3.244c-3.08 1.568-3.982 4.033-4.033 6.722-.044 2.34.46 4.837 1.034 7.187.758 3.107 1.562 5.95 1.499 7.874a.934.934 0 01-1.866.06c-.175-1.79-1.363-4.292-2.387-7.099-.936-2.569-1.768-5.351-1.857-7.995-.106-3.129.779-6.053 3.347-8.326a396.795 396.795 0 00-5.007-3.004c-2.361-1.401-4.718-2.737-7.021-4.086-1.964-1.151-3.884-2.297-5.784-3.404a2 2 0 01-2.392-1.376c-.81-.458-1.618-.906-2.427-1.342a.595.595 0 01.485-1.085c.646.231 1.296.464 1.947.702.108-1.251.214-2.302.221-3.372a14.226 14.226 0 00-.225-2.675l-.117-.6 1.003-2.073a38.307 38.307 0 01-.974-1.758zm106.851 47.207c-3.05.08-6.46-.894-9.441-2.817a18.83 18.83 0 01-2.341-1.796 21.512 21.512 0 01-1.394-1.376 28.78 28.78 0 01-.821-.91c-.266-.31-.525-.626-.781-.953-.507-.648-.994-1.314-1.422-2.056a.305.305 0 00-.558.248 14.89 14.89 0 001.014 2.436c.211.395.447.77.697 1.133.254.369.526.721.817 1.054a13.64 13.64 0 001.528 1.486 16.37 16.37 0 002.628 1.794c3.256 1.794 6.922 2.485 10.1 2.135a.189.189 0 10-.026-.378zm-81.209-19.507a19.058 19.058 0 00-.703 1.981c-.127.439-.232.89-.323 1.358a16.83 16.83 0 00-.246 1.72c-.05.566-.066 1.145-.058 1.731.018 1.348.149 2.729.364 4.12a34.435 34.435 0 001.489 5.97.509.509 0 10.985-.257c-.388-2.153-.528-4.362-.529-6.533 0-.991.046-1.965.096-2.921.034-.656.084-1.299.118-1.931.044-.83.078-1.633.13-2.41.057-.85.085-1.65.195-2.417a.787.787 0 00-1.518-.411zM400.132 62.685l.641 1.202a.953.953 0 01-1.561 1.091l-1.863-2.082a1.287 1.287 0 01.343-1.809c.785-.638 1.545-1.262 2.338-1.846a47.075 47.075 0 013.716-2.493 45.571 45.571 0 013.968-2.094 58.562 58.562 0 016.252-2.513c5.583-1.896 11.451-3.046 18.164-3.668a.518.518 0 01.153 1.026c-5.091 1.062-9.604 2.441-13.881 4.118-2.829 1.11-5.52 2.38-8.204 3.775-1.134.59-2.261 1.21-3.408 1.824a290.586 290.586 0 01-3.046 1.614c-1.184.617-2.392 1.212-3.612 1.855zM699.1 46.133c.434-1.315 1.309-2.346 2.499-3.117.782-.507 1.712-.874 2.738-1.122a12.865 12.865 0 012.873-.34c1.345-.013 2.776.161 4.228.479a25.906 25.906 0 017.768 3.12c3.716 2.253 6.802 5.448 8.046 9.286a.254.254 0 01-.151.324.254.254 0 01-.324-.151c-.811-2.019-2.174-3.795-3.87-5.303 1.126 1.625 1.526 3.527 1.135 5.824-.773 4.533-5.749 7.586-11.119 7.852 2.643.309 5.243.056 7.397-.678a.253.253 0 01.185.47c-3.387 1.521-8.024 1.976-12.325.776a15.859 15.859 0 01-3.561-1.467 13.022 13.022 0 01-2.125-1.486 11.125 11.125 0 01-1.143-1.154 11.188 11.188 0 01-1.077-1.477c-1.481-1.989-2.275-4.706-2.003-8.415.097-1.321.379-2.46.829-3.421zm11.712 6.563c-.564-2.914-.941-5.232-.851-7.232 1.488-.117 2.995.61 3.904 1.775-1.514 2.188-2.493 3.784-3.053 5.457zm-295.611-6.529a29.055 29.055 0 013.008-2.746c1.822-1.43 3.693-2.592 5.588-3.624 3.213-1.75 6.532-3.032 10.175-4.167a.574.574 0 01.399 1.074c-3.395 1.472-6.427 3.107-9.383 5.069-1.71 1.135-3.355 2.415-5.071 3.797-.645.52-1.31 1.04-1.984 1.583-.436.35-.885.692-1.332 1.058-.217.2-.5.315-.795.322l-3.569-.248a.883.883 0 11-.041-1.767l3.005-.351zm19.114-2.28l.842 2.195a1.147 1.147 0 01-.485 1.546 1.147 1.147 0 01-1.546-.485l-2.522-3.718a1.66 1.66 0 011.016-2.365c1.729-.639 3.368-1.281 4.991-1.838a71.37 71.37 0 013.38-1.071 99.982 99.982 0 015.164-1.327c2.735-.636 5.347-1.14 7.891-1.548 7.601-1.222 14.522-1.547 22.325-.751a.625.625 0 01-.059 1.247c-4.584.046-8.799.486-13.024 1.218-3.512.608-6.994 1.455-10.684 2.451-2.269.612-4.603 1.293-7.067 1.999-.965.276-1.948.557-2.959.822-.973.254-1.968.5-2.99.731-1.382.313-2.804.596-4.273.894zm149.027-12.408l-.585 2.067a.874.874 0 01-1.721-.294l.235-3.743a1.269 1.269 0 011.685-.982c1.387.392 2.792.787 4.208 1.265.914.308 1.831.64 2.743 1.012 2.2.897 4.401 1.942 6.628 3.048 2.554 1.268 5.112 2.66 7.704 4.116 3.721 2.091 7.457 4.341 11.238 6.675a.476.476 0 01-.457.835 413.81 413.81 0 00-9.841-4.555 415.442 415.442 0 00-8.334-3.613 659.835 659.835 0 00-5.574-2.314c-.78-.321-1.554-.639-2.316-.966-.775-.334-1.539-.672-2.293-1.016-1.129-.514-2.228-1.037-3.32-1.535zm46.729-13.821a8.42 8.42 0 00-1.417-1.292c-.737-.516-1.453-.858-2.195-1.06a.61.61 0 01.197-1.201c.93.057 1.867.28 2.867.718.812.356 1.625.886 2.5 1.601l.308.305.872 6.167 2.742.492.814.192.424.722c.503.829.994 1.659 1.422 2.517.434.869.817 1.756 1.157 2.658.683 1.813 1.194 3.669 1.59 5.562l.138.509-.192.491c-.666 1.342-1.377 2.553-2.21 3.622-.903 1.161-1.879 2.157-2.972 3.001a.854.854 0 11-1.175-1.243c.795-.917 1.45-1.953 2.042-3.103.451-.876.83-1.815 1.156-2.83-.542-1.54-1.207-3.022-1.914-4.5-.38-.791-.78-1.574-1.185-2.361-.288-.561-.573-1.126-.873-1.686l-2.908-.857-1.262-.299.074-8.125zm95.869 21.775c-3.523-2.454-6.927-4.345-10.208-5.506-2.695-.953-5.305-1.417-7.804-1.322-1.367.052-2.706.265-3.995.685-.849.276-1.678.64-2.477 1.098a14.698 14.698 0 00-2.696 1.983c-.773.717-1.487 1.539-2.185 2.461a.408.408 0 00.6.551 20.692 20.692 0 013.113-2.317 20.415 20.415 0 011.659-.92c.57-.283 1.144-.524 1.722-.741a15.921 15.921 0 012.877-.798 17.215 17.215 0 014.525-.177c4.485.4 9.378 2.335 14.597 5.428a.252.252 0 10.272-.425zm-281.766-6.782c.761-.629 1.539-1.093 2.388-1.349a6.129 6.129 0 013.354-.081.305.305 0 01-.069.604 5.233 5.233 0 00-2.699.788c-.73.445-1.317 1.108-1.859 1.947a1.097 1.097 0 01-1.051.375c-.634-.056-1.236.016-1.837.097-.4.053-.789.146-1.185.232-.499.109-1.002.213-1.504.376-.507.164-1.018.328-1.528.559a1.096 1.096 0 01-1.103-1.895 12.39 12.39 0 012.011-1.201 7.812 7.812 0 011.521-.533 6.356 6.356 0 011.219-.162 8.618 8.618 0 012.342.243zm35.857-2.085l.5 2.648a1.19 1.19 0 01-2.277.695l-1.967-4.577a1.737 1.737 0 011.551-2.239c1.987-.27 3.86-.589 5.677-.82a156.6 156.6 0 015.693-.623c3.11-.279 5.964-.433 8.607-.584 3.18-.182 6.052-.28 8.718-.268 7.372.032 13.114.917 19.091 4.028a.649.649 0 01-.536 1.181c-4.553-1.775-8.837-2.292-13.723-2.162-3.544.094-7.375.572-11.845 1.15-2.459.317-5.1.677-7.985 1.004a92.328 92.328 0 01-3.351.332c-1.089.085-2.21.151-3.367.189a129.06 129.06 0 01-4.786.046zm51.697-4.445l.017 2.387a1.191 1.191 0 01-2.365.277l-1.011-4.395a1.681 1.681 0 011.76-1.877c2.028-.046 3.995-.092 5.936-.04a70.247 70.247 0 016.9.536c2.347.307 4.619.701 6.829 1.128 4.048.783 7.87 1.706 11.534 2.704 6.02 1.639 11.552 3.497 16.854 5.36a.649.649 0 01-.363 1.245c-5.987-1.408-12.262-2.71-19.093-3.807a277.189 277.189 0 00-8.628-1.223c-2.784-.357-5.661-.633-8.636-.979-1.878-.218-3.79-.467-5.748-.731-1.315-.178-2.637-.388-3.986-.585zm-65.072.315l2.09-1.253a.444.444 0 01.609.645L467.6 28.41c-.218.205-.51.315-.809.303-.886.131-1.691.356-2.538.553-.83.194-1.616.443-2.428.66-.64.17-1.278.338-1.919.499-.978.245-1.951.456-2.927.751-1.422.429-2.814.858-4.219 1.492a.97.97 0 01-1.055-1.626c1.26-1.121 2.525-2.102 3.92-2.935a17.367 17.367 0 013.008-1.426 11.14 11.14 0 013.28-.659c.671-.038 1.332-.05 2.011.003.924.072 1.808.209 2.732.411zm131.449 4.366c-1.877-1.308-3.613-2.632-5.364-3.875a90.605 90.605 0 00-3.659-2.484 40.357 40.357 0 00-2.467-1.467c-.587-.32-1.175-.594-1.738-.861a12.075 12.075 0 00-4.524-.903c-1.226-.013-2.474.105-3.8.21-1.619.128-3.322.271-5.258-.023a.96.96 0 00-.478 1.86c1.935.713 3.722 1.001 5.435 1.177 1.77.182 3.401.236 4.975.584a8.278 8.278 0 011.991.694c.882.378 1.792.834 2.768 1.269 1.352.603 2.785 1.211 4.303 1.831 2.349.96 4.817 1.854 7.416 2.77a.44.44 0 00.4-.782zm-102.838-9.825c-2.215-.406-4.301-.761-6.48-.91a29.732 29.732 0 00-3.057-.038c-.437.015-.872.046-1.304.096-.58.067-1.154.161-1.722.277-.862.178-1.705.394-2.538.648-2.126.65-4.116 1.464-6.105 2.348a.97.97 0 00.556 1.857c2.062-.341 4.115-.508 6.24-.708.823-.078 1.642-.152 2.471-.248.544-.062 1.09-.128 1.634-.219.815-.136 1.62-.313 2.439-.479a56.862 56.862 0 001.633-.359c2.074-.485 4.068-.994 6.23-1.378a.443.443 0 10.003-.887zm14.498-3.137c1.571-.517 3.029-.98 4.488-1.282a28.344 28.344 0 015.108-.575c1.877-.046 3.846.069 6.082.373 2.536.345 5.345.948 8.779 1.754a.443.443 0 11-.108.88c-3.353-.045-6.098.036-8.55.159a94.79 94.79 0 00-3.577.254c-2.08.182-3.919.508-5.783.857-1.849.346-3.719.685-5.78 1.23a1.836 1.836 0 01-.973.017c-2.196-.714-3.734-.791-5.068-.527-1.965.389-3.499 1.298-5.614 1.792a.97.97 0 01-.593-1.845c1.163-.485 2.091-1.097 3.054-1.644 1.13-.642 2.284-1.18 3.726-1.482 1.306-.273 2.84-.289 4.809.039zm29.663 1.158c-.2.402-.43.727-.697.986-.464.45-.964.764-1.547.909a.97.97 0 01-.654-1.825c.271-.129.45-.367.61-.67.148-.281.199-.643.242-1.093a1.275 1.275 0 011.395-1.031c2.026.06 3.937.131 5.782.289 2.003.171 3.905.381 5.726.675.923.15 1.82.337 2.698.535 1.375.311 2.69.659 3.988.995 1.012.261 1.988.527 2.969.788 2.372.633 4.622 1.231 6.98 1.65a.444.444 0 01-.044.885 65.883 65.883 0 01-8.728.067 83.914 83.914 0 01-5.736-.537 55.422 55.422 0 01-2.817-.439c-.913-.165-1.835-.369-2.782-.57-1.082-.23-2.185-.472-3.325-.723-1.314-.289-2.656-.599-4.06-.891zm59.887-4.736c.177-1.805.212-3.629.125-5.482-.092-1.973-.303-3.973-.723-6.012l-.231-.907.831-.433a15.03 15.03 0 012.834-.989 15.048 15.048 0 012.948-.417l.305-.022 2.193 1.266c1.665-.153 3.074-.023 4.318.285a9.921 9.921 0 012.641 1.054c.541.315 1.026.697 1.499 1.083l.131.114c1.823 2.012 3.545 3.881 5.258 5.623 1.23 1.25 2.438 2.429 3.693 3.527a.62.62 0 01-.756.98c-1.753-1.189-3.464-2.499-5.206-3.94-1.561-1.292-3.128-2.685-4.78-4.155-.405-.287-.838-.539-1.275-.8-.607-.363-1.236-.727-1.968-.996a11.384 11.384 0 00-3.74-.698l-.313.013-2.159-1.404a12.25 12.25 0 00-2.216.504c-.512.169-.995.374-1.459.605a36.404 36.404 0 011.115 5.471c.25 2.051.289 4.086.194 6.104.106.257.214.513.324.767a40.198 40.198 0 00-3.583-1.141z" fill="#19464C"/></g></svg>