<?xml version="1.0" standalone="no"?>
<!DOCTYPE svg PUBLIC "-//W3C//DTD SVG 20010904//EN"
 "http://www.w3.org/TR/2001/REC-SVG-20010904/DTD/svg10.dtd">
<svg version="1.0" xmlns="http://www.w3.org/2000/svg"
 width="1000.000000pt" height="1000.000000pt" viewBox="0 0 1000.000000 1000.000000"
 preserveAspectRatio="xMidYMid meet">
<metadata>
Created by potrace 1.11, written by Peter Selinger 2001-2013
</metadata>
<g transform="translate(0.000000,1000.000000) scale(0.100000,-0.100000)"
fill="#000000" stroke="none">
<path d="M6497 7813 c-42 -14 -48 -19 -42 -37 5 -17 13 -132 15 -217 0 -9 10
-19 23 -23 13 -3 41 -13 63 -23 21 -9 41 -17 44 -18 23 -5 192 -106 186 -112
-2 -2 -37 10 -77 27 -79 34 -224 84 -274 94 -126 25 -133 25 -278 27 -82 1
-132 -2 -139 -9 -8 -8 -7 -13 3 -16 12 -4 140 -30 209 -42 14 -3 43 -10 65
-16 22 -5 48 -12 58 -14 10 -2 26 -5 35 -8 9 -3 33 -7 53 -10 76 -11 105 -33
89 -66 -4 -8 -7 -40 -5 -70 2 -69 -8 -94 -35 -80 -11 6 -21 6 -25 1 -5 -10 1
-15 40 -37 11 -6 97 -56 190 -111 155 -91 214 -125 223 -130 2 0 -9 -20 -24
-43 -42 -64 -43 -157 -3 -270 17 -47 36 -105 43 -130 13 -48 39 -61 44 -23 2
12 -6 61 -18 110 -31 131 -35 196 -15 249 9 24 20 44 25 44 4 0 22 13 39 29
24 22 40 29 67 27 56 -2 67 12 66 80 -2 155 -113 369 -272 526 -63 62 -169
135 -210 145 -14 3 -29 9 -35 13 -5 4 -31 6 -57 6 -46 -1 -46 -1 -52 37 -8 47
-4 54 33 62 20 4 38 1 55 -10 14 -10 32 -15 40 -12 28 11 119 -42 196 -113 27
-26 127 -100 133 -100 22 0 -4 34 -94 125 -85 86 -110 106 -153 119 -28 9 -61
14 -73 12 -11 -3 -29 2 -40 9 -23 18 -56 18 -116 -2z"/>
<path d="M7001 7542 c2 -6 20 -21 39 -34 35 -23 35 -25 40 -108 l5 -85 41 -13
c39 -12 44 -19 79 -95 35 -76 37 -84 25 -117 -7 -19 -23 -51 -36 -70 -30 -44
-16 -61 24 -29 33 28 84 99 88 123 1 9 -2 31 -7 49 -6 18 -12 40 -14 50 -7 31
-66 147 -76 148 -5 1 -13 3 -19 4 -5 1 -19 3 -29 4 -16 1 -21 12 -26 66 -7 59
-10 67 -39 84 -38 23 -100 38 -95 23z"/>
<path d="M8589 7545 c-3 -2 -20 -7 -38 -10 -100 -17 -240 -91 -284 -148 -20
-26 -37 -36 -79 -44 -64 -13 -169 -43 -183 -51 -5 -4 -17 -8 -25 -9 -13 -2
-113 -52 -195 -97 -27 -15 -79 -49 -85 -56 -3 -3 -16 -13 -31 -22 -53 -34
-138 -120 -148 -151 -6 -18 -13 -58 -16 -91 -3 -32 -6 -61 -7 -65 -3 -27 4
-42 19 -39 12 2 21 27 34 93 16 78 23 94 51 118 37 31 115 84 168 113 19 10
37 22 38 27 2 4 8 7 13 7 5 0 46 17 92 39 45 21 136 58 202 81 66 23 127 45
135 48 8 3 18 6 23 7 4 2 8 3 10 5 1 1 9 3 17 5 8 2 50 13 92 25 43 11 86 23
98 25 11 2 25 7 31 11 15 9 -11 25 -31 19 -8 -2 -51 -7 -95 -10 -43 -4 -83 -9
-87 -11 -4 -3 -8 1 -8 10 0 16 48 59 89 80 61 32 247 50 326 32 17 -4 43 -9
60 -12 16 -3 38 -12 49 -20 19 -13 16 -14 -28 -14 -27 0 -46 -3 -42 -7 4 -5
12 -9 17 -9 5 -1 10 -2 12 -4 2 -2 33 -9 62 -14 54 -10 163 -28 190 -32 63
-10 182 -35 238 -51 l58 -16 -5 -61 c-9 -107 -25 -180 -43 -193 -15 -12 -15
-13 4 -13 22 0 23 2 68 130 18 51 25 61 30 45 4 -11 11 -29 15 -40 18 -41 42
-133 55 -210 11 -70 14 -280 4 -289 -2 -2 -28 7 -58 21 -29 13 -63 27 -75 29
-73 15 -99 18 -171 18 -47 1 -80 -3 -80 -9 -1 -28 -55 -115 -100 -160 -88 -89
-181 -125 -308 -120 -135 4 -230 58 -325 181 -18 23 -32 47 -32 52 0 25 -23
19 -112 -26 -51 -26 -118 -58 -148 -72 -78 -34 -81 -37 -68 -68 23 -59 92
-197 100 -200 4 -2 8 -9 8 -15 0 -12 46 -67 56 -67 6 0 48 24 54 31 3 4 32 21
65 39 33 19 74 43 90 54 26 17 28 18 15 2 -26 -32 -124 -102 -177 -126 -47
-21 -52 -27 -59 -64 -4 -23 -7 -45 -6 -49 2 -5 -2 -6 -7 -3 -5 3 -5 24 1 51
10 48 6 58 -61 134 -11 13 -21 28 -21 32 0 4 -7 14 -14 22 -17 17 -71 110 -87
148 l-10 26 -93 -32 c-51 -18 -122 -38 -157 -45 -63 -12 -65 -12 -104 14 -22
15 -40 31 -40 34 -1 4 -4 20 -8 35 -11 42 -32 27 -33 -23 -1 -43 -1 -45 -64
-79 -35 -19 -70 -47 -79 -63 -9 -15 -24 -31 -33 -34 -10 -3 -18 -10 -18 -15 0
-6 -3 -8 -7 -6 -5 2 -21 -3 -38 -13 -27 -15 -33 -16 -62 -2 -29 14 -33 13 -60
-6 -26 -18 -31 -19 -56 -6 -15 8 -27 21 -27 28 0 8 -14 29 -31 47 -26 28 -32
31 -40 17 -9 -16 -8 -20 11 -103 20 -85 20 -89 9 -125 -31 -99 -52 -123 -117
-136 -8 -1 -21 -6 -30 -10 -9 -4 -21 -8 -27 -9 -39 -10 -340 -100 -382 -115
-29 -10 -87 -39 -128 -64 -42 -25 -80 -46 -85 -46 -6 0 -10 -5 -10 -12 0 -6
-3 -8 -7 -5 -3 4 -11 3 -17 -2 -14 -10 -46 -22 -46 -16 0 3 17 13 38 24 52 27
237 151 225 151 -13 0 -128 91 -156 123 -50 56 -86 105 -101 134 -16 31 -16
32 12 37 38 9 63 13 108 20 178 28 170 26 161 51 -13 31 -147 15 -308 -37 -90
-29 -91 -29 -169 51 -72 73 -145 186 -217 333 l-58 119 -60 -7 c-78 -8 -131
-12 -300 -19 -77 -4 -151 -7 -165 -8 -22 -2 -31 -16 -74 -115 -27 -62 -50
-111 -52 -109 -3 3 11 43 68 200 6 15 9 29 7 30 -39 23 -121 83 -126 91 -4 6
5 3 20 -7 105 -68 128 -78 180 -73 110 11 183 18 212 22 17 2 62 6 100 10 39
3 71 7 72 8 2 1 -13 41 -32 88 -55 137 -71 233 -51 311 3 15 3 27 -1 28 -5 1
-26 3 -48 4 -22 2 -78 6 -125 10 -145 12 -135 13 -136 -15 0 -14 3 -35 7 -47
5 -12 5 -24 1 -27 -4 -2 -39 2 -77 9 -225 43 -574 51 -852 20 -26 -3 -64 -7
-83 -9 -22 -3 -34 -9 -32 -17 12 -50 12 -86 0 -86 -17 0 -172 -13 -218 -18
-32 -3 -206 -30 -255 -39 -125 -24 -394 -91 -404 -101 -2 -3 -4 -28 -2 -55 2
-36 -1 -50 -11 -51 -30 -2 -77 -11 -153 -31 -44 -11 -84 -21 -90 -23 -5 -1
-23 -7 -38 -13 -16 -7 -32 -12 -37 -12 -15 0 -253 -98 -310 -128 -44 -23 -56
-34 -61 -61 -4 -17 -8 -33 -10 -35 -2 -2 -26 -6 -54 -9 -67 -8 -219 -50 -445
-122 -63 -20 -119 -37 -125 -39 -5 -1 -21 -8 -35 -15 l-25 -14 19 22 c11 11
24 21 30 21 9 0 154 92 236 150 75 52 225 154 313 212 59 39 107 75 107 79 0
15 -29 10 -70 -11 -39 -20 -39 -20 -72 0 -18 10 -71 33 -118 50 -125 46 -120
45 -120 21 0 -21 -1 -21 -40 5 -22 15 -40 30 -40 34 0 8 50 33 138 71 23 10
44 18 47 18 3 1 18 7 33 15 15 8 86 37 157 66 72 29 144 58 160 65 41 17 265
98 350 127 68 22 88 35 80 49 -3 3 -31 0 -62 -7 -32 -8 -71 -16 -88 -18 -86
-13 -394 -103 -489 -143 -92 -38 -271 -126 -274 -135 -2 -4 -9 -8 -16 -8 -11
0 -274 -173 -286 -189 -3 -3 -14 -13 -25 -21 -12 -9 -8 -1 10 24 21 27 26 41
17 44 -24 8 -72 54 -72 69 0 12 7 14 28 9 15 -4 34 -7 42 -7 8 0 34 1 57 1 23
0 45 5 48 10 4 6 3 10 -2 11 -4 0 -16 2 -26 4 -10 2 -31 0 -48 -5 -18 -5 -41
-5 -60 2 -46 16 -133 -6 -159 -39 -18 -23 -111 -63 -145 -63 -12 0 -30 -69
-40 -148 -5 -41 -4 -43 26 -49 28 -5 31 -9 27 -39 -4 -32 -2 -34 27 -34 44 0
75 -11 75 -25 0 -22 54 -27 98 -10 l41 17 72 -39 c40 -21 74 -43 76 -49 2 -6
-10 -17 -27 -24 -16 -7 -30 -16 -30 -21 0 -5 -4 -9 -10 -9 -8 0 -105 -62 -145
-93 -5 -4 -31 -23 -57 -42 -35 -26 -45 -39 -41 -55 3 -11 10 -20 17 -21 6 0
-52 -14 -128 -30 -76 -16 -140 -30 -141 -31 -1 -2 -17 -34 -35 -73 -55 -120
-63 -111 145 -161 176 -42 320 -85 400 -119 52 -23 89 -38 95 -40 3 -1 18 -7
33 -13 27 -11 27 -12 11 -37 -18 -27 -48 -48 -74 -50 -8 -1 -40 -5 -70 -9 -83
-10 -167 -15 -365 -21 -138 -4 -183 -9 -194 -20 -13 -13 -24 -9 -90 27 -69 39
-81 42 -149 41 -40 0 -77 -4 -82 -9 -5 -5 -10 -24 -12 -42 -3 -38 -5 -38 -108
-8 -81 24 -137 30 -225 23 -12 -1 -27 -16 -39 -40 -10 -22 -41 -55 -75 -79
-31 -23 -58 -45 -61 -49 -3 -5 -32 -1 -64 7 -64 17 -68 15 -131 -41 -16 -15
-47 -39 -67 -52 -71 -48 -93 -92 -113 -223 -3 -20 -25 -76 -50 -125 l-45 -89
30 -59 c16 -32 30 -71 30 -85 1 -57 63 -75 270 -76 81 -1 95 1 98 16 4 18 -10
24 -83 33 -27 3 -63 8 -80 12 -36 6 -71 11 -105 12 -20 1 -31 13 -56 61 -17
33 -29 60 -26 60 3 0 53 -15 111 -34 185 -60 309 -81 476 -80 l101 0 26 -65
c15 -36 26 -67 23 -69 -4 -5 -93 -28 -158 -41 -95 -21 -191 0 -249 54 -23 21
-28 22 -39 9 -11 -13 -6 -21 29 -54 64 -61 97 -74 182 -74 58 1 97 8 169 33
103 35 96 36 130 -29 50 -93 215 -278 346 -386 90 -74 256 -183 271 -177 23 9
16 22 -38 71 -199 181 -416 445 -561 685 -62 102 -129 251 -152 337 -6 21 22
-17 158 -217 12 -18 29 -33 37 -33 29 0 189 57 300 107 19 8 50 22 68 29 17 8
47 21 66 29 47 21 51 20 78 -17 23 -33 32 -45 75 -96 27 -32 34 -28 -127 -81
-146 -49 -170 -63 -241 -136 l-29 -30 14 42 15 43 -60 -4 c-33 -2 -66 -9 -72
-15 -15 -15 19 -15 62 0 18 6 34 9 37 6 3 -3 -4 -26 -15 -52 -16 -35 -18 -52
-10 -66 9 -18 13 -16 57 25 99 93 141 115 257 140 11 3 56 16 100 29 l80 24
40 -41 c22 -23 60 -57 84 -76 24 -19 48 -40 55 -46 61 -57 311 -197 426 -239
19 -7 49 -19 65 -26 17 -6 35 -13 40 -14 6 -2 55 -16 110 -33 86 -25 141 -39
285 -67 79 -16 103 -19 200 -30 30 -3 61 -8 68 -10 18 -6 42 5 42 21 0 13 -25
22 -125 44 -27 7 -57 13 -65 15 -8 2 -55 16 -105 31 -49 14 -100 29 -113 31
-12 3 -25 9 -28 14 -3 5 -12 9 -21 9 -16 0 -216 78 -300 117 -29 13 -55 24
-59 23 -4 -1 -10 2 -13 7 -3 4 -28 19 -56 33 -148 73 -366 215 -457 297 -77
69 -163 157 -203 208 -22 28 -43 52 -47 53 -5 2 -8 10 -8 18 0 8 -3 14 -7 14
-5 0 -16 14 -25 30 -20 36 -19 37 13 9 63 -55 124 -105 139 -116 15 -11 29 -5
91 35 60 40 239 179 259 202 3 3 28 24 55 45 28 22 52 43 55 46 9 11 114 75
150 92 67 32 127 44 201 42 99 -3 203 -41 311 -113 l38 -25 -32 -24 c-18 -14
-91 -59 -161 -100 -70 -42 -126 -78 -123 -80 2 -3 15 -6 28 -8 12 -2 43 -6 67
-10 33 -5 48 -4 55 6 6 8 32 29 58 47 47 32 85 41 104 22 6 -6 37 -13 70 -16
66 -7 104 -19 104 -33 0 -5 28 -18 62 -30 102 -32 213 -50 333 -52 36 -1 66
-7 76 -15 9 -8 40 -23 70 -34 56 -19 176 -21 359 -5 148 13 184 13 215 -3 70
-36 198 -47 330 -28 71 11 178 19 247 19 59 1 70 -2 93 -25 17 -18 34 -25 48
-22 58 11 91 15 262 29 66 5 147 14 185 20 77 12 100 17 145 31 28 8 59 20 70
25 11 5 31 11 45 13 14 3 36 7 50 10 14 3 45 9 70 12 25 4 83 20 130 36 47 16
144 49 215 72 72 24 159 57 194 74 34 18 67 32 72 32 18 0 67 -59 79 -95 17
-50 8 -133 -18 -184 -12 -23 -22 -44 -22 -47 0 -5 49 -1 105 10 142 26 210 40
260 53 33 8 68 17 78 18 9 2 23 7 30 10 6 4 3 -1 -7 -9 -11 -9 -27 -16 -36
-16 -9 0 -20 -4 -25 -9 -10 -8 -207 -78 -243 -86 -9 -2 -36 -10 -59 -19 -24
-8 -43 -13 -43 -11 0 2 -15 -2 -34 -10 -18 -8 -47 -17 -64 -20 -17 -3 -41 -9
-54 -14 -13 -5 -26 -9 -31 -9 -4 0 -20 -3 -35 -6 -15 -4 -38 -9 -52 -12 -14
-3 -34 -7 -45 -9 -56 -13 -74 -16 -120 -25 -88 -17 -139 -25 -230 -39 -38 -6
-90 -13 -115 -16 -25 -2 -54 -6 -65 -9 -11 -2 -58 -7 -105 -10 -47 -4 -101 -9
-120 -11 -203 -23 -765 -23 -1050 1 -36 3 -92 7 -124 9 -60 5 -132 12 -196 20
-19 2 -55 7 -80 10 -94 10 -225 29 -290 41 -14 2 -43 7 -65 10 -22 3 -56 10
-75 14 -19 5 -53 12 -75 15 -22 4 -58 11 -80 16 -22 5 -53 12 -69 15 -17 3
-64 15 -105 26 -42 10 -86 21 -98 24 -12 2 -35 9 -50 15 -16 6 -30 10 -33 10
-10 -1 -89 22 -190 56 -58 19 -114 36 -124 39 -11 2 -24 8 -30 14 -5 5 -16 10
-24 10 -8 0 -28 6 -45 14 -18 8 -77 33 -132 57 -55 23 -104 46 -110 51 -15 13
-55 9 -55 -6 0 -12 77 -59 159 -96 l34 -16 -132 -62 c-72 -34 -134 -62 -137
-62 -3 0 -29 -11 -57 -24 -29 -13 -80 -33 -114 -46 -35 -12 -63 -24 -63 -26 0
-1 16 -12 35 -24 l34 -21 63 21 c35 12 72 26 83 30 11 5 63 25 115 46 52 20
136 56 185 79 50 23 95 40 100 36 6 -3 12 -6 15 -6 3 -1 23 -9 45 -19 170 -76
604 -214 785 -250 14 -3 36 -8 50 -11 14 -3 38 -8 54 -11 16 -2 32 -6 35 -8 3
-2 60 -13 126 -25 66 -12 131 -23 145 -26 57 -10 310 -44 375 -50 39 -3 90 -8
115 -10 256 -23 794 -23 960 0 19 3 62 7 95 10 33 3 76 7 95 10 19 2 58 7 85
10 69 9 105 14 138 21 16 3 38 7 50 9 51 7 106 17 163 30 34 8 73 16 85 19 13
2 44 9 69 15 66 17 81 20 119 27 l34 7 -20 -29 c-164 -236 -219 -349 -218
-449 0 -24 5 -39 12 -38 6 1 24 5 40 8 28 5 57 11 91 19 9 3 50 12 89 20 40 9
126 30 190 47 65 17 125 33 133 34 8 2 16 4 18 5 1 2 5 3 10 4 97 25 381 123
469 162 17 8 35 14 40 14 7 0 72 241 89 330 11 63 17 98 31 185 4 28 8 122 8
210 l0 160 -42 88 c-45 92 -52 135 -29 176 l13 24 70 -69 c105 -103 133 -176
127 -326 -9 -213 -7 -238 17 -290 13 -29 56 -64 67 -54 3 3 7 63 9 134 1 70 4
162 6 205 5 91 -7 166 -34 219 l-20 38 23 9 c13 5 28 6 35 4 6 -3 20 0 31 6
29 16 100 28 199 35 23 1 50 9 60 18 10 8 29 14 43 12 29 -5 74 -5 185 -3 110
2 212 36 457 152 218 104 248 116 322 128 127 21 309 107 421 200 11 10 67 55
125 101 138 110 231 205 266 273 31 60 47 69 110 66 l41 -2 11 58 c18 99 6
340 -23 428 -1 6 -6 20 -10 33 -4 13 -23 54 -41 92 -28 58 -40 73 -71 86 -58
25 -74 32 -118 45 -22 6 -51 16 -65 20 -34 12 -196 39 -230 39 -17 0 -41 12
-61 32 -54 50 -113 72 -205 75 -45 1 -83 1 -85 -2z m-6475 -730 c58 -26 102
-33 91 -15 -8 12 17 13 31 1 5 -4 46 -28 91 -51 45 -24 81 -46 78 -49 -2 -3
-32 -21 -68 -40 l-64 -35 -29 27 c-36 33 -105 68 -206 103 -43 15 -78 28 -78
30 0 3 83 48 96 54 1 0 27 -11 58 -25z m2601 9 c-27 -7 -65 -16 -84 -19 -18
-3 -37 -7 -41 -10 -3 -2 -20 -7 -36 -10 -175 -32 -234 -42 -227 -35 12 12 264
67 347 76 22 2 42 6 44 9 3 3 15 5 26 4 12 0 -1 -7 -29 -15z m-490 -77 c11 -6
21 -13 23 -14 6 -2 -27 -105 -75 -231 -25 -67 -47 -121 -49 -119 -4 3 60 209
76 242 5 11 14 38 21 59 10 35 10 41 -7 53 -11 8 -30 23 -44 34 l-25 20 30
-16 c17 -8 39 -21 50 -28z m85 -3 c0 -8 -19 -13 -24 -6 -3 5 1 9 9 9 8 0 15
-2 15 -3z m-525 -14 c-3 -5 -14 -10 -24 -10 -9 0 -57 -12 -106 -26 -50 -14
-97 -27 -105 -29 -8 -2 -44 -12 -79 -24 -35 -12 -66 -19 -68 -17 -7 7 170 72
222 82 36 7 160 32 163 33 2 1 0 -3 -3 -9z m-478 -178 c-7 -15 -22 -41 -35
-57 l-22 -30 10 29 c10 28 47 86 55 86 2 0 -1 -13 -8 -28z m4467 -234 c10 -29
29 -75 42 -103 l24 -50 -25 30 c-32 38 -51 80 -63 133 -14 59 0 52 22 -10z
m286 -86 c0 -10 -27 -24 -112 -58 -32 -12 -58 -18 -58 -13 0 11 42 30 168 78
1 1 2 -3 2 -7z m-280 -80 c0 -11 -45 -32 -68 -32 -14 0 -13 2 3 14 11 7 29 16
40 19 11 2 21 5 23 6 1 0 2 -3 2 -7z m-3773 -439 c-10 -106 -27 -112 -23 -8 5
116 5 113 18 91 6 -12 8 -43 5 -83z m1077 2 c4 -16 9 -52 12 -80 3 -27 7 -56
9 -62 8 -24 -4 -13 -20 17 -9 17 -13 30 -10 30 4 0 3 6 -2 13 -10 15 -12 130
-2 120 4 -5 10 -21 13 -38z m-2027 -42 l-2 -47 45 -13 c113 -35 268 -72 328
-79 56 -7 73 -22 20 -18 -173 15 -236 28 -351 72 l-67 26 4 36 c4 34 15 70 21
70 2 0 3 -21 2 -47z m2863 -57 c-15 -14 -88 -40 -145 -51 -16 -4 -87 -8 -158
-10 -104 -2 -135 -7 -172 -24 -97 -45 -284 -77 -300 -51 -3 4 19 8 48 8 63 -1
150 23 230 64 58 29 65 30 221 33 171 3 210 8 254 31 34 18 40 18 22 0z
m-1918 -84 c33 -19 110 -51 138 -58 8 -2 41 -10 73 -18 70 -17 86 -28 31 -21
-76 9 -150 28 -209 51 -56 23 -64 23 -105 11 -25 -7 -70 -13 -100 -12 -56 2
-150 31 -150 46 0 13 14 11 46 -6 18 -9 56 -15 99 -15 64 0 81 5 142 39 1 0
17 -7 35 -17z m-332 -12 c0 -5 -4 -10 -10 -10 -5 0 -10 5 -10 10 0 6 5 10 10
10 6 0 10 -4 10 -10z m1220 -65 c-74 -40 -334 -63 -435 -39 l-50 12 70 -1
c123 -1 390 24 404 38 2 3 11 5 20 5 10 -1 7 -6 -9 -15z"/>
<path d="M7300 7520 c-11 -7 -8 -11 15 -20 17 -7 35 -13 40 -14 6 -1 15 -4 20
-7 6 -3 84 -29 175 -58 164 -52 229 -75 262 -92 24 -12 38 -11 38 4 0 15 -107
93 -174 127 -49 25 -107 44 -171 55 -57 11 -191 14 -205 5z"/>
<path d="M4735 7492 c-27 -8 -78 -15 -111 -16 -61 -3 -146 -36 -184 -72 -28
-28 8 -34 69 -12 41 14 72 18 115 15 37 -4 96 2 158 14 54 10 102 18 106 18 4
-1 9 0 12 1 7 2 115 8 198 10 116 3 92 16 -90 51 -73 13 -208 9 -273 -9z"/>
<path d="M5242 7500 c-4 -3 -15 -20 -25 -39 -24 -45 -8 -63 30 -35 32 23 26
23 123 2 118 -26 208 -38 310 -41 140 -4 195 11 99 28 -19 3 -68 15 -109 26
-95 26 -85 23 -150 37 -30 6 -77 14 -105 16 -27 3 -50 5 -50 6 0 4 -118 4
-123 0z"/>
<path d="M4120 7419 c-19 -5 -42 -11 -51 -13 -90 -23 -158 -82 -89 -78 73 4
182 17 225 26 11 3 57 12 103 22 45 9 82 21 82 25 0 5 -3 9 -7 10 -5 0 -17 3
-28 5 -42 11 -202 13 -235 3z"/>
<path d="M5900 7398 c-39 -14 -10 -36 63 -48 135 -21 182 -32 227 -55 65 -32
240 -97 252 -93 22 8 -239 182 -292 196 -28 7 -231 7 -250 0z"/>
<path d="M5061 7372 c-10 -7 -12 -21 -8 -43 16 -91 23 -104 46 -90 8 5 15 22
16 38 1 15 6 27 11 27 29 -5 115 -15 149 -19 22 -2 58 -6 80 -9 22 -2 67 -7
100 -11 33 -3 67 -8 75 -10 8 -2 37 -6 64 -10 86 -11 272 -45 382 -71 64 -14
101 -11 73 7 -30 19 -360 121 -469 144 -8 2 -35 8 -60 13 -25 6 -61 13 -80 16
-19 3 -46 8 -60 11 -48 11 -305 16 -319 7z"/>
<path d="M4487 7334 c-1 -1 -47 -5 -102 -8 -130 -9 -171 -13 -221 -20 -23 -4
-60 -8 -82 -11 -77 -8 -87 -20 -64 -78 7 -16 12 -32 12 -35 0 -20 32 -51 46
-45 12 5 15 15 11 44 l-5 37 52 1 c62 0 180 9 221 15 17 3 53 8 80 11 28 3 57
7 65 10 23 7 188 18 250 17 74 -1 123 -8 188 -27 30 -9 56 -14 59 -11 11 11
-11 26 -75 49 -77 29 -97 34 -173 43 -46 6 -257 12 -262 8z"/>
<path d="M3846 7318 c-10 -6 -55 -11 -100 -12 -67 -2 -90 -7 -134 -29 -74 -39
-115 -76 -101 -93 9 -11 17 -11 47 1 37 14 133 42 168 49 85 17 110 29 127 58
20 35 19 41 -7 26z"/>
<path d="M2459 7316 c-2 -2 -29 -6 -59 -10 -30 -3 -66 -8 -80 -11 -14 -3 -40
-8 -59 -11 -85 -14 -303 -104 -356 -147 -5 -4 -32 -23 -59 -42 -68 -47 -41
-55 60 -17 44 17 97 36 119 42 37 11 184 67 245 93 14 6 27 11 30 11 3 1 19 7
35 13 65 27 90 36 102 39 26 5 42 20 34 32 -4 7 -9 11 -12 8z"/>
<path d="M6109 7254 c-8 -80 -8 -103 0 -109 6 -3 17 7 25 23 l15 30 128 -55
c70 -29 137 -58 148 -63 17 -8 313 -139 353 -157 6 -3 12 -1 12 5 0 12 -193
128 -340 204 -159 83 -338 147 -341 122z"/>
<path d="M3391 7195 c-18 -8 -49 -15 -68 -15 -41 0 -102 -27 -110 -48 -10 -24
17 -30 65 -16 25 8 57 14 72 14 16 0 37 11 55 30 16 17 39 30 52 30 13 0 23 5
23 10 0 15 -50 12 -89 -5z"/>
<path d="M8590 7173 c-8 -3 -22 -7 -30 -10 -18 -7 -27 -10 -38 -12 -18 -2
-112 -89 -112 -103 0 -10 7 -7 65 32 35 24 90 47 135 57 73 17 197 -10 312
-66 43 -22 74 -33 67 -25 -18 21 -148 90 -208 109 -52 17 -159 27 -191 18z"/>
<path d="M3698 7145 c-2 -2 -32 -5 -68 -9 -157 -14 -409 -77 -517 -129 -22
-10 -34 -57 -15 -57 4 0 16 -15 27 -32 23 -41 36 -50 52 -37 8 8 9 18 2 36 -5
14 -7 28 -4 31 3 3 54 18 113 33 59 15 168 43 242 63 74 20 153 39 175 42 22
3 46 7 53 9 11 4 88 12 197 20 17 2 34 3 40 4 5 0 4 6 -3 13 -9 9 -57 13 -152
14 -76 1 -140 0 -142 -1z"/>
<path d="M3081 7090 c-122 -48 -197 -92 -274 -160 -30 -26 -31 -27 -73 -29
-19 -1 -25 -6 -22 -18 5 -28 91 -30 118 -3 11 11 24 20 29 20 5 0 11 3 13 8
11 25 171 130 255 168 23 10 43 25 43 32 0 16 -3 15 -89 -18z"/>
<path d="M7405 6988 c-16 -6 -38 -17 -47 -25 -9 -8 -21 -12 -27 -8 -27 16 -98
12 -148 -10 l-51 -23 -7 -59 c-4 -32 -9 -67 -12 -78 -10 -51 -3 -213 15 -315
8 -49 29 -49 23 0 -12 107 -4 261 19 378 11 54 16 62 35 62 22 0 22 -1 10 -66
-8 -39 -11 -119 -9 -202 4 -167 6 -184 19 -189 6 -2 10 44 10 124 0 129 7 207
26 276 10 40 22 46 45 23 11 -12 12 -27 5 -78 -10 -70 -8 -325 2 -335 13 -12
15 2 21 127 3 69 8 137 10 151 3 14 7 39 9 55 8 70 75 154 122 154 25 0 43 28
22 35 -37 11 -65 12 -92 3z"/>
<path d="M8547 6985 c-72 -25 -107 -92 -101 -191 7 -105 68 -185 170 -224 55
-21 158 -29 204 -17 57 15 70 20 70 29 0 6 -7 7 -17 2 -10 -4 -38 -9 -63 -10
-38 -3 -40 -2 -15 5 126 33 192 127 160 231 -6 22 -4 21 24 -10 16 -19 30 -41
31 -47 0 -7 5 -13 10 -13 27 0 -44 99 -113 157 -92 78 -267 121 -360 88z m196
-86 c11 -11 9 -21 -16 -61 -17 -27 -32 -46 -35 -44 -2 3 -6 32 -9 66 -4 60 -4
61 21 56 14 -2 31 -10 39 -17z"/>
<path d="M3050 6853 c-186 -30 -332 -73 -445 -131 -38 -20 -74 -40 -80 -44 -5
-5 -31 -24 -57 -43 -51 -38 -54 -57 -14 -94 26 -25 54 -14 38 15 -9 16 -2 23
51 51 244 130 328 166 487 209 104 28 135 45 80 43 -19 -1 -46 -4 -60 -6z"/>
<path d="M7019 6813 c-13 -46 -16 -142 -6 -193 17 -88 38 -133 51 -111 4 5 2
12 -2 15 -5 3 -7 65 -6 138 5 181 5 179 -2 189 -11 19 -22 7 -35 -38z"/>
<path d="M1031 6529 c-80 -51 -206 -175 -257 -254 -59 -91 -98 -179 -125 -285
-14 -58 -22 -227 -10 -235 13 -8 23 11 27 50 9 99 76 253 195 454 53 89 184
237 242 274 15 10 27 22 27 27 0 20 -37 9 -99 -31z"/>
<path d="M2268 6496 c-57 -29 -111 -67 -104 -73 3 -3 20 2 38 11 18 9 71 26
118 37 119 29 121 29 115 40 -12 19 -118 10 -167 -15z"/>
<path d="M1501 6472 c-124 -98 -205 -195 -258 -308 -43 -94 -39 -87 -61 -89
-35 -4 -157 -19 -164 -21 -5 -1 -24 -2 -43 -3 -19 0 -35 -5 -35 -9 0 -5 56
-28 125 -53 l125 -44 0 -42 c0 -24 0 -45 0 -48 0 -3 6 -20 14 -39 8 -19 12
-37 8 -40 -3 -3 2 -6 10 -6 13 0 16 13 16 73 0 39 5 84 11 100 6 15 9 27 6 27
-6 0 42 115 80 192 36 71 110 190 143 229 63 73 72 85 72 97 0 18 -11 15 -49
-16z"/>
<path d="M9564 6289 c-3 -6 11 -25 31 -42 56 -46 80 -72 115 -122 25 -37 81
-143 86 -165 0 -3 4 -12 7 -20 8 -18 38 -127 42 -155 2 -11 6 -38 10 -60 3
-22 8 -46 11 -54 16 -48 23 -303 10 -421 -6 -63 -9 -83 -22 -132 -5 -22 -12
-57 -17 -82 -1 -6 9 -12 22 -14 14 -2 21 0 17 6 -4 6 -2 13 3 16 11 7 67 161
82 225 6 25 13 55 15 66 20 85 22 299 4 392 -47 241 -179 454 -335 544 -54 31
-70 35 -81 18z"/>
<path d="M9114 6075 c-3 -8 6 -29 21 -46 23 -28 83 -137 86 -156 2 -9 3 -15
18 -70 36 -134 34 -380 -5 -573 -73 -359 -241 -728 -464 -1019 -32 -42 -69
-89 -84 -104 -28 -30 -33 -52 -15 -63 9 -5 123 104 234 226 41 45 142 188 194
274 91 149 192 386 215 501 3 11 11 52 19 90 22 102 30 186 30 305 0 106 -5
159 -27 283 -2 12 -9 34 -15 50 -6 15 -8 27 -6 27 9 0 -64 150 -93 192 -34 49
-81 98 -94 98 -5 0 -11 -7 -14 -15z"/>
<path d="M8669 5793 c-1 -4 -3 -73 -4 -153 -1 -80 -5 -161 -9 -180 -13 -64
-58 -225 -66 -235 -4 -5 -11 -21 -15 -35 -22 -76 -174 -338 -242 -417 -10 -11
-34 -41 -53 -65 -54 -67 -238 -253 -309 -311 -35 -28 -69 -56 -75 -62 -6 -5
-38 -30 -71 -55 -33 -25 -62 -47 -65 -50 -11 -13 -211 -142 -315 -205 -199
-120 -710 -356 -729 -337 -3 3 -6 0 -6 -6 0 -7 -3 -11 -7 -10 -5 0 -15 -2 -23
-5 -61 -24 -324 -106 -340 -106 -3 0 -31 -9 -62 -20 -32 -11 -58 -18 -58 -16
0 2 -18 -2 -40 -10 -22 -8 -40 -10 -40 -5 0 6 5 11 10 11 15 2 22 4 52 17 15
6 67 28 115 48 200 82 219 93 233 132 7 21 20 55 30 77 29 66 125 322 165 440
21 61 43 115 49 121 11 11 119 60 145 66 11 2 13 -27 15 -155 1 -151 0 -157
-19 -157 -35 0 -66 -12 -62 -23 5 -15 106 -56 139 -57 15 0 30 5 34 11 3 6 6
107 6 225 l-1 214 61 31 c264 133 575 378 730 574 26 33 54 68 62 78 9 9 16
19 16 21 0 2 18 30 39 62 40 60 110 195 130 249 6 17 16 44 22 60 21 53 22 75
2 75 -13 0 -26 -21 -48 -75 -16 -41 -33 -75 -37 -75 -5 0 -8 -9 -8 -20 0 -11
-4 -20 -9 -20 -5 0 -13 -10 -17 -22 -29 -94 -263 -373 -397 -474 -28 -22 -59
-46 -68 -55 -23 -23 -231 -160 -309 -203 -59 -33 -155 -81 -285 -141 -73 -34
-267 -108 -365 -140 -47 -15 -115 -38 -152 -51 -38 -13 -68 -22 -68 -19 0 2
-12 0 -27 -6 -16 -6 -37 -13 -49 -15 -11 -2 -69 -17 -130 -32 -60 -16 -112
-30 -116 -31 -5 0 -10 -2 -13 -2 -10 -3 -21 -5 -55 -12 -19 -4 -46 -10 -60
-12 -59 -13 -223 -44 -258 -50 -21 -3 -49 -7 -62 -10 -13 -3 -42 -7 -65 -10
-22 -4 -83 -12 -135 -20 -87 -13 -127 -17 -260 -30 -25 -2 -72 -7 -105 -10
-151 -15 -252 -18 -560 -18 -181 0 -343 1 -360 3 -45 4 -55 1 -55 -14 0 -18
26 -27 93 -32 29 -2 72 -5 97 -8 248 -27 803 -27 1065 -1 22 2 72 7 110 10 39
3 81 7 95 9 14 3 48 7 75 10 62 8 134 18 158 22 32 6 17 -51 -25 -91 -64 -63
-137 -197 -153 -282 -2 -15 -7 -39 -10 -53 -3 -14 -6 -77 -7 -140 -1 -77 -8
-138 -21 -185 -33 -126 -44 -205 -40 -304 2 -62 6 -78 31 -112 25 -34 29 -45
22 -74 -7 -33 -5 -184 4 -294 5 -58 14 -73 48 -78 12 -2 22 -4 23 -6 0 -1 14
-44 30 -96 17 -52 36 -100 42 -107 21 -20 130 34 150 73 8 17 22 39 31 49 9
11 23 31 31 47 8 15 18 27 23 27 4 0 8 4 8 10 0 5 20 41 45 79 25 38 45 72 45
75 0 4 11 23 24 44 62 96 308 583 393 777 l39 90 79 22 c84 24 101 23 85 -8
-6 -10 -9 -19 -6 -19 2 0 -2 -24 -10 -52 -8 -29 -17 -62 -19 -73 -3 -11 -15
-64 -27 -118 -18 -80 -24 -97 -37 -91 -41 16 -51 17 -45 0 11 -29 61 -76 81
-76 39 0 95 148 173 456 10 41 11 42 93 68 81 26 243 86 302 111 66 29 174 78
235 109 58 29 96 49 219 118 58 33 235 151 261 175 14 13 30 23 37 23 7 0 13
4 13 8 0 5 19 23 43 40 23 17 58 46 78 64 20 18 47 42 60 54 27 24 181 185
219 229 140 165 280 405 343 585 46 130 79 308 79 425 1 34 -14 165 -20 189
-8 28 -31 48 -33 29z m-2539 -2287 c0 -2 -7 -7 -16 -10 -8 -3 -12 -2 -9 4 6
10 25 14 25 6z"/>
<path d="M7098 5023 c-22 -26 -39 -121 -40 -218 0 -47 2 -88 5 -91 2 -3 20 3
40 12 l35 17 -3 121 c-3 111 -9 163 -18 172 -2 2 -11 -4 -19 -13z"/>
<path d="M6786 3972 c-45 -75 -105 -212 -92 -212 2 0 24 9 48 20 52 23 66 36
72 71 3 13 5 24 6 24 1 0 3 14 6 30 5 37 12 70 14 70 1 0 4 12 6 28 8 47 -22
32 -60 -31z"/>
<path d="M2281 3582 c-21 -7 -10 -30 19 -41 17 -6 43 -16 60 -22 16 -6 33 -11
37 -11 4 0 13 -3 18 -8 24 -19 467 -151 589 -174 11 -2 55 -11 96 -20 96 -20
126 -25 175 -31 22 -3 50 -7 62 -9 12 -3 53 -8 90 -11 37 -4 82 -9 98 -11 160
-20 688 -20 815 0 14 3 59 7 100 11 41 3 89 8 105 10 17 3 48 7 69 9 40 5 65
20 52 33 -4 4 -136 8 -294 9 -258 1 -397 6 -532 19 -25 2 -79 7 -120 10 -41 4
-88 9 -105 11 -16 2 -57 6 -90 9 -33 3 -70 7 -82 9 -12 3 -53 8 -90 11 -37 4
-77 9 -88 11 -11 2 -42 6 -70 9 -27 3 -57 8 -65 10 -8 2 -37 7 -65 10 -27 3
-61 7 -75 10 -14 3 -41 8 -60 11 -19 3 -71 12 -115 21 -44 8 -89 16 -100 18
-42 7 -165 35 -292 67 -72 18 -136 32 -142 30z"/>
<path d="M6462 3123 c-7 -3 -20 -19 -29 -36 -20 -39 -237 -369 -255 -388 -55
-58 -104 -137 -179 -286 -64 -127 -117 -178 -175 -167 -34 6 -36 6 -25 -14 6
-12 21 -28 32 -36 19 -13 28 -11 92 16 69 28 106 59 128 103 5 11 15 29 22 40
7 11 29 52 51 90 21 39 69 111 106 160 128 173 178 258 215 369 21 63 41 157
33 155 -2 0 -9 -3 -16 -6z"/>
</g>
</svg>
