<?xml version="1.0" encoding="UTF-8"?>
<svg width="480px" height="79px" viewBox="0 0 480 79" version="1.1" xmlns="http://www.w3.org/2000/svg" xmlns:xlink="http://www.w3.org/1999/xlink">
    <title>seascape/small/horizon</title>
    <g id="seascape/small/horizon" stroke="none" stroke-width="1" fill="none" fill-rule="evenodd">
        <path d="M113.602859,46.54 C117.95272,50.6303978 121.997725,64.0693222 133.718136,75.6823048 L138.284009,74.7318097 C139.214256,73.5841151 140.114888,73.0245041 140.999842,72.7322198 C144.445587,73.8658539 147.551635,75.3724448 150.20127,77.3759013 L163,79.54 L42,79.54 L59.6624915,78.0892999 L62.6013044,75.9598254 L68.3360832,75.7065593 C71.9804201,74.4157982 74.1074447,72.6476806 75.6247571,71.4426891 C81.8995667,66.4597961 85.4550598,59.823555 88.1952807,59.2166653 C92.4493298,60.3330752 97.1458558,60.0678575 100.380815,59.7372582 C104.390979,55.1264433 108.760002,50.7065007 113.602859,46.54 Z M393.53442,65 L427,79 L348,79 L351.722458,76.0695453 L361.452363,75.8889078 L370.51748,66.350943 L375.37286,70.028169 L380.021148,66.9170769 L393.53442,65 Z" id="islands" fill="#19464C"></path>
        <path d="M364.976299,73.0196572 L364.918,73.222 L364.940425,73.1635645 C365.628079,71.4963174 367.902354,72.1011409 368.075615,73.9681268 C368.817611,70.7706671 373.567432,71.2209917 373.388029,74.8124212 C374.274012,74.9321183 375.329721,75.0590316 376.594249,75.1900303 L377.244096,75.2558556 C379.692002,75.498357 382.863672,75.7528359 387,76 L324,76 C331.707354,75.4029461 338.144954,75.3172109 342.997539,74.942828 C341.999502,71.0610328 347.580149,69.2439273 349.236577,72.8070074 C349.526736,71.4321714 351.870479,71.5267798 352.251214,73.303261 L352.256,73.332 L352.248728,73.2566073 C351.953105,69.6526708 356.026199,67.6791834 358.042991,69.8186453 C359.881275,66.3804789 366.30261,68.0220355 364.976299,73.0196572 Z M76.6267393,70.0196912 L76.569,70.218 L76.5903146,70.1636042 C77.2894727,68.4964001 79.5994611,69.101199 79.7744511,70.9680669 C80.5288342,67.7706471 85.3537789,68.220884 85.1725198,71.8123869 C87.8724173,72.1716043 92.124238,72.5955243 99,73 L35,73 C42.8303933,72.4029248 49.3695312,72.3171015 54.2997788,71.9427981 C53.2847278,68.0611388 58.9538221,66.2439315 60.6369423,69.8069384 C60.9326435,68.4320306 63.3125883,68.5268093 63.6994993,70.3032734 L63.705,70.34 L63.6970519,70.2566115 C63.3970449,66.6526517 67.5337528,64.679183 69.5842369,66.8185451 C71.451461,63.3805028 77.9750844,65.0220917 76.6267393,70.0196912 Z M236.9155,59.649672 C234.253496,50.0938219 246.043192,46.9092047 249.396321,53.409855 C253.049666,49.3960869 260.425896,53.1033155 259.88342,59.8687708 L259.872,59.983 L259.875205,59.9671511 C260.534235,56.6805321 264.637067,56.4377174 265.298026,58.8612633 L265.334134,59.012972 C268.331032,52.332353 278.429314,55.7395413 276.623202,63.0177293 C285.405899,63.7196469 297.053763,63.8805104 311,65 L311,65 L197,65 C209.24759,64.2415675 216.820435,63.4466396 221.630379,62.7730679 C221.304516,56.0393002 229.901749,55.1949439 231.243333,61.1901214 C231.555329,57.6896897 235.670915,56.5555634 236.916799,59.6818379 L236.953,59.779 Z M90.3732607,52.0197201 C89.0249156,47.0220384 95.548539,45.3804775 97.4157631,48.8186336 C99.4645815,46.679302 103.602838,48.6525865 103.302942,52.2564837 L103.294,52.34 L103.300501,52.303146 C103.675321,50.5822374 105.920556,50.4396433 106.329354,51.6822467 L106.363058,51.8068164 C108.046178,48.2438605 113.715272,50.0610418 112.700221,53.9426456 C117.630469,54.3171113 124.169607,54.4029333 132,55 L132,55 L68,55 C74.875762,54.5953625 79.1275827,54.1714485 81.8274802,53.8122363 C81.6444948,50.2209524 86.4711658,49.7707219 87.2255489,52.968096 C87.3989035,51.101096 89.7103551,50.4962974 90.4096718,52.1636197 L90.43,52.218 Z" id="clouds" fill="#FFFFFF"></path>
    </g>
</svg>