<?xml version="1.0" encoding="UTF-8"?>
<svg width="480px" height="79px" viewBox="0 0 480 79" version="1.1" xmlns="http://www.w3.org/2000/svg" xmlns:xlink="http://www.w3.org/1999/xlink">
    <title>seascape/small/reflections</title>
    <defs>
        <linearGradient x1="9.88694736%" y1="35.1648772%" x2="9.88694736%" y2="-1.5853656%" id="linearGradient-1">
            <stop stop-color="#F0F3F3" offset="0%"></stop>
            <stop stop-color="#9FB9BB" offset="100%"></stop>
        </linearGradient>
        <linearGradient x1="-1315.74245%" y1="79.7117314%" x2="-1315.74245%" y2="-21.0868477%" id="linearGradient-2">
            <stop stop-color="#FFEFEC" offset="0%"></stop>
            <stop stop-color="#FFCCC2" offset="100%"></stop>
        </linearGradient>
    </defs>
    <g id="seascape/small/reflections" stroke="none" stroke-width="1" fill="none" fill-rule="evenodd">
        <path d="M112.78328,34.1994818 C112.852423,34.1953364 112.919837,34.2043182 112.985523,34.2238364 C113.10998,34.2613182 113.184309,34.3117545 113.288023,34.3756636 C113.393466,34.4407818 113.429766,34.4730818 113.514466,34.5454545 C113.972537,34.9361636 114.043409,35.0593182 114.043409,35.0593182 C114.043409,35.0593182 113.972537,35.1823 113.514466,35.5730091 C113.429766,35.6453818 113.393466,35.6776818 113.288023,35.7428 C113.184309,35.8067091 113.10998,35.8571455 112.985523,35.8946273 C112.919837,35.9141455 112.852423,35.9231273 112.78328,35.9191545 C112.729695,35.9158727 112.681295,35.9013636 112.632895,35.8820182 C112.485966,35.8241545 112.401266,35.7694 112.280266,35.6863182 C111.689095,35.2828273 111.523152,35.0593182 111.523152,35.0593182 C111.523152,35.0593182 111.689095,34.8356364 112.280266,34.4323182 C112.401266,34.3490636 112.485966,34.2943091 112.632895,34.2364455 C112.681295,34.2171 112.729695,34.2025909 112.78328,34.1994818 Z M112.78328,29.9617909 C112.878352,29.9576455 112.971695,29.9661091 113.063309,29.9863182 C113.222337,30.0212091 113.343337,30.0757909 113.483352,30.1379727 C113.612995,30.1960091 113.689052,30.2407455 113.796223,30.3077636 C114.340723,30.6438909 114.530866,30.8216273 114.530866,30.8216273 C114.530866,30.8216273 114.340723,30.9993636 113.796223,31.3354909 C113.689052,31.4025091 113.612995,31.4470727 113.483352,31.5052818 C113.343337,31.5674636 113.222337,31.6218727 113.063309,31.6569364 C112.971695,31.6769727 112.878352,31.6856091 112.78328,31.6814636 C112.71068,31.6783545 112.643266,31.6640182 112.574123,31.6443273 C112.387437,31.5909545 112.249152,31.5253182 112.084937,31.4486273 C111.910352,31.3669273 111.808366,31.3066455 111.664895,31.2232182 C111.212009,30.9572182 111.035695,30.8216273 111.035695,30.8216273 C111.035695,30.8216273 111.212009,30.6860364 111.664895,30.4200364 C111.808366,30.3366091 111.910352,30.2763273 112.084937,30.1946273 C112.249152,30.1179364 112.387437,30.0523 112.574123,29.9989273 C112.643266,29.9792364 112.71068,29.9649 112.78328,29.9617909 Z M111.955295,27.2810636 C112.183466,27.2767455 112.409909,27.2848636 112.632895,27.3054182 C112.987252,27.3382364 113.320866,27.3962727 113.649295,27.4572455 C113.924137,27.5083727 114.166137,27.5646818 114.409866,27.6270364 C115.297487,27.8538273 115.915803,28.0513132 116.116466,28.1173974 L116.178883,28.1381957 L116.178883,28.1381957 C116.186837,28.1409 116.184164,28.1418163 116.178883,28.1436024 L116.116466,28.1643867 C115.915803,28.2304281 115.297487,28.4278 114.409866,28.6545909 C114.166137,28.7169455 113.924137,28.7732545 113.649295,28.8243818 C113.320866,28.8853545 112.987252,28.9433909 112.632895,28.9762091 C112.409909,28.9967636 112.183466,29.0048818 111.955295,29.0007364 C111.785895,28.9974545 111.616495,28.9836364 111.448823,28.9636 C111.033966,28.9142 110.645037,28.8416545 110.263023,28.7679 C109.889652,28.6955273 109.562952,28.6190091 109.248352,28.5423182 C108.308009,28.3143182 107.72548,28.1409 107.72548,28.1409 C107.72548,28.1409 108.308009,27.9673091 109.248352,27.7393091 C109.562952,27.6626182 109.889652,27.5861 110.263023,27.5137273 C110.645037,27.4399727 111.033966,27.3674273 111.448823,27.3180273 C111.616495,27.2981636 111.785895,27.2841727 111.955295,27.2810636 Z M111.955295,23.0400909 C112.370152,23.0357727 112.785009,23.0437182 113.19468,23.0644455 C113.834252,23.0969182 114.456537,23.1554727 115.052895,23.2162727 C115.545537,23.2663636 116.005337,23.3244 116.446123,23.3860636 C118.376937,23.6562091 119.697566,23.8999273 119.697566,23.8999273 C119.697566,23.8999273 118.376937,24.1436455 116.446123,24.4136182 C116.005337,24.4752818 115.545537,24.5334909 115.052895,24.5834091 C114.456537,24.6442091 113.834252,24.7027636 113.19468,24.7352364 C112.785009,24.7559636 112.370152,24.7639091 111.955295,24.7597636 C111.64588,24.7566545 111.334737,24.7426636 111.027052,24.7226273 C110.27858,24.6739182 109.55258,24.6003364 108.859423,24.5269273 C108.188737,24.4559364 107.571637,24.377 107.001209,24.3013455 C105.327952,24.0793909 104.213023,23.8999273 104.213023,23.8999273 C104.213023,23.8999273 105.327952,23.7204636 107.001209,23.4983364 C107.571637,23.4226818 108.188737,23.3437455 108.859423,23.2729273 C109.55258,23.1993455 110.27858,23.1257636 111.027052,23.0770545 C111.334737,23.0570182 111.64588,23.0432 111.955295,23.0400909 Z M88.1839803,20.0023364 C88.3015232,19.9981909 88.419066,20.0064818 88.5331517,20.0268636 C88.7250232,20.0608909 88.8875089,20.1170273 89.0586374,20.1786909 C89.2124803,20.2337909 89.3213803,20.2833636 89.4527517,20.3484818 C90.0871374,20.6607727 90.3723517,20.8621727 90.3723517,20.8621727 L90.3723517,20.8621727 L90.3178747,20.898548 C90.2079214,20.969879 89.928541,21.1418182 89.4527517,21.3760364 C89.3213803,21.4409818 89.2124803,21.4907273 89.0586374,21.5458273 C88.8875089,21.6074909 88.7250232,21.6634545 88.5331517,21.6976545 C88.419066,21.7178636 88.3015232,21.7261545 88.1839803,21.7220091 C88.0940946,21.7189 88.007666,21.7047364 87.9212374,21.6850455 C87.6947946,21.6334 87.5098374,21.5646545 87.3075946,21.4891727 C87.100166,21.4114455 86.954966,21.3442545 86.7821089,21.2637636 C86.2497089,21.0138273 85.9938803,20.8621727 85.9938803,20.8621727 C85.9938803,20.8621727 86.2497089,20.7106909 86.7821089,20.4607545 C86.954966,20.3802636 87.100166,20.3129 87.3075946,20.2351727 C87.5098374,20.1596909 87.6947946,20.0911182 87.9212374,20.0394727 C88.007666,20.0196091 88.0940946,20.0056182 88.1839803,20.0023364 Z M131.954866,-5.32907052e-14 C133.552066,0.0551 135.111237,0.112618182 136.625466,0.171345455 C150.956042,0.727354545 161.18696,1.24424644 161.63954,1.26719676 L161.65518,1.26799091 L161.65518,1.26799091 C161.65518,1.26799091 151.28548,1.79567273 136.625466,2.36446364 C133.676523,2.47880909 130.55818,2.58900909 127.31538,2.68573636 C129.488195,2.78108182 131.57458,2.88903636 133.553795,3.00130909 C143.598523,3.57079091 150.68048,4.09778182 150.68048,4.09778182 C150.68048,4.09778182 143.598523,4.62494545 133.553795,5.19425455 C131.242695,5.32535455 128.786395,5.45075455 126.21428,5.55680909 C126.067352,5.56285455 125.918695,5.5689 125.770037,5.57494545 C128.988428,5.99600744 131.140566,6.33613171 131.38961,6.37581229 L131.413823,6.37968182 L131.413823,6.37968182 C131.413823,6.37968182 130.564073,6.51636262 129.103942,6.72680367 L128.690772,6.78597818 C127.335614,6.97885582 125.541424,7.22248245 123.462395,7.47632727 C122.933452,7.54092727 122.39068,7.6038 121.832352,7.66373636 C128.018909,8.19521818 132.25218,8.66158182 132.25218,8.66158182 C132.25218,8.66158182 127.483052,9.18701818 120.670752,9.75822727 C119.106395,9.88932727 117.448695,10.0143818 115.706295,10.1206091 C114.043409,10.222 112.320023,10.3208 110.558609,10.3921364 C112.72278,10.7144455 114.043409,10.9436545 114.043409,10.9436545 C114.043409,10.9436545 113.939495,10.9617018 113.742194,10.9947821 L113.550453,11.0267479 C113.05084,11.1095971 112.189704,11.249134 111.051252,11.4212455 C111.265595,11.4276364 111.479937,11.4347182 111.69428,11.4428364 C113.530023,11.5117545 115.322552,11.6371545 117.037295,11.7665273 C118.44608,11.8729273 119.780537,11.9978091 121.044123,12.1290818 C126.561723,12.7016727 130.395695,13.2255545 130.395695,13.2255545 C130.395695,13.2255545 126.561723,13.7494364 121.044123,14.3220273 C119.780537,14.4533 118.44608,14.5780091 117.037295,14.6844091 C115.861866,14.7731909 114.650137,14.8599 113.41248,14.9279545 C118.268037,15.4898364 121.607637,15.9947182 121.607637,15.9947182 C121.607637,15.9947182 118.148766,16.5173909 113.153195,17.0911909 C112.58968,17.1557909 112.012337,17.2188364 111.419437,17.2789455 C112.340766,17.3278273 113.234437,17.3798182 114.096995,17.4331909 C120.560123,17.8337455 125.111452,18.2039 125.111452,18.2039 C125.111452,18.2039 120.560123,18.5742273 114.096995,18.9746091 C113.49718,19.0117455 112.883537,19.0481909 112.254337,19.0834273 C112.413366,19.0891273 112.570666,19.0963818 112.727966,19.1050182 C113.602623,19.1537273 114.449623,19.2416455 115.265509,19.3326727 C115.937923,19.4079818 116.565395,19.4948636 117.166937,19.5874455 C119.811652,19.9938727 121.607637,20.3581545 121.607637,20.3581545 C121.607637,20.3581545 119.811652,20.7224364 117.166937,21.1288636 C116.565395,21.2214455 115.937923,21.3083273 115.265509,21.3836364 C114.449623,21.4746636 113.602623,21.5624091 112.727966,21.6111182 C112.169637,21.6422091 111.602666,21.6541273 111.035695,21.6479091 C110.612195,21.6432455 110.188695,21.6223455 109.768652,21.5922909 C108.745337,21.5192273 107.756595,21.4088545 106.807609,21.2986545 C105.891466,21.1920818 105.049652,21.0739364 104.271795,20.9604545 C101.981437,20.6265727 100.46548,20.3581545 100.46548,20.3581545 C100.46548,20.3581545 101.981437,20.0897364 104.271795,19.7558545 C105.049652,19.6423727 105.891466,19.5240545 106.807609,19.4176545 C107.16888,19.3756818 107.535337,19.3337091 107.908709,19.2938091 C106.340895,19.3603091 104.722952,19.4200727 103.080809,19.4570364 C101.692766,19.4881273 100.289166,19.5000455 98.8838374,19.4936545 C97.832866,19.4889909 96.7818946,19.4680909 95.7378374,19.4380364 C93.2158517,19.3653182 90.7405374,19.2544273 88.3931374,19.1444 C86.1408089,19.0388636 84.0198517,18.9191636 82.0994089,18.8062 C76.4832803,18.4762909 72.6562232,18.2039 72.6562232,18.2039 C72.6562232,18.2039 76.4832803,17.9316818 82.0994089,17.6016 C84.0198517,17.4888091 86.1408089,17.3689364 88.3931374,17.2634 C89.338666,17.2191818 90.3032089,17.1747909 91.2833089,17.1328182 C90.3446946,17.0397182 89.4492946,16.9442 88.5971089,16.8516182 C84.2635803,16.3795545 81.3509374,15.9947182 81.3509374,15.9947182 C81.3509374,15.9947182 84.2635803,15.6098818 88.5971089,15.1378182 C90.076766,14.9766636 91.6912517,14.8073909 93.428466,14.6564273 C94.5693232,14.5574545 95.7447517,14.4579636 96.9478374,14.3721182 C95.8743946,14.2764273 94.8510803,14.1778 93.8813517,14.0824545 C91.4324886,13.8412871 89.3913066,13.6225908 87.9816656,13.4665007 L87.6130443,13.4255131 C86.4963926,13.3008251 85.865966,13.2255545 85.865966,13.2255545 C85.865966,13.2255545 86.3857848,13.1635047 87.3174232,13.0587445 L87.8841919,12.9954397 C88.9664658,12.875343 90.4403093,12.7161621 92.1977232,12.5372364 C91.2694803,12.4583 90.3602517,12.3700364 89.4752232,12.2817727 C87.9575374,12.1306364 86.5539374,11.9617091 85.2644232,11.8005545 C81.4753946,11.3272818 78.9464946,10.9436545 78.9464946,10.9436545 C78.9464946,10.9436545 81.4753946,10.5598545 85.2644232,10.0867545 C86.3879946,9.94615455 87.5979946,9.79985455 88.8944232,9.66460909 C88.2548517,9.61572727 87.632566,9.56667273 87.0258374,9.51848182 C81.110666,9.04814545 77.0986517,8.66158182 77.0986517,8.66158182 C77.0986517,8.66158182 81.110666,8.27501818 87.027566,7.80468182 C89.048266,7.64404545 91.2729374,7.47390909 93.6445374,7.32346364 C95.2572946,7.22138182 96.9236374,7.11860909 98.6262803,7.03086364 C95.7285255,6.68151994 93.812529,6.41591824 93.5773651,6.38310114 L93.5529232,6.37968182 L93.5529232,6.37968182 C93.5529232,6.37968182 95.7603089,6.06929091 99.1690517,5.66355455 C97.2710803,5.59187273 95.4076803,5.5138 93.5944089,5.4359 C90.0923232,5.2858 86.7942089,5.11531818 83.8072374,4.95468182 C75.0814089,4.48538182 69.1282089,4.09778182 69.1282089,4.09778182 C69.1282089,4.09778182 75.0814089,3.71018182 83.8072374,3.24088182 C85.7536089,3.13620909 87.8313517,3.02739091 90.0110803,2.92271818 C85.9783232,2.82996364 82.0216232,2.71769091 78.218766,2.60610909 C73.1039232,2.45600909 68.2794803,2.28535455 63.916566,2.12489091 C51.175266,1.65610909 42.4615374,1.26799091 42.4615374,1.26799091 L42.4778025,1.26726799 C42.8997411,1.24853459 51.4937985,0.868153182 63.916566,0.411090909 C67.6122517,0.274981818 71.6415517,0.131790909 75.895566,-5.32907052e-14 L131.954866,-5.32907052e-14 Z M391.288494,15.5401 C391.399798,15.5359545 391.509364,15.5442455 391.61719,15.5646273 C391.799798,15.5988273 391.949364,15.6546182 392.111103,15.7162818 C392.25719,15.7722455 392.35632,15.8206091 392.479798,15.8860727 C393.086755,16.2047545 393.342407,16.3999364 393.342407,16.3999364 C393.342407,16.3999364 393.086755,16.5949455 392.479798,16.9138 C392.35632,16.9792636 392.25719,17.0276273 392.111103,17.0835909 C391.949364,17.1452545 391.799798,17.2008727 391.61719,17.2352455 C391.509364,17.2554545 391.399798,17.2639182 391.288494,17.2597727 C391.205016,17.2566636 391.123277,17.2425 391.041537,17.2226364 C390.827624,17.1704727 390.65719,17.1027636 390.467624,17.0269364 C390.269364,16.9481727 390.13719,16.8827091 389.973711,16.8013545 C389.465885,16.5471 389.234581,16.3999364 389.234581,16.3999364 C389.234581,16.3999364 389.465885,16.2526 389.973711,15.9983455 C390.13719,15.9171636 390.269364,15.8517 390.467624,15.7729364 C390.65719,15.6971091 390.827624,15.6292273 391.041537,15.5772364 C391.123277,15.5573727 391.205016,15.5432091 391.288494,15.5401 Z M372.700668,15.5148818 C372.811972,15.5107364 372.921537,15.5190273 373.029364,15.5394091 C373.211972,15.5736091 373.361537,15.6294 373.523277,15.6910636 C373.669364,15.7470273 373.768494,15.7953909 373.891972,15.8608545 C374.498929,16.1795364 374.754581,16.3747182 374.754581,16.3747182 C374.754581,16.3747182 374.498929,16.5699 373.891972,16.8885818 C373.768494,16.9540455 373.669364,17.0024091 373.523277,17.0583727 C373.361537,17.1200364 373.211972,17.1758273 373.029364,17.2100273 C372.921537,17.2304091 372.811972,17.2387 372.700668,17.2345545 C372.61719,17.2314455 372.53545,17.2172818 372.453711,17.1974182 C372.239798,17.1454273 372.069364,17.0775455 371.879798,17.0017182 C371.681537,16.9229545 371.549364,16.8574909 371.385885,16.7763091 C370.87632,16.5218818 370.646755,16.3747182 370.646755,16.3747182 C370.646755,16.3747182 370.87632,16.2275545 371.385885,15.9731273 L371.504146,15.9147347 C371.619581,15.8583824 371.731103,15.8067909 371.879798,15.7477182 C372.069364,15.6718909 372.239798,15.6040091 372.453711,15.5520182 C372.53545,15.5321545 372.61719,15.5179909 372.700668,15.5148818 Z M139.277095,15.1400636 C139.339323,15.1359182 139.401552,15.1452455 139.458595,15.1644182 C139.576137,15.2031091 139.638366,15.2516455 139.733437,15.3162455 C139.833695,15.3844727 139.859623,15.4114182 139.939137,15.4860364 C140.376466,15.8993727 140.417952,15.9999 140.417952,15.9999 C140.417952,15.9999 140.376466,16.1002545 139.939137,16.5135909 C139.859623,16.5882091 139.833695,16.6153273 139.733437,16.6835545 C139.638366,16.7481545 139.576137,16.7966909 139.458595,16.8352091 C139.401552,16.8545545 139.339323,16.8637091 139.277095,16.8597364 C139.226966,16.8564545 139.183752,16.8419455 139.138809,16.8226 C139.000523,16.7628364 138.93138,16.7113636 138.820752,16.6269 C138.257237,16.2025091 138.134509,15.9999 138.134509,15.9999 C138.134509,15.9999 138.257237,15.7972909 138.820752,15.3729 C138.93138,15.2884364 139.000523,15.2367909 139.138809,15.1772 C139.183752,15.1578545 139.226966,15.1431727 139.277095,15.1400636 Z M407.33545,-4.79616347e-14 C408.394581,0.0549272727 409.427624,0.112618182 410.432842,0.171345455 C420.173711,0.741 427.039798,1.26799091 427.039798,1.26799091 C427.039798,1.26799091 420.173711,1.79498182 410.432842,2.36446364 C409.288494,2.43130909 408.107624,2.49677273 406.893711,2.55895455 C407.138929,2.57519091 407.382407,2.5916 407.624146,2.60800909 C415.984146,3.17818182 421.862407,3.70465455 421.862407,3.70465455 C421.862407,3.70465455 415.984146,4.23095455 407.624146,4.80112727 C405.702407,4.93222727 403.662407,5.05745455 401.523277,5.16350909 C401.118059,5.18354545 400.711103,5.20358182 400.300668,5.22327273 C406.561537,5.72038182 410.77545,6.14131818 410.77545,6.14131818 C410.77545,6.14131818 405.773711,6.64084545 398.571972,7.19443636 C400.060668,7.26421818 401.51632,7.35645455 402.926755,7.45093636 C404.511103,7.55716364 406.01719,7.68221818 407.441537,7.81331818 C412.671921,8.29536275 416.570795,8.74413164 417.665272,8.87306073 L417.799641,8.88894625 C417.915514,8.90269833 417.97545,8.90996364 417.97545,8.90996364 C417.97545,8.90996364 413.645016,9.43470909 407.441537,10.0064364 C406.01719,10.1375364 404.511103,10.2625909 402.926755,10.3688182 C401.241537,10.4816091 399.491972,10.5912909 397.700668,10.6633182 C399.528494,10.9963364 400.63632,11.2333182 400.63632,11.2333182 C400.63632,11.2333182 398.47632,11.6951909 395.21545,12.2349636 C395.502407,12.2784909 395.780668,12.3240909 396.053711,12.3714182 C398.410233,12.7799182 399.991103,13.1421273 399.991103,13.1421273 C399.991103,13.1421273 398.410233,13.5045091 396.053711,13.9128364 C395.518059,14.0055909 394.965016,14.0921273 394.366755,14.1676091 C393.643277,14.2588091 392.893711,14.3465545 392.11632,14.3952636 C391.620668,14.4263545 391.118059,14.4382727 390.61545,14.4318818 C390.239798,14.4272182 389.864146,14.4063182 389.491972,14.3762636 C388.582407,14.3030273 387.707624,14.193 386.865885,14.0828 C386.050233,13.9758818 385.309364,13.8582545 384.61719,13.7444273 C382.57719,13.4093364 381.241537,13.1421273 381.241537,13.1421273 C381.241537,13.1421273 381.862407,13.0179364 382.905885,12.8324273 C382.131972,12.7522818 381.37545,12.6619455 380.638059,12.5714364 C379.398059,12.4197818 378.262407,12.2518909 377.208494,12.0902182 C374.609223,11.6911067 372.752534,11.3587 372.221221,11.2618548 L372.122403,11.2437643 C372.085023,11.2368867 372.065885,11.2333182 372.065885,11.2333182 C372.065885,11.2333182 372.085023,11.2297497 372.122403,11.2228721 L372.221221,11.2047816 C372.752534,11.1079363 374.609223,10.7755296 377.208494,10.3764182 C377.999798,10.2549909 378.83632,10.1301091 379.730233,10.0112727 C378.725016,9.92991818 377.759798,9.84718182 376.839798,9.76686364 C372.039156,9.34718893 368.6215,8.99488856 367.93525,8.92325987 L367.854478,8.91480599 C367.823998,8.91160561 367.808494,8.90996364 367.808494,8.90996364 C367.808494,8.90996364 367.823998,8.90832093 367.854478,8.90511918 L367.93525,8.89666172 C368.6215,8.82500321 372.039156,8.47256561 376.839798,8.05289091 C377.264146,8.01592727 377.69719,7.97827273 378.140668,7.94061818 C377.665885,7.92852727 377.192842,7.91384545 376.721537,7.89709091 C373.79632,7.79362727 370.928494,7.63592727 368.206755,7.47943636 C365.592842,7.32899091 363.138929,7.15885455 360.909364,6.99821818 C354.392842,6.52822727 349.963277,6.14131818 349.963277,6.14131818 C349.963277,6.14131818 354.392842,5.75440909 360.909364,5.28441818 C363.138929,5.12360909 365.592842,4.95347273 368.206755,4.80302727 C368.53545,4.7842 368.864146,4.76537273 369.19632,4.74671818 C368.185885,4.68470909 367.208494,4.62235455 366.267624,4.56155455 C359.005016,4.09173636 354.062407,3.70465455 354.062407,3.70465455 C354.062407,3.70465455 359.005016,3.3174 366.267624,2.84775455 C367.69719,2.75517273 369.211972,2.65948182 370.79632,2.56620909 C367.730233,2.42612727 364.838059,2.27136364 362.194581,2.12489091 C353.731972,1.65559091 347.961537,1.26799091 347.961537,1.26799091 C347.961537,1.26799091 353.731972,0.880390909 362.19632,0.411090909 C364.650233,0.274981818 367.319798,0.131790909 370.142407,-4.79616347e-14 L407.33545,-4.79616347e-14 Z M373.399798,12.2822909 C373.606755,12.2781455 373.81545,12.2862636 374.018929,12.3068182 C374.342407,12.3396364 374.645016,12.3976727 374.944146,12.4586455 C375.198059,12.5101182 375.41719,12.5659091 375.639798,12.6284364 C376.645016,12.9103273 377.260668,13.1421273 377.260668,13.1421273 C377.260668,13.1421273 376.645016,13.3741 375.639798,13.6559909 C375.41719,13.7185182 375.198059,13.7743091 374.944146,13.8257818 C374.645016,13.8867545 374.342407,13.9446182 374.018929,13.9776091 C373.81545,13.9981636 373.606755,14.0062818 373.399798,14.0019636 C373.245016,13.9988545 373.090233,13.9848636 372.93719,13.965 C372.558059,13.9154273 372.205016,13.8432273 371.85545,13.7693 C371.512842,13.6964091 371.218929,13.6207545 370.930233,13.5437182 C370.065885,13.3139909 369.540668,13.1421273 369.540668,13.1421273 C369.540668,13.1421273 370.065885,12.9704364 370.930233,12.7407091 C371.218929,12.6636727 371.512842,12.5880182 371.85545,12.5151273 C372.205016,12.4412 372.558059,12.369 372.93719,12.3194273 C373.090233,12.2995636 373.245016,12.2855727 373.399798,12.2822909 Z M139.277095,11.5406 C139.394637,11.5364545 139.51218,11.5447455 139.626266,11.5651273 C139.818137,11.5991545 139.980623,11.6552909 140.151752,11.7167818 C140.305595,11.7718818 140.414495,11.8216273 140.545866,11.8865727 C141.020359,12.1207909 141.300387,12.2927301 141.410746,12.3640611 L141.465466,12.4004364 L141.465466,12.4004364 L141.410746,12.4367874 C141.300387,12.5080778 141.020359,12.6799523 140.545866,12.9143 C140.414495,12.9792455 140.305595,13.0289909 140.151752,13.0840909 C139.980623,13.1455818 139.818137,13.2017182 139.626266,13.2357455 C139.51218,13.2561273 139.394637,13.2644182 139.277095,13.2602727 C139.187209,13.2571636 139.10078,13.243 139.014352,13.2231364 C138.787909,13.1714909 138.602952,13.1029182 138.400709,13.0274364 C138.19328,12.9497091 138.04808,12.8825182 137.875223,12.8018545 C137.342823,12.5519182 137.086995,12.4004364 137.086995,12.4004364 C137.086995,12.4004364 137.342823,12.2489545 137.875223,11.9988455 C138.04808,11.9183545 138.19328,11.8511636 138.400709,11.7734364 C138.602952,11.6979545 138.787909,11.6293818 139.014352,11.5777364 C139.10078,11.5578727 139.187209,11.5437091 139.277095,11.5406 Z M139.277095,8.70355455 C139.52428,8.69940909 139.771466,8.70735455 140.016923,8.72808182 C140.402395,8.76072727 140.768852,8.81893636 141.126666,8.87973636 C141.425709,8.93069091 141.691909,8.98751818 141.958109,9.0497 C143.14218,9.32675455 143.901023,9.56339091 143.901023,9.56339091 C143.901023,9.56339091 143.14218,9.8002 141.958109,10.0772545 C141.691909,10.1394364 141.425709,10.1960909 141.126666,10.2470455 C140.768852,10.3078455 140.402395,10.3660545 140.016923,10.3988727 C139.771466,10.4194273 139.52428,10.4273727 139.277095,10.4232273 C139.090409,10.4201182 138.905452,10.4061273 138.722223,10.3860909 C138.269337,10.3370364 137.844109,10.2641455 137.427523,10.1903909 C137.01958,10.1185364 136.661766,10.0413273 136.31778,9.96498182 C135.296195,9.73836364 134.653166,9.56339091 134.653166,9.56339091 C134.653166,9.56339091 135.296195,9.38859091 136.31778,9.16197273 C136.661766,9.08545455 137.01958,9.00841818 137.427523,8.93639091 C137.844109,8.86263636 138.269337,8.78991818 138.722223,8.74069091 C138.905452,8.72065455 139.090409,8.70666364 139.277095,8.70355455 Z M139.277095,5.51984545 C139.595152,5.5157 139.914937,5.52364545 140.231266,5.54437273 C140.725637,5.57684545 141.202723,5.6354 141.662523,5.69602727 C142.044537,5.74646364 142.395437,5.80415455 142.735966,5.86599091 C144.238095,6.13872727 145.240666,6.37968182 145.240666,6.37968182 C145.240666,6.37968182 144.238095,6.62080909 142.735966,6.89354545 C142.395437,6.95538182 142.044537,7.0129 141.662523,7.06333636 C141.202723,7.12413636 140.725637,7.18251818 140.231266,7.21516364 C139.914937,7.23571818 139.595152,7.24366364 139.277095,7.23951818 C139.036823,7.23640909 138.79828,7.22241818 138.561466,7.20238182 C137.982395,7.15367273 137.425795,7.08026364 136.889937,7.00668182 C136.371366,6.93551818 135.899466,6.8571 135.45868,6.78127273 C134.160523,6.55741818 133.311795,6.37968182 133.311795,6.37968182 C133.311795,6.37968182 134.160523,6.20194545 135.45868,5.97826364 C135.899466,5.90226364 136.371366,5.82401818 136.889937,5.75268182 C137.425795,5.6791 137.982395,5.60586364 138.561466,5.55698182 C138.79828,5.53694545 139.036823,5.52295455 139.277095,5.51984545 Z" id="islands" fill="url(#linearGradient-1)"></path>
        <path d="M286.312241,70.874831 C286.312241,70.874831 286.186908,70.7218786 285.690797,70.3579214 C285.596797,70.2878762 285.541093,70.248769 285.424463,70.1868929 C285.306093,70.1236262 285.210352,70.0706143 285.071093,70.0342881 C284.9945,70.0143 284.914426,70.0054357 284.834352,70.0096071 C284.771686,70.0129095 284.714241,70.0273357 284.656797,70.0469762 C284.491426,70.102769 284.3835,70.1618643 284.2425,70.2439024 C283.596686,70.6231548 283.356463,70.874831 283.356463,70.874831 C283.356463,70.874831 283.596686,71.1265071 284.2425,71.5057595 C284.3835,71.5879714 284.491426,71.6470667 284.656797,71.7026857 C284.714241,71.7225 284.771686,71.7369262 284.834352,71.7400548 C284.914426,71.7442262 284.9945,71.7353619 285.071093,71.7155476 C285.210352,71.6790476 285.306093,71.6260357 285.424463,71.562769 C285.541093,71.5010667 285.596797,71.4617857 285.690797,71.3919143 C286.186908,71.0279571 286.312241,70.874831 286.312241,70.874831 Z M289.718871,64.9039524 C289.718871,64.9039524 288.912908,64.6647905 287.666537,64.3870429 C287.386278,64.3244714 287.102537,64.2671143 286.787463,64.2161881 C286.409723,64.1548333 286.023278,64.0962595 285.615945,64.0634095 C285.358315,64.0425524 285.095463,64.0345571 284.834352,64.0387286 C284.637649,64.0418571 284.442686,64.0559357 284.247723,64.0760976 C283.7725,64.1254595 283.319908,64.1988071 282.881241,64.2730238 C282.451278,64.3453286 282.071797,64.4231952 281.707982,64.500019 C280.633945,64.7273619 279.949834,64.9039524 279.949834,64.9039524 C279.949834,64.9039524 280.633945,65.0807167 281.707982,65.3080595 C282.071797,65.3848833 282.451278,65.4625762 282.881241,65.534881 C283.319908,65.6090976 283.7725,65.6824452 284.247723,65.7318071 C284.442686,65.751969 284.637649,65.7660476 284.834352,65.7691762 C285.095463,65.7733476 285.358315,65.7653524 285.615945,65.744669 C286.023278,65.711819 286.409723,65.6530714 286.787463,65.5918905 C287.102537,65.5407905 287.386278,65.4834333 287.666537,65.4210357 C288.912908,65.1431143 289.718871,64.9039524 289.718871,64.9039524 Z M291.953982,57.6844262 C291.953982,57.6844262 290.20976,57.3183833 287.629982,56.9088881 C287.043352,56.8157262 286.434093,56.7283 285.777834,56.6526929 C284.984056,56.5609214 284.158945,56.4726262 283.305982,56.4236119 C282.762871,56.3923262 282.211056,56.3803333 281.659241,56.3865905 C281.246686,56.3914571 280.83413,56.4123143 280.425056,56.442731 C279.427612,56.5162524 278.464982,56.6271429 277.542389,56.7380333 C276.649389,56.8452738 275.8295,56.9641595 275.070537,57.0783524 C272.838908,57.4146738 271.3645,57.6844262 271.3645,57.6844262 C271.3645,57.6844262 272.838908,57.9541786 275.070537,58.2905 C275.8295,58.4048667 276.649389,58.5235786 277.542389,58.630819 C278.464982,58.7418833 279.427612,58.8527738 280.425056,58.9262952 C280.83413,58.9565381 281.246686,58.977569 281.659241,58.9822619 C282.211056,58.9886929 282.762871,58.9767 283.305982,58.9454143 C284.158945,58.8964 284.984056,58.807931 285.777834,58.7163333 C286.434093,58.6405524 287.043352,58.5531262 287.629982,58.4599643 C290.20976,58.0506429 291.953982,57.6844262 291.953982,57.6844262 Z M302.107723,52.0001595 C302.107723,52.0001595 300.387871,51.6342905 297.842908,51.2246214 C297.264982,51.1314595 296.662686,51.0440333 296.01513,50.9682524 C295.231797,50.8766548 294.420612,50.7881857 293.578093,50.7391714 C293.041945,50.7078857 292.498834,50.6958929 291.953982,50.7023238 C291.546649,50.7070167 291.139315,50.7280476 290.735463,50.7582905 C289.751945,50.8318119 288.803241,50.9427024 287.892834,51.0537667 C287.012019,51.1610071 286.204315,51.279719 285.455797,51.3940857 C283.252019,51.7304071 281.800241,52.0001595 281.800241,52.0001595 C281.800241,52.0001595 283.252019,52.2697381 285.455797,52.6062333 C286.204315,52.7206 287.012019,52.8393119 287.892834,52.9465524 C288.803241,53.0574429 289.751945,53.1683333 290.735463,53.2420286 C291.139315,53.2722714 291.546649,53.2933024 291.953982,53.2979952 C292.498834,53.3042524 293.041945,53.2922595 293.578093,53.2609738 C294.420612,53.2119595 295.231797,53.1236643 296.01513,53.0318929 C296.662686,52.9561119 297.264982,52.8688595 297.842908,52.7756976 C300.387871,52.3660286 302.107723,52.0001595 302.107723,52.0001595 Z M295.693093,47.9026 C295.693093,47.9026 294.227389,47.5395119 292.023612,47.1270619 C291.524019,47.0337262 291.0105,46.9468214 290.451723,46.8708667 C289.776315,46.7790952 289.080019,46.6908 288.35413,46.6417857 C287.892834,46.6105 287.424574,46.5985071 286.956315,46.6047643 C286.606426,46.6094571 286.256537,46.6304881 285.908389,46.660731 C285.060649,46.7346 284.247723,46.8451429 283.462649,46.9562071 C282.701945,47.063969 282.012612,47.1819857 281.366797,47.2965262 C279.460686,47.6347595 278.221278,47.9026 278.221278,47.9026 C278.221278,47.9026 279.460686,48.1704405 281.366797,48.5086738 C282.012612,48.6233881 282.701945,48.7414048 283.462649,48.8489929 C284.247723,48.9600571 285.060649,49.0707738 285.908389,49.144469 C286.256537,49.1747119 286.606426,49.1957429 286.956315,49.2004357 C287.424574,49.2068667 287.892834,49.1948738 288.35413,49.1635881 C289.080019,49.1144 289.776315,49.0262786 290.451723,48.9345071 C291.0105,48.8583786 291.524019,48.7716476 292.023612,48.6781381 C294.227389,48.2658619 295.693093,47.9026 295.693093,47.9026 Z M298.003056,44.5896167 C298.003056,44.5896167 296.123056,44.222531 293.363982,43.8140786 C292.733834,43.7209167 292.077574,43.6333167 291.376056,43.5577095 C290.523093,43.4661119 289.638797,43.3776429 288.724908,43.3286286 C288.140019,43.2973429 287.548167,43.2855238 286.956315,43.291781 C286.514167,43.2964738 286.070278,43.3175048 285.631612,43.3477476 C284.562797,43.421269 283.528797,43.5323333 282.538315,43.6432238 C281.580908,43.7502905 280.701834,43.86935 279.887167,43.9835429 C277.49713,44.319169 275.911315,44.5896167 275.911315,44.5896167 C275.911315,44.5896167 277.49713,44.8600643 279.887167,45.1956905 C280.701834,45.3098833 281.580908,45.4289429 282.538315,45.5360095 C283.528797,45.6469 284.562797,45.7579643 285.631612,45.8314857 C286.070278,45.8617286 286.514167,45.8827595 286.956315,45.8874524 C287.548167,45.8937095 288.140019,45.8817167 288.724908,45.850431 C289.638797,45.8015905 290.523093,45.7131214 291.376056,45.6215238 C292.077574,45.5457429 292.735574,45.4581429 293.363982,45.3651548 C296.123056,44.9567024 298.003056,44.5896167 298.003056,44.5896167 Z M301.258241,-2.13162821e-14 C302.166908,0.0608333333 303.051204,0.124621429 303.907649,0.190147619 C311.3145,0.755028571 316.512352,1.27593571 316.512352,1.27593571 C316.512352,1.27593571 311.3145,1.79666905 303.907649,2.36155 L303.871093,2.36450476 C311.822797,2.92608333 317.403612,3.44264524 317.403612,3.44264524 C317.403612,3.44264524 314.614945,3.70057857 310.172574,4.05028333 C311.001167,4.08695714 311.819315,4.12571667 312.627019,4.16465 C314.799463,4.26963095 316.872686,4.39373095 318.825797,4.52356667 C327.313649,5.08792619 333.287871,5.60935476 333.287871,5.60935476 C333.287871,5.60935476 327.313649,6.13060952 318.825797,6.69496905 C316.872686,6.82480476 314.799463,6.94890476 312.627019,7.05388571 L312.602649,7.05510238 C316.322612,7.34901429 318.596019,7.5555 318.596019,7.5555 C318.596019,7.5555 312.860278,8.07675476 304.704908,8.6412881 C302.83013,8.77112381 300.838723,8.89505 298.751574,9.00020476 C297.710612,9.05252143 296.64876,9.10431667 295.571241,9.15194048 C295.806241,9.16897381 296.041241,9.18600714 296.27276,9.2033881 C303.853686,9.76826905 309.176871,10.2891762 309.176871,10.2891762 C309.176871,10.2891762 303.853686,10.8099095 296.27276,11.3747905 C295.656537,11.4206762 295.029871,11.4656929 294.387537,11.5094929 C296.011649,11.5736286 297.604426,11.6514952 299.151945,11.7309262 C301.197315,11.836081 303.146945,11.9600071 304.985167,12.0898429 C312.978649,12.6543762 318.596019,13.175631 318.596019,13.175631 C318.596019,13.175631 312.978649,13.6967119 304.985167,14.2612452 C303.996426,14.3311167 302.976352,14.39925 301.926686,14.4635595 C301.982389,14.4651238 302.038093,14.4668619 302.093797,14.4684262 C304.361982,14.5369071 306.577945,14.6610071 308.696426,14.7891048 C310.435426,14.8942595 312.087389,15.0181857 313.648834,15.1480214 C320.444686,15.7134238 325.203871,16.2338095 325.203871,16.2338095 C325.203871,16.2338095 320.444686,16.7540214 313.648834,17.3194238 C312.087389,17.4494333 310.435426,17.5731857 308.696426,17.6783405 C308.421389,17.6950262 308.146352,17.7115381 307.867834,17.7278762 C308.245574,17.7469952 308.621574,17.7664619 308.994093,17.7859286 C319.75013,18.3495929 327.343241,18.8717167 327.343241,18.8717167 C327.343241,18.8717167 319.75013,19.3938405 308.992352,19.957331 C306.517019,20.0871667 303.883278,20.2112667 301.129426,20.3162476 C300.95013,20.3230262 300.769093,20.3299786 300.589797,20.3367571 C301.84313,20.4141024 303.056426,20.4980524 304.220982,20.5846095 C311.821056,21.1494905 317.156426,21.6703976 317.156426,21.6703976 C317.156426,21.6703976 311.821056,22.1913048 304.220982,22.7561857 C302.891056,22.8549095 301.501945,22.9501571 300.05713,23.0363667 C301.005834,23.0965048 301.930167,23.1595976 302.826649,23.224081 C310.673908,23.7887881 316.186834,24.309869 316.186834,24.309869 C316.186834,24.309869 310.673908,24.83095 302.826649,25.3956571 C302.013723,25.454231 301.176426,25.5115881 300.318241,25.5665119 C301.265204,25.6320381 302.184315,25.7013881 303.073834,25.7724762 C310.144723,26.3377048 315.102352,26.8582643 315.102352,26.8582643 C315.102352,26.8582643 310.144723,27.3788238 303.073834,27.9440524 C301.449723,28.0738881 299.72813,28.1976405 297.9195,28.3027952 C295.783612,28.4268952 293.553723,28.5471714 291.271612,28.616869 C295.872389,29.0399214 298.852537,29.3731143 298.852537,29.3731143 C298.852537,29.3731143 296.681834,29.6159262 293.184686,29.9501619 C294.523315,29.9423405 295.861945,29.9592 297.184908,30.0023048 C299.285982,30.0706119 301.338315,30.1947119 303.301871,30.3229833 C304.913797,30.4281381 306.443908,30.5518905 307.890463,30.6817262 C314.191945,31.24765 318.596019,31.7675143 318.596019,31.7675143 C318.596019,31.7675143 314.191945,32.2873786 307.890463,32.8533024 C306.443908,32.9831381 304.913797,33.1068905 303.301871,33.2120452 C301.338315,33.3403167 299.285982,33.4644167 297.184908,33.5327238 C295.835834,33.5766976 294.471093,33.5933833 293.106352,33.584519 C293.081982,33.5843452 293.057612,33.5841714 293.033241,33.5839976 C293.090686,33.5906024 293.14813,33.597381 293.205574,33.6041595 C298.081389,34.1723429 301.454945,34.6897738 301.454945,34.6897738 C301.454945,34.6897738 298.081389,35.2073786 293.205574,35.7755619 L293.144649,35.7826881 C293.818315,35.7908571 294.490241,35.8065 295.158686,35.8297905 C297.115278,35.8982714 299.026612,36.0221976 300.85613,36.150469 C302.358389,36.2557976 303.782315,36.3793762 305.129649,36.5093857 C311.004649,37.075831 315.102352,37.5951738 315.102352,37.5951738 C315.102352,37.5951738 311.004649,38.1143429 305.129649,38.6807881 C303.782315,38.8107976 302.358389,38.9343762 300.85613,39.0397048 C299.026612,39.1679762 297.115278,39.2919024 295.158686,39.3603833 C294.711315,39.3760262 294.262204,39.3881929 293.811352,39.3968833 C294.800093,39.4982143 295.731389,39.6141452 296.622649,39.736681 C300.776056,40.3071238 303.622167,40.822469 303.622167,40.822469 C303.622167,40.822469 300.776056,41.3376405 296.622649,41.9080833 C295.673945,42.0384405 294.681723,42.1613238 293.623352,42.267 C292.338686,42.3952714 291.001797,42.5191976 289.62313,42.5876786 C288.742315,42.6314786 287.849315,42.6481643 286.956315,42.6393 C286.287871,42.6326952 285.621167,42.6033214 284.957945,42.5609119 C283.34776,42.4581905 281.784574,42.302631 280.291019,42.147419 C278.849686,41.9975952 277.518019,41.8307381 276.290797,41.6708333 C272.690945,41.2018952 270.292204,40.822469 270.292204,40.822469 C270.292204,40.822469 272.690945,40.442869 276.290797,39.973931 C277.518019,39.8142 278.849686,39.647169 280.291019,39.4973452 C281.662723,39.3548214 283.093612,39.21195 284.566278,39.1099238 C283.648908,39.0490905 282.745463,38.9844333 281.862908,38.9201238 C279.817537,38.7709952 277.906204,38.6029214 276.163723,38.4435381 C271.065093,37.9772071 267.616686,37.5951738 267.616686,37.5951738 C267.616686,37.5951738 271.065093,37.2129667 276.163723,36.7466357 C277.269093,36.6454786 278.442352,36.5408452 279.676537,36.4398619 C279.603426,36.4362119 279.530315,36.4323881 279.458945,36.4283905 C277.565019,36.325669 275.719834,36.1699357 273.959945,36.0148976 C272.264463,35.8654214 270.689093,35.697869 269.246019,35.5383119 C265.016019,35.0707643 262.176871,34.6897738 262.176871,34.6897738 C262.176871,34.6897738 265.016019,34.3089571 269.246019,33.8414095 C270.689093,33.6818524 272.264463,33.5143 273.959945,33.3648238 C275.719834,33.2097857 277.565019,33.0538786 279.458945,32.951331 C279.763574,32.934819 280.068204,32.920219 280.372834,32.9082262 C279.1195,32.8117619 277.923612,32.712169 276.793871,32.6160524 C271.322723,32.150069 267.616686,31.7675143 267.616686,31.7675143 C267.616686,31.7675143 269.980612,31.5236595 273.719723,31.1880333 C273.127871,31.1930738 272.536019,31.193769 271.944167,31.190119 C270.864908,31.1835143 269.785649,31.1541405 268.715093,31.111731 C266.124871,31.0091833 263.588612,30.8531024 261.179426,30.6980643 C258.864241,30.5491095 256.695278,30.3808619 254.721278,30.2216524 C248.947241,29.7558429 245.034056,29.3731143 245.034056,29.3731143 C245.034056,29.3731143 248.947241,28.9903857 254.721278,28.52475 C256.695278,28.3655405 258.864241,28.197119 261.179426,28.0481643 C263.283982,27.9127667 265.484278,27.7766738 267.733315,27.6760381 C261.814797,27.224481 257.8285,26.8582643 257.8285,26.8582643 C257.8285,26.8582643 261.997574,26.4753619 268.137167,26.0097262 C269.540204,25.9033548 271.037241,25.7928119 272.612612,25.6867881 C272.290574,25.669581 271.970278,25.6522 271.651723,25.634819 C268.917019,25.4860381 266.349426,25.3174429 264.016834,25.1584071 C257.201834,24.693119 252.566241,24.309869 252.566241,24.309869 C252.566241,24.309869 257.201834,23.926619 264.016834,23.461331 C266.349426,23.3022952 268.917019,23.1337 271.651723,22.984919 C272.029463,22.9644095 272.407204,22.9439 272.790167,22.9233905 C270.605537,22.7935548 268.54276,22.6529429 266.641871,22.5189357 C260.040982,22.0536476 255.553352,21.6703976 255.553352,21.6703976 C255.553352,21.6703976 260.040982,21.2871476 266.641871,20.8218595 C268.459204,20.6937619 270.426241,20.559581 272.506426,20.4342643 C270.349649,20.3600476 268.232908,20.2781833 266.175352,20.1966667 C262.424056,20.0480595 258.890352,19.8791167 255.690871,19.720081 C246.343093,19.2556619 239.961537,18.8717167 239.961537,18.8717167 C239.961537,18.8717167 246.343093,18.4877714 255.690871,18.0231786 C258.890352,17.8641429 262.424056,17.6953738 266.175352,17.5465929 C270.085056,17.3917286 274.210612,17.2354738 278.409278,17.1331 C279.016797,17.1183262 279.624315,17.1051167 280.233574,17.0939929 L280.083871,17.0821738 C274.18276,16.6165381 270.180797,16.2338095 270.180797,16.2338095 C270.180797,16.2338095 274.18276,15.8509071 280.083871,15.3852714 C281.756723,15.25335 283.567093,15.1149976 285.485389,14.9867262 C284.420056,14.9749071 283.358204,14.9488357 282.299834,14.9140738 C279.182167,14.8117 276.125426,14.6554452 273.225352,14.500581 C270.440167,14.3518 267.823834,14.1832048 265.447723,14.0239952 C258.505649,13.558881 253.781278,13.175631 253.781278,13.175631 C253.781278,13.175631 258.505649,12.7922071 265.447723,12.3270929 C267.473945,12.1913476 269.675982,12.04865 272.008574,11.9174238 C270.008463,11.8275643 268.05013,11.7204976 266.161426,11.6141262 C263.518982,11.4651714 261.038426,11.29675 258.785908,11.1375405 C252.200686,10.6722524 247.725241,10.2891762 247.725241,10.2891762 C247.725241,10.2891762 252.200686,9.90592619 258.785908,9.4406381 C261.038426,9.28142857 263.518982,9.11300714 266.161426,8.96405238 C267.419982,8.8931381 268.70813,8.82205 270.020649,8.75582857 C268.020537,8.64111429 266.121389,8.52014286 264.354537,8.4040381 C257.269723,7.93892381 252.447871,7.5555 252.447871,7.5555 C252.447871,7.5555 257.269723,7.17225 264.354537,6.70713571 C266.777649,6.54792619 269.449686,6.37933095 272.292315,6.23055 C272.478574,6.22081667 272.664834,6.21108333 272.851093,6.20135 C267.700241,5.85981429 264.418945,5.60935476 264.418945,5.60935476 C264.418945,5.60935476 268.440056,5.30223333 274.565723,4.90473095 C273.676204,4.8598881 272.798871,4.81365476 271.933723,4.76759524 C269.141574,4.61881429 266.520019,4.45021905 264.138686,4.29100952 C257.180945,3.82589524 252.447871,3.44264524 252.447871,3.44264524 C252.447871,3.44264524 257.180945,3.05922143 264.140426,2.59410714 C265.754093,2.48617143 267.479167,2.37389048 269.293019,2.26647619 C268.610649,2.21885238 267.943945,2.17122857 267.296389,2.1243 C260.864352,1.6590119 256.493352,1.27593571 256.493352,1.27593571 C256.493352,1.27593571 260.864352,0.892859524 267.296389,0.427397619 C269.258204,0.285569048 271.397574,0.136092857 273.66576,-2.13162821e-14 L301.258241,-2.13162821e-14 Z" id="sun" fill="url(#linearGradient-2)"></path>
        <path d="M339.944353,19.1491788 C339.944353,19.1491788 336.493022,18.905074 331.599733,18.6415092 C330.473582,18.580739 329.276288,18.5227001 328.023467,18.4735378 C326.494748,18.4136211 324.891415,18.3555822 323.256848,18.3236608 C322.205311,18.3031765 321.141628,18.2953242 320.077945,18.2994211 C319.281484,18.3024937 318.485023,18.3163206 317.693768,18.3361221 C315.783303,18.3840896 313.907542,18.4571503 312.130688,18.5295282 C310.424978,18.5990042 308.818174,18.6780395 307.362334,18.7524659 C303.111072,18.9695996 300.211538,19.1491788 300.211538,19.1491788 C300.211538,19.1491788 303.111072,19.328758 307.362334,19.5460625 C308.818174,19.6204888 310.424978,19.6993534 312.130688,19.7688294 C313.907542,19.841378 315.783303,19.9144388 317.693768,19.9622355 C318.485023,19.9822077 319.281484,19.9958639 320.077945,19.9989366 C321.141628,20.0030334 322.205311,19.9953518 323.256848,19.9748675 C324.891415,19.9427754 326.494748,19.8847365 328.023467,19.8248199 C329.276288,19.7756575 330.473582,19.7176186 331.599733,19.6570192 C336.493022,19.3932836 339.944353,19.1491788 339.944353,19.1491788 Z M295.377246,19.1491788 C295.377246,19.1491788 294.334385,18.9105365 292.777903,18.6415092 C292.42392,18.5803976 292.059526,18.5233829 291.663898,18.4735378 C291.186716,18.4136211 290.692181,18.3557529 290.178559,18.3236608 C289.85234,18.3031765 289.51918,18.2953242 289.187755,18.2994211 C288.93962,18.3024937 288.691485,18.3163206 288.445086,18.3361221 C287.846439,18.384431 287.268614,18.4568089 286.713347,18.5295282 C286.175432,18.6000284 285.684368,18.6773567 285.228008,18.7524659 C283.881486,18.9733551 283,19.1491788 283,19.1491788 C283,19.1491788 283.881486,19.3251732 285.228008,19.5460625 C285.684368,19.6210009 286.175432,19.6984999 286.713347,19.7688294 C287.268614,19.8415487 287.846439,19.9140974 288.445086,19.9622355 C288.691485,19.982037 288.93962,19.9958639 289.187755,19.9989366 C289.51918,20.0030334 289.85234,19.9951811 290.178559,19.9748675 C290.692181,19.9426047 291.186716,19.8849072 291.663898,19.8248199 C292.059526,19.7751454 292.42392,19.7181307 292.777903,19.6570192 C294.334385,19.3878211 295.377246,19.1491788 295.377246,19.1491788 Z M32.3772455,6.14917882 C32.3772455,6.14917882 31.334385,5.91053652 29.7779025,5.64150915 C29.4239199,5.58039761 29.059526,5.52338292 28.6638984,5.47353775 C28.1867159,5.41362112 27.6921813,5.35575293 27.1785595,5.32366083 C26.8523402,5.30317651 26.5191801,5.29532419 26.1877552,5.29942105 C25.9396203,5.3024937 25.6914854,5.31632061 25.4450857,5.33612212 C24.8464386,5.38443097 24.2686141,5.45680889 23.7133472,5.52952822 C23.1754324,5.60002841 22.6843683,5.67735671 22.2280083,5.75246587 C20.8814862,5.97335509 20,6.14917882 20,6.14917882 C20,6.14917882 20.8814862,6.32517324 22.2280083,6.54606246 C22.6843683,6.62100093 23.1754324,6.69849993 23.7133472,6.76882942 C24.2686141,6.84154874 24.8464386,6.91409737 25.4450857,6.96223551 C25.6914854,6.98203702 25.9396203,6.99586393 26.1877552,6.99893658 C26.5191801,7.00303344 26.8523402,6.99518112 27.1785595,6.97486751 C27.6921813,6.94260471 28.1867159,6.88490721 28.6638984,6.82481988 C29.059526,6.77514541 29.4239199,6.71813073 29.7779025,6.65701918 C31.334385,6.38782111 32.3772455,6.14917882 32.3772455,6.14917882 Z M251.549338,15.2102153 C251.549338,15.2102153 249.307448,14.9667933 246.107722,14.7023749 C245.373729,14.6416048 244.59462,14.5837366 243.777337,14.5345742 C242.779591,14.4746576 241.734996,14.4166187 240.667842,14.3846973 C239.982435,14.3640423 239.288351,14.3563607 238.596003,14.3604575 C238.07544,14.3635302 237.556612,14.3771864 237.041255,14.3971586 C235.79364,14.4449553 234.573788,14.5180161 233.414669,14.5905647 C232.298929,14.6602114 231.256069,14.7389053 230.305174,14.8133316 C227.527105,15.0311482 225.642668,15.2102153 225.642668,15.2102153 C225.642668,15.2102153 227.527105,15.3891117 230.305174,15.6069282 C231.256069,15.6815253 232.298929,15.7602192 233.414669,15.8298659 C234.573788,15.9022438 235.79364,15.9753045 237.041255,16.023272 C237.556612,16.0430735 238.07544,16.0569004 238.596003,16.0599731 C239.288351,16.0640699 239.982435,16.0562176 240.667842,16.0357333 C241.734996,16.0038119 242.779591,15.945773 243.777337,15.8858564 C244.59462,15.8365233 245.373729,15.7786551 246.107722,15.717885 C249.307448,15.4534666 251.549338,15.2102153 251.549338,15.2102153 Z M341.643122,10.6020974 C341.643122,10.6020974 333.416496,10.3574805 321.811419,10.094257 C319.135727,10.0336576 316.284778,9.97544801 313.31063,9.92645635 C309.675367,9.86653972 305.863113,9.80850082 301.97798,9.77657942 C299.47928,9.7559244 296.95108,9.74824279 294.422881,9.75233965 C292.529768,9.7554123 290.636655,9.76923921 288.757423,9.78904072 C284.221587,9.83683746 279.75863,9.91006889 275.535131,9.98244681 C271.485153,10.0519228 267.659018,10.1309581 264.202481,10.2052138 C254.113976,10.4221768 247.202639,10.6020974 247.202639,10.6020974 C247.202639,10.6020974 254.113976,10.782018 264.202481,10.9989811 C267.659018,11.0732367 271.485153,11.152272 275.535131,11.221748 C279.75863,11.2941259 284.221587,11.3673574 288.757423,11.4151541 C290.636655,11.4349556 292.529768,11.4487825 294.422881,11.4518552 C296.95108,11.455952 299.47928,11.4482704 301.97798,11.4276154 C305.863113,11.395694 309.675367,11.3376551 313.31063,11.2777385 C316.284778,11.2287468 319.135727,11.1705372 321.809684,11.1099378 C333.416496,10.8467143 341.643122,10.6020974 341.643122,10.6020974 Z M178.726088,9.50055325 C178.726088,9.50055325 174.38286,9.25610706 168.24022,8.99271288 C166.824289,8.93211344 165.318128,8.87390384 163.746029,8.82491218 C161.823417,8.76499555 159.807104,8.70678595 157.752617,8.67486456 C156.432123,8.65438024 155.094277,8.64652792 153.758166,8.65079549 C152.75695,8.65386813 151.755735,8.66752434 150.76146,8.68732585 C148.363401,8.73529329 146.005252,8.80835403 143.770303,8.88073195 C141.62732,8.95037863 139.607537,9.02924325 137.778626,9.1036696 C132.439389,9.32080336 128.790244,9.50055325 128.790244,9.50055325 C128.790244,9.50055325 132.439389,9.68013243 137.778626,9.89726619 C139.607537,9.97169255 141.62732,10.0507279 143.770303,10.1202038 C146.005252,10.1925818 148.363401,10.2656425 150.76146,10.3136099 C151.755735,10.3334115 152.75695,10.3470677 153.758166,10.350311 C155.094277,10.3544079 156.432123,10.3465556 157.752617,10.3260712 C159.807104,10.2941498 161.823417,10.2359402 163.746029,10.1760236 C165.318128,10.127032 166.824289,10.0689931 168.24022,10.0082229 C174.38286,9.74482873 178.726088,9.50055325 178.726088,9.50055325 Z M410.414659,9.50055325 C410.414659,9.50055325 406.963328,9.25627776 402.070039,8.99271288 C400.945624,8.93194274 399.746594,8.87390384 398.495509,8.82491218 C396.965054,8.76499555 395.361721,8.70678595 393.727154,8.67486456 C392.675618,8.65438024 391.611935,8.64652792 390.548252,8.65079549 C389.751791,8.65386813 388.95533,8.66752434 388.164075,8.68732585 C386.253609,8.73529329 384.379584,8.80835403 382.600995,8.88073195 C380.895284,8.95037863 379.288481,9.02924325 377.83264,9.1036696 C373.583114,9.32097407 370.681844,9.50055325 370.681844,9.50055325 C370.681844,9.50055325 373.583114,9.67996173 377.83264,9.89726619 C379.288481,9.97169255 380.895284,10.0505572 382.600995,10.1202038 C384.379584,10.1925818 386.253609,10.2656425 388.164075,10.3136099 C388.95533,10.3334115 389.751791,10.3470677 390.548252,10.350311 C391.611935,10.3544079 392.675618,10.3465556 393.727154,10.3260712 C395.361721,10.2941498 396.965054,10.2361109 398.495509,10.1760236 C399.746594,10.127032 400.945624,10.0689931 402.070039,10.0082229 C406.963328,9.74465803 410.414659,9.50055325 410.414659,9.50055325 Z M233.105801,6.35262578 C233.105801,6.35262578 231.224835,6.10988662 228.52485,5.84495612 C227.90538,5.78418598 227.251206,5.72631778 226.562328,5.67715542 C225.722487,5.61706809 224.844472,5.55919989 223.943898,5.5271078 C223.367809,5.50662348 222.783043,5.49877116 222.200013,5.50286802 C221.76274,5.50611137 221.325468,5.51976758 220.891666,5.53956909 C219.840129,5.58753653 218.81462,5.66059726 217.837698,5.73297518 C216.897214,5.80279257 216.020934,5.88131578 215.219267,5.95591284 C212.876735,6.17407082 211.294225,6.35262578 211.294225,6.35262578 C211.294225,6.35262578 212.876735,6.53135145 215.219267,6.74950943 C216.020934,6.82410649 216.897214,6.9026297 217.837698,6.97244709 C218.81462,7.04482501 219.840129,7.11788574 220.891666,7.16585318 C221.325468,7.18565469 221.76274,7.1993109 222.200013,7.20238355 C222.783043,7.20665111 223.367809,7.19879879 223.943898,7.17831447 C224.844472,7.14622238 225.722487,7.08835418 226.562328,7.02826685 C227.251206,6.97910449 227.90538,6.92123629 228.52485,6.86046615 C231.224835,6.59553565 233.105801,6.35262578 233.105801,6.35262578 Z M457.765041,6.31270527 C457.765041,6.31270527 456.690947,6.07372157 455.09282,5.80503561 C454.728426,5.74392406 454.353621,5.68690938 453.947582,5.63706421 C453.456517,5.57714758 452.946366,5.51927938 452.418863,5.48718729 C452.082232,5.46670297 451.742131,5.45885065 451.400295,5.46294751 C451.145219,5.46602016 450.890143,5.47984707 450.636803,5.49964858 C450.020804,5.54795743 449.427362,5.62033535 448.854743,5.69305468 C448.302947,5.76338416 447.798001,5.84105387 447.327759,5.91599233 C445.944798,6.13654015 445.037284,6.31270527 445.037284,6.31270527 C445.037284,6.31270527 445.944798,6.4888704 447.327759,6.70958892 C447.798001,6.78452738 448.302947,6.86202638 448.854743,6.93235587 C449.427362,7.0050752 450.020804,7.07762382 450.636803,7.12576197 C450.890143,7.14556348 451.145219,7.15939039 451.400295,7.16246304 C451.742131,7.1665599 452.082232,7.15887828 452.418863,7.13839397 C452.946366,7.10613117 453.456517,7.04843367 453.947582,6.98834634 C454.353621,6.93867187 454.728426,6.88165719 455.09282,6.82054564 C456.690947,6.55168898 457.765041,6.31270527 457.765041,6.31270527 Z M309.180833,3.85080783 C309.180833,3.85080783 303.643781,3.60636164 295.823194,3.34296746 C294.022047,3.28236802 292.102906,3.22432912 290.100475,3.17516676 C287.652095,3.11525013 285.083986,3.05721123 282.467291,3.02528984 C280.785873,3.00480552 279.081898,2.9969532 277.379658,3.00105006 C276.106015,3.00412271 274.830636,3.01794963 273.563934,3.03775113 C270.509966,3.08554787 267.504584,3.15877931 264.660576,3.23115723 C261.931093,3.30063321 259.356043,3.37966853 257.029127,3.45409488 C250.230579,3.67105794 245.580219,3.85080783 245.580219,3.85080783 C245.580219,3.85080783 250.230579,4.03055771 257.027392,4.24769148 C259.356043,4.32194713 261.931093,4.40098245 264.660576,4.47045843 C267.504584,4.54283635 270.509966,4.61606778 273.563934,4.66386452 C274.830636,4.68383673 276.106015,4.69749294 277.379658,4.70056559 C279.081898,4.70466246 280.785873,4.69698084 282.467291,4.67632582 C285.083986,4.64440442 287.652095,4.58636552 290.100475,4.52644889 C292.102906,4.47745724 294.022047,4.41924763 295.823194,4.35864819 C303.643781,4.09525401 309.180833,3.85080783 309.180833,3.85080783 Z" id="highlights" fill="#FF9886"></path>
    </g>
</svg>