<?xml version="1.0" encoding="UTF-8"?>
<svg width="480px" height="79px" viewBox="0 0 480 79" version="1.1" xmlns="http://www.w3.org/2000/svg" xmlns:xlink="http://www.w3.org/1999/xlink">
    <title>seascape/small/sky</title>
    <g id="seascape/small/sky" stroke="none" stroke-width="1" fill="none" fill-rule="evenodd">
        <path d="M256.246737,79 C254.796047,75.3501331 254,71.3744224 254,67.2156299 C254,49.4352477 268.562765,35 286.5,35 C304.437235,35 319,49.4352477 319,67.2156299 C319,71.3744224 318.202208,75.3501331 316.753263,79 L256.246737,79 Z" id="sun" fill="#FF9886"></path>
        <path d="M-291.794413,5.9425164 C-287.004201,4.26786813 -284.059193,6.31354419 -282.271381,10.6919145 C-275.801725,12.7879963 -273.65864,17.8495289 -274.228396,24.7705308 C-271.263447,20.8418281 -268.574707,20.4927987 -266.120563,23.1809314 C-262.704283,13.0157748 -246.24778,13.2296961 -245.399736,26.7346223 C-242.645108,25.1510855 -240.502717,25.7514507 -238.83697,28.0519269 C-237.666943,23.7987914 -234.803774,22.9245723 -231.332704,23.2635552 C-235.367981,17.3816736 -234.608885,9.44199086 -228.208411,7.94021174 C-223.066567,6.73359198 -221.103286,9.43488902 -220.242584,14.156053 C-212.134808,7.40989491 -202.558935,17.5524864 -204.178311,27.7416097 L-204.230823,28.0503679 L-204.230823,28.0503679 C-201.008566,18.7854127 -189.988148,20.288924 -188.131848,31.4597703 C-181.271374,32.0700088 -179.667528,37.2231724 -181.529723,45.3729657 C-176.848226,43.3615863 -173.149843,44.5531363 -170.826434,50.2053341 C-163.637735,47.5974002 -159.99657,51.5707925 -158.659743,59.8259009 C-148.960374,57.5721929 -145.046989,61.6088089 -144.722752,69.5486648 C-137.353729,62.8488592 -130.357492,61.3129566 -124.118963,70.2924526 C-121.561479,63.2243906 -116.947603,61.2897458 -110.553025,63.8074343 C-108.290301,52.0017529 -99.2498098,52.7062207 -96.7963585,64.5706221 C-97.422292,58.1334114 -89.4498757,54.2220303 -85.9890356,59.3689581 C-90.2127864,30.5448455 -59.0184103,28.6978478 -54.4392125,43.4965212 C-51.5626926,39.8742369 -46.7910332,41.0616298 -46.3974407,45.0424703 C-40.0722179,33.8697187 -20.7393684,39.5459934 -22.1091398,51.6461413 C-21.8317178,51.5221189 -21.5525618,51.4098752 -21.2734059,51.3102763 C-21.4676013,43.6894834 -11.7439583,38.8947028 -5.85914301,42.0058279 C-4.92284358,36.5718818 5.7735105,34.9420964 7.46751892,40.6725876 C6.88319872,34.7448038 16.0693365,31.335055 18.8730331,37.3652092 C21.4270499,36.4726293 22.9962184,37.5630214 23.9481228,39.8964085 C27.3968257,41.0136491 28.5394578,43.7111354 28.2360275,47.3997612 C29.8155993,45.3059312 31.2477906,45.1200709 32.556876,46.5525638 C34.3774582,41.1349 43.1474629,41.2488758 43.6000076,48.446503 C45.0686106,47.6025967 46.2095088,47.9226991 47.0972594,49.148719 C47.721459,46.8818466 49.2472803,46.4160699 51.0973386,46.5965606 C48.9473177,43.4618781 49.3513136,39.2302214 52.761871,38.4297922 C55.5031476,37.7868159 56.548682,39.2265839 57.0081623,41.7427135 C61.3178055,38.1559578 66.4086037,43.5267883 65.5751363,48.9440358 L65.54,49.148 L65.620158,48.9323937 C67.4297583,44.2346864 73.1463622,45.0987861 74.1216352,50.9648844 C77.7784047,51.2901833 78.6332114,54.0366896 77.6396937,58.3802436 C80.1364922,57.3082123 82.1061887,57.9432207 83.3459185,60.9556129 C87.1760768,59.565731 89.1162973,61.6832916 89.8289252,66.0829674 C94.9993787,64.8818906 97.0852458,67.0332281 97.2569007,71.2648848 C101.184157,67.6942188 104.913749,66.8756019 108.237612,71.6613753 C109.602182,67.8942828 112.060835,66.8631304 115.467925,68.2050315 C116.674711,61.9131486 121.493185,62.2885068 122.800536,68.6117417 C122.465896,65.1810339 126.715655,63.0963843 128.560512,65.8394263 C126.308191,50.4772825 142.934442,49.4928984 145.374022,57.3800968 C146.908513,55.4494359 149.450392,56.0823656 149.661927,58.2040833 C153.032605,52.2494512 163.335366,55.2746614 162.605399,61.7234776 C168.490215,59.087656 176.369001,66.6060785 173.244535,72.6857723 C179.118947,66.0292706 190.257443,70.9612379 192,79 L-355,79 L-355,14.8539386 C-349.497334,12.3942773 -343.131018,12.0429961 -338.201574,14.6497174 C-336.442719,4.45407489 -316.372273,1.39595374 -313.193537,12.1481379 C-314.292128,1.02579203 -297.055202,-5.37192559 -291.794413,5.9425164 Z M565.172859,28.7950948 C567.219549,21.8957999 580.139711,23.857972 581.272328,30.4002729 C590.141345,25.7259094 606.23352,35.8745546 597.252719,48.9564672 L596.972866,49.3537744 L596.972866,49.3537744 C602.0046,42.7080195 609.390028,41.7183843 613.552786,48.5776102 C614.772128,47.8088726 616.412948,47.8124995 618,48.3608576 L618,79 L342.087157,79 C340.670085,67.1003699 356.887498,58.2511654 364.933764,67.3378479 C361.159529,60.0180011 370.676636,50.9662063 377.784547,54.1396022 C376.903429,46.3753695 389.348343,42.7330626 393.419174,49.9023052 C393.674143,47.3479063 396.745912,46.5859044 398.59834,48.910252 C401.545226,39.4144166 421.627067,40.599561 418.907398,59.0950324 C421.136208,55.7924485 426.268543,58.3022879 425.866143,62.4328493 C427.444522,54.8197389 433.263712,54.3677537 434.720677,61.9430403 C438.838339,60.3274996 441.807774,61.5689478 443.453798,66.1043444 C447.47086,60.3425255 451.973577,61.3280157 456.719122,65.6269706 C456.92726,60.5323351 459.445729,57.942185 465.691601,59.388296 C466.55017,54.091243 468.895191,51.5416801 473.522791,53.215079 C475.019649,49.5883162 477.39936,48.8237237 480.413891,50.1143946 C479.213629,44.8848717 480.245646,41.5783155 484.663373,41.1866064 C485.843111,34.1106412 492.771538,33.0797378 494.944669,38.7737955 L495.026908,38.9990462 L495.026908,38.9990462 C493.826646,32.3954328 500.062111,25.7109906 505.334939,30.0835205 C505.888239,27.0541658 507.152677,25.320836 510.463804,26.0949277 C514.583201,27.0586563 515.072325,32.1532917 512.47407,35.9273772 C514.708084,35.7099338 516.551839,36.2708998 517.304604,39.0000824 C518.378249,37.5239197 519.757163,37.1386009 521.529804,38.154661 C522.076166,29.4890485 532.670387,29.3517431 534.869711,35.8743548 C536.449825,34.1496606 538.180839,34.3734944 540.08877,36.8943873 C539.722794,32.4534638 541.101707,29.2056294 545.266201,27.8607271 C546.417897,25.0512338 548.313687,23.7384559 551.397597,24.813065 C554.783307,17.5529764 565.880528,21.658322 565.172859,28.7950948 Z M-204.231,28.051 C-204.460737,28.7111854 -204.651118,29.4282979 -204.795551,30.2006662 C-204.597471,29.6311333 -204.438342,29.0574988 -204.315855,28.482157 L-204.231,28.051 Z" id="clouds" fill="#FFFFFF"></path>
    </g>
</svg>